<svg data-name="Layer 1" xmlns="http://www.w3.org/2000/svg" viewBox="0 0 800.91 800.91">
  <defs/>
  <rect x="30.73" y="30.73" width="739.46" height="739.46" rx="167.45" fill="none" stroke="currentColor" stroke-miterlimit="10" stroke-width="65"/>
  <path fill="currentColor" d="M125.75 567.49l31.16-218c.35-2.1 0-3.5-2.45-3.5H131.7l4.55-35h25.91l3.15-22.4c6.65-46.9 32.55-63.7 70.7-63.7 22.05 0 47.25 8.4 60.2 18.55L277 275.94c-5.6-3.5-20.3-12.6-35.35-12.6s-22.4 8.05-24.5 23.45l-2.8 20.65c-.35 2.45-.35 3.5 2.45 3.5h53.9l-4.9 35h-56.7l-31.19 221.55zM319.3 553.84c-19.95-32.2-36.75-81.55-36.75-132.65 0-76.65 39.55-137.9 85.4-188.3l35.71 23.45C357.11 314.09 338.2 362.39 338.2 425c0 41.65 10.15 74.9 24.85 106.05zM523.36 493.29l-3.85-3.15-15.75-29.05-18.9-32.2-31.86 35.7 18.55 3.15-2.8 25.55h-81.9l2.8-25.2 15.4-2.8c4.2-.7 6.3-2.1 9.8-6L466.3 403 431 346.29c-2.1-3.5-3.15-4.9-7-6l-13.65-3.15 4.2-26.25h55.66l3.5 2.8 16.45 31.5 15.4 25.9 30.44-31.8-17.15-2.45 4.55-25.9h79.45l-3.5 25.9-15.4 3.5c-4.2.7-5.95 2.45-9.8 6.65l-50.05 50.4 38.15 61.25c2.45 3.85 3.85 5.6 7.7 6.3l17.85 2.8-4.2 25.55zM588.8 530.39c46.9-57.75 65.45-106 65.45-168.7 0-41.65-10.15-74.55-24.5-106l43.4-22.75c20.3 32.2 36.75 81.55 36.75 133 0 76.3-39.55 137.55-85 188z"/>
</svg>
