<svg id="Layer_1" dataName="Layer 1" xmlns="http://www.w3.org/2000/svg" viewBox="0 0 800 800">
  <circle cx="195" cy="605" r="172.5"/>
  <path d="M195 455a150 150 0 11-106.07 43.93A149 149 0 01195 455m0-45C87.3 410 0 497.3 0 605s87.3 195 195 195 195-87.3 195-195-87.3-195-195-195z"/>
  <circle class="cls-1" fill="currentColor" cx="195" cy="195" r="172.5"/>
  <path d="M195 45A150 150 0 1188.93 88.93 149 149 0 01195 45m0-45C87.3 0 0 87.3 0 195s87.3 195 195 195 195-87.3 195-195S302.7 0 195 0z"/>
  <g>
    <circle class="cls-1" fill="currentColor" cx="605" cy="195" r="172.5"/>
    <path d="M605 45a150 150 0 11-106.07 43.93A149 149 0 01605 45m0-45C497.3 0 410 87.3 410 195s87.3 195 195 195 195-87.3 195-195S712.7 0 605 0z"/>
  </g>
  <g>
    <circle class="cls-1" fill="currentColor" cx="605" cy="605" r="172.5"/>
    <path d="M605 455a150 150 0 11-106.07 43.93A149 149 0 01605 455m0-45c-107.7 0-195 87.3-195 195s87.3 195 195 195 195-87.3 195-195-87.3-195-195-195z"/>
  </g>
</svg>
