<svg xmlns="http://www.w3.org/2000/svg" viewBox="0 0 48 48"><g id="aac9d353-1b43-4fa7-b48c-bb360ae3dd4b"><path d="M6,16H42V29h2V10a2,2,0,0,0-2-2H6a2,2,0,0,0-2,2V38a2,2,0,0,0,2,2H28V38H6Zm36-6v4H6V10ZM8,12a1,1,0,1,1,1,1A1,1,0,0,1,8,12ZM40.956,36.542,44,35.781V33.313l-14.248-5.48-1.919,1.919L33.313,44h2.468l.761-3.044L40,44.414,44.414,40Zm-5.5.5L34.4,41.263,30.167,30.248l.081-.081L41.264,34.4l-4.22,1.055L41.586,40,40,41.586ZM12,28a2,2,0,0,0-2,2v4a2,2,0,0,0,2,2h4a2,2,0,0,0,2-2V30a2,2,0,0,0-2-2Zm0,6V30h4v4ZM37,23H20V21H37ZM20,31h6v2H20Zm-.231-12.36L14.469,25H12.52l-2.3-2.875,1.562-1.25L13.531,23l4.7-5.64ZM12,12a1,1,0,1,1,1,1A1,1,0,0,1,12,12Z"/></g></svg>
