<svg xmlns="http://www.w3.org/2000/svg" viewBox="0 0 48 48"><g id="fa6e0b98-4a8f-40d4-93b4-57095eb27c36"><path d="M10,19a3.314,3.314,0,0,0,3.5-3.5A3.314,3.314,0,0,0,10,12a3.314,3.314,0,0,0-3.5,3.5A3.314,3.314,0,0,0,10,19Zm0-5a1.344,1.344,0,0,1,1.5,1.5A1.344,1.344,0,0,1,10,17a1.344,1.344,0,0,1-1.5-1.5A1.344,1.344,0,0,1,10,14Zm12.756,5.658,5.951-5.951-1.414-1.414L21.386,18.2C18.629,20,13.849,20,10,20c-3.7,0-6,1.916-6,5v9H6v8h8V25.766A15.377,15.377,0,0,0,22.756,19.658Zm-10,4.372L12,24.219V40H8V32H6V25c0-2.479,2.175-3,4-3a43.031,43.031,0,0,0,8.338-.548A15.226,15.226,0,0,1,12.757,24.03ZM42,30v2H16V30H38V8H12v2H10V6H40V30ZM28,29V27h6v2Z"/></g></svg>
