<svg id="Layer_1" data-name="Layer 1" xmlns="http://www.w3.org/2000/svg" viewBox="0 0 1179.89 256"><defs><style>.cls-1{fill:#080808;}.cls-2{fill:none;stroke:#707070;}.cls-3{isolation:isolate;}.cls-4{fill:#fff;}</style></defs><g id="Rectangle_1" data-name="Rectangle 1"><rect class="cls-1" width="256" height="256" rx="44"/><rect class="cls-2" x="0.5" y="0.5" width="255" height="255" rx="43.5"/></g><g id="Homework" class="cls-3"><g class="cls-3"><path class="cls-1" d="M508,337.89H452.88v49H428V270.16h24.85V316H508V270.16h25V386.89H508Z" transform="translate(-102.48 -204.89)"/><path class="cls-1" d="M550,344.54c0-24,16.8-44.28,44.62-44.28,28,0,44.8,20.3,44.8,44.28,0,24.15-16.8,44.45-44.8,44.45C566.81,389,550,368.69,550,344.54Zm66.32,0c0-13.13-7.87-24.5-21.7-24.5s-21.52,11.37-21.52,24.5c0,13.3,7.7,24.67,21.52,24.67S616.33,357.84,616.33,344.54Z" transform="translate(-102.48 -204.89)"/><path class="cls-1" d="M760.71,333.51c0-7.87-3.5-13.47-12.6-13.47-7.88,0-14.35,5.25-17.5,9.8v57.05h-22.4V333.51c0-7.87-3.5-13.47-12.6-13.47-7.7,0-14.18,5.25-17.51,10v56.88H655.88V302.36H678.1v11c3.5-5.08,14.7-13.13,27.65-13.13,12.43,0,20.31,5.78,23.46,15.4,4.9-7.7,16.1-15.4,29-15.4,15.57,0,24.85,8.23,24.85,25.55v61.08h-22.4Z" transform="translate(-102.48 -204.89)"/><path class="cls-1" d="M843.3,300.26c25.2,0,42.35,18.9,42.35,46.55v4.9H822.83c1.4,10.68,10,19.6,24.32,19.6,7.88,0,17.15-3.15,22.58-8.4l9.8,14.35C871.13,385,857.83,389,844.7,389c-25.72,0-45.15-17.33-45.15-44.45C799.55,320,817.58,300.26,843.3,300.26Zm-20.82,36.4h41.65c-.53-8.05-6.13-18.72-20.83-18.72C829.48,317.94,823.53,328.26,822.48,336.66Z" transform="translate(-102.48 -204.89)"/><path class="cls-1" d="M958.1,329.31l-17.85,57.58h-23.8l-25.72-84.53h23.1l15.75,56.88,18.55-56.88H967.9l18.55,56.88,15.75-56.88h23.1l-25.72,84.53H976Z" transform="translate(-102.48 -204.89)"/><path class="cls-1" d="M1030.9,344.54c0-24,16.8-44.28,44.63-44.28,28,0,44.8,20.3,44.8,44.28,0,24.15-16.8,44.45-44.8,44.45C1047.7,389,1030.9,368.69,1030.9,344.54Zm66.33,0c0-13.13-7.88-24.5-21.7-24.5S1054,331.41,1054,344.54c0,13.3,7.7,24.67,21.53,24.67S1097.23,357.84,1097.23,344.54Z" transform="translate(-102.48 -204.89)"/><path class="cls-1" d="M1136.77,302.36H1159v11.55c6-7.52,16.45-13.47,27-13.47v21.7a28,28,0,0,0-6.12-.7c-7.36,0-17.16,4.2-20.83,9.62v55.83h-22.23Z" transform="translate(-102.48 -204.89)"/><path class="cls-1" d="M1232.15,354.34,1222,365.19v21.7h-22.23V270.16H1222V340l32-37.63h27.3l-33.42,38.33,34.47,46.2h-27.82Z" transform="translate(-102.48 -204.89)"/></g></g><g id="Group_4" data-name="Group 4"><path id="Path_1" data-name="Path 1" class="cls-4" d="M174.07,271.27,214,247.36a3.26,3.26,0,0,1,4.94,2.79v74.76a3.25,3.25,0,0,1-3.26,3.25,3.3,3.3,0,0,1-1.57-.4l-39.94-22.08a3.24,3.24,0,0,1-1.68-2.85V274.06A3.26,3.26,0,0,1,174.07,271.27Z" transform="translate(-102.48 -204.89)"/><path id="Path_2" data-name="Path 2" class="cls-4" d="M172.48,333.94v43.24a3.25,3.25,0,0,0,4.87,2.82l36.82-21a3.26,3.26,0,0,0,1.22-4.44,3.3,3.3,0,0,0-1.15-1.17l-36.82-22.23a3.26,3.26,0,0,0-4.47,1.11A3.2,3.2,0,0,0,172.48,333.94Z" transform="translate(-102.48 -204.89)"/><path id="Path_3" data-name="Path 3" class="cls-4" d="M241.48,415.59V311.94a3.25,3.25,0,0,1,1.57-2.79L283,285a3.25,3.25,0,0,1,4.94,2.79v105a3.27,3.27,0,0,1-1.64,2.83l-39.94,22.76" transform="translate(-102.48 -204.89)"/></g></svg>