<svg xmlns="http://www.w3.org/2000/svg" width="256" height="256" viewBox="0 0 256 256">
  <defs>
    <style>
      .cls-1 {
        fill: #080808;
        stroke: #707070;
      }

      .cls-2 {
        fill: #fff;
      }

      .cls-3 {
        stroke: none;
      }

      .cls-4 {
        fill: none;
      }
    </style>
  </defs>
  <g id="Group_9" data-name="Group 9" transform="translate(-463 -412)">
    <g id="Rectangle_4" data-name="Rectangle 4" class="cls-1" transform="translate(463 412)">
      <rect class="cls-3" width="256" height="256" rx="44"/>
      <rect class="cls-4" x="0.5" y="0.5" width="255" height="255" rx="43.5"/>
    </g>
    <g id="Group_7" data-name="Group 7" transform="translate(-408.547 348.942)">
      <path id="Path_1" data-name="Path 1" class="cls-2" d="M943.13,129.44l39.938-23.914A3.256,3.256,0,0,1,988,108.32v74.758a3.256,3.256,0,0,1-4.831,2.85l-39.938-22.074a3.256,3.256,0,0,1-1.681-2.85v-28.77A3.256,3.256,0,0,1,943.13,129.44Z"/>
      <path id="Path_2" data-name="Path 2" class="cls-2" d="M941.547,314.17v43.238a3.256,3.256,0,0,0,4.87,2.828l36.817-21.01a3.256,3.256,0,0,0,.069-5.616l-36.818-22.228A3.256,3.256,0,0,0,941.547,314.17Z" transform="translate(0 -122.062)"/>
      <path id="Path_3" data-name="Path 3" class="cls-2" d="M1111.05,328.591V224.939a3.256,3.256,0,0,1,1.571-2.786l39.932-24.147a3.256,3.256,0,0,1,4.941,2.787V305.833a3.256,3.256,0,0,1-1.644,2.829l-39.932,22.758" transform="translate(-100.51 -54.833)"/>
    </g>
  </g>
</svg>
