<?xml version="1.0" encoding="utf-8"?>
<!-- Generator: Adobe Illustrator 23.0.1, SVG Export Plug-In . SVG Version: 6.00 Build 0)  -->
<svg version="1.1" xmlns="http://www.w3.org/2000/svg" xmlns:xlink="http://www.w3.org/1999/xlink" x="0px" y="0px"
	 viewBox="0 0 3000 2250" style="enable-background:new 0 0 3000 2250;" xml:space="preserve">
<style type="text/css">
	.st0{fill:#FFFFFF;}
	.st1{fill:none;stroke:#231F20;stroke-width:5;stroke-miterlimit:10;}
	.st2{fill:#FFFFFF;stroke:#231F20;stroke-width:5;stroke-miterlimit:10;}
	.st3{fill:#231F20;}
	.st4{clip-path:url(#SVGID_2_);fill:#FFFFFF;}
	.st5{clip-path:url(#SVGID_2_);fill:none;stroke:#FFFFFF;stroke-width:5;stroke-miterlimit:10;}
	.st6{clip-path:url(#SVGID_4_);fill:none;stroke:#FFFFFF;stroke-width:5;stroke-miterlimit:10;}
	.st7{clip-path:url(#SVGID_4_);fill:#FFFFFF;}
	.st8{clip-path:url(#SVGID_6_);fill:none;stroke:#FFFFFF;stroke-width:5;stroke-miterlimit:10;}
	.st9{fill:#231F20;stroke:#231F20;stroke-width:5;stroke-miterlimit:10;}
	.st10{clip-path:url(#SVGID_8_);fill:none;stroke:#FFFFFF;stroke-width:5;stroke-miterlimit:10;}
	.st11{clip-path:url(#SVGID_10_);fill:none;stroke:#FFFFFF;stroke-width:5;stroke-miterlimit:10;}
	.st12{clip-path:url(#SVGID_12_);fill:#FFFFFF;}
	.st13{clip-path:url(#SVGID_12_);fill:none;stroke:#FFFFFF;stroke-width:5;stroke-miterlimit:10;}
	.st14{fill:none;stroke:#FFFFFF;stroke-width:5;stroke-miterlimit:10;}
	.st15{clip-path:url(#SVGID_14_);fill:none;stroke:#FFFFFF;stroke-width:5;stroke-miterlimit:10;}
	.st16{fill:none;stroke:#231F20;stroke-width:5;stroke-linejoin:round;stroke-miterlimit:10;}
	.st17{clip-path:url(#SVGID_16_);fill:#FFFFFF;}
	.st18{clip-path:url(#SVGID_16_);fill:none;stroke:#FFFFFF;stroke-width:5;stroke-linejoin:round;stroke-miterlimit:10;}
	.st19{clip-path:url(#SVGID_18_);fill:none;stroke:#FFFFFF;stroke-width:5;stroke-miterlimit:10;}
	.st20{fill:#FFFFFF;stroke:#231F20;stroke-width:5;stroke-linejoin:round;stroke-miterlimit:10;}
	.st21{clip-path:url(#SVGID_20_);fill:none;stroke:#FFFFFF;stroke-width:5;stroke-linejoin:round;stroke-miterlimit:10;}
	.st22{clip-path:url(#SVGID_22_);fill:none;stroke:#FFFFFF;stroke-width:5;stroke-miterlimit:10;}
</style>
<g id="back">
	<rect x="-9942.2" y="7742.17" class="st0" width="3000" height="2250"/>
	<rect x="-6624.19" y="7742.17" class="st0" width="3000" height="2250"/>
	<rect x="-3292.68" y="7742.17" class="st0" width="3000" height="2250"/>
	<rect y="7742.17" class="st0" width="3000" height="2250"/>
	<rect x="-9942.2" y="5164.23" class="st0" width="3000" height="2250"/>
	<rect x="-6624.19" y="5164.23" class="st0" width="3000" height="2250"/>
	<rect x="-3292.68" y="5164.23" class="st0" width="3000" height="2250"/>
	<rect y="5164.23" class="st0" width="3000" height="2250"/>
	<rect x="-9942.2" y="2564" class="st0" width="3000" height="2250"/>
	<rect x="-6624.19" y="2564" class="st0" width="3000" height="2250"/>
	<rect x="-3292.68" y="2564" class="st0" width="3000" height="2250"/>
	<rect y="2564" class="st0" width="3000" height="2250"/>
	<rect x="-9942.2" class="st0" width="3000" height="2250"/>
	<rect x="-6624.19" class="st0" width="3000" height="2250"/>
	<rect x="-3292.68" class="st0" width="3000" height="2250"/>
	<rect class="st0" width="3000" height="2250"/>
	<rect x="-9942.2" y="-2562.93" class="st0" width="3000" height="2250"/>
	<rect x="-6624.19" y="-2562.93" class="st0" width="3000" height="2250"/>
	<rect x="-3292.68" y="-2562.93" class="st0" width="3000" height="2250"/>
	<rect y="-2562.93" class="st0" width="3000" height="2250"/>
</g>
<g id="illustrations">
	<g>
		<g>
			<ellipse class="st1" cx="-5562.05" cy="-2002.04" rx="523.76" ry="111.87"/>
			<ellipse class="st1" cx="-5562.05" cy="-1890.17" rx="523.76" ry="111.87"/>
			<ellipse class="st1" cx="-5562.05" cy="-1778.3" rx="523.76" ry="111.87"/>
			<ellipse class="st1" cx="-5562.05" cy="-1666.43" rx="523.76" ry="111.87"/>
			<ellipse class="st1" cx="-5562.05" cy="-1554.56" rx="523.76" ry="111.87"/>
			<ellipse class="st1" cx="-5562.05" cy="-1442.68" rx="523.76" ry="111.87"/>
			<ellipse class="st1" cx="-5562.05" cy="-1330.81" rx="523.76" ry="111.87"/>
			<ellipse class="st1" cx="-5562.05" cy="-1218.94" rx="523.76" ry="111.87"/>
		</g>
		<g>
			<line class="st1" x1="-4686.43" y1="-1064.47" x2="-4162.58" y2="-1064.47"/>
			<line class="st1" x1="-4424.5" y1="-1326.39" x2="-4424.5" y2="-802.55"/>
			<path class="st1" d="M-4424.5-802.55c0,0,87.31-115.76,87.31-261.92s-87.31-261.92-87.31-261.92"/>
			<circle class="st1" cx="-4424.5" cy="-1064.47" r="261.92"/>
			<path class="st1" d="M-4424.5-802.55c0,0,174.61-58.43,174.61-261.92s-174.61-261.92-174.61-261.92"/>
			<path class="st1" d="M-4424.5-802.55c0,0-87.31-115.76-87.31-261.92s87.31-261.92,87.31-261.92"/>
			<path class="st1" d="M-4424.5-802.55c0,0-174.61-58.43-174.61-261.92s174.61-261.92,174.61-261.92"/>
			<path class="st1" d="M-4658.75-947.16c27.98-12.01,102.88-37.54,234.25-37.54c131.37,0,206.28,25.53,234.25,37.54"/>
			<path class="st1" d="M-4596.88-867.26c27.21-12.82,80.89-30.13,172.38-30.13c90.79,0,144.35,17.05,171.76,29.84"/>
			<path class="st1" d="M-4658.75-1181.78c27.98,12.01,102.88,37.54,234.25,37.54c131.37,0,206.28-25.53,234.25-37.54"/>
			<path class="st1" d="M-4596.88-1261.67c27.21,12.82,80.89,30.13,172.38,30.13c90.79,0,144.35-17.05,171.76-29.84"/>
		</g>
		<g>
			<path class="st2" d="M-5797.06-1785.23h1345.74v744.79c0,16.57-13.43,30-30,30h-1285.74c-16.57,0-30-13.43-30-30V-1785.23z"/>
			<path class="st2" d="M-5767.06-1946.52h1285.74c16.57,0,30,13.43,30,30v131.28h-1345.74v-131.28
				C-5797.06-1933.09-5783.63-1946.52-5767.06-1946.52z"/>
			<circle class="st1" cx="-5700.11" cy="-1865.88" r="25.48"/>
			<circle class="st1" cx="-5612.06" cy="-1865.88" r="25.48"/>
			<circle class="st1" cx="-5524.01" cy="-1865.88" r="25.48"/>
		</g>
		<g>
			<polygon class="st1" points="-5470.62,-1695.08 -5440.92,-1576.43 -5355.88,-1664.34 -5389.49,-1546.73 -5271.88,-1580.34 
				-5359.79,-1495.29 -5241.14,-1465.59 -5359.79,-1435.9 -5271.88,-1350.85 -5389.49,-1384.46 -5355.88,-1266.85 
				-5440.92,-1354.76 -5470.62,-1236.11 -5500.32,-1354.76 -5585.37,-1266.85 -5551.76,-1384.46 -5669.36,-1350.85 
				-5581.46,-1435.9 -5700.11,-1465.59 -5581.46,-1495.29 -5669.36,-1580.34 -5551.76,-1546.73 -5585.37,-1664.34 
				-5500.32,-1576.43 			"/>
			<polygon class="st3" points="-5085.7,-1362.46 -5278.16,-1414.02 -5470.62,-1465.59 -5419.05,-1273.13 -5367.48,-1080.67 
				-5273.09,-1208.97 -5178.12,-1113.99 -5119.02,-1173.09 -5213.99,-1268.06 			"/>
			<path class="st3" d="M-5435.41-1415.62h-70.43c-8.15,0-14.76-6.61-14.76-14.76v-70.43c0-8.15,6.61-14.76,14.76-14.76h70.43
				c8.15,0,14.76,6.61,14.76,14.76v70.43C-5420.64-1422.23-5427.25-1415.62-5435.41-1415.62z"/>
			<path class="st1" d="M-5088.98-1415.62h-70.43c-8.15,0-14.76-6.61-14.76-14.76v-70.43c0-8.15,6.61-14.76,14.76-14.76h70.43
				c8.15,0,14.76,6.61,14.76,14.76v70.43C-5074.22-1422.23-5080.83-1415.62-5088.98-1415.62z"/>
			<path class="st1" d="M-4742.55-1415.62h-70.43c-8.15,0-14.76-6.61-14.76-14.76v-70.43c0-8.15,6.61-14.76,14.76-14.76h70.43
				c8.15,0,14.76,6.61,14.76,14.76v70.43C-4727.79-1422.23-4734.4-1415.62-4742.55-1415.62z"/>
			<g>
				<defs>
					<polygon id="SVGID_1_" points="-5085.7,-1362.46 -5278.16,-1414.02 -5470.62,-1465.59 -5419.05,-1273.13 -5367.48,-1080.67 
						-5273.09,-1208.97 -5178.12,-1113.99 -5119.02,-1173.09 -5213.99,-1268.06 					"/>
				</defs>
				<clipPath id="SVGID_2_">
					<use xlink:href="#SVGID_1_"  style="overflow:visible;"/>
				</clipPath>
				<path class="st4" d="M-5435.41-1415.62h-70.43c-8.15,0-14.76-6.61-14.76-14.76v-70.43c0-8.15,6.61-14.76,14.76-14.76h70.43
					c8.15,0,14.76,6.61,14.76,14.76v70.43C-5420.64-1422.23-5427.25-1415.62-5435.41-1415.62z"/>
				<polygon class="st5" points="-5470.62,-1695.08 -5440.92,-1576.43 -5355.88,-1664.34 -5389.49,-1546.73 -5271.88,-1580.34 
					-5359.79,-1495.29 -5241.14,-1465.59 -5359.79,-1435.9 -5271.88,-1350.85 -5389.49,-1384.46 -5355.88,-1266.85 
					-5440.92,-1354.76 -5470.62,-1236.11 -5500.32,-1354.76 -5585.37,-1266.85 -5551.76,-1384.46 -5669.36,-1350.85 
					-5581.46,-1435.9 -5700.11,-1465.59 -5581.46,-1495.29 -5669.36,-1580.34 -5551.76,-1546.73 -5585.37,-1664.34 
					-5500.32,-1576.43 				"/>
			</g>
		</g>
		<g>
			<path class="st1" d="M-4806.12-865.42h-946.04c-79.77,0-148.22-49.43-176.31-119.28"/>
			<path class="st1" d="M-4952.83-761.95c0,0,29.34-103.47,146.71-103.47c-117.37,0-146.71-103.47-146.71-103.47"/>
		</g>
		<g>
			<path class="st1" d="M-4915.08-2091.55h418.85c104.73,0,189.93,85.2,189.93,189.93v423.13"/>
			<circle class="st3" cx="-4306.3" cy="-1478.48" r="12.89"/>
			<circle class="st3" cx="-4915.08" cy="-2091.55" r="12.89"/>
		</g>
	</g>
	<g>
		<g>
			<ellipse class="st1" cx="1848.3" cy="-1386.95" rx="436.9" ry="93.32"/>
			<ellipse class="st1" cx="1848.3" cy="-1293.63" rx="436.9" ry="93.32"/>
			<ellipse class="st1" cx="1848.3" cy="-1573.59" rx="436.9" ry="93.32"/>
			<ellipse class="st1" cx="1848.3" cy="-1480.27" rx="436.9" ry="93.32"/>
			<ellipse class="st1" cx="1848.3" cy="-1200.31" rx="436.9" ry="93.32"/>
			<ellipse class="st1" cx="1848.3" cy="-1106.99" rx="436.9" ry="93.32"/>
			<ellipse class="st1" cx="1848.3" cy="-1013.67" rx="436.9" ry="93.32"/>
			<ellipse class="st1" cx="1848.3" cy="-920.35" rx="436.9" ry="93.32"/>
		</g>
		<g>
			<path class="st2" d="M1124.38-1879.03h808.78c18.95,0,34.31,15.36,34.31,34.31v150.13h-877.4v-150.13
				C1090.07-1863.67,1105.43-1879.03,1124.38-1879.03z"/>
			<circle class="st1" cx="1200.94" cy="-1786.81" r="29.14"/>
			<circle class="st1" cx="1301.63" cy="-1786.81" r="29.14"/>
			<circle class="st1" cx="1402.32" cy="-1786.81" r="29.14"/>
			<path class="st2" d="M1090.07-1694.59h877.4v754.66c0,18.95-15.36,34.31-34.31,34.31h-808.78c-18.95,0-34.31-15.36-34.31-34.31
				V-1694.59z"/>
		</g>
		<g>
			<path class="st3" d="M1413.18-1131.71c-8.27-22.5,13.6-44.37,36.1-36.1l176.2,64.77l175.15,64.39
				c22.67,8.33,24.98,39.49,3.79,51.08l-136.43,74.57l-74.57,136.43c-11.59,21.2-42.74,18.89-51.08-3.79l-64.39-175.15
				L1413.18-1131.71z"/>
			<path class="st3" d="M1396.37-1127.99h45.16c151.9-273.01,371.54-293.54,371.54-293.54v-192.95
				c-273.01,143.69-394.16,437.22-394.16,437.22s-38.96-123.16-174.44-178.58v135.48
				C1244.47-1220.36,1334.79-1218.31,1396.37-1127.99z"/>
			<path class="st1" d="M1459.57-1112.45h-80.54c-9.32,0-16.88-7.56-16.88-16.88v-80.54c0-9.32,7.56-16.88,16.88-16.88h80.54
				c9.32,0,16.88,7.56,16.88,16.88v80.54C1476.45-1120.01,1468.9-1112.45,1459.57-1112.45z"/>
			<g>
				<defs>
					<path id="SVGID_3_" d="M1396.37-1127.99h45.16c151.9-273.01,371.54-293.54,371.54-293.54v-192.95
						c-273.01,143.69-394.16,437.22-394.16,437.22s-38.96-123.16-174.44-178.58v135.48
						C1244.47-1220.36,1334.79-1218.31,1396.37-1127.99z"/>
				</defs>
				<clipPath id="SVGID_4_">
					<use xlink:href="#SVGID_3_"  style="overflow:visible;"/>
				</clipPath>
				<path class="st6" d="M1459.57-1112.45h-80.54c-9.32,0-16.88-7.56-16.88-16.88v-80.54c0-9.32,7.56-16.88,16.88-16.88h80.54
					c9.32,0,16.88,7.56,16.88,16.88v80.54C1476.45-1120.01,1468.9-1112.45,1459.57-1112.45z"/>
				<path class="st7" d="M1413.18-1131.71c-8.27-22.5,13.6-44.37,36.1-36.1l176.2,64.77l175.15,64.39
					c22.67,8.33,24.98,39.49,3.79,51.08l-136.43,74.57l-74.57,136.43c-11.59,21.2-42.74,18.89-51.08-3.79l-64.39-175.15
					L1413.18-1131.71z"/>
			</g>
		</g>
		<g>
			<rect x="877.55" y="-1815.95" class="st3" width="7.49" height="332.99"/>
			
				<rect x="877.55" y="-1815.95" transform="matrix(-1.836970e-16 1 -1 -1.836970e-16 -768.1612 -2530.7471)" class="st3" width="7.49" height="332.99"/>
			
				<rect x="877.55" y="-1815.95" transform="matrix(0.7071 -0.7071 0.7071 0.7071 1424.4648 140.0543)" class="st3" width="7.49" height="332.99"/>
			
				<rect x="877.55" y="-1815.95" transform="matrix(0.7071 0.7071 -0.7071 0.7071 -908.2155 -1106.2821)" class="st3" width="7.49" height="332.99"/>
			<circle class="st3" cx="881.29" cy="-1649.45" r="29.72"/>
		</g>
		<g>
			<circle class="st2" cx="1980.48" cy="-1946.5" r="167.41"/>
			<path class="st1" d="M2092.32-1907.58c-16.14,46.23-60.18,79.49-111.84,79.49s-95.7-33.26-111.84-79.49"/>
			<path class="st1" d="M2081.35-1909.65c0,0,9.32,4.99,20.16,4.11"/>
			<path class="st1" d="M1878.72-1909.65c0,0-9.32,4.99-20.16,4.11"/>
			<g>
				<ellipse class="st3" cx="2022.29" cy="-1993.37" rx="26.85" ry="56.59"/>
				<ellipse class="st3" cx="1938.66" cy="-1993.37" rx="26.85" ry="56.59"/>
			</g>
		</g>
		<g>
			<path class="st1" d="M998.59-1844.72c0-69.36,56.43-125.79,125.79-125.79h606.12"/>
			<path class="st1" d="M1625.74-1896.63c0,0,20.95-73.89,104.76-73.89c-83.81,0-104.76-73.89-104.76-73.89"/>
		</g>
		<g>
			<path class="st1" d="M1431.92-814.15h-307.54c-69.36,0-125.79-56.43-125.79-125.79v-501.78"/>
			<circle class="st3" cx="998.59" cy="-1441.72" r="12.89"/>
			<circle class="st3" cx="1431.92" cy="-814.15" r="12.89"/>
		</g>
	</g>
	<g>
		<g>
			<path class="st1" d="M-5628.55,1226.51c344.97-179.29,493.91,238.9,534.81-151.74c13.81-131.88,97.44-298.21,273.08-393"/>
			<path class="st1" d="M-4881.61,818.85c0,0-23.22-86.75,60.95-136.95c-84.17,50.2-149.47-11.45-149.47-11.45"/>
		</g>
		<path class="st1" d="M-5658.84,1255.38c583.05-57.78,662.61,338.29,662.61,338.29"/>
		<path class="st1" d="M-5667.77,1192.47c190.71-158.45,206.18-434.88,206.18-434.88"/>
		<path class="st1" d="M-5638.62,1336.17c538.16-209.02,326.28-539.35,566.87-819.75"/>
		<path class="st1" d="M-4708.49,1399.79c-369.33-54.4-814.04,224.29-632.3,251.06s357.82-291.49-357.85-396.91"/>
		<path class="st1" d="M-5658.99,1121.55c185.67,38.13,474.4,58.6,838.33-39.96"/>
		<g>
			
				<rect x="-4787.18" y="884.59" transform="matrix(0.9642 -0.2653 0.2653 0.9642 -431.9215 -1181.2728)" class="st2" width="396.94" height="247.26"/>
			<polyline class="st1" points="-4812.87,941.67 -4577.76,1048.02 -4430.15,836.36 			"/>
			<line class="st1" x1="-4546.02" y1="1002.51" x2="-4364.55" y2="1074.77"/>
			<line class="st1" x1="-4747.27" y1="1180.07" x2="-4628.31" y2="1025.15"/>
		</g>
		<g>
			
				<rect x="-5569.32" y="538.17" transform="matrix(0.0446 -0.999 0.999 0.0446 -5819.3931 -4862.9141)" class="st2" width="234.23" height="145.91"/>
			<polyline class="st1" points="-5530.31,724.87 -5427.87,612.21 -5519.86,490.87 			"/>
			<line class="st1" x1="-5447.65" y1="586.12" x2="-5374.09" y2="497.38"/>
			<line class="st1" x1="-5384.54" y1="731.38" x2="-5449.89" y2="636.44"/>
		</g>
		<g>
			
				<rect x="-5074.76" y="1664.45" transform="matrix(0.2702 0.9628 -0.9628 0.2702 -1945.1558 6041.0933)" class="st2" width="234.23" height="145.91"/>
			<polyline class="st1" points="-4919.05,1604.93 -4981.09,1743.99 -4855.75,1830.45 			"/>
			<line class="st1" x1="-4954.14" y1="1762.58" x2="-4996.23" y2="1869.88"/>
			<line class="st1" x1="-5059.53" y1="1644.36" x2="-4967.75" y2="1714.09"/>
		</g>
		
			<ellipse transform="matrix(0.9738 -0.2276 0.2276 0.9738 -427.7253 -1255.9005)" class="st3" cx="-5658.99" cy="1226.51" rx="139.62" ry="221.76"/>
		<g>
			<defs>
				
					<ellipse id="SVGID_5_" transform="matrix(0.9738 -0.2276 0.2276 0.9738 -427.7253 -1255.9005)" cx="-5658.99" cy="1226.51" rx="139.62" ry="221.76"/>
			</defs>
			<clipPath id="SVGID_6_">
				<use xlink:href="#SVGID_5_"  style="overflow:visible;"/>
			</clipPath>
			<path class="st8" d="M-5892.49,1048.02c0,0,412.52,212.13,1071.84,33.57"/>
			<path class="st8" d="M-5854.34,1285.08c368.22-89.06,392.75-527.49,392.75-527.49"/>
			<path class="st8" d="M-5828.36,1383.29c489.28-507.4,686.55,150.55,734.62-308.52c13.81-131.88,97.44-298.21,273.08-393"/>
			<path class="st8" d="M-4708.49,1399.79c-369.33-54.4-814.04,224.29-632.3,251.06s358.28-294.66-357.85-396.91
				c-203.28-29.02-406.56,41.81-406.56,41.81"/>
			<path class="st8" d="M-5843.65,1400.17c794.94-200.17,505-572.68,771.9-883.74"/>
			<path class="st8" d="M-5877.38,1293.82c782.5-191.2,881.15,299.85,881.15,299.85"/>
		</g>
		<polygon class="st3" points="-5519.81,1417.67 -5498.98,1449.23 -5461.6,1454.92 -5493.15,1475.76 -5498.85,1513.14 
			-5519.69,1481.6 -5557.06,1475.89 -5525.51,1455.05 		"/>
		<polygon class="st3" points="-4943.84,1240.71 -4923.01,1272.26 -4885.63,1277.96 -4917.18,1298.79 -4922.88,1336.17 
			-4943.72,1304.63 -4981.09,1298.92 -4949.54,1278.09 		"/>
		<polygon class="st3" points="-5356.98,809.56 -5336.14,841.12 -5298.76,846.81 -5330.31,867.64 -5336.01,905.03 -5356.85,873.49 
			-5394.23,867.78 -5362.67,846.94 		"/>
		<polygon class="st3" points="-4932.87,869.42 -4912.04,900.98 -4874.65,906.67 -4906.21,927.51 -4911.9,964.89 -4932.75,933.35 
			-4970.12,927.64 -4938.56,906.8 		"/>
		<polygon class="st3" points="-5846.59,952.55 -5825.75,984.11 -5788.37,989.8 -5819.92,1010.64 -5825.62,1048.02 
			-5846.46,1016.48 -5883.84,1010.77 -5852.28,989.93 		"/>
		<path class="st1" d="M-4541.82,1424.57c8.19,6.13,5.45,19.04-4.52,21.31l-78.11,17.81l-103.41,23.57l44.01-81.68l-7.06-92.51
			l84.94,63.52L-4541.82,1424.57z"/>
		<path class="st1" d="M-4974.99,381.4c9.17-4.54,19.45,3.73,16.98,13.66l-19.39,77.73l-25.67,102.91l-53.01-76.15l-85.73-35.48
			l95.03-47.1L-4974.99,381.4z"/>
	</g>
	<g>
		<g>
			<path class="st1" d="M-1319.44,1232.59c0,0-579.23-54.82-713.67-318.7l0,0c-13.97-28.4-21.81-60.36-21.81-94.14
				c0-117.97,95.64-213.61,213.61-213.61c117.97,0,213.61,95.64,213.61,213.61c0,33.79-7.84,65.74-21.81,94.15l0,0
				c-134.45,263.88-713.67,318.7-713.67,318.7"/>
			<path class="st1" d="M-1413.16,1283c0,0,24.33-58.79,93.72-50.41c-69.39-8.38-78.94-71.94-78.94-71.94"/>
		</g>
		<g>
			<path class="st3" d="M-2802.37,1104.12v69.68h3.81v-69.68c-0.62,0.08-1.26,0.12-1.91,0.12S-2801.75,1104.2-2802.37,1104.12z"/>
			<path class="st3" d="M-2798.56,1074.14v-69.68h-3.81v69.68c0.62-0.08,1.26-0.12,1.91-0.12S-2799.18,1074.06-2798.56,1074.14z"/>
			<path class="st3" d="M-2785.47,1091.04h69.68v-3.81h-69.68c0.08,0.62,0.12,1.26,0.12,1.91
				C-2785.35,1089.78-2785.39,1090.41-2785.47,1091.04z"/>
			<path class="st3" d="M-2815.46,1087.23h-69.68v3.81h69.68c-0.08-0.62-0.12-1.26-0.12-1.91
				C-2815.58,1088.48-2815.54,1087.85-2815.46,1087.23z"/>
			<path class="st3" d="M-2809.72,1077.18l-49.27-49.27l-2.69,2.69l49.27,49.27C-2811.63,1078.87-2810.73,1077.96-2809.72,1077.18z"
				/>
			<path class="st3" d="M-2791.21,1101.08l49.27,49.27l2.69-2.69l-49.27-49.27C-2789.3,1099.39-2790.2,1100.3-2791.21,1101.08z"/>
			<path class="st3" d="M-2788.52,1079.88l49.27-49.27l-2.69-2.69l-49.27,49.27C-2790.2,1077.96-2789.3,1078.87-2788.52,1079.88z"/>
			<path class="st3" d="M-2812.41,1098.38l-49.27,49.27l2.69,2.69l49.27-49.27C-2810.73,1100.3-2811.63,1099.39-2812.41,1098.38z"/>
		</g>
		<g>
			<rect x="-2768.46" y="1170.65" class="st2" width="352.17" height="219.38"/>
			<polyline class="st1" points="-2768.46,1170.65 -2592.38,1316.96 -2416.29,1170.65 			"/>
			<line class="st1" x1="-2554.51" y1="1285.5" x2="-2416.29" y2="1390.03"/>
			<line class="st1" x1="-2768.46" y1="1390.03" x2="-2630.24" y2="1285.5"/>
		</g>
		<g>
			<g>
				<path class="st2" d="M-863.41,1118.52L-863.41,1118.52h-305.94h0c-51.47,0-93.2,41.73-93.2,93.2v178.3h186.41h305.94v-178.3
					C-770.2,1160.25-811.93,1118.52-863.41,1118.52z"/>
				<path class="st9" d="M-1169.35,1118.52L-1169.35,1118.52c-51.47,0-93.2,41.73-93.2,93.2v178.3h186.41v-178.3
					C-1076.14,1160.25-1117.87,1118.52-1169.35,1118.52z"/>
			</g>
			<g>
				<rect x="-1031.3" y="1390.03" class="st9" width="30.71" height="239.57"/>
				<rect x="-1000.6" y="1390.03" class="st2" width="60.4" height="239.57"/>
			</g>
		</g>
		<g>
			<circle class="st2" cx="-805.21" cy="1118.52" r="104.98"/>
			<path class="st1" d="M-735.08,1142.93c-10.12,28.99-37.74,49.84-70.13,49.84s-60.01-20.85-70.13-49.84"/>
			<path class="st1" d="M-741.96,1141.63c0,0,5.84,3.13,12.64,2.58"/>
			<path class="st1" d="M-869.02,1141.63c0,0-5.84,3.13-12.64,2.58"/>
			<g>
				<ellipse class="st3" cx="-778.99" cy="1089.13" rx="16.83" ry="35.49"/>
				<ellipse class="st3" cx="-831.43" cy="1089.13" rx="16.83" ry="35.49"/>
			</g>
		</g>
		<g>
			<path class="st1" d="M-2363.19,1280.34c408.19,0,493.63,99.54,744.07,50.43"/>
			<path class="st1" d="M-1693.22,1407.09c0,0,5.4-63.4,74.08-76.4c-68.68,13-97-44.69-97-44.69"/>
		</g>
		<g>
			<path class="st1" d="M-2363.19,1324.28c384.1,0,297.12,473.44,1043.75,13.48"/>
			<path class="st1" d="M-1360.75,1435.83c0,0-17.96-61.04,41.32-98.07c-59.28,37.03-106.61-6.45-106.61-6.45"/>
		</g>
		<polygon class="st3" points="-1290.44,1390.03 -1280.99,1414.59 -1256.43,1424.04 -1280.99,1433.49 -1290.44,1458.05 
			-1299.9,1433.5 -1324.45,1424.04 -1299.89,1414.59 		"/>
		<polygon class="st3" points="-1070.62,1061.88 -1061.17,1086.44 -1036.61,1095.89 -1061.17,1105.34 -1070.62,1129.9 
			-1080.08,1105.35 -1104.63,1095.89 -1080.07,1086.44 		"/>
		<g>
			<path class="st1" d="M-2092.79,1597.86h-438.15c-33.93,0-61.44-27.51-61.44-61.44v-104.91"/>
			<path class="st1" d="M-2092.79,1597.86c35.32,0,35.32,46,70.64,46c35.32,0,35.32-46,70.64-46c35.32,0,35.32,46,70.64,46
				c35.32,0,35.32-46,70.64-46c35.32,0,35.32,46,70.65,46s35.32-46,70.65-46"/>
			<path class="st1" d="M-1169.35,1431.52v104.91c0,33.93-27.51,61.44-61.44,61.44h-438.15"/>
			<circle class="st3" cx="-2592.38" cy="1431.52" r="12.89"/>
			<circle class="st3" cx="-1169.35" cy="1431.52" r="12.89"/>
		</g>
	</g>
	<g>
		<g>
			<path class="st1" d="M1623.61,810.5c183.62,267.72,335.23,585.5,580.6,662.8"/>
			<path class="st1" d="M1743.39,854.25c0,0-72.01,25.05-119.78-43.75c47.77,68.8-1.53,127.97-1.53,127.97"/>
		</g>
		<g>
			<path class="st1" d="M815.99,873.5c241.25,98.46,394.54,380.33,554.88,626.08"/>
			<path class="st1" d="M1252.72,1451.6c0,0,72.85-22.48,118.15,47.97c-45.3-70.45,6.06-127.84,6.06-127.84"/>
		</g>
		<path class="st1" d="M1330.45,673.26c314.75,294.79,477.08,891.86,865.99,915.66"/>
		<path class="st1" d="M789.66,631.88c386.98-33.61,581.99,343.3,788.73,660.16"/>
		<path class="st1" d="M1243.53,1050.64c293.31,389.04,481.01,966.11,1014.07,689.35"/>
		
			<ellipse transform="matrix(0.9738 -0.2276 0.2276 0.9738 -125.0086 200.5205)" class="st3" cx="806.88" cy="642.25" rx="167.31" ry="265.73"/>
		<g>
			<defs>
				
					<ellipse id="SVGID_7_" transform="matrix(0.9738 -0.2276 0.2276 0.9738 -125.0086 200.5205)" cx="806.88" cy="642.25" rx="167.31" ry="265.73"/>
			</defs>
			<clipPath id="SVGID_8_">
				<use xlink:href="#SVGID_7_"  style="overflow:visible;"/>
			</clipPath>
			<path class="st10" d="M488.58,726.53c1056.16-538.8,985.7,1369.8,1873.75,908.73"/>
			<path class="st10" d="M582.14,839.41c386.98-33.61,581.99,343.3,788.73,660.16"/>
		</g>
		
			<ellipse transform="matrix(0.2276 -0.9738 0.9738 0.2276 37.1154 3368.1536)" class="st3" cx="2141.7" cy="1660.68" rx="265.73" ry="167.31"/>
		<g>
			<defs>
				
					<ellipse id="SVGID_9_" transform="matrix(0.2276 -0.9738 0.9738 0.2276 37.1154 3368.1536)" cx="2141.7" cy="1660.68" rx="265.73" ry="167.31"/>
			</defs>
			<clipPath id="SVGID_10_">
				<use xlink:href="#SVGID_9_"  style="overflow:visible;"/>
			</clipPath>
			<path class="st11" d="M606.73,608.38c1056.16-538.8,985.7,1369.8,1873.75,908.73"/>
			<path class="st11" d="M1429.23,574.48c314.75,294.79,477.08,891.86,865.99,915.66l15.93,0.84"/>
			<path class="st11" d="M383.85,831.26c1056.16-538.8,985.7,1369.8,1873.75,908.73l138.11-67.59"/>
		</g>
		<g>
			
				<rect x="1531.57" y="1341.32" transform="matrix(0.6435 0.7654 -0.7654 0.6435 1731.6779 -797.8188)" class="st2" width="381.57" height="237.69"/>
			<polyline class="st1" points="1690.55,1237.66 1691.98,1485.7 1936.09,1529.72 			"/>
			<line class="st1" x1="1744.47" y1="1495.16" x2="1754.15" y2="1682.67"/>
			<line class="st1" x1="1508.61" y1="1390.61" x2="1691.67" y2="1432.36"/>
		</g>
		<g>
			
				<rect x="1054.35" y="880.97" transform="matrix(0.6551 0.7556 -0.7556 0.6551 1113.6785 -548.6805)" class="st2" width="206.84" height="128.85"/>
			<polyline class="st1" points="1138.7,825.05 1141.52,959.48 1274.2,981.33 			"/>
			<line class="st1" x1="1170.05" y1="964.18" x2="1176.84" y2="1065.74"/>
			<line class="st1" x1="1041.34" y1="909.45" x2="1140.91" y2="930.58"/>
		</g>
		<g>
			
				<rect x="1056.97" y="492.07" transform="matrix(0.8639 0.5036 -0.5036 0.8639 452.8761 -522.375)" class="st2" width="272.24" height="169.58"/>
			<polyline class="st1" points="1118.2,435.05 1178.84,601.32 1353.39,572.16 			"/>
			<line class="st1" x1="1216.37" y1="595.05" x2="1267.99" y2="718.67"/>
			<line class="st1" x1="1032.79" y1="581.56" x2="1165.8" y2="565.57"/>
		</g>
		<polygon class="st3" points="1937.94,1820.91 1939.59,1846.61 1959.77,1862.61 1934.07,1864.26 1918.07,1884.44 1916.41,1858.74 
			1896.24,1842.74 1921.94,1841.09 		"/>
		<polygon class="st3" points="2344.47,1383.69 2346.54,1415.91 2371.84,1435.98 2339.61,1438.04 2319.55,1463.34 2317.47,1431.13 
			2292.18,1411.06 2324.41,1408.99 		"/>
		<polygon class="st3" points="664.84,851.41 679.81,880.02 711.08,888.09 682.47,903.06 674.4,934.32 659.42,905.73 628.16,897.64 
			656.77,882.67 		"/>
		<polygon class="st3" points="914.61,327.75 927.5,352.38 954.41,359.33 929.78,372.22 922.84,399.14 909.94,374.51 883.03,367.56 
			907.66,354.67 		"/>
	</g>
	<g>
		<g>
			<ellipse class="st1" cx="-8469.6" cy="-1570.86" rx="942.71" ry="95.29"/>
			<ellipse class="st1" cx="-8469.6" cy="-1475.57" rx="942.71" ry="95.29"/>
			<ellipse class="st1" cx="-8469.6" cy="-1380.27" rx="942.71" ry="95.29"/>
			<ellipse class="st1" cx="-8469.6" cy="-1284.98" rx="942.71" ry="95.29"/>
			<ellipse class="st1" cx="-8469.6" cy="-1189.69" rx="942.71" ry="95.29"/>
			<ellipse class="st1" cx="-8469.6" cy="-1094.4" rx="942.71" ry="95.29"/>
			<ellipse class="st1" cx="-8469.6" cy="-999.1" rx="942.71" ry="95.29"/>
			<ellipse class="st1" cx="-8469.6" cy="-903.81" rx="942.71" ry="95.29"/>
		</g>
		<g>
			<line class="st1" x1="-7927.52" y1="-1968.98" x2="-7472.09" y2="-1968.98"/>
			<line class="st1" x1="-7699.8" y1="-2196.69" x2="-7699.8" y2="-1741.26"/>
			<path class="st1" d="M-7699.8-1741.26c0,0,75.9-100.65,75.9-227.71s-75.9-227.71-75.9-227.71"/>
			<circle class="st1" cx="-7699.8" cy="-1968.98" r="227.71"/>
			<path class="st1" d="M-7699.8-1741.26c0,0,151.81-50.8,151.81-227.71s-151.81-227.71-151.81-227.71"/>
			<path class="st1" d="M-7699.8-1741.26c0,0-75.9-100.65-75.9-227.71s75.9-227.71,75.9-227.71"/>
			<path class="st1" d="M-7699.8-1741.26c0,0-151.81-50.8-151.81-227.71s151.81-227.71,151.81-227.71"/>
			<path class="st1" d="M-7903.45-1866.99c24.32-10.44,89.45-32.64,203.65-32.64c114.21,0,179.34,22.2,203.66,32.64"/>
			<path class="st1" d="M-7849.67-1797.52c23.66-11.15,70.33-26.2,149.87-26.2c78.94,0,125.5,14.83,149.32,25.94"/>
			<path class="st1" d="M-7903.45-2070.96c24.32,10.44,89.45,32.64,203.65,32.64c114.21,0,179.34-22.2,203.66-32.64"/>
			<path class="st1" d="M-7849.67-2140.43c23.66,11.15,70.33,26.2,149.87,26.2c78.94,0,125.5-14.83,149.32-25.94"/>
		</g>
		<g>
			<path class="st2" d="M-9218.76-1869.1h1498.32v1066.63c0,15.59-12.64,28.23-28.23,28.23h-1441.86
				c-15.59,0-28.23-12.64-28.23-28.23V-1869.1z"/>
			<path class="st2" d="M-9190.53-2020.89h1441.86c15.59,0,28.23,12.64,28.23,28.23v123.55h-1498.32v-123.55
				C-9218.76-2008.25-9206.12-2020.89-9190.53-2020.89z"/>
			<circle class="st1" cx="-9127.52" cy="-1945" r="23.98"/>
			<circle class="st1" cx="-9044.65" cy="-1945" r="23.98"/>
			<circle class="st1" cx="-8961.79" cy="-1945" r="23.98"/>
		</g>
		<polygon class="st1" points="-8948.41,-1193.8 -8921.99,-1088.26 -8846.34,-1166.45 -8876.24,-1061.84 -8771.63,-1091.74 
			-8849.82,-1016.09 -8744.28,-989.67 -8849.82,-963.26 -8771.63,-887.61 -8876.24,-917.5 -8846.34,-812.89 -8921.99,-891.09 
			-8948.41,-785.54 -8974.82,-891.09 -9050.47,-812.89 -9020.58,-917.5 -9125.19,-887.61 -9046.99,-963.26 -9152.54,-989.67 
			-9046.99,-1016.09 -9125.19,-1091.74 -9020.58,-1061.84 -9050.47,-1166.45 -8974.82,-1088.26 		"/>
		<polygon class="st3" points="-8606.02,-897.93 -8777.21,-943.8 -8948.41,-989.67 -8902.54,-818.48 -8856.66,-647.28 
			-8772.7,-761.4 -8688.22,-676.92 -8635.66,-729.49 -8720.14,-813.97 		"/>
		<path class="st3" d="M-8917.08-945.22h-62.65c-7.25,0-13.13-5.88-13.13-13.13v-62.65c0-7.25,5.88-13.13,13.13-13.13h62.65
			c7.25,0,13.13,5.88,13.13,13.13v62.65C-8903.95-951.1-8909.83-945.22-8917.08-945.22z"/>
		<path class="st3" d="M-8917.08-1267.54h-62.65c-7.25,0-13.13-5.88-13.13-13.13v-62.65c0-7.25,5.88-13.13,13.13-13.13h62.65
			c7.25,0,13.13,5.88,13.13,13.13v62.65C-8903.95-1273.42-8909.83-1267.54-8917.08-1267.54z"/>
		<g>
			<defs>
				<polygon id="SVGID_11_" points="-8606.02,-897.93 -8777.21,-943.8 -8948.41,-989.67 -8902.54,-818.48 -8856.66,-647.28 
					-8772.7,-761.4 -8688.22,-676.92 -8635.66,-729.49 -8720.14,-813.97 				"/>
			</defs>
			<clipPath id="SVGID_12_">
				<use xlink:href="#SVGID_11_"  style="overflow:visible;"/>
			</clipPath>
			<path class="st12" d="M-8917.08-945.22h-62.65c-7.25,0-13.13-5.88-13.13-13.13v-62.65c0-7.25,5.88-13.13,13.13-13.13h62.65
				c7.25,0,13.13,5.88,13.13,13.13v62.65C-8903.95-951.1-8909.83-945.22-8917.08-945.22z"/>
			<polygon class="st13" points="-8948.41,-1193.8 -8921.99,-1088.26 -8846.34,-1166.45 -8876.24,-1061.84 -8771.63,-1091.74 
				-8849.82,-1016.09 -8744.28,-989.67 -8849.82,-963.26 -8771.63,-887.61 -8876.24,-917.5 -8846.34,-812.89 -8921.99,-891.09 
				-8948.41,-785.54 -8974.82,-891.09 -9050.47,-812.89 -9020.58,-917.5 -9125.19,-887.61 -9046.99,-963.26 -9152.54,-989.67 
				-9046.99,-1016.09 -9125.19,-1091.74 -9020.58,-1061.84 -9050.47,-1166.45 -8974.82,-1088.26 			"/>
		</g>
		<g>
			<line class="st1" x1="-8844.72" y1="-1634.32" x2="-8208.86" y2="-1634.32"/>
			<path class="st1" d="M-8298.84-1570.86c0,0,18-63.46,89.98-63.46c-71.99,0-89.98-63.46-89.98-63.46"/>
		</g>
		<g>
			<line class="st1" x1="-8844.72" y1="-1312" x2="-8208.86" y2="-1312"/>
			<path class="st1" d="M-8298.84-1248.54c0,0,18-63.46,89.98-63.46c-71.99,0-89.98-63.46-89.98-63.46"/>
		</g>
		<g>
			<line class="st1" x1="-8666.42" y1="-989.67" x2="-8208.86" y2="-989.67"/>
			<path class="st1" d="M-8298.84-926.21c0,0,18-63.46,89.98-63.46c-71.99,0-89.98-63.46-89.98-63.46"/>
		</g>
		<path class="st3" d="M-8917.08-1589.87h-62.65c-7.25,0-13.13-5.88-13.13-13.13v-62.65c0-7.25,5.88-13.13,13.13-13.13h62.65
			c7.25,0,13.13,5.88,13.13,13.13v62.65C-8903.95-1595.75-8909.83-1589.87-8917.08-1589.87z"/>
		<g>
			<circle class="st1" cx="-8047.98" cy="-1634.32" r="101.64"/>
			<path class="st1" d="M-7980.08-1610.69c-9.8,28.07-36.54,48.26-67.9,48.26s-58.11-20.19-67.9-48.26"/>
			<path class="st1" d="M-7986.74-1611.95c0,0,5.66,3.03,12.24,2.5"/>
			<path class="st1" d="M-8109.76-1611.95c0,0-5.66,3.03-12.24,2.5"/>
			<g>
				<ellipse class="st3" cx="-8022.59" cy="-1662.78" rx="16.3" ry="34.36"/>
				<ellipse class="st3" cx="-8073.37" cy="-1662.78" rx="16.3" ry="34.36"/>
			</g>
		</g>
		<g>
			<circle class="st1" cx="-8047.98" cy="-1312" r="101.64"/>
			<path class="st1" d="M-7980.08-1288.36c-9.8,28.07-36.54,48.26-67.9,48.26s-58.11-20.19-67.9-48.26"/>
			<path class="st1" d="M-7986.74-1289.62c0,0,5.66,3.03,12.24,2.5"/>
			<path class="st1" d="M-8109.76-1289.62c0,0-5.66,3.03-12.24,2.5"/>
			<g>
				<ellipse class="st3" cx="-8022.59" cy="-1340.45" rx="16.3" ry="34.36"/>
				<ellipse class="st3" cx="-8073.37" cy="-1340.45" rx="16.3" ry="34.36"/>
			</g>
		</g>
		<g>
			<path class="st3" d="M-8050.27-971.67v83.64h4.58v-83.64c-0.75,0.09-1.51,0.15-2.29,0.15S-8049.52-971.58-8050.27-971.67z"/>
			<path class="st3" d="M-8045.69-1007.67v-83.64h-4.58v83.64c0.75-0.09,1.51-0.15,2.29-0.15S-8046.44-1007.76-8045.69-1007.67z"/>
			<path class="st3" d="M-8029.98-987.38h83.64v-4.58h-83.64c0.09,0.75,0.15,1.51,0.15,2.29
				C-8029.83-988.9-8029.89-988.13-8029.98-987.38z"/>
			<path class="st3" d="M-8065.98-991.96h-83.64v4.58h83.64c-0.09-0.75-0.15-1.51-0.15-2.29
				C-8066.12-990.45-8066.07-991.21-8065.98-991.96z"/>
			<path class="st3" d="M-8059.09-1004.02l-59.15-59.15l-3.24,3.24l59.15,59.15C-8061.38-1001.99-8060.3-1003.08-8059.09-1004.02z"
				/>
			<path class="st3" d="M-8036.87-975.33l59.15,59.15l3.24-3.24l-59.15-59.15C-8034.57-977.35-8035.66-976.27-8036.87-975.33z"/>
			<path class="st3" d="M-8033.64-1000.78l59.15-59.15l-3.24-3.24l-59.15,59.15C-8035.66-1003.08-8034.57-1001.99-8033.64-1000.78z"
				/>
			<path class="st3" d="M-8062.32-978.56l-59.15,59.15l3.24,3.24l59.15-59.15C-8060.3-976.27-8061.38-977.35-8062.32-978.56z"/>
		</g>
		<g>
			<rect x="-9186.63" y="-2228.57" class="st3" width="6.38" height="283.58"/>
			
				<rect x="-9186.63" y="-2228.57" transform="matrix(-1.836970e-16 1 -1 -1.836970e-16 -11270.2266 7096.6567)" class="st3" width="6.38" height="283.58"/>
			
				<rect x="-9186.63" y="-2228.57" transform="matrix(0.7071 -0.7071 0.7071 0.7071 -1214.1881 -7104.8789)" class="st3" width="6.38" height="283.58"/>
			
				<rect x="-9186.63" y="-2228.57" transform="matrix(0.7071 0.7071 -0.7071 0.7071 -4165.3477 5882.4688)" class="st3" width="6.38" height="283.58"/>
			<circle class="st3" cx="-9183.44" cy="-2086.78" r="25.31"/>
		</g>
	</g>
	<g>
		<g>
			<rect x="-8013.36" y="963.59" class="st2" width="580.12" height="361.37"/>
			<polyline class="st1" points="-8013.36,963.59 -7723.3,1204.6 -7433.24,963.59 			"/>
			<line class="st1" x1="-7660.93" y1="1152.78" x2="-7433.24" y2="1324.96"/>
			<line class="st1" x1="-8013.36" y1="1324.96" x2="-7785.67" y2="1152.78"/>
		</g>
		<g>
			<rect x="-8350.08" y="1400.5" class="st2" width="386.91" height="241.01"/>
			<polyline class="st1" points="-8350.08,1400.5 -8156.63,1561.24 -7963.18,1400.5 			"/>
			<line class="st1" x1="-8115.03" y1="1526.68" x2="-7963.18" y2="1641.51"/>
			<line class="st1" x1="-8350.08" y1="1641.51" x2="-8198.23" y2="1526.68"/>
		</g>
		<g>
			<rect x="-8491.15" y="647.03" class="st2" width="386.91" height="241.01"/>
			<polyline class="st1" points="-8491.15,647.03 -8297.7,807.78 -8104.25,647.03 			"/>
			<line class="st1" x1="-8256.1" y1="773.21" x2="-8104.25" y2="888.05"/>
			<line class="st1" x1="-8491.15" y1="888.05" x2="-8339.3" y2="773.21"/>
		</g>
		<polygon class="st3" points="-7525.36,830.63 -7511.69,866.16 -7476.17,879.83 -7511.69,893.5 -7525.36,929.02 -7539.05,893.51 
			-7574.56,879.83 -7539.04,866.16 		"/>
		<polygon class="st3" points="-7886.7,1350.32 -7875.07,1380.53 -7844.86,1392.15 -7875.07,1403.78 -7886.7,1433.99 
			-7898.33,1403.79 -7928.54,1392.15 -7898.32,1380.53 		"/>
		<polygon class="st3" points="-8414.89,1608.72 -8405.78,1632.4 -8382.1,1641.51 -8405.78,1650.62 -8414.89,1674.3 
			-8424.01,1650.63 -8447.68,1641.51 -8424,1632.4 		"/>
		<polygon class="st3" points="-8135.07,911.31 -8125.71,935.63 -8101.4,944.98 -8125.71,954.34 -8135.07,978.66 -8144.44,954.35 
			-8168.75,944.98 -8144.43,935.63 		"/>
		<polygon class="st3" points="-8470.03,575.7 -8463.36,593.01 -8446.05,599.68 -8463.36,606.34 -8470.03,623.65 -8476.7,606.35 
			-8494,599.68 -8476.69,593.01 		"/>
		<polygon class="st3" points="-8554.74,1077.58 -8548.08,1094.89 -8530.77,1101.56 -8548.08,1108.22 -8554.74,1125.53 
			-8561.41,1108.23 -8578.72,1101.56 -8561.41,1094.89 		"/>
		<polygon class="st3" points="-8880.99,1311.93 -8874.33,1329.25 -8857.01,1335.91 -8874.33,1342.57 -8880.99,1359.89 
			-8887.66,1342.58 -8904.97,1335.91 -8887.65,1329.25 		"/>
		<polygon class="st3" points="-9098.72,905.05 -9092.05,922.36 -9074.74,929.02 -9092.05,935.69 -9098.72,953 -9105.39,935.69 
			-9122.69,929.02 -9105.38,922.36 		"/>
		<line class="st1" x1="-9424.22" y1="1275.94" x2="-9451.15" y2="1275.94"/>
		<line class="st1" x1="-9241.18" y1="1275.94" x2="-9336.16" y2="1275.94"/>
		<line class="st1" x1="-8057.55" y1="1275.94" x2="-9180.75" y2="1275.94"/>
		<line class="st1" x1="-9241.18" y1="1012.61" x2="-9275.21" y2="1012.61"/>
		<line class="st1" x1="-8931.89" y1="1012.61" x2="-9098.72" y2="1012.61"/>
		<line class="st1" x1="-8057.55" y1="1012.61" x2="-8843.35" y2="1012.61"/>
		<line class="st1" x1="-8904.97" y1="1503.78" x2="-8943.5" y2="1503.78"/>
		<line class="st1" x1="-8397.11" y1="1503.78" x2="-8824.78" y2="1503.78"/>
		<line class="st1" x1="-9041.68" y1="773.21" x2="-9077.91" y2="773.21"/>
		<line class="st1" x1="-8537.81" y1="773.21" x2="-8960.47" y2="773.21"/>
	</g>
	<g>
		<g>
			<line class="st1" x1="-9266.9" y1="4149.92" x2="-8962.71" y2="4149.92"/>
			<line class="st1" x1="-9114.8" y1="3997.83" x2="-9114.8" y2="4302.02"/>
			<path class="st1" d="M-9114.8,4302.02c0,0,50.7-67.22,50.7-152.09c0-84.87-50.7-152.09-50.7-152.09"/>
			<circle class="st1" cx="-9114.8" cy="4149.92" r="152.09"/>
			<path class="st1" d="M-9114.8,4302.02c0,0,101.4-33.93,101.4-152.09s-101.4-152.09-101.4-152.09"/>
			<path class="st1" d="M-9114.8,4302.02c0,0-50.7-67.22-50.7-152.09c0-84.87,50.7-152.09,50.7-152.09"/>
			<path class="st1" d="M-9114.8,4302.02c0,0-101.4-33.93-101.4-152.09s101.4-152.09,101.4-152.09"/>
			<path class="st1" d="M-9250.83,4218.04c16.25-6.98,59.74-21.8,136.02-21.8c76.28,0,119.78,14.83,136.02,21.8"/>
			<path class="st1" d="M-9214.9,4264.44c15.8-7.44,46.97-17.5,100.1-17.5c52.72,0,83.82,9.9,99.74,17.33"/>
			<path class="st1" d="M-9250.83,4081.8c16.25,6.98,59.74,21.8,136.02,21.8c76.28,0,119.78-14.83,136.02-21.8"/>
			<path class="st1" d="M-9214.9,4035.41c15.8,7.44,46.97,17.5,100.1,17.5c52.72,0,83.82-9.9,99.74-17.33"/>
		</g>
		<g>
			<line class="st1" x1="-9266.9" y1="4149.92" x2="-8962.71" y2="4149.92"/>
			<line class="st1" x1="-9114.8" y1="3997.83" x2="-9114.8" y2="4302.02"/>
			<path class="st1" d="M-9114.8,4302.02c0,0,50.7-67.22,50.7-152.09c0-84.87-50.7-152.09-50.7-152.09"/>
			<circle class="st1" cx="-9114.8" cy="4149.92" r="152.09"/>
			<path class="st1" d="M-9114.8,4302.02c0,0,101.4-33.93,101.4-152.09s-101.4-152.09-101.4-152.09"/>
			<path class="st1" d="M-9114.8,4302.02c0,0-50.7-67.22-50.7-152.09c0-84.87,50.7-152.09,50.7-152.09"/>
			<path class="st1" d="M-9114.8,4302.02c0,0-101.4-33.93-101.4-152.09s101.4-152.09,101.4-152.09"/>
			<path class="st1" d="M-9250.83,4218.04c16.25-6.98,59.74-21.8,136.02-21.8c76.28,0,119.78,14.83,136.02,21.8"/>
			<path class="st1" d="M-9214.9,4264.44c15.8-7.44,46.97-17.5,100.1-17.5c52.72,0,83.82,9.9,99.74,17.33"/>
			<path class="st1" d="M-9250.83,4081.8c16.25,6.98,59.74,21.8,136.02,21.8c76.28,0,119.78-14.83,136.02-21.8"/>
			<path class="st1" d="M-9214.9,4035.41c15.8,7.44,46.97,17.5,100.1,17.5c52.72,0,83.82-9.9,99.74-17.33"/>
		</g>
		<g>
			<circle class="st1" cx="-7825.31" cy="4231.54" r="152.09"/>
			<path class="st1" d="M-7723.71,4266.9c-14.66,42-54.67,72.21-101.61,72.21s-86.95-30.21-101.61-72.21"/>
			<path class="st1" d="M-7733.67,4265.02c0,0,8.47,4.54,18.32,3.74"/>
			<path class="st1" d="M-7917.76,4265.02c0,0-8.47,4.54-18.32,3.74"/>
			<g>
				<ellipse class="st3" cx="-7787.33" cy="4188.96" rx="24.39" ry="51.41"/>
				<ellipse class="st3" cx="-7863.3" cy="4188.96" rx="24.39" ry="51.41"/>
			</g>
		</g>
		<g>
			<path class="st1" d="M-8977.14,3344.91v279.29c0,21.2,17.18,38.38,38.38,38.38h245.01c21.2,0,38.38,17.18,38.38,38.38v134.92
				c0,21.2,17.18,38.38,38.38,38.38h260.69c21.2,0,38.38,17.18,38.38,38.38v96.83c0,21.2,17.18,38.38,38.38,38.38h332.92"/>
			<path class="st1" d="M-8005.5,3504.64v404.13c0,21.2-17.18,38.38-38.38,38.38h-283.48c-21.2,0-38.38,17.18-38.38,38.38v117.14
				c0,21.2-17.18,38.38-38.38,38.38h-475.83c-21.2,0-38.38-17.18-38.38-38.38v-230.74c0-21.2-17.18-38.38-38.38-38.38h-185.64"/>
			<path class="st1" d="M-8797.48,3483.76v475.69c0,21.2,17.18,38.38,38.38,38.38h262.24c21.2,0,38.38-17.18,38.38-38.38v-137.41
				c0-21.2,17.18-38.38,38.38-38.38h561.96"/>
			<circle class="st3" cx="-8005.5" cy="3504.64" r="11.53"/>
			<circle class="st3" cx="-7858.15" cy="3783.66" r="11.53"/>
			<circle class="st3" cx="-7946.62" cy="4047.84" r="11.53"/>
			<circle class="st3" cx="-9142.34" cy="3833.55" r="11.53"/>
			<circle class="st3" cx="-8797.48" cy="3483.76" r="11.53"/>
			<circle class="st3" cx="-8977.14" cy="3344.91" r="11.53"/>
		</g>
		<g>
			<circle class="st1" cx="-8381.95" cy="3494.56" r="196.8"/>
			<circle class="st1" cx="-8381.95" cy="3494.56" r="253.12"/>
			<line class="st1" x1="-8467.77" y1="3580.38" x2="-8296.13" y2="3408.74"/>
			<line class="st1" x1="-8422.33" y1="3575.23" x2="-8310.31" y2="3463.2"/>
			<polyline class="st1" points="-8547.3,3686.22 -8619.86,3758.77 -8646.16,3732.47 -8573.61,3659.91 			"/>
			<path class="st2" d="M-8658.28,3720.35l50.54,50.54l-202.91,202.91c-13.96,13.96-36.58,13.96-50.54,0v0
				c-13.96-13.96-13.96-36.58,0-50.54L-8658.28,3720.35z"/>
			<g>
				<path class="st3" d="M-8670.69,3229.67V3328h5.38v-98.33c-0.88,0.11-1.78,0.17-2.69,0.17
					C-8668.91,3229.85-8669.81,3229.78-8670.69,3229.67z"/>
				<path class="st3" d="M-8665.31,3187.36v-98.33h-5.38v98.33c0.88-0.11,1.78-0.17,2.69-0.17
					C-8667.09,3187.18-8666.19,3187.25-8665.31,3187.36z"/>
				<path class="st3" d="M-8646.84,3211.2h98.33v-5.38h-98.33c0.11,0.88,0.17,1.78,0.17,2.69
					C-8646.67,3209.43-8646.73,3210.32-8646.84,3211.2z"/>
				<path class="st3" d="M-8689.16,3205.83h-98.33v5.38h98.33c-0.11-0.88-0.17-1.78-0.17-2.69
					C-8689.33,3207.6-8689.27,3206.71-8689.16,3205.83z"/>
				<path class="st3" d="M-8681.06,3191.65l-69.53-69.53l-3.8,3.8l69.53,69.53C-8683.76,3194.04-8682.48,3192.76-8681.06,3191.65z"
					/>
				<path class="st3" d="M-8654.94,3225.38l69.53,69.53l3.8-3.8l-69.53-69.53C-8652.24,3223-8653.52,3224.27-8654.94,3225.38z"/>
				<path class="st3" d="M-8651.14,3195.46l69.53-69.53l-3.8-3.8l-69.53,69.53C-8653.52,3192.76-8652.24,3194.04-8651.14,3195.46z"
					/>
				<path class="st3" d="M-8684.86,3221.57l-69.53,69.53l3.8,3.8l69.53-69.53C-8682.48,3224.27-8683.76,3223-8684.86,3221.57z"/>
			</g>
		</g>
		<polygon class="st3" points="-9125.41,3565.44 -9111.38,3601.9 -9074.91,3615.94 -9111.38,3629.97 -9125.41,3666.44 
			-9139.46,3629.98 -9175.91,3615.94 -9139.44,3601.9 		"/>
		<polygon class="st3" points="-8296.13,4099.42 -8282.1,4135.89 -8245.63,4149.92 -8282.1,4163.95 -8296.13,4200.42 
			-8310.18,4163.97 -8346.63,4149.92 -8310.17,4135.89 		"/>
		<polygon class="st3" points="-8078.33,3222.39 -8064.3,3258.85 -8027.83,3272.89 -8064.3,3286.92 -8078.33,3323.39 
			-8092.38,3286.93 -8128.83,3272.89 -8092.37,3258.85 		"/>
		<g>
			<rect x="-7769" y="3385.64" class="st3" width="6.67" height="296.34"/>
			
				<rect x="-7769" y="3385.64" transform="matrix(-1.836970e-16 1 -1 -1.836970e-16 -4231.8535 11299.4844)" class="st3" width="6.67" height="296.34"/>
			
				<rect x="-7769" y="3385.64" transform="matrix(0.7071 -0.7071 0.7071 0.7071 -4773.2964 -4456.1265)" class="st3" width="6.67" height="296.34"/>
			
				<rect x="-7769" y="3385.64" transform="matrix(0.7071 0.7071 -0.7071 0.7071 224.2731 6526.1875)" class="st3" width="6.67" height="296.34"/>
			<circle class="st3" cx="-7765.67" cy="3533.82" r="26.45"/>
		</g>
	</g>
	<g>
		<g>
			<line class="st1" x1="-6236.88" y1="3890.64" x2="-5880.35" y2="3890.64"/>
			<line class="st1" x1="-6058.61" y1="3712.37" x2="-6058.61" y2="4068.91"/>
			<path class="st1" d="M-6058.61,4068.91c0,0,59.42-78.79,59.42-178.27s-59.42-178.27-59.42-178.27"/>
			<circle class="st1" cx="-6058.61" cy="3890.64" r="178.27"/>
			<path class="st1" d="M-6058.61,4068.91c0,0,118.84-39.77,118.84-178.27c0-138.5-118.84-178.27-118.84-178.27"/>
			<path class="st1" d="M-6058.61,4068.91c0,0-59.42-78.79-59.42-178.27s59.42-178.27,59.42-178.27"/>
			<path class="st1" d="M-6058.61,4068.91c0,0-118.85-39.77-118.85-178.27c0-138.5,118.85-178.27,118.85-178.27"/>
			<path class="st1" d="M-6218.04,3970.48c19.04-8.18,70.02-25.55,159.43-25.55c89.41,0,140.39,17.38,159.43,25.55"/>
			<path class="st1" d="M-6175.94,4024.86c18.52-8.73,55.06-20.51,117.32-20.51c61.79,0,98.25,11.61,116.9,20.31"/>
			<path class="st1" d="M-6218.04,3810.8c19.04,8.18,70.02,25.55,159.43,25.55c89.41,0,140.39-17.38,159.43-25.55"/>
			<path class="st1" d="M-6175.94,3756.42c18.52,8.73,55.06,20.51,117.32,20.51c61.79,0,98.25-11.61,116.9-20.31"/>
		</g>
		<g>
			<ellipse class="st1" cx="-4377.12" cy="3681.77" rx="388.34" ry="64.51"/>
			<ellipse class="st1" cx="-4377.12" cy="3746.28" rx="388.34" ry="64.51"/>
			<ellipse class="st1" cx="-4377.12" cy="3810.8" rx="388.34" ry="64.51"/>
			<ellipse class="st1" cx="-4377.12" cy="3875.31" rx="388.34" ry="64.51"/>
			<ellipse class="st1" cx="-4377.12" cy="3939.82" rx="388.34" ry="64.51"/>
		</g>
		<g>
			<path class="st2" d="M-6130.09,3497.56h2015.28v439.27c0,16.57-13.43,30-30,30h-1955.28c-16.57,0-30-13.43-30-30V3497.56z"/>
			<path class="st2" d="M-6100.09,3336.27h1955.28c16.57,0,30,13.43,30,30v131.28h-2015.28v-131.28
				C-6130.09,3349.71-6116.66,3336.27-6100.09,3336.27z"/>
			<circle class="st1" cx="-6033.13" cy="3416.92" r="25.48"/>
			<circle class="st1" cx="-5945.08" cy="3416.92" r="25.48"/>
			<circle class="st1" cx="-5857.03" cy="3416.92" r="25.48"/>
		</g>
		<g>
			<rect x="-5845.34" y="3671.66" class="st2" width="1324.71" height="121.07"/>
			<rect x="-4520.63" y="3671.66" class="st9" width="121.07" height="121.07"/>
			<g>
				<circle class="st14" cx="-4449.91" cy="3722.01" r="23.28"/>
				<line class="st14" x1="-4466.37" y1="3738.47" x2="-4493.56" y2="3765.66"/>
			</g>
		</g>
		<g>
			<rect x="-6156.85" y="3134.21" class="st3" width="4.73" height="210.26"/>
			
				<rect x="-6156.85" y="3134.21" transform="matrix(-1.836970e-16 1 -1 -1.836970e-16 -2915.1445 9393.8281)" class="st3" width="4.73" height="210.26"/>
			
				<rect x="-6156.85" y="3134.21" transform="matrix(0.7071 -0.7071 0.7071 0.7071 -4093.1677 -3403.0977)" class="st3" width="4.73" height="210.26"/>
			
				<rect x="-6156.85" y="3134.21" transform="matrix(0.7071 0.7071 -0.7071 0.7071 487.9532 5300.6602)" class="st3" width="4.73" height="210.26"/>
			<circle class="st3" cx="-6154.49" cy="3239.34" r="18.77"/>
		</g>
		<g>
			<circle class="st2" cx="-4363.52" cy="3239.34" r="152.09"/>
			<path class="st1" d="M-4261.91,3274.7c-14.66,42-54.67,72.21-101.61,72.21s-86.95-30.21-101.61-72.21"/>
			<path class="st1" d="M-4271.88,3272.82c0,0,8.47,4.53,18.32,3.74"/>
			<path class="st1" d="M-4455.97,3272.82c0,0-8.47,4.53-18.32,3.74"/>
			<g>
				<ellipse class="st3" cx="-4325.53" cy="3196.76" rx="24.39" ry="51.41"/>
				<ellipse class="st3" cx="-4401.51" cy="3196.76" rx="24.39" ry="51.41"/>
			</g>
		</g>
		<g>
			<path class="st1" d="M-5945.08,4306.76c0,0,147.3-53.9,164.32-131.91h0c1.7-8.36,1.56-17.23-0.75-26.04
				c-8.3-31.64-41.36-50.2-72.93-40.35c-28.16,8.79-45.25,37.97-39.13,66.83c2.11,9.94,6.62,18.68,12.77,25.79h0
				c20.74,23.29,57.01,33.62,93.5,37.56c76.31,8.24,153.25-11.94,215.69-56.56c29.86-21.34,56.39-48.13,63.04-78.61h0
				c1.7-8.36,1.56-17.23-0.75-26.04c-8.3-31.64-41.36-50.2-72.93-40.35c-28.16,8.79-45.25,37.97-39.13,66.83
				c2.11,9.94,6.62,18.68,12.77,25.79v0c20.74,23.29,57.01,33.62,93.5,37.56c76.31,8.24,153.25-11.94,215.69-56.56
				c29.86-21.34,56.39-48.13,63.04-78.61l0,0c1.7-8.36,1.56-17.23-0.75-26.04c-8.3-31.64-41.36-50.2-72.93-40.35
				c-28.16,8.79-45.25,37.97-39.13,66.83c2.11,9.94,6.62,18.68,12.77,25.79h0c20.74,23.29,57.01,33.62,93.5,37.56
				c76.31,8.24,153.25-11.94,215.69-56.56c29.86-21.34,56.39-48.13,63.04-78.61l0,0c1.7-8.36,1.56-17.23-0.75-26.04
				c-8.3-31.64-41.36-50.2-72.93-40.35c-28.16,8.79-45.25,37.97-39.13,66.83c2.11,9.94,6.62,18.68,12.77,25.79v0
				c20.74,23.29,57.01,33.62,93.5,37.56c76.31,8.24,153.25-11.94,215.69-56.56c29.86-21.34,56.39-48.13,63.04-78.61l0,0
				c1.7-8.36,1.56-17.23-0.75-26.04c-8.3-31.64-41.36-50.2-72.93-40.35c-28.16,8.79-45.25,37.97-39.13,66.83
				c2.11,9.94,6.62,18.68,12.77,25.79l0,0c14.75,16.56,37.35,26.57,62.3,32.39c75.47,17.6,154.53-7.78,207-64.81"/>
			<path class="st1" d="M-4536.95,3958c0,0-21.57-40.22,14.23-74.84c-35.8,34.62-75.27,11.72-75.27,11.72"/>
		</g>
	</g>
	<g>
		<g>
			<line class="st1" x1="-2276.16" y1="3171.13" x2="-1866.08" y2="3171.13"/>
			<line class="st1" x1="-2071.12" y1="2966.09" x2="-2071.12" y2="3376.18"/>
			<path class="st1" d="M-2071.12,3376.18c0,0,68.35-90.62,68.35-205.04c0-114.42-68.35-205.04-68.35-205.04"/>
			<circle class="st1" cx="-2071.12" cy="3171.13" r="205.04"/>
			<path class="st1" d="M-2071.12,3376.18c0,0,136.69-45.74,136.69-205.04s-136.69-205.04-136.69-205.04"/>
			<path class="st1" d="M-2071.12,3376.18c0,0-68.35-90.62-68.35-205.04c0-114.42,68.35-205.04,68.35-205.04"/>
			<path class="st1" d="M-2071.12,3376.18c0,0-136.69-45.74-136.69-205.04s136.69-205.04,136.69-205.04"/>
			<path class="st1" d="M-2254.49,3262.97c21.9-9.4,80.54-29.39,183.38-29.39c102.84,0,161.48,19.99,183.38,29.39"/>
			<path class="st1" d="M-2206.06,3325.51c21.3-10.04,63.32-23.59,134.94-23.59c71.08,0,113.01,13.35,134.46,23.36"/>
			<path class="st1" d="M-2254.49,3079.3c21.9,9.4,80.54,29.39,183.38,29.39c102.84,0,161.48-19.99,183.38-29.39"/>
			<path class="st1" d="M-2206.06,3016.75c21.3,10.04,63.32,23.59,134.94,23.59c71.08,0,113.01-13.35,134.46-23.36"/>
		</g>
		<g>
			<path class="st2" d="M-1971.39,3964.79c-46.57,0-90.39-29.05-120.24-79.69c-26.12-44.33-40.51-102.36-40.51-163.42
				c0-61.05,14.39-119.09,40.51-163.41c29.85-50.65,73.67-79.69,120.24-79.69c46.57,0,90.39,29.05,120.24,79.69
				c26.12,44.33,40.51,102.36,40.51,163.41s-14.39,119.09-40.51,163.42C-1881,3935.74-1924.82,3964.79-1971.39,3964.79z"/>
			<ellipse class="st9" cx="-1971.39" cy="3721.68" rx="118.17" ry="200.54"/>
			<path class="st1" d="M-1961.71,3478.99l694.59,58.72c0,0,67.09,47.06,67.09,183.97c0,136.91-67.09,183.94-67.09,183.94
				l-694.59,58.75"/>
			<path class="st1" d="M-1248.39,3556.63l308.62,26.09c0,0,50.67,35.55,50.67,138.96c0,103.41-50.67,138.94-50.67,138.94
				l-308.63,26.11"/>
			<path class="st1" d="M-903.62,3636.01l42.32,3.58c0,0,29.93,21,29.93,82.09c0,61.09-29.93,82.07-29.93,82.07l-42.32,3.58"/>
			<path class="st2" d="M-2321.53,3964.79c-46.57,0-90.39-29.05-120.24-79.69c-26.12-44.33-40.51-102.36-40.51-163.42
				c0-61.05,14.39-119.09,40.51-163.41c29.85-50.65,73.67-79.69,120.24-79.69c46.57,0,90.39,29.05,120.24,79.69
				c26.12,44.33,40.51,102.36,40.51,163.41s-14.39,119.09-40.51,163.42C-2231.14,3935.74-2274.96,3964.79-2321.53,3964.79z"/>
			<ellipse class="st9" cx="-2321.53" cy="3721.68" rx="118.17" ry="200.54"/>
			<line class="st1" x1="-2041.35" y1="3941.49" x2="-2311.85" y2="3964.37"/>
			<line class="st1" x1="-2311.85" y1="3478.99" x2="-2042.89" y2="3501.73"/>
		</g>
		<polygon class="st3" points="-1832.77,4031.07 -1819.36,4065.92 -1784.51,4079.33 -1819.36,4092.74 -1832.77,4127.6 
			-1846.19,4092.76 -1881.03,4079.33 -1846.18,4065.92 		"/>
		<polygon class="st3" points="-2487.97,3391.23 -2474.56,3426.09 -2439.7,3439.5 -2474.56,3452.91 -2487.97,3487.76 
			-2501.39,3452.92 -2536.23,3439.5 -2501.38,3426.09 		"/>
		<polygon class="st3" points="-1656.82,3359.2 -1643.41,3394.05 -1608.56,3407.46 -1643.41,3420.88 -1656.82,3455.73 
			-1670.24,3420.89 -1705.08,3407.46 -1670.23,3394.05 		"/>
		<polygon class="st3" points="-889.1,3873.95 -875.69,3908.8 -840.83,3922.22 -875.69,3935.63 -889.1,3970.48 -902.52,3935.64 
			-937.36,3922.22 -902.51,3908.8 		"/>
		<g>
			<rect x="-1238.46" y="4046.74" class="st3" width="8.22" height="365.18"/>
			
				<rect x="-1238.46" y="4046.74" transform="matrix(-1.836970e-16 1 -1 -1.836970e-16 2994.9749 5463.6772)" class="st3" width="8.22" height="365.18"/>
			
				<rect x="-1238.46" y="4046.74" transform="matrix(0.7071 -0.7071 0.7071 0.7071 -3352.1182 365.9228)" class="st3" width="8.22" height="365.18"/>
			
				<rect x="-1238.46" y="4046.74" transform="matrix(0.7071 0.7071 -0.7071 0.7071 2629.052 2111.5588)" class="st3" width="8.22" height="365.18"/>
			<circle class="st3" cx="-1234.35" cy="4229.33" r="32.6"/>
		</g>
		<g>
			<path class="st1" d="M-1608.42,3028.55v165.64c0,15.94,12.92,28.86,28.86,28.86h330.59c15.94,0,28.86,12.92,28.86,28.86v186.64
				c0,15.94,12.92,28.86,28.86,28.86h323.76"/>
			<circle class="st3" cx="-1608.42" cy="3028.55" r="13.71"/>
			<circle class="st3" cx="-867.49" cy="3467.4" r="13.71"/>
		</g>
		<g>
			<path class="st1" d="M-2740.29,3900.43h129.28c17.28,0,31.29,14.01,31.29,31.29v107.08c0,17.28,14.01,31.29,31.29,31.29h325.73
				c17.28,0,31.29,14.01,31.29,31.29v181.78c0,17.28,14.01,31.29,31.29,31.29h545.67"/>
			<circle class="st3" cx="-2740.29" cy="3900.43" r="13.71"/>
			<circle class="st3" cx="-1614.45" cy="4314.45" r="13.71"/>
		</g>
	</g>
	<g>
		<g>
			<ellipse class="st1" cx="1500" cy="3616.55" rx="1196.82" ry="76.55"/>
			<ellipse class="st1" cx="1500" cy="3693.1" rx="1196.82" ry="76.55"/>
			<ellipse class="st1" cx="1500" cy="3769.65" rx="1196.82" ry="76.55"/>
			<ellipse class="st1" cx="1500" cy="3846.19" rx="1196.82" ry="76.55"/>
			<ellipse class="st1" cx="1500" cy="3922.74" rx="1196.82" ry="76.55"/>
		</g>
		<g>
			<path class="st2" d="M488.48,3309.81h2015.28v889.68c0,16.57-13.43,30-30,30H518.48c-16.57,0-30-13.43-30-30V3309.81z"/>
			<path class="st2" d="M518.48,3148.52h1955.28c16.57,0,30,13.43,30,30v131.28H488.48v-131.28
				C488.48,3161.95,501.91,3148.52,518.48,3148.52z"/>
			<circle class="st1" cx="585.43" cy="3229.16" r="25.48"/>
			<circle class="st1" cx="673.48" cy="3229.16" r="25.48"/>
			<circle class="st1" cx="761.53" cy="3229.16" r="25.48"/>
		</g>
		<g>
			<rect x="774.74" y="3725.05" class="st3" width="4.73" height="210.26"/>
			
				<rect x="774.74" y="3725.05" transform="matrix(-1.836970e-16 1 -1 -1.836970e-16 4607.29 3053.0688)" class="st3" width="4.73" height="210.26"/>
			
				<rect x="774.74" y="3725.05" transform="matrix(0.7071 -0.7071 0.7071 0.7071 -2480.7354 1671.3337)" class="st3" width="4.73" height="210.26"/>
			
				<rect x="774.74" y="3725.05" transform="matrix(0.7071 0.7071 -0.7071 0.7071 2935.9563 572.3334)" class="st3" width="4.73" height="210.26"/>
			<circle class="st3" cx="777.11" cy="3830.18" r="18.77"/>
		</g>
		<g>
			<circle class="st2" cx="1439.47" cy="3637.42" r="152.09"/>
			<path class="st1" d="M1541.07,3672.79c-14.66,42-54.67,72.21-101.61,72.21s-86.95-30.21-101.61-72.21"/>
			<path class="st1" d="M1531.11,3670.91c0,0,8.47,4.53,18.32,3.74"/>
			<path class="st1" d="M1347.02,3670.91c0,0-8.47,4.53-18.32,3.74"/>
			<g>
				<ellipse class="st3" cx="1477.46" cy="3594.84" rx="24.39" ry="51.41"/>
				<ellipse class="st3" cx="1401.48" cy="3594.84" rx="24.39" ry="51.41"/>
			</g>
		</g>
		<g>
			<line class="st1" x1="1093.96" y1="3848.95" x2="1305.33" y2="3848.95"/>
			<line class="st1" x1="1199.65" y1="3743.26" x2="1199.65" y2="3954.64"/>
			<path class="st1" d="M1199.65,3954.64c0,0,35.23-46.71,35.23-105.69c0-58.98-35.23-105.69-35.23-105.69"/>
			<circle class="st1" cx="1199.65" cy="3848.95" r="105.69"/>
			<path class="st1" d="M1199.65,3954.64c0,0,70.46-23.58,70.46-105.69s-70.46-105.69-70.46-105.69"/>
			<path class="st1" d="M1199.65,3954.64c0,0-35.23-46.71-35.23-105.69c0-58.98,35.23-105.69,35.23-105.69"/>
			<path class="st1" d="M1199.65,3954.64c0,0-70.46-23.58-70.46-105.69s70.46-105.69,70.46-105.69"/>
			<path class="st1" d="M1105.12,3896.28c11.29-4.85,41.51-15.15,94.52-15.15c53.01,0,83.23,10.3,94.52,15.15"/>
			<path class="st1" d="M1130.09,3928.52c10.98-5.17,32.64-12.16,69.56-12.16c36.64,0,58.25,6.88,69.31,12.04"/>
			<path class="st1" d="M1105.12,3801.61c11.29,4.85,41.51,15.15,94.52,15.15c53.01,0,83.23-10.3,94.52-15.15"/>
			<path class="st1" d="M1130.09,3769.37c10.98,5.17,32.64,12.16,69.56,12.16c36.64,0,58.25-6.88,69.31-12.04"/>
		</g>
		<g>
			<path class="st3" d="M1035.61,3681.75v90.68h4.96v-90.68c-0.81,0.1-1.64,0.16-2.48,0.16S1036.42,3681.86,1035.61,3681.75z"/>
			<path class="st3" d="M1040.57,3642.73v-90.68h-4.96v90.68c0.81-0.1,1.64-0.16,2.48-0.16S1039.76,3642.63,1040.57,3642.73z"/>
			<path class="st3" d="M1057.6,3664.72h90.68v-4.96h-90.68c0.1,0.81,0.16,1.64,0.16,2.48
				C1057.76,3663.08,1057.7,3663.91,1057.6,3664.72z"/>
			<path class="st3" d="M1018.58,3659.76h-90.68v4.96h90.68c-0.1-0.81-0.16-1.64-0.16-2.48
				C1018.42,3661.4,1018.48,3660.58,1018.58,3659.76z"/>
			<path class="st3" d="M1026.05,3646.69l-64.12-64.12l-3.51,3.51l64.12,64.12C1023.56,3648.89,1024.74,3647.71,1026.05,3646.69z"/>
			<path class="st3" d="M1050.13,3677.79l64.12,64.12l3.51-3.51l-64.12-64.12C1052.62,3675.6,1051.44,3676.78,1050.13,3677.79z"/>
			<path class="st3" d="M1053.64,3650.2l64.12-64.12l-3.51-3.51l-64.12,64.12C1051.44,3647.71,1052.62,3648.89,1053.64,3650.2z"/>
			<path class="st3" d="M1022.54,3674.29l-64.12,64.12l3.51,3.51l64.12-64.12C1024.74,3676.78,1023.56,3675.6,1022.54,3674.29z"/>
		</g>
		<g>
			<rect x="777.11" y="3709.11" class="st2" width="1324.71" height="121.07"/>
			<rect x="2101.82" y="3709.11" class="st9" width="121.07" height="121.07"/>
			<g>
				<circle class="st14" cx="2172.54" cy="3759.46" r="23.28"/>
				<line class="st14" x1="2156.08" y1="3775.92" x2="2128.89" y2="3803.11"/>
			</g>
		</g>
		<g>
			<polygon class="st2" points="1855.05,3637.42 1872.11,3705.57 1920.96,3655.08 1901.66,3722.63 1969.2,3703.33 1918.71,3752.18 
				1986.86,3769.23 1918.71,3786.29 1969.2,3835.14 1901.66,3815.83 1920.96,3883.38 1872.11,3832.89 1855.05,3901.04 1838,3832.89 
				1789.15,3883.38 1808.45,3815.83 1740.9,3835.14 1791.4,3786.29 1723.25,3769.23 1791.4,3752.18 1740.9,3703.33 1808.45,3722.63 
				1789.15,3655.08 1838,3705.57 			"/>
			<path class="st9" d="M1840.72,3777.19c-4.94-13.44,8.12-26.51,21.57-21.57l105.27,38.7l104.65,38.47
				c13.55,4.98,14.93,23.59,2.26,30.52l-81.51,44.55l-44.55,81.51c-6.92,12.66-25.54,11.28-30.52-2.26l-38.47-104.65
				L1840.72,3777.19z"/>
			<g>
				<defs>
					<path id="SVGID_13_" d="M1840.72,3777.19c-4.94-13.44,8.12-26.51,21.57-21.57l105.27,38.7l104.65,38.47
						c13.55,4.98,14.93,23.59,2.26,30.52l-81.51,44.55l-44.55,81.51c-6.92,12.66-25.54,11.28-30.52-2.26l-38.47-104.65
						L1840.72,3777.19z"/>
				</defs>
				<clipPath id="SVGID_14_">
					<use xlink:href="#SVGID_13_"  style="overflow:visible;"/>
				</clipPath>
				<polygon class="st15" points="1855.05,3637.42 1872.11,3705.57 1920.96,3655.08 1901.66,3722.63 1969.2,3703.33 
					1918.71,3752.18 1986.86,3769.23 1918.71,3786.29 1969.2,3835.14 1901.66,3815.83 1920.96,3883.38 1872.11,3832.89 
					1855.05,3901.04 1838,3832.89 1789.15,3883.38 1808.45,3815.83 1740.9,3835.14 1791.4,3786.29 1723.25,3769.23 1791.4,3752.18 
					1740.9,3703.33 1808.45,3722.63 1789.15,3655.08 1838,3705.57 				"/>
			</g>
		</g>
		<polygon class="st9" points="761.53,3514.59 775.67,3551.35 812.43,3565.49 775.67,3579.63 761.53,3616.38 747.37,3579.64 
			710.64,3565.49 747.39,3551.35 		"/>
		<polygon class="st9" points="1392.56,3947.21 1406.7,3983.97 1443.46,3998.11 1406.7,4012.25 1392.56,4049.01 1378.4,4012.27 
			1341.66,3998.11 1378.42,3983.97 		"/>
		<polygon class="st9" points="2246.72,3523.5 2260.86,3560.25 2297.61,3574.39 2260.86,3588.53 2246.72,3625.29 2232.56,3588.55 
			2195.82,3574.39 2232.58,3560.25 		"/>
	</g>
	<g>
		<g>
			<ellipse class="st1" cx="-1819.93" cy="-1414.45" rx="846.92" ry="112.6"/>
			<ellipse class="st1" cx="-1819.93" cy="-1301.85" rx="846.92" ry="112.6"/>
			<ellipse class="st1" cx="-1819.93" cy="-1189.25" rx="846.92" ry="112.6"/>
			<ellipse class="st1" cx="-1819.93" cy="-1076.64" rx="846.92" ry="112.6"/>
		</g>
		<g>
			<rect x="-2520.62" y="-1993.53" class="st3" width="9.3" height="413.17"/>
			
				<rect x="-2520.62" y="-1993.53" transform="matrix(-1.836970e-16 1 -1 -1.836970e-16 -4302.9185 729.0253)" class="st3" width="9.3" height="413.17"/>
			
				<rect x="-2520.62" y="-1993.53" transform="matrix(0.7071 -0.7071 0.7071 0.7071 526.6509 -2302.4453)" class="st3" width="9.3" height="413.17"/>
			
				<rect x="-2520.62" y="-1993.53" transform="matrix(0.7071 0.7071 -0.7071 0.7071 -2000.4731 1255.6763)" class="st3" width="9.3" height="413.17"/>
			<circle class="st3" cx="-2515.97" cy="-1786.95" r="36.88"/>
		</g>
		<g>
			<circle class="st2" cx="-1070.53" cy="-1476.49" r="207.72"/>
			<path class="st1" d="M-931.76-1428.19c-20.02,57.36-74.67,98.63-138.77,98.63c-64.1,0-118.75-41.26-138.77-98.63"/>
			<path class="st1" d="M-945.37-1430.76c0,0,11.56,6.19,25.02,5.1"/>
			<path class="st1" d="M-1196.79-1430.76c0,0-11.56,6.19-25.02,5.1"/>
			<g>
				<ellipse class="st3" cx="-1018.65" cy="-1534.64" rx="33.31" ry="70.21"/>
				<ellipse class="st3" cx="-1122.41" cy="-1534.64" rx="33.31" ry="70.21"/>
			</g>
		</g>
		<g>
			<path class="st2" d="M-2424.76-1827.61h1209.68c23.51,0,42.57,19.06,42.57,42.57v186.28h-1294.81v-186.28
				C-2467.33-1808.55-2448.27-1827.61-2424.76-1827.61z"/>
			<circle class="st1" cx="-2329.76" cy="-1713.18" r="36.15"/>
			<circle class="st1" cx="-2204.83" cy="-1713.18" r="36.15"/>
			<circle class="st1" cx="-2079.89" cy="-1713.18" r="36.15"/>
			<path class="st2" d="M-2467.33-1598.76h1294.81v525.99c0,23.51-19.06,42.57-42.57,42.57h-1209.68
				c-23.51,0-42.57-19.06-42.57-42.57V-1598.76z"/>
		</g>
		<path class="st16" d="M-2128.7-1324.65L-2128.7-1324.65c-29.27,19.45-43.86,54.67-36.92,89.12l0,0.02l-0.01,0
			c-34.45-6.93-69.67,7.66-89.12,36.92l0,0l0,0c-19.45-29.26-54.67-43.86-89.12-36.92l-0.02,0l0-0.01
			c6.93-34.45-7.66-69.67-36.92-89.12l0,0l0,0c29.26-19.45,43.86-54.67,36.92-89.12l0-0.02l0.01,0
			c34.45,6.93,69.67-7.66,89.12-36.92l0,0l0,0c19.45,29.26,54.67,43.86,89.12,36.92l0.02,0l0,0.01
			C-2172.56-1379.32-2157.97-1344.1-2128.7-1324.65L-2128.7-1324.65z"/>
		<path class="st3" d="M-2259.5-1283.54c-8.98-24.42,14.76-48.15,39.17-39.17l191.18,70.28l190.04,69.86
			c24.6,9.04,27.11,42.85,4.11,55.42l-148.03,80.91l-80.91,148.03c-12.57,23-46.38,20.49-55.42-4.11l-69.86-190.04L-2259.5-1283.54z
			"/>
		<circle class="st3" cx="-2254.76" cy="-1324.65" r="64.21"/>
		<g>
			<defs>
				<path id="SVGID_15_" d="M-2259.5-1283.54c-8.98-24.42,14.76-48.15,39.17-39.17l191.18,70.28l190.04,69.86
					c24.6,9.04,27.11,42.85,4.11,55.42l-148.03,80.91l-80.91,148.03c-12.57,23-46.38,20.49-55.42-4.11l-69.86-190.04
					L-2259.5-1283.54z"/>
			</defs>
			<clipPath id="SVGID_16_">
				<use xlink:href="#SVGID_15_"  style="overflow:visible;"/>
			</clipPath>
			<circle class="st17" cx="-2254.76" cy="-1324.65" r="64.21"/>
			<path class="st18" d="M-2128.7-1324.65L-2128.7-1324.65c-29.27,19.45-43.86,54.67-36.92,89.12l0,0.02l-0.01,0
				c-34.45-6.93-69.67,7.66-89.12,36.92l0,0l0,0c-19.45-29.26-54.67-43.86-89.12-36.92l-0.02,0l0-0.01
				c6.93-34.45-7.66-69.67-36.92-89.12l0,0l0,0c29.26-19.45,43.86-54.67,36.92-89.12l0-0.02l0.01,0
				c34.45,6.93,69.67-7.66,89.12-36.92l0,0l0,0c19.45,29.26,54.67,43.86,89.12,36.92l0.02,0l0,0.01
				C-2172.56-1379.32-2157.97-1344.1-2128.7-1324.65L-2128.7-1324.65z"/>
		</g>
		<circle class="st2" cx="-1836.94" cy="-1324.65" r="64.21"/>
		<circle class="st2" cx="-1419.12" cy="-1324.65" r="64.21"/>
		<g>
			<line class="st1" x1="-2263.42" y1="-1959.65" x2="-1070.53" y2="-1959.65"/>
			<circle class="st3" cx="-2263.42" cy="-1959.65" r="11.23"/>
			<circle class="st3" cx="-1070.53" cy="-1959.65" r="11.23"/>
		</g>
	</g>
	<g>
		<polygon class="st1" points="-7642.28,8370.28 -7617.02,8471.23 -7544.66,8396.44 -7573.25,8496.5 -7473.19,8467.91 
			-7547.98,8540.26 -7447.03,8565.53 -7547.98,8590.8 -7473.19,8663.16 -7573.25,8634.56 -7544.66,8734.62 -7617.02,8659.83 
			-7642.28,8760.78 -7667.55,8659.83 -7739.91,8734.62 -7711.32,8634.56 -7811.38,8663.16 -7736.58,8590.8 -7837.54,8565.53 
			-7736.58,8540.26 -7811.38,8467.91 -7711.32,8496.5 -7739.91,8396.44 -7667.55,8471.23 		"/>
		<g>
			<line class="st1" x1="-9362.81" y1="9182.45" x2="-9101.59" y2="9182.45"/>
			<line class="st1" x1="-9232.2" y1="9051.84" x2="-9232.2" y2="9313.06"/>
			<path class="st1" d="M-9232.2,9313.06c0,0,43.54-57.73,43.54-130.61s-43.54-130.61-43.54-130.61"/>
			<circle class="st1" cx="-9232.2" cy="9182.45" r="130.61"/>
			<path class="st1" d="M-9232.2,9313.06c0,0,87.07-29.14,87.07-130.61s-87.07-130.61-87.07-130.61"/>
			<path class="st1" d="M-9232.2,9313.06c0,0-43.54-57.73-43.54-130.61s43.54-130.61,43.54-130.61"/>
			<path class="st1" d="M-9232.2,9313.06c0,0-87.07-29.14-87.07-130.61s87.07-130.61,87.07-130.61"/>
			<path class="st1" d="M-9349.01,9240.95c13.95-5.99,51.3-18.72,116.81-18.72c65.51,0,102.86,12.73,116.81,18.72"/>
			<path class="st1" d="M-9318.16,9280.79c13.57-6.39,40.34-15.03,85.96-15.03c45.27,0,71.98,8.5,85.65,14.88"/>
			<path class="st1" d="M-9349.01,9123.96c13.95,5.99,51.3,18.72,116.81,18.72c65.51,0,102.86-12.73,116.81-18.72"/>
			<path class="st1" d="M-9318.16,9084.11c13.57,6.39,40.34,15.03,85.96,15.03c45.27,0,71.98-8.5,85.65-14.88"/>
		</g>
		<g>
			<path class="st2" d="M-9261.11,8713.18h1637.82v439.28c0,16.57-13.43,30-30,30h-1577.82c-16.57,0-30-13.43-30-30V8713.18z"/>
			<path class="st2" d="M-9231.11,8551.89h1577.82c16.57,0,30,13.43,30,30v131.28h-1637.82v-131.28
				C-9261.11,8565.33-9247.68,8551.89-9231.11,8551.89z"/>
			<circle class="st1" cx="-9164.16" cy="8632.54" r="25.48"/>
			<circle class="st1" cx="-9076.11" cy="8632.54" r="25.48"/>
			<circle class="st1" cx="-8988.06" cy="8632.54" r="25.48"/>
		</g>
		<g>
			<rect x="-9660.77" y="8929.89" class="st2" width="2437.14" height="35.86"/>
			<rect x="-9660.77" y="8929.89" class="st9" width="1430.98" height="35.86"/>
		</g>
		<g>
			<line class="st1" x1="-8568.18" y1="9336.62" x2="-7708.32" y2="9336.62"/>
			<path class="st1" d="M-7809.48,9407.96c0,0,20.23-71.34,101.16-71.34c-80.93,0-101.16-71.34-101.16-71.34"/>
		</g>
		<g>
			<line class="st1" x1="-9417.99" y1="8397.28" x2="-8558.13" y2="8397.28"/>
			<path class="st1" d="M-8659.29,8468.63c0,0,20.23-71.34,101.16-71.34c-80.93,0-101.16-71.35-101.16-71.35"/>
		</g>
		<polygon class="st3" points="-7464.21,9166.67 -7453.89,9193.49 -7427.07,9203.81 -7453.89,9214.13 -7464.21,9240.95 
			-7474.54,9214.14 -7501.35,9203.81 -7474.53,9193.49 		"/>
		<polygon class="st3" points="-9503.23,8723.64 -9492.91,8750.46 -9466.09,8760.78 -9492.91,8771.1 -9503.23,8797.92 
			-9513.56,8771.11 -9540.37,8760.78 -9513.55,8750.46 		"/>
		<polygon class="st3" points="-8060.51,8325.94 -8050.19,8352.76 -8023.37,8363.08 -8050.19,8373.4 -8060.51,8400.22 
			-8070.84,8373.41 -8097.65,8363.08 -8070.83,8352.76 		"/>
		<polygon class="st3" points="-8842.78,9398.38 -8832.46,9425.2 -8805.64,9435.52 -8832.46,9445.84 -8842.78,9472.66 
			-8853.11,9445.85 -8879.92,9435.52 -8853.1,9425.2 		"/>
	</g>
	<g>
		<g>
			<path class="st2" d="M2495.69,8978.35H426.13c-11.24,0-20.35-9.11-20.35-20.35l0,0c0-11.24,9.11-20.35,20.35-20.35h2069.56
				c11.24,0,20.35,9.11,20.35,20.35l0,0C2516.04,8969.24,2506.93,8978.35,2495.69,8978.35z"/>
			<path class="st9" d="M426.13,8937.65c-11.24,0-20.35,9.11-20.35,20.35l0,0c0,11.24,9.11,20.35,20.35,20.35h17.92l29.4-40.71
				H426.13z"/>
			<polygon class="st9" points="641.59,8937.65 561.8,8937.65 532.41,8978.35 612.2,8978.35 			"/>
			<polygon class="st9" points="809.74,8937.65 729.95,8937.65 700.55,8978.35 780.34,8978.35 			"/>
			<polygon class="st9" points="977.88,8937.65 898.1,8937.65 868.7,8978.35 948.49,8978.35 			"/>
			<polygon class="st9" points="1146.03,8937.65 1066.24,8937.65 1036.85,8978.35 1116.63,8978.35 			"/>
			<polygon class="st9" points="1314.17,8937.65 1234.39,8937.65 1204.99,8978.35 1284.78,8978.35 			"/>
			<polygon class="st9" points="1482.32,8937.65 1402.53,8937.65 1373.14,8978.35 1452.92,8978.35 			"/>
			<polygon class="st9" points="1650.46,8937.65 1570.68,8937.65 1541.28,8978.35 1621.07,8978.35 			"/>
		</g>
		<g>
			<circle class="st2" cx="2516.04" cy="8798.75" r="78.18"/>
			<path class="st1" d="M2516.04,8798.75c47.58,8.82,36.45,69.18,36.45,69.18"/>
			<path class="st1" d="M2516.04,8798.75c31.43-36.79,78.14,3.02,78.14,3.02"/>
			<path class="st1" d="M2516.04,8798.75c-16.15-45.61,41.68-66.16,41.68-66.16"/>
			<path class="st1" d="M2516.04,8798.75c-47.58-8.82-36.45-69.18-36.45-69.18"/>
			<path class="st1" d="M2516.04,8798.75c-31.43,36.79-78.14-3.02-78.14-3.02"/>
			<path class="st1" d="M2516.04,8798.75c16.15,45.62-41.68,66.16-41.68,66.16"/>
		</g>
		<polygon class="st1" points="764.92,8430.85 790.19,8531.81 862.55,8457.01 833.95,8557.07 934.01,8528.48 859.22,8600.84 
			960.17,8626.11 859.22,8651.37 934.01,8723.73 833.95,8695.14 862.55,8795.2 790.19,8720.41 764.92,8821.36 739.65,8720.41 
			667.29,8795.2 695.89,8695.14 595.83,8723.73 670.62,8651.37 569.67,8626.11 670.62,8600.84 595.83,8528.48 695.89,8557.07 
			667.29,8457.01 739.65,8531.81 		"/>
		<polygon class="st3" points="473.45,9087.25 483.77,9114.07 510.59,9124.39 483.77,9134.71 473.45,9161.53 463.12,9134.72 
			436.31,9124.39 463.13,9114.07 		"/>
		<polygon class="st3" points="1222.44,8695.45 1232.76,8722.27 1259.58,8732.59 1232.76,8742.91 1222.44,8769.73 1212.11,8742.92 
			1185.3,8732.59 1212.12,8722.27 		"/>
		<polygon class="st3" points="2497.25,9050.11 2507.57,9076.93 2534.39,9087.25 2507.57,9097.57 2497.25,9124.39 2486.92,9097.58 
			2460.11,9087.25 2486.93,9076.93 		"/>
		<polygon class="st3" points="2048,8529.29 2058.32,8556.11 2085.14,8566.43 2058.32,8576.75 2048,8603.57 2037.67,8576.76 
			2010.86,8566.43 2037.68,8556.11 		"/>
		<polygon class="st3" points="1789.68,8769.73 1800,8796.55 1826.82,8806.87 1800,8817.19 1789.68,8844.01 1779.35,8817.2 
			1752.54,8806.87 1779.36,8796.55 		"/>
		<g>
			<g>
				<line class="st1" x1="753.22" y1="9192.8" x2="974.61" y2="9192.8"/>
				<line class="st1" x1="863.92" y1="9082.1" x2="863.92" y2="9303.49"/>
				<path class="st1" d="M863.92,9303.49c0,0,36.9-48.92,36.9-110.69s-36.9-110.69-36.9-110.69"/>
				<circle class="st1" cx="863.92" cy="9192.8" r="110.69"/>
				<path class="st1" d="M863.92,9303.49c0,0,73.8-24.69,73.8-110.69c0-86-73.8-110.69-73.8-110.69"/>
				<path class="st1" d="M863.92,9303.49c0,0-36.9-48.92-36.9-110.69s36.9-110.69,36.9-110.69"/>
				<path class="st1" d="M863.92,9303.49c0,0-73.8-24.69-73.8-110.69c0-86,73.8-110.69,73.8-110.69"/>
				<path class="st1" d="M764.92,9242.37c11.82-5.08,43.48-15.87,99-15.87c55.52,0,87.18,10.79,99,15.87"/>
				<path class="st1" d="M791.07,9276.14c11.5-5.42,34.19-12.73,72.85-12.73c38.37,0,61.01,7.21,72.59,12.61"/>
				<path class="st1" d="M764.92,9143.22c11.82,5.08,43.48,15.87,99,15.87c55.52,0,87.18-10.79,99-15.87"/>
				<path class="st1" d="M791.07,9109.45c11.5,5.42,34.19,12.73,72.85,12.73c38.37,0,61.01-7.21,72.59-12.61"/>
			</g>
			<g>
				<line class="st1" x1="1030.98" y1="9192.8" x2="1890.84" y2="9192.8"/>
				<path class="st1" d="M1789.68,9264.14c0,0,20.23-71.34,101.16-71.34c-80.93,0-101.16-71.34-101.16-71.34"/>
			</g>
			<g>
				<circle class="st1" cx="2057.9" cy="9192.8" r="110.69"/>
				<path class="st1" d="M2131.85,9218.53c-10.67,30.57-39.79,52.56-73.95,52.56c-34.16,0-63.28-21.99-73.95-52.56"/>
				<path class="st1" d="M2124.6,9217.17c0,0,6.16,3.3,13.33,2.72"/>
				<path class="st1" d="M1990.62,9217.17c0,0-6.16,3.3-13.33,2.72"/>
				<g>
					<ellipse class="st3" cx="2085.55" cy="9161.81" rx="17.75" ry="37.42"/>
					<ellipse class="st3" cx="2030.25" cy="9161.81" rx="17.75" ry="37.42"/>
				</g>
			</g>
		</g>
	</g>
	<g>
		<polygon class="st1" points="-2504.75,8615.37 -2549.53,8499 -2665.91,8454.22 -2549.53,8409.44 -2504.75,8293.07 
			-2459.93,8409.39 -2194.93,8454.22 -2459.97,8499 		"/>
		<g>
			<ellipse class="st1" cx="-1792.68" cy="8777.69" rx="1118.65" ry="64.51"/>
			<ellipse class="st1" cx="-1792.68" cy="8842.21" rx="1118.65" ry="64.51"/>
			<ellipse class="st1" cx="-1792.68" cy="8906.72" rx="1118.65" ry="64.51"/>
			<ellipse class="st1" cx="-1792.68" cy="8971.24" rx="1118.65" ry="64.51"/>
			<ellipse class="st1" cx="-1792.68" cy="9035.75" rx="1118.65" ry="64.51"/>
		</g>
		<g>
			<line class="st1" x1="-1650.33" y1="9168.5" x2="-1336.87" y2="9168.5"/>
			<line class="st1" x1="-1493.6" y1="9011.77" x2="-1493.6" y2="9325.24"/>
			<path class="st1" d="M-1493.6,9325.24c0,0,52.24-69.27,52.24-156.73c0-87.46-52.24-156.73-52.24-156.73"/>
			<circle class="st1" cx="-1493.6" cy="9168.5" r="156.73"/>
			<path class="st1" d="M-1493.6,9325.24c0,0,104.49-34.96,104.49-156.73c0-121.77-104.49-156.73-104.49-156.73"/>
			<path class="st1" d="M-1493.6,9325.24c0,0-52.24-69.27-52.24-156.73c0-87.46,52.24-156.73,52.24-156.73"/>
			<path class="st1" d="M-1493.6,9325.24c0,0-104.49-34.96-104.49-156.73c0-121.77,104.49-156.73,104.49-156.73"/>
			<path class="st1" d="M-1633.77,9238.7c16.74-7.19,61.56-22.46,140.17-22.46c78.61,0,123.43,15.28,140.17,22.47"/>
			<path class="st1" d="M-1596.75,9286.51c16.28-7.67,48.41-18.03,103.15-18.03c54.33,0,86.38,10.2,102.78,17.86"/>
			<path class="st1" d="M-1633.77,9098.31c16.74,7.19,61.56,22.46,140.17,22.46c78.61,0,123.43-15.28,140.17-22.47"/>
			<path class="st1" d="M-1596.75,9050.5c16.28,7.67,48.41,18.03,103.15,18.03c54.33,0,86.38-10.2,102.78-17.86"/>
		</g>
		<g>
			<path class="st2" d="M-2800.32,8713.18h2015.28v439.28c0,16.57-13.43,30-30,30h-1955.28c-16.57,0-30-13.43-30-30V8713.18z"/>
			<path class="st2" d="M-2770.32,8551.89h1955.28c16.57,0,30,13.43,30,30v131.28h-2015.28v-131.28
				C-2800.32,8565.33-2786.89,8551.89-2770.32,8551.89z"/>
			<circle class="st1" cx="-2703.37" cy="8632.54" r="25.48"/>
			<circle class="st1" cx="-2615.32" cy="8632.54" r="25.48"/>
			<circle class="st1" cx="-2527.27" cy="8632.54" r="25.48"/>
			<g>
				<rect x="-2504.18" y="8920.72" class="st2" width="1423" height="54.19"/>
				<rect x="-2504.18" y="8920.72" class="st9" width="835.52" height="54.19"/>
			</g>
		</g>
		<g>
			<path class="st1" d="M-1825.09,9336.62h-946.04c-79.77,0-148.22-49.43-176.31-119.28"/>
			<path class="st1" d="M-1971.8,9440.09c0,0,29.34-103.47,146.71-103.47c-117.37,0-146.71-103.47-146.71-103.47"/>
		</g>
		<g>
			<line class="st1" x1="-2041.77" y1="8408.52" x2="-848.88" y2="8408.52"/>
			<circle class="st3" cx="-2041.77" cy="8408.52" r="11.23"/>
			<circle class="st3" cx="-848.88" cy="8408.52" r="11.23"/>
		</g>
		<polygon class="st3" points="-878.6,9153.72 -1009.01,9118.78 -1139.42,9083.83 -1104.47,9214.24 -1069.53,9344.65 
			-1005.57,9257.72 -941.22,9322.07 -901.18,9282.03 -965.53,9217.68 		"/>
	</g>
	<g>
		<g>
			<path class="st2" d="M-6114.77,8979.95c-21.16,0-38.37-17.21-38.37-38.37v-38.93c0-21.16,17.21-38.37,38.37-38.37h1981.15
				c21.16,0,38.37,17.21,38.37,38.37v38.93c0,21.16-17.21,38.37-38.37,38.37H-6114.77z"/>
			<path class="st9" d="M-6114.77,8961.96c-11.24,0-20.38-9.14-20.38-20.38v-38.93c0-11.24,9.14-20.38,20.38-20.38h58.44
				c11.24,0,20.38,9.14,20.38,20.38v38.93c0,11.24-9.14,20.38-20.38,20.38H-6114.77z"/>
			<path class="st9" d="M-6002.59,8961.96c-11.24,0-20.38-9.14-20.38-20.38v-38.93c0-11.24,9.14-20.38,20.38-20.38h58.44
				c11.24,0,20.38,9.14,20.38,20.38v38.93c0,11.24-9.14,20.38-20.38,20.38H-6002.59z"/>
			<path class="st9" d="M-5890.41,8961.96c-11.24,0-20.38-9.14-20.38-20.38v-38.93c0-11.24,9.14-20.38,20.38-20.38h58.44
				c11.24,0,20.38,9.14,20.38,20.38v38.93c0,11.24-9.14,20.38-20.38,20.38H-5890.41z"/>
			<path class="st9" d="M-5778.23,8961.96c-11.24,0-20.38-9.14-20.38-20.38v-38.93c0-11.24,9.14-20.38,20.38-20.38h58.44
				c11.24,0,20.38,9.14,20.38,20.38v38.93c0,11.24-9.14,20.38-20.38,20.38H-5778.23z"/>
			<path class="st9" d="M-5666.04,8961.96c-11.24,0-20.38-9.14-20.38-20.38v-38.93c0-11.24,9.14-20.38,20.38-20.38h58.44
				c11.24,0,20.38,9.14,20.38,20.38v38.93c0,11.24-9.14,20.38-20.38,20.38H-5666.04z"/>
			<path class="st9" d="M-5553.86,8961.96c-11.24,0-20.38-9.14-20.38-20.38v-38.93c0-11.24,9.14-20.38,20.38-20.38h58.44
				c11.24,0,20.38,9.14,20.38,20.38v38.93c0,11.24-9.14,20.38-20.38,20.38H-5553.86z"/>
			<path class="st9" d="M-5441.68,8961.96c-11.24,0-20.38-9.14-20.38-20.38v-38.93c0-11.24,9.14-20.38,20.38-20.38h58.44
				c11.24,0,20.38,9.14,20.38,20.38v38.93c0,11.24-9.14,20.38-20.38,20.38H-5441.68z"/>
			<path class="st9" d="M-5329.5,8961.96c-11.24,0-20.38-9.14-20.38-20.38v-38.93c0-11.24,9.14-20.38,20.38-20.38h58.44
				c11.24,0,20.38,9.14,20.38,20.38v38.93c0,11.24-9.14,20.38-20.38,20.38H-5329.5z"/>
			<path class="st9" d="M-5217.32,8961.96c-11.24,0-20.38-9.14-20.38-20.38v-38.93c0-11.24,9.14-20.38,20.38-20.38h58.44
				c11.24,0,20.38,9.14,20.38,20.38v38.93c0,11.24-9.14,20.38-20.38,20.38H-5217.32z"/>
			<path class="st9" d="M-5105.14,8961.96c-11.24,0-20.38-9.14-20.38-20.38v-38.93c0-11.24,9.14-20.38,20.38-20.38h58.44
				c11.24,0,20.38,9.14,20.38,20.38v38.93c0,11.24-9.14,20.38-20.38,20.38H-5105.14z"/>
			<path class="st9" d="M-4992.96,8961.96c-11.24,0-20.38-9.14-20.38-20.38v-38.93c0-11.24,9.14-20.38,20.38-20.38h58.44
				c11.24,0,20.38,9.14,20.38,20.38v38.93c0,11.24-9.14,20.38-20.38,20.38H-4992.96z"/>
			<path class="st9" d="M-4880.78,8961.96c-11.24,0-20.38-9.14-20.38-20.38v-38.93c0-11.24,9.14-20.38,20.38-20.38h58.44
				c11.24,0,20.38,9.14,20.38,20.38v38.93c0,11.24-9.14,20.38-20.38,20.38H-4880.78z"/>
			<path class="st9" d="M-4768.6,8961.96c-11.24,0-20.38-9.14-20.38-20.38v-38.93c0-11.24,9.14-20.38,20.38-20.38h58.44
				c11.24,0,20.38,9.14,20.38,20.38v38.93c0,11.24-9.14,20.38-20.38,20.38H-4768.6z"/>
			<path class="st9" d="M-4656.42,8961.96c-11.24,0-20.38-9.14-20.38-20.38v-38.93c0-11.24,9.14-20.38,20.38-20.38h58.44
				c11.24,0,20.38,9.14,20.38,20.38v38.93c0,11.24-9.14,20.38-20.38,20.38H-4656.42z"/>
		</g>
		<g>
			<path class="st3" d="M-4702.24,9185.91c-6.86-18.66,11.28-36.8,29.94-29.94l146.14,53.72l145.27,53.4
				c18.8,6.91,20.72,32.75,3.14,42.36l-113.15,61.85l-61.85,113.15c-9.61,17.58-35.45,15.67-42.36-3.14l-53.4-145.27
				L-4702.24,9185.91z"/>
			<g>
				<circle class="st2" cx="-4271.85" cy="9174.45" r="93.77"/>
				<path class="st1" d="M-4271.85,9174.45c57.07,10.58,43.72,82.98,43.72,82.98"/>
				<path class="st1" d="M-4271.85,9174.45c37.7-44.13,93.72,3.62,93.72,3.62"/>
				<path class="st1" d="M-4271.85,9174.45c-19.37-54.71,50-79.35,50-79.35"/>
				<path class="st1" d="M-4271.85,9174.45c-57.07-10.58-43.72-82.98-43.72-82.98"/>
				<path class="st1" d="M-4271.85,9174.45c-37.7,44.13-93.72-3.62-93.72-3.62"/>
				<path class="st1" d="M-4271.85,9174.45c19.37,54.71-50,79.36-50,79.36"/>
			</g>
		</g>
		<polygon class="st3" points="-6022.97,8629.91 -6010.59,8662.08 -5978.42,8674.46 -6010.59,8686.84 -6022.97,8719 
			-6035.36,8686.85 -6067.51,8674.46 -6035.34,8662.08 		"/>
		<polygon class="st3" points="-4627.2,8390.33 -4614.82,8422.5 -4582.65,8434.88 -4614.82,8447.26 -4627.2,8479.42 
			-4639.59,8447.27 -4671.75,8434.88 -4639.58,8422.5 		"/>
		<polygon class="st3" points="-4248.55,8638.6 -4236.17,8670.77 -4204.01,8683.15 -4236.17,8695.53 -4248.55,8727.7 
			-4260.94,8695.54 -4293.1,8683.15 -4260.93,8670.77 		"/>
		<polygon class="st3" points="-5699.41,8241.75 -5687.03,8273.92 -5654.86,8286.3 -5687.03,8298.68 -5699.41,8330.84 
			-5711.8,8298.69 -5743.96,8286.3 -5711.79,8273.92 		"/>
		<polygon class="st3" points="-5743.96,9191.8 -5731.58,9223.97 -5699.41,9236.35 -5731.58,9248.73 -5743.96,9280.9 
			-5756.35,9248.74 -5788.5,9236.35 -5756.34,9223.97 		"/>
		<polygon class="st3" points="-5039.56,9080.68 -5027.19,9112.85 -4995.02,9125.23 -5027.19,9137.61 -5039.56,9169.77 
			-5051.95,9137.62 -5084.11,9125.23 -5051.94,9112.85 		"/>
		<g>
			<circle class="st1" cx="-5124.19" cy="8537.2" r="206.35"/>
			<path class="st1" d="M-4986.34,8585.17c-19.89,56.98-74.18,97.98-137.86,97.98s-117.97-40.99-137.85-97.98"/>
			<path class="st1" d="M-4999.86,8582.62c0,0,11.49,6.15,24.85,5.07"/>
			<path class="st1" d="M-5249.62,8582.62c0,0-11.49,6.15-24.85,5.07"/>
			<g>
				<ellipse class="st3" cx="-5072.65" cy="8479.42" rx="33.09" ry="69.75"/>
				<ellipse class="st3" cx="-5175.73" cy="8479.42" rx="33.09" ry="69.75"/>
			</g>
		</g>
	</g>
	<g>
		<g>
			<circle class="st1" cx="-8485.11" cy="5945.04" r="256.31"/>
			<path class="st1" d="M-8313.88,6004.63c-24.7,70.78-92.13,121.7-171.23,121.7s-146.53-50.92-171.23-121.7"/>
			<path class="st1" d="M-8330.68,6001.46c0,0,14.27,7.64,30.87,6.3"/>
			<path class="st1" d="M-8640.91,6001.46c0,0-14.27,7.64-30.87,6.3"/>
			<g>
				<ellipse class="st3" cx="-8421.09" cy="5873.28" rx="41.1" ry="86.64"/>
				<ellipse class="st3" cx="-8549.13" cy="5873.28" rx="41.1" ry="86.64"/>
			</g>
		</g>
		<rect x="-9186.63" y="6284.2" class="st2" width="1403.04" height="306.24"/>
		<g>
			<polygon class="st2" points="-8200.32,6330.76 -8177.07,6423.66 -8110.49,6354.83 -8136.8,6446.91 -8044.72,6420.6 
				-8113.55,6487.18 -8020.65,6510.44 -8113.55,6533.69 -8044.72,6600.27 -8136.8,6573.96 -8110.49,6666.04 -8177.07,6597.21 
				-8200.32,6690.11 -8223.57,6597.21 -8290.16,6666.04 -8263.84,6573.96 -8355.92,6600.27 -8287.1,6533.69 -8379.99,6510.44 
				-8287.1,6487.18 -8355.92,6420.6 -8263.84,6446.91 -8290.16,6354.83 -8223.57,6423.66 			"/>
			<polygon class="st3" points="-7876.36,6597.24 -8038.34,6553.84 -8200.32,6510.44 -8156.92,6672.42 -8113.52,6834.4 
				-8034.07,6726.42 -7954.14,6806.35 -7904.4,6756.62 -7984.33,6676.69 			"/>
			<g>
				<defs>
					<polygon id="SVGID_17_" points="-7876.36,6597.24 -8038.34,6553.84 -8200.32,6510.44 -8156.92,6672.42 -8113.52,6834.4 
						-8034.07,6726.42 -7954.14,6806.35 -7904.4,6756.62 -7984.33,6676.69 					"/>
				</defs>
				<clipPath id="SVGID_18_">
					<use xlink:href="#SVGID_17_"  style="overflow:visible;"/>
				</clipPath>
				<polygon class="st19" points="-8200.32,6330.76 -8177.07,6423.66 -8110.49,6354.83 -8136.8,6446.91 -8044.72,6420.6 
					-8113.55,6487.18 -8020.65,6510.44 -8113.55,6533.69 -8044.72,6600.27 -8136.8,6573.96 -8110.49,6666.04 -8177.07,6597.21 
					-8200.32,6690.11 -8223.57,6597.21 -8290.16,6666.04 -8263.84,6573.96 -8355.92,6600.27 -8287.1,6533.69 -8379.99,6510.44 
					-8287.1,6487.18 -8355.92,6420.6 -8263.84,6446.91 -8290.16,6354.83 -8223.57,6423.66 				"/>
			</g>
		</g>
		<polygon class="st3" points="-9131.3,6015.67 -9115.92,6055.62 -9075.97,6071 -9115.92,6086.37 -9131.3,6126.33 -9146.69,6086.39 
			-9186.63,6071 -9146.68,6055.62 		"/>
		<polygon class="st3" points="-7753.1,6055.1 -7737.72,6095.05 -7697.76,6110.43 -7737.72,6125.81 -7753.1,6165.76 
			-7768.49,6125.82 -7808.43,6110.43 -7768.47,6095.05 		"/>
		<polygon class="st3" points="-9222.56,6698.94 -9207.18,6738.9 -9167.22,6754.27 -9207.18,6769.65 -9222.56,6809.61 
			-9237.95,6769.67 -9277.89,6754.27 -9237.93,6738.9 		"/>
		<polygon class="st3" points="-7668.66,6723.73 -7653.28,6763.69 -7613.32,6779.07 -7653.28,6794.44 -7668.66,6834.4 
			-7684.05,6794.46 -7723.99,6779.07 -7684.03,6763.69 		"/>
		<polygon class="st3" points="-8476.43,6847.36 -8461.05,6887.32 -8421.09,6902.69 -8461.05,6918.07 -8476.43,6958.03 
			-8491.82,6918.08 -8531.76,6902.69 -8491.8,6887.32 		"/>
	</g>
	<g>
		<g>
			<path class="st3" d="M-1597.81,5869.71v76.49h4.18v-76.49c-0.69,0.09-1.38,0.14-2.09,0.14S-1597.12,5869.8-1597.81,5869.71z"/>
			<path class="st3" d="M-1593.63,5836.8v-76.49h-4.18v76.49c0.69-0.09,1.38-0.14,2.09-0.14S-1594.31,5836.71-1593.63,5836.8z"/>
			<path class="st3" d="M-1579.26,5855.35h76.49v-4.18h-76.49c0.09,0.69,0.14,1.38,0.14,2.09
				C-1579.12,5853.97-1579.17,5854.66-1579.26,5855.35z"/>
			<path class="st3" d="M-1612.18,5851.16h-76.49v4.18h76.49c-0.09-0.69-0.14-1.38-0.14-2.09
				C-1612.31,5852.55-1612.26,5851.85-1612.18,5851.16z"/>
			<path class="st3" d="M-1605.88,5840.14l-54.09-54.09l-2.96,2.96l54.09,54.09C-1607.98,5841.99-1606.98,5841-1605.88,5840.14z"/>
			<path class="st3" d="M-1585.56,5866.37l54.09,54.09l2.96-2.96l-54.09-54.09C-1583.46,5864.52-1584.45,5865.52-1585.56,5866.37z"
				/>
			<path class="st3" d="M-1582.6,5843.1l54.09-54.09l-2.96-2.96l-54.09,54.09C-1584.45,5841-1583.46,5841.99-1582.6,5843.1z"/>
			<path class="st3" d="M-1608.84,5863.42l-54.09,54.09l2.96,2.96l54.09-54.09C-1606.98,5865.52-1607.98,5864.52-1608.84,5863.42z"
				/>
		</g>
		<g>
			<line class="st1" x1="-2173.61" y1="6246.57" x2="-1522.59" y2="6246.57"/>
			<line class="st1" x1="-1848.1" y1="5921.06" x2="-1848.1" y2="6572.08"/>
			<path class="st1" d="M-1848.1,6572.08c0,0,108.5-143.87,108.5-325.51s-108.5-325.51-108.5-325.51"/>
			<circle class="st1" cx="-1848.1" cy="6246.57" r="325.51"/>
			<path class="st1" d="M-1848.1,6572.08c0,0,217.01-72.62,217.01-325.51s-217.01-325.51-217.01-325.51"/>
			<path class="st1" d="M-1848.1,6572.08c0,0-108.5-143.87-108.5-325.51s108.5-325.51,108.5-325.51"/>
			<path class="st1" d="M-1848.1,6572.08c0,0-217.01-72.62-217.01-325.51s217.01-325.51,217.01-325.51"/>
			<path class="st1" d="M-2139.22,6392.36c34.77-14.93,127.86-46.66,291.11-46.66c163.26,0,256.36,31.73,291.12,46.66"/>
			<path class="st1" d="M-2062.33,6491.65c33.82-15.93,100.53-37.45,214.23-37.45c112.84,0,179.4,21.19,213.46,37.09"/>
			<path class="st1" d="M-2139.22,6100.78c34.77,14.93,127.86,46.66,291.11,46.66c163.26,0,256.36-31.73,291.12-46.66"/>
			<path class="st1" d="M-2062.33,6001.49c33.82,15.93,100.53,37.45,214.23,37.45c112.84,0,179.4-21.19,213.46-37.09"/>
		</g>
		<path class="st2" d="M-1335.72,6098.74h-1024.75c-81.65,0-147.83,66.19-147.83,147.83l0,0c0,81.65,66.19,147.83,147.83,147.83
			h1024.75c81.65,0,147.83-66.19,147.83-147.83l0,0C-1187.89,6164.92-1254.08,6098.74-1335.72,6098.74z"/>
		<polygon class="st3" points="-1187.89,5932.55 -1166.6,5987.88 -1111.27,6009.17 -1166.6,6030.46 -1187.89,6085.78 
			-1209.2,6030.48 -1264.51,6009.17 -1209.18,5987.88 		"/>
		<polygon class="st3" points="-2532.51,6377.78 -2511.22,6433.1 -2455.89,6454.39 -2511.22,6475.68 -2532.51,6531.01 
			-2553.82,6475.71 -2609.13,6454.39 -2553.8,6433.1 		"/>
		<polygon class="st3" points="-1634.64,6529.66 -1619.25,6569.65 -1579.26,6585.04 -1619.25,6600.43 -1634.64,6640.43 
			-1650.05,6600.45 -1690.03,6585.04 -1650.03,6569.65 		"/>
		<polygon class="st3" points="-2343.88,5855.53 -2328.49,5895.53 -2288.5,5910.92 -2328.49,5926.31 -2343.88,5966.3 
			-2359.29,5926.32 -2399.27,5910.92 -2359.27,5895.53 		"/>
		<path class="st20" d="M-1272.85,6320.65L-1272.85,6320.65c-40.13,26.67-60.14,74.97-50.63,122.2l0,0.02l-0.02,0
			c-47.24-9.51-95.53,10.5-122.2,50.63h0l0,0c-26.67-40.13-74.96-60.14-122.2-50.63l-0.02,0l0-0.02
			c9.51-47.24-10.5-95.53-50.63-122.2v0l0,0c40.13-26.67,60.14-74.96,50.63-122.2l0-0.02l0.02,0c47.24,9.51,95.53-10.5,122.2-50.63
			l0,0l0,0c26.67,40.13,74.96,60.14,122.2,50.63l0.02,0l0,0.02C-1332.99,6245.68-1312.98,6293.98-1272.85,6320.65L-1272.85,6320.65z
			"/>
		<path class="st3" d="M-1476.25,6336.98c-11.48-31.24,18.88-61.6,50.12-50.12l244.61,89.92l243.15,89.38
			c31.48,11.57,34.68,54.82,5.25,70.91l-189.4,103.52l-103.52,189.4c-16.08,29.43-59.34,26.22-70.91-5.25l-89.38-243.15
			L-1476.25,6336.98z"/>
		<g>
			<defs>
				<path id="SVGID_19_" d="M-1476.25,6336.98c-11.48-31.24,18.88-61.6,50.12-50.12l244.61,89.92l243.15,89.38
					c31.48,11.57,34.68,54.82,5.25,70.91l-189.4,103.52l-103.52,189.4c-16.08,29.43-59.34,26.22-70.91-5.25l-89.38-243.15
					L-1476.25,6336.98z"/>
			</defs>
			<clipPath id="SVGID_20_">
				<use xlink:href="#SVGID_19_"  style="overflow:visible;"/>
			</clipPath>
			<path class="st21" d="M-1272.85,6320.65L-1272.85,6320.65c-40.13,26.67-60.14,74.97-50.63,122.2l0,0.02l-0.02,0
				c-47.24-9.51-95.53,10.5-122.2,50.63h0l0,0c-26.67-40.13-74.96-60.14-122.2-50.63l-0.02,0l0-0.02
				c9.51-47.24-10.5-95.53-50.63-122.2v0l0,0c40.13-26.67,60.14-74.96,50.63-122.2l0-0.02l0.02,0c47.24,9.51,95.53-10.5,122.2-50.63
				l0,0l0,0c26.67,40.13,74.96,60.14,122.2,50.63l0.02,0l0,0.02C-1332.99,6245.68-1312.98,6293.98-1272.85,6320.65L-1272.85,6320.65
				z"/>
		</g>
	</g>
	<g>
		<polygon class="st1" points="-4658.84,5543.23 -4593.59,5712.8 -4424.02,5778.05 -4593.59,5843.3 -4658.84,6012.87 
			-4724.15,5843.37 -5110.29,5778.05 -4724.09,5712.8 		"/>
		<g>
			<path class="st1" d="M-5165.44,6497.03h-663.66c-77.51,0-140.35,62.84-140.35,140.35v0c0,77.51,62.84,140.35,140.35,140.35
				h1225.08"/>
			<path class="st1" d="M-4770.57,6895.2c0,0,33.31-117.46,166.55-117.46c-133.24,0-166.55-117.46-166.55-117.46"/>
		</g>
		<path class="st3" d="M-5875.37,5892.77l55.37,54.35c91.85,90.17,247.06,43.66,274.18-82.17v0v0
			c94.84,70.98,230.65,40.5,286.08-64.19l23.06-43.56v0c34.73,113.44,171.32,158.28,266.53,87.5l1.3-0.97l37.65,33.35
			c62.48,55.34,155.72,57.72,220.94,5.62l38.74-30.95l26.01,52.96c35.68,72.64,108.14,120.04,188.99,123.62l87.97,3.89h0
			c-115.26,94.34-99.75,275.02,29.9,348.33l9.58,5.42l-124.01-20.98c-181.87-30.77-354.5,90.97-386.56,272.62l0,0v0
			c-79.57-95.09-227.96-87.85-297.9,14.52l-12.61,18.46l-17.14-24.65c-64.21-92.37-202.52-87.09-259.51,9.9l0,0l0,0
			c-104.6-75.39-245.58-75.85-350.68-1.15l-24.63,17.51v0c-5.21-156.91-109.53-293.18-259.64-339.17l-65.27-20h0
			c176.17-29.17,293.83-197.6,260.59-373.05L-5875.37,5892.77z"/>
		<g>
			<defs>
				<path id="SVGID_21_" d="M-5875.37,5892.77l55.37,54.35c91.85,90.17,247.06,43.66,274.18-82.17v0v0
					c94.84,70.98,230.65,40.5,286.08-64.19l23.06-43.56v0c34.73,113.44,171.32,158.28,266.53,87.5l1.3-0.97l37.65,33.35
					c62.48,55.34,155.72,57.72,220.94,5.62l38.74-30.95l26.01,52.96c35.68,72.64,108.14,120.04,188.99,123.62l87.97,3.89h0
					c-115.26,94.34-99.75,275.02,29.9,348.33l9.58,5.42l-124.01-20.98c-181.87-30.77-354.5,90.97-386.56,272.62l0,0v0
					c-79.57-95.09-227.96-87.85-297.9,14.52l-12.61,18.46l-17.14-24.65c-64.21-92.37-202.52-87.09-259.51,9.9l0,0l0,0
					c-104.6-75.39-245.58-75.85-350.68-1.15l-24.63,17.51v0c-5.21-156.91-109.53-293.18-259.64-339.17l-65.27-20h0
					c176.17-29.17,293.83-197.6,260.59-373.05L-5875.37,5892.77z"/>
			</defs>
			<clipPath id="SVGID_22_">
				<use xlink:href="#SVGID_21_"  style="overflow:visible;"/>
			</clipPath>
			<path class="st22" d="M-5165.44,6497.03h-663.66c-77.51,0-140.35,62.84-140.35,140.35v0c0,77.51,62.84,140.35,140.35,140.35
				h1225.08"/>
			<polygon class="st22" points="-4658.84,5543.23 -4593.59,5712.8 -4424.02,5778.05 -4593.59,5843.3 -4658.84,6012.87 
				-4724.15,5843.37 -5110.29,5778.05 -4724.09,5712.8 			"/>
		</g>
		<path class="st0" d="M-4530.93,6414.35h-1269.02c-20.49,0-37.09-16.61-37.09-37.09v-233.2c0-20.49,16.61-37.09,37.09-37.09
			h1269.02c20.49,0,37.09,16.61,37.09,37.09v233.2C-4493.84,6397.75-4510.44,6414.35-4530.93,6414.35z"/>
		<path class="st3" d="M-4716.34,6328.71c-7.23-19.68,11.89-38.8,31.57-31.57l154.08,56.64l153.16,56.3
			c19.83,7.29,21.85,34.53,3.31,44.66l-119.3,65.21l-65.21,119.3c-10.13,18.54-37.38,16.52-44.66-3.31l-56.3-153.16
			L-4716.34,6328.71z"/>
		<g>
			<circle class="st1" cx="-4227.96" cy="6473.82" r="106.57"/>
			<path class="st1" d="M-4195.13,6541.68c-28.07,13.55-62.87,8.69-86.13-14.56c-23.26-23.26-28.11-58.05-14.56-86.13"/>
			<path class="st1" d="M-4199.14,6535.81c0,0,1.95,6.44,7.23,10.93"/>
			<path class="st1" d="M-4290.35,6444.6c0,0-6.44-1.95-10.93-7.23"/>
			<g>
				
					<ellipse transform="matrix(0.7071 -0.7071 0.7071 0.7071 -5802.7178 -1065.9177)" class="st3" cx="-4188.04" cy="6471.54" rx="36.02" ry="17.09"/>
				
					<ellipse transform="matrix(0.7071 -0.7071 0.7071 0.7071 -5787.1245 -1103.5627)" class="st3" cx="-4225.68" cy="6433.9" rx="36.02" ry="17.09"/>
			</g>
		</g>
		<g>
			<path class="st3" d="M-5921.53,5810.57v134.07h7.33v-134.07c-1.2,0.15-2.42,0.24-3.67,0.24
				C-5919.11,5810.8-5920.33,5810.72-5921.53,5810.57z"/>
			<path class="st3" d="M-5914.2,5752.87V5618.8h-7.33v134.07c1.2-0.15,2.42-0.24,3.67-0.24
				C-5916.62,5752.63-5915.4,5752.72-5914.2,5752.87z"/>
			<path class="st3" d="M-5889.02,5785.39h134.07v-7.33h-134.07c0.15,1.2,0.24,2.42,0.24,3.67
				C-5888.78,5782.96-5888.87,5784.18-5889.02,5785.39z"/>
			<path class="st3" d="M-5946.71,5778.05h-134.07v7.33h134.07c-0.15-1.2-0.24-2.42-0.24-3.67
				C-5946.95,5780.48-5946.86,5779.25-5946.71,5778.05z"/>
			<path class="st3" d="M-5935.67,5758.73l-94.8-94.8l-5.19,5.19l94.8,94.8C-5939.35,5761.98-5937.61,5760.23-5935.67,5758.73z"/>
			<path class="st3" d="M-5900.06,5804.71l94.8,94.8l5.19-5.19l-94.8-94.8C-5896.38,5801.46-5898.12,5803.21-5900.06,5804.71z"/>
			<path class="st3" d="M-5894.87,5763.91l94.8-94.8l-5.19-5.19l-94.8,94.8C-5898.12,5760.23-5896.38,5761.98-5894.87,5763.91z"/>
			<path class="st3" d="M-5940.85,5799.52l-94.8,94.8l5.19,5.19l94.8-94.8C-5937.61,5803.21-5939.35,5801.46-5940.85,5799.52z"/>
		</g>
	</g>
	<g>
		<g>
			<circle class="st2" cx="1007.61" cy="6123.64" r="152.09"/>
			<path class="st1" d="M1109.22,6159c-14.66,42-54.67,72.21-101.61,72.21c-46.94,0-86.95-30.21-101.61-72.21"/>
			<path class="st1" d="M1099.25,6157.12c0,0,8.47,4.54,18.32,3.74"/>
			<path class="st1" d="M915.16,6157.12c0,0-8.47,4.54-18.32,3.74"/>
			<g>
				<ellipse class="st3" cx="1045.6" cy="6081.05" rx="24.39" ry="51.41"/>
				<ellipse class="st3" cx="969.62" cy="6081.05" rx="24.39" ry="51.41"/>
			</g>
		</g>
		<polygon class="st2" points="847.22,6579.73 870.38,6639.93 930.58,6663.1 870.38,6686.26 847.22,6746.46 824.03,6686.28 
			763.85,6663.1 824.05,6639.93 		"/>
		<polygon class="st3" points="1393.94,6569.86 1404.27,6596.68 1431.08,6607 1404.27,6617.32 1393.94,6644.14 1383.61,6617.33 
			1356.8,6607 1383.62,6596.68 		"/>
		<polygon class="st3" points="2119.63,5897.09 2129.95,5923.91 2156.77,5934.23 2129.95,5944.55 2119.63,5971.37 2109.3,5944.56 
			2082.49,5934.23 2109.31,5923.91 		"/>
		<polygon class="st2" points="1485.63,5754.47 1524.68,5855.95 1626.16,5895 1524.68,5934.06 1485.63,6035.54 1446.54,5934.09 
			1345.09,5895 1446.58,5855.95 		"/>
		<polygon class="st3" points="557.16,6112.44 567.48,6139.26 594.3,6149.58 567.48,6159.9 557.16,6186.72 546.83,6159.91 
			520.02,6149.58 546.84,6139.26 		"/>
		<polygon class="st3" points="2442.84,6332.11 2453.16,6358.93 2479.98,6369.25 2453.16,6379.57 2442.84,6406.39 2432.51,6379.58 
			2405.7,6369.25 2432.52,6358.93 		"/>
		<path class="st3" d="M1465.07,6270.69c0-42.73,8.05-83.57,22.69-121.11H773.37v306.24h747.79
			C1485.74,6402.86,1465.07,6339.19,1465.07,6270.69z"/>
		<path class="st3" d="M2109.29,6149.58c14.64,37.54,22.69,78.39,22.69,121.11c0,68.5-20.67,132.16-56.09,185.13h100.52v-306.24
			H2109.29z"/>
		<polygon class="st3" points="2124.85,6531.04 1924.76,6477.42 1724.68,6423.81 1778.29,6623.9 1831.9,6823.98 1930.04,6690.61 
			2028.77,6789.34 2090.21,6727.91 1991.47,6629.17 		"/>
		<g>
			<circle class="st2" cx="2234.95" cy="6557.63" r="78.18"/>
			<path class="st1" d="M2234.95,6557.63c47.58,8.82,36.45,69.18,36.45,69.18"/>
			<path class="st1" d="M2234.95,6557.63c31.43-36.79,78.14,3.02,78.14,3.02"/>
			<path class="st1" d="M2234.95,6557.63c-16.15-45.61,41.68-66.16,41.68-66.16"/>
			<path class="st1" d="M2234.95,6557.63c-47.58-8.82-36.45-69.18-36.45-69.18"/>
			<path class="st1" d="M2234.95,6557.63c-31.43,36.79-78.14-3.02-78.14-3.02"/>
			<path class="st1" d="M2234.95,6557.63c16.15,45.61-41.68,66.16-41.68,66.16"/>
		</g>
	</g>
</g>
</svg>
