<svg id="Layer_1" data-name="Layer 1" xmlns="http://www.w3.org/2000/svg" viewBox="0 0 24 24"><defs><style>.cls-1,.cls-2{fill:none;stroke:#000;stroke-linecap:round;stroke-linejoin:round;}.cls-2{stroke-dasharray:1 2;}</style></defs><title>paper-plane</title><path class="cls-1" d="M11.376,10.743l5.93,3.413a.359.359,0,0,0,.536-.276L19,2a.359.359,0,0,0-.529-.349L5.186,8.934A.359.359,0,0,0,5.3,9.6l4.822.857"/><path class="cls-1" d="M16.755,4.409l-5.379,6.334.61,3.587a.217.217,0,0,0,.406.066l.654-1.232"/><path class="cls-2" d="M9.813,12.722C8.271,14.079,2.75,21.85,11.932,19.3c4-1.11,9.505-.059,3.193,3.691"/></svg>