<svg id="Layer_1" data-name="Layer 1" xmlns="http://www.w3.org/2000/svg" width="926.18" height="147" viewBox="0 0 926.18 147">
  <defs>
    <style>
      .cls-1 {
        fill: #171f2e;
      }

      .cls-2 {
        fill: none;
        stroke: #fff;
        stroke-linecap: round;
        stroke-linejoin: round;
        stroke-width: 22px;
      }

      .cls-3 {
        isolation: isolate;
      }
    </style>
  </defs>
  <g id="Group_6" data-name="Group 6">
    <rect id="Rectangle_1" data-name="Rectangle 1" class="cls-1" width="147" height="147" rx="41"/>
    <path id="check" class="cls-2" d="M216,381.78l21.72,21.73,54.32-54.32" transform="translate(-180.06 -302.63)"/>
    <g id="Sheetroom" class="cls-3">
      <g class="cls-3">
        <path class="cls-1" d="M354.17,398.55h22c.16,7.9,7.75,14.38,17.86,14.38,9.8,0,16.27-5.05,16.27-12.8,0-6-4.42-10.27-13.74-13.11l-13.28-3.79c-23.85-6.32-28.12-20.7-28.12-30.5,0-19.43,16.75-32.39,37.61-32.39,20.54,0,36.34,12.48,36.34,33.18h-22c0-7.74-5.37-13.74-14.85-13.74-8.53,0-15,5.21-15,12.48,0,2.68.79,8.37,12.17,11.53l12.16,3.48c16.44,4.58,30.81,13.27,30.81,31.76,0,21.64-18.48,33-39,33C370.13,432.05,354.17,417.83,354.17,398.55Z" transform="translate(-180.06 -302.63)"/>
        <path class="cls-1" d="M517.07,390.18v40.45h-20.7V392.39c0-11.69-6.95-16.91-14.06-16.91-7.43,0-16.59,4-16.59,17.39v37.76H445v-113h20.7v50.88c3.16-9.32,15-13.43,22.12-13.43C507.12,355.1,517.23,368.06,517.07,390.18Z" transform="translate(-180.06 -302.63)"/>
        <path class="cls-1" d="M605.71,400.45H550.09c2.21,8.53,9.16,13.27,19.12,13.27,7.42,0,14.85-3,19.27-8.21l12.17,12.16c-6.95,9.33-19.91,14.38-32.86,14.38-22.6,0-39.19-15.48-39.19-38.24,0-23.86,18-38.71,39.19-38.71,21,0,38.23,14.85,38.23,37.45C606,394.6,605.86,397.13,605.71,400.45ZM585.32,387c-.63-8.69-7.9-13.91-17.22-13.91-8.37,0-15.8,3.95-18,13.91Z" transform="translate(-180.06 -302.63)"/>
        <path class="cls-1" d="M690.71,400.45H635.09c2.21,8.53,9.17,13.27,19.12,13.27,7.43,0,14.85-3,19.28-8.21l12.16,12.16c-6.95,9.33-19.91,14.38-32.86,14.38-22.6,0-39.19-15.48-39.19-38.24,0-23.86,18-38.71,39.19-38.71,21,0,38.24,14.85,38.24,37.45C691,394.6,690.87,397.13,690.71,400.45ZM670.33,387c-.64-8.69-7.9-13.91-17.23-13.91-8.37,0-15.8,3.95-18,13.91Z" transform="translate(-180.06 -302.63)"/>
        <path class="cls-1" d="M745.38,373H729.73v57.67H709V373H695.6V357H709V330h20.69v27h15.65Z" transform="translate(-180.06 -302.63)"/>
        <path class="cls-1" d="M808.73,357.47,804,377.22a21.45,21.45,0,0,0-10.58-2.68c-10.59,0-17.86,9.79-17.86,30.81v25.28h-20.7V357h20.54v15.64c4.11-12.32,12.49-17.54,21.65-17.54C801,355.1,805.41,355.73,808.73,357.47Z" transform="translate(-180.06 -302.63)"/>
        <path class="cls-1" d="M809.52,393.66c0-23.39,18.64-38.56,39.66-38.56s39.66,15.17,39.66,38.56c0,23.22-18.65,38.39-39.66,38.39S809.52,416.88,809.52,393.66Zm58.3,0c0-11.54-8.37-19.28-18.64-19.28s-18.65,7.74-18.65,19.28c0,11.37,8.38,19.11,18.65,19.11S867.82,405,867.82,393.66Z" transform="translate(-180.06 -302.63)"/>
        <path class="cls-1" d="M896.58,393.66c0-23.39,18.64-38.56,39.65-38.56s39.66,15.17,39.66,38.56c0,23.22-18.64,38.39-39.66,38.39S896.58,416.88,896.58,393.66Zm58.3,0c0-11.54-8.38-19.28-18.65-19.28s-18.64,7.74-18.64,19.28c0,11.37,8.37,19.11,18.64,19.11S954.88,405,954.88,393.66Z" transform="translate(-180.06 -302.63)"/>
        <path class="cls-1" d="M1106.24,390.18v40.45h-20.85V391.76c0-11.53-6-16.28-13.28-16.28-8.21-.15-14.06,5.06-14.53,16.12v39h-20.7v-39c0-11.53-6-16.12-13-16.12-7.42,0-15,3.48-15,16.75v38.4h-20.7V357h20.7v13.11c2.21-10.11,12.64-15,20.86-15,10.9,0,19.43,5.22,23.7,14.22,5.69-10.74,17.06-14.22,24.65-14.22C1096.61,355.1,1106.24,368.06,1106.24,390.18Z" transform="translate(-180.06 -302.63)"/>
      </g>
    </g>
  </g>
</svg>
