<svg width="24" height="24" viewBox="0 0 24 24" fill="none" xmlns="http://www.w3.org/2000/svg">
<path fill-rule="evenodd" clip-rule="evenodd" d="M5.81507 17.4085C4.66624 18.7215 4.21188 20.2756 3.97013 21.2425C3.83619 21.7783 3.29325 22.1041 2.75746 21.9701C2.22166 21.8362 1.8959 21.2933 2.02985 20.7575C2.28811 19.7244 2.83374 17.7786 4.30992 16.0915C5.82214 14.3632 8.22691 13 12 13C15.7731 13 18.1778 14.3632 19.6901 16.0915C21.1662 17.7786 21.7119 19.7244 21.9701 20.7575C22.1041 21.2933 21.7783 21.8362 21.2425 21.9701C20.7067 22.1041 20.1638 21.7783 20.0299 21.2425C19.7881 20.2756 19.3337 18.7215 18.1849 17.4085C17.0721 16.1368 15.2269 15 12 15C8.77307 15 6.92784 16.1368 5.81507 17.4085Z" fill="black"/>
<path fill-rule="evenodd" clip-rule="evenodd" d="M8.62115 6.63576C9.13689 6.83334 9.39481 7.41159 9.19723 7.92732C9.07012 8.25913 8.99999 8.62029 8.99999 9.00017C8.99999 10.657 10.3431 12.0002 12 12.0002C13.6568 12.0002 15 10.657 15 9.00017C15 8.62029 14.9299 8.25913 14.8028 7.92732C14.6052 7.41159 14.8631 6.83334 15.3788 6.63576C15.8946 6.43818 16.4728 6.6961 16.6704 7.21184C16.8836 7.76846 17 8.3719 17 9.00017C17 11.7616 14.7614 14.0002 12 14.0002C9.23857 14.0002 6.99999 11.7616 6.99999 9.00017C6.99999 8.3719 7.11635 7.76846 7.32959 7.21184C7.52717 6.6961 8.10542 6.43818 8.62115 6.63576Z" fill="black"/>
<path fill-rule="evenodd" clip-rule="evenodd" d="M11.6154 2.07692C11.8615 1.97436 12.1385 1.97436 12.3846 2.07692L18.3846 4.57692C18.7573 4.73219 19 5.0963 19 5.5C19 5.9037 18.7573 6.26781 18.3846 6.42308L12.3846 8.92308C12.1385 9.02564 11.8615 9.02564 11.6154 8.92308L5.61538 6.42308C5.24273 6.26781 4.99999 5.9037 4.99999 5.5C4.99999 5.0963 5.24273 4.73219 5.61538 4.57692L11.6154 2.07692ZM8.59999 5.5L12 6.91667L15.4 5.5L12 4.08333L8.59999 5.5Z" fill="black"/>
</svg>
