<?xml version="1.0" encoding="utf-8"?>
<!-- Generator: Adobe Illustrator 16.0.0, SVG Export Plug-In . SVG Version: 6.00 Build 0)  -->
<!DOCTYPE svg PUBLIC "-//W3C//DTD SVG 1.1//EN" "http://www.w3.org/Graphics/SVG/1.1/DTD/svg11.dtd">
<svg version="1.1" id="Tasks_-_All_done" xmlns="http://www.w3.org/2000/svg" xmlns:xlink="http://www.w3.org/1999/xlink" x="0px"
	 y="0px" width="427.744px" height="407px" viewBox="0 0 427.744 407" enable-background="new 0 0 427.744 407"
	 xml:space="preserve">
<g id="XMLID_7_">
	<g>
		<path fill="#78E5FF" d="M321.424,155.26c17.271,21.96,27.521,49.37,27.521,79.1c0,72.16-60.41,130.66-134.94,130.66
			c-19.189,0-37.439-3.88-53.96-10.86c-47.67-20.17-80.979-66.22-80.979-119.8c0-16.72,3.239-32.71,9.16-47.41
			c5.63-13.99,13.67-26.82,23.64-37.99c0.39-0.43,0.78-0.86,1.17-1.28c0.01-0.01,0.02-0.02,0.03-0.03
			c1.739-1.9,3.529-3.75,5.38-5.54c24.43-23.73,58.22-38.41,95.56-38.41c30.32,0,58.311,9.68,80.84,26.03
			c3.11,2.25,6.11,4.63,9,7.14c1.261,1.09,2.5,2.2,3.721,3.34C312.574,144.87,317.204,149.9,321.424,155.26z"/>
	</g>
	<g>
	</g>
</g>
<g id="XMLID_3_">
	<g>
		<path fill="#89EFB5" d="M135.395,46.97l-5.521,5.24c0,0-5.04-4.69-6.35-8.28l6.35-4.97C129.874,38.96,133.614,43.93,135.395,46.97
			z"/>
		<path fill="#89EFB5" d="M122.134,59.39l-5.52,5.25c0,0-5.04-4.7-6.351-8.29l6.351-4.97C116.614,51.38,120.364,56.35,122.134,59.39
			z"/>
		<path fill="#89EFB5" d="M108.884,71.81l-5.52,5.25c0,0-5.04-4.69-6.351-8.28l6.351-4.97
			C103.364,63.81,107.114,68.78,108.884,71.81z"/>
	</g>
	<g>
		<path fill="none" stroke="#3F455D" stroke-width="2" stroke-linecap="round" stroke-linejoin="round" stroke-miterlimit="10" d="
			M83.904,68.22c0,0,9.57,29.55,42.97,39.21l39.44-42.79c0,0-28.4-21.26-32.7-38.66L83.904,68.22z"/>
		<path fill="none" stroke="#3F455D" stroke-width="2" stroke-linecap="round" stroke-linejoin="round" stroke-miterlimit="10" d="
			M129.874,38.96c0,0,3.74,4.97,5.521,8.01l-5.521,5.24c0,0-5.04-4.69-6.35-8.28L129.874,38.96z"/>
		<path fill="none" stroke="#3F455D" stroke-width="2" stroke-linecap="round" stroke-linejoin="round" stroke-miterlimit="10" d="
			M136.914,55.04c0,0,7.04,8.7,13.25,12.43"/>
		<path fill="none" stroke="#3F455D" stroke-width="2" stroke-linecap="round" stroke-linejoin="round" stroke-miterlimit="10" d="
			M133.614,58.77c0,0,7.85,8.9,13.03,12.01"/>
		<path fill="none" stroke="#3F455D" stroke-width="2" stroke-linecap="round" stroke-linejoin="round" stroke-miterlimit="10" d="
			M116.614,51.38c0,0,3.75,4.97,5.52,8.01l-5.52,5.25c0,0-5.04-4.7-6.351-8.29L116.614,51.38z"/>
		<path fill="none" stroke="#3F455D" stroke-width="2" stroke-linecap="round" stroke-linejoin="round" stroke-miterlimit="10" d="
			M123.654,67.47c0,0,7.04,8.69,13.26,12.42"/>
		<path fill="none" stroke="#3F455D" stroke-width="2" stroke-linecap="round" stroke-linejoin="round" stroke-miterlimit="10" d="
			M120.364,71.19c0,0,7.85,8.91,13.03,12.01"/>
		<path fill="none" stroke="#3F455D" stroke-width="2" stroke-linecap="round" stroke-linejoin="round" stroke-miterlimit="10" d="
			M103.364,63.81c0,0,3.75,4.97,5.52,8l-5.52,5.25c0,0-5.04-4.69-6.351-8.28L103.364,63.81z"/>
		<path fill="none" stroke="#3F455D" stroke-width="2" stroke-linecap="round" stroke-linejoin="round" stroke-miterlimit="10" d="
			M110.404,79.89c0,0,7.04,8.7,13.25,12.42"/>
		<path fill="none" stroke="#3F455D" stroke-width="2" stroke-linecap="round" stroke-linejoin="round" stroke-miterlimit="10" d="
			M107.114,83.62c0,0,7.85,8.9,13.02,12.01"/>
	</g>
</g>
<g id="XMLID_4_">
	<g>
		<polygon fill="#89EFB5" points="231.744,73.68 234.435,81.34 228.844,83.2 225.534,75.95 		"/>
		<polygon fill="#89EFB5" points="225.324,56.49 227.604,64.77 222.225,66.71 219.324,58.01 		"/>
	</g>
	<g>
		<path fill="none" stroke="#3F455D" stroke-width="2" stroke-linecap="round" stroke-linejoin="round" stroke-miterlimit="10" d="
			M211.044,50.83c0,0,6.181,33.22,21.01,45l31.58-12.7c0,0-16.149-28.71-19.189-39.2C244.444,43.93,224.654,46.88,211.044,50.83z"/>
		
			<polygon fill="none" stroke="#3F455D" stroke-width="2" stroke-linecap="round" stroke-linejoin="round" stroke-miterlimit="10" points="
			219.324,58.01 222.225,66.71 227.604,64.77 225.324,56.49 		"/>
		
			<line fill="none" stroke="#3F455D" stroke-width="2" stroke-linecap="round" stroke-linejoin="round" stroke-miterlimit="10" x1="231.744" y1="58.77" x2="243.344" y2="55.04"/>
		
			<polygon fill="none" stroke="#3F455D" stroke-width="2" stroke-linecap="round" stroke-linejoin="round" stroke-miterlimit="10" points="
			225.534,75.95 228.844,83.2 234.435,81.34 231.744,73.68 		"/>
		
			<line fill="none" stroke="#3F455D" stroke-width="2" stroke-linecap="round" stroke-linejoin="round" stroke-miterlimit="10" x1="237.544" y1="75.33" x2="247.895" y2="71.19"/>
		
			<line fill="none" stroke="#3F455D" stroke-width="2" stroke-linecap="round" stroke-linejoin="round" stroke-miterlimit="10" x1="233.404" y1="62.91" x2="244.994" y2="58.77"/>
	</g>
</g>
<g id="XMLID_5_">
	<g>
	</g>
	<g>
		<path fill="none" stroke="#3F455D" stroke-width="2" stroke-linecap="round" stroke-linejoin="round" stroke-miterlimit="10" d="
			M302.414,126.76l-32.06-20.71c0,0,13.569-7.46,17.71-28.99l34.56,13.25c0,0-2.74,17.45-12.02,27.45
			C310.604,117.76,303.744,126.19,302.414,126.76z"/>
		
			<line fill="none" stroke="#3F455D" stroke-width="2" stroke-linecap="round" stroke-linejoin="round" stroke-miterlimit="10" x1="292.484" y1="90.66" x2="310.604" y2="99.82"/>
		
			<line fill="none" stroke="#3F455D" stroke-width="2" stroke-linecap="round" stroke-linejoin="round" stroke-miterlimit="10" x1="288.685" y1="97.28" x2="306.564" y2="105.15"/>
		
			<line fill="none" stroke="#3F455D" stroke-width="2" stroke-linecap="round" stroke-linejoin="round" stroke-miterlimit="10" x1="285.374" y1="102.46" x2="299.664" y2="109.08"/>
	</g>
</g>
<g id="XMLID_6_">
	<g>
		<path fill="#FFE8DA" d="M325.895,120.96c-3.021-0.7-7.16-0.93-9.94,3.17c-1.83,2.7-1.66,5.54-0.71,7.25
			c-2.33,0.53-3.82,0-4.64-1.12c-2.33-3.16,0.649-11,4.529-12.5c0.011,0,0.011,0,0.011,0c0.189-0.08,0.38-0.14,0.58-0.18
			C321.134,116.43,325.645,120.72,325.895,120.96z"/>
		<path fill="#FFE8DA" d="M310.604,130.26l-4.71-0.6c0,0-4.061-3.5-2.45-9.15c0.45-1.58,1.55-2.49,2.92-2.98
			c1.3-0.47,2.82-0.56,4.24-0.49c2.33,0.11,4.35,0.67,4.529,0.72C311.254,119.26,308.274,127.1,310.604,130.26z"/>
		<path fill="#FFE8DA" d="M315.244,131.38c-0.95-1.71-1.12-4.55,0.71-7.25c2.78-4.1,6.92-3.87,9.94-3.17
			c0.01,0.01,0.01,0.01,0.01,0.01c0.58,0.13,1.13,0.29,1.609,0.43c2.95,0.89,3.761,7.37,2.79,17.26c-0.89,9.05-7.72,15.56-8.88,16.6
			c-0.109,0.1-0.17,0.15-0.17,0.15c-2.89-3.13-8.819-6.85-20.05-5.06v-0.02c0,0-10.04-9.5-8.58-16.36c0.44-2.07,1.2-3.41,2.22-4.24
			c0.551-0.46,1.17-0.77,1.86-0.96c2.24-0.61,5.15,0.01,8.33,0.67c0.3,0.06,0.59,0.14,0.86,0.22l4.71,0.6
			C311.424,131.38,312.914,131.91,315.244,131.38z"/>
		<path fill="#FFE8DA" d="M305.895,129.66c-0.271-0.08-0.561-0.16-0.86-0.22c-3.18-0.66-6.09-1.28-8.33-0.67l-0.19-0.98
			c0,0-0.819-1.84,0.15-5.21c0.16-0.56,0.36-1.15,0.63-1.79c1.9-4.51,9.07-3.26,9.07-3.26c-1.37,0.49-2.47,1.4-2.92,2.98
			C301.834,126.16,305.895,129.66,305.895,129.66z"/>
		<path fill="#E9BC9B" d="M255.954,220.27c1.35-5.34,1.94-10.62,1.96-15.31h0.01c0,0,5.71-3.32,9.851,0
			c4.14,3.31,5.689,22.48-14.391,23.25C254.444,225.59,255.294,222.92,255.954,220.27z"/>
		<path fill="#F4E76C" d="M263.634,152.78c0.5,2.82,0.42,7.15,0,12.1c-1.62-20.87-13.38-25.45-13.38-25.45
			c2.25-3.08-1.359-10.05-1.359-10.05c-8.86,4.63-21.891-2.38-49.141-6.8s-39.25,17.43-39.25,17.43
			c-17.75,3.86-11.88,47.56-9.81,60.11c-1.021-0.31-2.21-0.63-3.48-0.86c0,0-3.68-24.12-2.64-38.62
			c1.03-14.49,8.49-23.17,14.91-25.45c0,0,16.74-21.96,46.16-16.58c29.409,5.38,36.04,12.41,45.979,2.68c0,0,8.9,10.96,3.11,16.87
			C254.734,138.16,261.564,141.18,263.634,152.78z"/>
		<path fill="#FFC655" d="M263.634,164.88c-1.29,15.35-5.8,36.56-5.8,36.56s0-1.64-0.21-4.76c-0.27-4.26-0.93-11.28-2.479-20.7
			c-2.69-16.34-8.28-20.57-8.28-20.57s-6.22,2.96-31.48,4.82c-25.26,1.86-47.21-9.88-47.21-9.88c-5.79,0.46-6,36.8-7.66,44.87
			c-0.489,2.39-1.25,3.92-2.079,4.87c-1.98,2.27-4.341,1.35-4.341,1.35s-1.369-0.67-3.399-1.32c-2.07-12.55-7.94-56.25,9.81-60.11
			c0,0,12-21.85,39.25-17.43s40.28,11.43,49.141,6.8c0,0,3.609,6.97,1.359,10.05C250.254,139.43,262.014,144.01,263.634,164.88z"/>
		<path fill="#E9BC9B" d="M211.004,252.67c38.05-1.95,44.78-35.39,46.62-55.99c0.21,3.12,0.21,4.76,0.21,4.76
			c0.07,1.13,0.101,2.3,0.08,3.52c-0.02,4.69-0.61,9.97-1.96,15.31c-0.66,2.65-1.51,5.32-2.57,7.94
			c-3.229,7.97-8.37,15.46-16.05,20.64c-5.899,3.99-12.88,6.73-20.33,7.92c-7.35,1.2-15.16,0.89-22.87-1.23
			c-6.409-1.76-12.76-4.76-18.71-9.17c-7.3-5.42-12.12-13.04-15.29-20.48c-0.819-1.9-1.52-3.79-2.13-5.62
			c-3.41-10.24-3.91-18.83-3.91-18.83s2.36,0.92,4.341-1.35C160.514,211.27,171.194,254.7,211.004,252.67z"/>
		<path fill="#3F455D" d="M232.054,197.5c1.891,0,3.421,1.99,3.421,4.45s-1.53,4.46-3.421,4.46c-1.88,0-3.42-2-3.42-4.46
			S230.174,197.5,232.054,197.5z"/>
		<path fill="#3F455D" d="M190.954,220h38.1c0,0-0.97,10.29-9.35,14.56c-0.04-0.59-0.6-4.61-8.25-5.38
			c-6.86-0.69-8.9,4.74-9.12,5.39C192.685,230.29,190.954,220,190.954,220z"/>
		<path fill="#F96162" d="M202.334,234.57c0.22-0.65,2.26-6.08,9.12-5.39c7.65,0.77,8.21,4.79,8.25,5.38
			c-2.51,1.3-5.68,2.04-9.7,1.8c-2.99-0.18-5.529-0.83-7.67-1.78V234.57z"/>
		<path fill="#FFE8DA" d="M202.334,234.57v0.01c2.141,0.95,4.68,1.6,7.67,1.78c4.021,0.24,7.19-0.5,9.7-1.8
			c8.38-4.27,9.35-14.56,9.35-14.56h-38.1C190.954,220,192.685,230.29,202.334,234.57z M257.624,196.68
			c-1.84,20.6-8.57,54.04-46.62,55.99c-39.81,2.03-50.49-41.4-52.569-52.58c0.829-0.95,1.59-2.48,2.079-4.87
			c1.66-8.07,1.87-44.41,7.66-44.87c0,0,21.95,11.74,47.21,9.88c25.261-1.86,31.48-4.82,31.48-4.82s5.59,4.23,8.28,20.57
			C256.694,185.4,257.354,192.42,257.624,196.68z M235.475,201.95c0-2.46-1.53-4.45-3.421-4.45c-1.88,0-3.42,1.99-3.42,4.45
			s1.54,4.46,3.42,4.46C233.944,206.41,235.475,204.41,235.475,201.95z M192.814,201.95c0-2.46-1.53-4.45-3.41-4.45
			c-1.891,0-3.42,1.99-3.42,4.45s1.529,4.46,3.42,4.46C191.284,206.41,192.814,204.41,192.814,201.95z"/>
		<path fill="#E9BC9B" d="M194.004,270.45V256l0.13-0.46c7.71,2.12,15.521,2.43,22.87,1.23v17.35v1.44c0,0-0.109,6.84-10.05,6.01
			c-9.94-0.83-12.95-8.49-12.95-8.49V270.45z"/>
		<path fill="#3F455D" d="M189.404,197.5c1.88,0,3.41,1.99,3.41,4.45s-1.53,4.46-3.41,4.46c-1.891,0-3.42-2-3.42-4.46
			S187.514,197.5,189.404,197.5z"/>
		<path fill="#E9BC9B" d="M158.004,220.27c0.61,1.83,1.311,3.72,2.13,5.62l-0.449,0.19c-28.57,2.07-28.99-19.05-22.98-24.64
			c2.88-2.68,7-2.79,10.51-2.18c1.271,0.23,2.46,0.55,3.48,0.86c2.03,0.65,3.399,1.32,3.399,1.32S154.594,210.03,158.004,220.27z"/>
		<path fill="#FFE8DA" d="M118.685,119.99c0.989,3.36,0.119,6.46-0.45,7.94c-2.15-0.79-5.04-0.5-8.19-0.21
			c-0.31,0.03-0.6,0.07-0.88,0.13c0,0,4.42-3.03,3.45-8.83c-0.271-1.61-1.26-2.64-2.561-3.28
			C110.414,115.72,117.344,115.42,118.685,119.99z"/>
		<path fill="#FFE8DA" d="M90.234,116.98c0,0,0,0,0.01,0c3.07-0.37,7.22-0.14,9.53,4.25c1.52,2.88,1.029,5.68-0.101,7.28
			c2.271,0.79,3.801,0.42,4.73-0.6l0.01,0.01l4.75-0.07c0.28-0.06,0.57-0.1,0.88-0.13c3.15-0.29,6.04-0.58,8.19,0.21
			c1.97,0.72,3.3,2.34,3.63,5.67c0.28,2.83-1.37,5.88-3.42,8.51c-1.82,2.33-3.97,4.32-5.38,5.54l-0.03,0.03
			c-0.91,0.78-1.51,1.23-1.51,1.23c-4.32-0.67-13.19-1.49-20.24,1.43c-0.22-0.19-7.521-6.48-7.38-16.27
			c0.14-9.94,1.649-16.29,4.689-16.84C89.084,117.14,89.645,117.05,90.234,116.98z"/>
		<path fill="#FFE8DA" d="M101.294,114.99c3.69,1.92,5.78,10.03,3.11,12.92c-0.93,1.02-2.46,1.39-4.73,0.6
			c1.13-1.6,1.62-4.4,0.101-7.28c-2.311-4.39-6.46-4.62-9.53-4.25c0.26-0.21,5.23-3.98,10.49-2.23
			C100.924,114.81,101.114,114.89,101.294,114.99z"/>
		<path fill="#FFE8DA" d="M109.164,127.85l-4.75,0.07l-0.01-0.01c2.67-2.89,0.58-11-3.11-12.92c0,0,5.38-0.91,8.75,0.75
			c0,0,0,0,0.01,0c1.301,0.64,2.29,1.67,2.561,3.28C113.584,124.82,109.164,127.85,109.164,127.85z"/>
		<path fill="#BDD1FF" d="M217.664,274.12c1.51-0.43,2.99-0.9,4.44-1.39l0.02,0.06c0,0,3,14.16-13.78,14.16
			c-17.109,0-18.489-17.36-18.529-17.91c2.02,0.7,3.489,1.18,4.189,1.41v2.63c0,0,3.01,7.66,12.95,8.49
			c9.94,0.83,10.05-6.01,10.05-6.01v-1.44H217.664z"/>
		<path fill="#6C8DEA" d="M91.284,150.34c7.05-2.92,15.92-2.1,20.24-1.43c0.12,0.02,0.229,0.04,0.34,0.05
			c1.42,0.23,2.27,0.43,2.27,0.43s10.271,70.6,21.16,87.38c10.101,15.54,42.4,28.02,54.521,32.26c0,0,0,0,0,0.01
			c0.04,0.55,1.42,17.91,18.529,17.91c16.78,0,13.78-14.16,13.78-14.16l-0.02-0.06c71.6-24.4,74.52-121.4,74.52-121.4
			c1.62-0.42,3.14-0.74,4.58-0.98c11.23-1.79,17.16,1.93,20.05,5.06c1.8,1.94,2.431,3.65,2.431,3.65
			c0,115.68-67.921,147.15-67.921,147.15l1.381,51.35c-49.971,16.01-96.91-3.86-96.91-3.86l1.939-48.87c0,0-38.38-20.71-58.26-52.18
			c-10.51-16.65-14.38-43.81-15.689-65.7c-1.181-19.49-0.32-34.8-0.32-34.8C88.964,151.43,90.094,150.83,91.284,150.34z"/>
	</g>
	<g>
		<path fill="none" stroke="#3F455D" stroke-width="2" stroke-linecap="round" stroke-linejoin="round" stroke-miterlimit="10" d="
			M189.814,269.03c-12.12-4.24-44.42-16.72-54.521-32.26c-10.89-16.78-21.16-87.38-21.16-87.38s-0.85-0.2-2.27-0.43
			c-0.11-0.01-0.22-0.03-0.34-0.05c-4.32-0.67-13.19-1.49-20.24,1.43c-1.19,0.49-2.32,1.09-3.38,1.81c0,0-0.86,15.31,0.32,34.8
			c1.31,21.89,5.18,49.05,15.689,65.7c19.88,31.47,58.26,52.18,58.26,52.18l-1.939,48.87c0,0,46.939,19.87,96.91,3.86l-1.381-51.35
			c0,0,67.921-31.47,67.921-147.15c0,0-0.631-1.71-2.431-3.65c-2.89-3.13-8.819-6.85-20.05-5.06c-1.44,0.24-2.96,0.56-4.58,0.98
			c0,0-2.92,97-74.52,121.4c-1.45,0.49-2.931,0.96-4.44,1.39"/>
		<path fill="none" stroke="#3F455D" stroke-width="2" stroke-linecap="round" stroke-linejoin="round" stroke-miterlimit="10" d="
			M194.475,270.6c0,0-0.16-0.05-0.471-0.15c-0.7-0.23-2.17-0.71-4.189-1.41"/>
		<path fill="none" stroke="#3F455D" stroke-width="2" stroke-linecap="round" stroke-linejoin="round" stroke-miterlimit="10" d="
			M96.324,129.38c-2.35-2.07-3.03-5.39-3.03-5.39"/>
		<path fill="none" stroke="#3F455D" stroke-width="2" stroke-linecap="round" stroke-linejoin="round" stroke-miterlimit="10" d="
			M90.244,116.98c3.07-0.37,7.22-0.14,9.53,4.25c1.52,2.88,1.029,5.68-0.101,7.28c-0.899,1.27-2.22,1.78-3.26,0.94"/>
		<path fill="none" stroke="#3F455D" stroke-width="2" stroke-linecap="round" stroke-linejoin="round" stroke-miterlimit="10" d="
			M91.294,150.35c0,0,0,0-0.01-0.01c-0.22-0.19-7.521-6.48-7.38-16.27c0.14-9.94,1.649-16.29,4.689-16.84
			c0.49-0.09,1.051-0.18,1.641-0.25"/>
		<path fill="none" stroke="#3F455D" stroke-width="2" stroke-linecap="round" stroke-linejoin="round" stroke-miterlimit="10" d="
			M96.324,129.38c0,0,0.03,0.02,0.09,0.07c0.69,0.57,5.22,4.63,2.63,10.56"/>
		<path fill="none" stroke="#3F455D" stroke-width="2" stroke-linecap="round" stroke-linejoin="round" stroke-miterlimit="10" d="
			M90.234,116.98c0,0,0,0,0.01,0c0.26-0.21,5.23-3.98,10.49-2.23c0.189,0.06,0.38,0.14,0.56,0.24c3.69,1.92,5.78,10.03,3.11,12.92
			c-0.93,1.02-2.46,1.39-4.73,0.6"/>
		<path fill="none" stroke="#3F455D" stroke-width="2" stroke-linecap="round" stroke-linejoin="round" stroke-miterlimit="10" d="
			M110.054,115.74c1.301,0.64,2.29,1.67,2.561,3.28c0.97,5.8-3.45,8.83-3.45,8.83"/>
		<path fill="none" stroke="#3F455D" stroke-width="2" stroke-linecap="round" stroke-linejoin="round" stroke-miterlimit="10" d="
			M101.294,114.99c0,0,5.38-0.91,8.75,0.75"/>
		<path fill="none" stroke="#3F455D" stroke-width="2" stroke-linecap="round" stroke-linejoin="round" stroke-miterlimit="10" d="
			M110.044,115.74c0,0,0,0,0.01,0c0.36-0.02,7.29-0.32,8.631,4.25c0.989,3.36,0.119,6.46-0.45,7.94c-0.221,0.59-0.4,0.92-0.4,0.92"
			/>
		<path fill="none" stroke="#3F455D" stroke-width="2" stroke-linecap="round" stroke-linejoin="round" stroke-miterlimit="10" d="
			M113.064,147.65c1.41-1.22,3.56-3.21,5.38-5.54c2.05-2.63,3.7-5.68,3.42-8.51c-0.33-3.33-1.66-4.95-3.63-5.67
			c-2.15-0.79-5.04-0.5-8.19-0.21c-0.31,0.03-0.6,0.07-0.88,0.13c-5.28,1.01-6.4,6.26-2.14,7.05c0.81,0.15,1.52,0.24,2.14,0.29
			c2.88,0.22,3.99-0.43,3.99-0.43"/>
		<path fill="none" stroke="#3F455D" stroke-width="2" stroke-linecap="round" stroke-linejoin="round" stroke-miterlimit="10" d="
			M111.524,148.91c0,0,0.6-0.45,1.51-1.23"/>
		
			<line fill="none" stroke="#3F455D" stroke-width="2" stroke-linecap="round" stroke-linejoin="round" stroke-miterlimit="10" x1="109.164" y1="127.85" x2="104.414" y2="127.92"/>
		<path fill="none" stroke="#3F455D" stroke-width="2" stroke-linecap="round" stroke-linejoin="round" stroke-miterlimit="10" d="
			M109.164,135.19c0,0-2.96,1.78-3.55,4.82"/>
		<path fill="none" stroke="#3F455D" stroke-width="2" stroke-linecap="round" stroke-linejoin="round" stroke-miterlimit="10" d="
			M318.475,132.61c2.569-1.79,3.619-5.01,3.619-5.01"/>
		<path fill="none" stroke="#3F455D" stroke-width="2" stroke-linecap="round" stroke-linejoin="round" stroke-miterlimit="10" d="
			M325.895,120.96c-3.021-0.7-7.16-0.93-9.94,3.17c-1.83,2.7-1.66,5.54-0.71,7.25c0.74,1.32,1.94,1.97,3.04,1.35"/>
		<path fill="none" stroke="#3F455D" stroke-width="2" stroke-linecap="round" stroke-linejoin="round" stroke-miterlimit="10" d="
			M321.254,155.41c0,0,0.061-0.05,0.17-0.15c1.16-1.04,7.99-7.55,8.88-16.6c0.971-9.89,0.16-16.37-2.79-17.26
			c-0.479-0.14-1.029-0.3-1.609-0.43"/>
		<path fill="none" stroke="#3F455D" stroke-width="2" stroke-linecap="round" stroke-linejoin="round" stroke-miterlimit="10" d="
			M318.475,132.61c0,0-0.07,0.04-0.19,0.12c-0.99,0.68-5.55,4.17-3.69,10.14"/>
		<path fill="none" stroke="#3F455D" stroke-width="2" stroke-linecap="round" stroke-linejoin="round" stroke-miterlimit="10" d="
			M315.134,117.76c-3.88,1.5-6.859,9.34-4.529,12.5c0.819,1.12,2.31,1.65,4.64,1.12h0.01"/>
		<path fill="none" stroke="#3F455D" stroke-width="2" stroke-linecap="round" stroke-linejoin="round" stroke-miterlimit="10" d="
			M325.904,120.97c0,0,0,0-0.01-0.01c-0.25-0.24-4.761-4.53-10.17-3.38c-0.2,0.04-0.391,0.1-0.58,0.18"/>
		<path fill="none" stroke="#3F455D" stroke-width="2" stroke-linecap="round" stroke-linejoin="round" stroke-miterlimit="10" d="
			M315.145,117.76c0,0,0,0-0.011,0c-0.18-0.05-2.199-0.61-4.529-0.72c-1.42-0.07-2.94,0.02-4.24,0.49c-1.37,0.49-2.47,1.4-2.92,2.98
			c-1.61,5.65,2.45,9.15,2.45,9.15"/>
		<path fill="none" stroke="#3F455D" stroke-width="2" stroke-linecap="round" stroke-linejoin="round" stroke-miterlimit="10" d="
			M306.364,117.53c0,0-7.17-1.25-9.07,3.26c-0.27,0.64-0.47,1.23-0.63,1.79c-0.97,3.37-0.15,5.21-0.15,5.21"/>
		<path fill="none" stroke="#3F455D" stroke-width="2" stroke-linecap="round" stroke-linejoin="round" stroke-miterlimit="10" d="
			M301.204,150.33c0,0-10.04-9.5-8.58-16.36c0.44-2.07,1.2-3.41,2.22-4.24c0.551-0.46,1.17-0.77,1.86-0.96
			c2.24-0.61,5.15,0.01,8.33,0.67c0.3,0.06,0.59,0.14,0.86,0.22c5.14,1.6,5.659,6.94,1.33,7.25c-0.811,0.06-1.521,0.07-2.15,0.05
			c-0.46-0.02-0.86-0.05-1.23-0.09c-1.96-0.23-2.689-0.78-2.689-0.78"/>
		
			<line fill="none" stroke="#3F455D" stroke-width="2" stroke-linecap="round" stroke-linejoin="round" stroke-miterlimit="10" x1="305.895" y1="129.66" x2="310.604" y2="130.26"/>
		<path fill="none" stroke="#3F455D" stroke-width="2" stroke-linecap="round" stroke-linejoin="round" stroke-miterlimit="10" d="
			M305.074,136.96c0,0,1.64,1.25,2.49,3.25c0.26,0.58,0.449,1.23,0.5,1.93"/>
		<path fill="none" stroke="#3F455D" stroke-width="2" stroke-linecap="round" stroke-linejoin="round" stroke-miterlimit="10" d="
			M158.004,220.27c0,0-6.39-9.37-13.43-7.69"/>
		<path fill="none" stroke="#3F455D" stroke-width="2" stroke-linecap="round" stroke-linejoin="round" stroke-miterlimit="10" d="
			M257.924,204.96c0,0,5.71-3.32,9.851,0c4.14,3.31,5.689,22.48-14.391,23.25h-0.01"/>
		<path fill="none" stroke="#3F455D" stroke-width="2" stroke-linecap="round" stroke-linejoin="round" stroke-miterlimit="10" d="
			M255.954,220.27c0,0,3.12-5.24,7.68-4.89"/>
		<path fill="none" stroke="#3F455D" stroke-width="2" stroke-linecap="round" stroke-linejoin="round" stroke-miterlimit="10" d="
			M154.094,201.44c0,0,2.36,0.92,4.341-1.35c0.829-0.95,1.59-2.48,2.079-4.87c1.66-8.07,1.87-44.41,7.66-44.87
			c0,0,21.95,11.74,47.21,9.88c25.261-1.86,31.48-4.82,31.48-4.82s5.59,4.23,8.28,20.57c1.55,9.42,2.21,16.44,2.479,20.7
			c0.21,3.12,0.21,4.76,0.21,4.76c0.07,1.13,0.101,2.3,0.08,3.52c-0.02,4.69-0.61,9.97-1.96,15.31c-0.66,2.65-1.51,5.32-2.57,7.94
			c-3.229,7.97-8.37,15.46-16.05,20.64c-5.899,3.99-12.88,6.73-20.33,7.92c-7.35,1.2-15.16,0.89-22.87-1.23
			c-6.409-1.76-12.76-4.76-18.71-9.17c-7.3-5.42-12.12-13.04-15.29-20.48c-0.819-1.9-1.52-3.79-2.13-5.62
			C154.594,210.03,154.094,201.44,154.094,201.44s-1.369-0.67-3.399-1.32c-1.021-0.31-2.21-0.63-3.48-0.86
			c-3.51-0.61-7.63-0.5-10.51,2.18c-6.01,5.59-5.59,26.71,22.98,24.64"/>
		<path fill="none" stroke="#3F455D" stroke-width="2" stroke-linecap="round" stroke-linejoin="round" stroke-miterlimit="10" d="
			M147.214,199.26c0,0-3.68-24.12-2.64-38.62c1.03-14.49,8.49-23.17,14.91-25.45c0,0,16.74-21.96,46.16-16.58
			c29.409,5.38,36.04,12.41,45.979,2.68c0,0,8.9,10.96,3.11,16.87c0,0,6.83,3.02,8.899,14.62c0.5,2.82,0.42,7.15,0,12.1
			c-1.29,15.35-5.8,36.56-5.8,36.56"/>
		<path fill="none" stroke="#3F455D" stroke-width="2" stroke-linecap="round" stroke-linejoin="round" stroke-miterlimit="10" d="
			M194.004,256v14.45v2.63c0,0,3.01,7.66,12.95,8.49c9.94,0.83,10.05-6.01,10.05-6.01v-1.44v-17.35V256"/>
		<path fill="none" stroke="#3F455D" stroke-width="2" stroke-linecap="round" stroke-linejoin="round" stroke-miterlimit="10" d="
			M189.814,269.03c0,0,0,0,0,0.01c0.04,0.55,1.42,17.91,18.529,17.91c16.78,0,13.78-14.16,13.78-14.16"/>
		<path fill="none" stroke="#3F455D" stroke-width="2" stroke-linecap="round" stroke-linejoin="round" stroke-miterlimit="10" d="
			M169.004,190.46c0,0,5.181-10.97,22.16-7.87"/>
		<path fill="none" stroke="#3F455D" stroke-width="2" stroke-linecap="round" stroke-linejoin="round" stroke-miterlimit="10" d="
			M192.814,201.95c0,2.46-1.53,4.46-3.41,4.46c-1.891,0-3.42-2-3.42-4.46s1.529-4.45,3.42-4.45
			C191.284,197.5,192.814,199.49,192.814,201.95z"/>
		<path fill="none" stroke="#3F455D" stroke-width="2" stroke-linecap="round" stroke-linejoin="round" stroke-miterlimit="10" d="
			M252.454,190.46c0,0-5.18-10.97-22.16-7.87"/>
		<path fill="none" stroke="#3F455D" stroke-width="2" stroke-linecap="round" stroke-linejoin="round" stroke-miterlimit="10" d="
			M228.634,201.95c0,2.46,1.54,4.46,3.42,4.46c1.891,0,3.421-2,3.421-4.46s-1.53-4.45-3.421-4.45
			C230.174,197.5,228.634,199.49,228.634,201.95z"/>
		<path fill="none" stroke="#3F455D" stroke-width="2" stroke-linecap="round" stroke-linejoin="round" stroke-miterlimit="10" d="
			M202.334,234.58c2.141,0.95,4.68,1.6,7.67,1.78c4.021,0.24,7.19-0.5,9.7-1.8c8.38-4.27,9.35-14.56,9.35-14.56h-38.1
			c0,0,1.73,10.29,11.38,14.57"/>
		<path fill="none" stroke="#3F455D" stroke-width="2" stroke-linecap="round" stroke-linejoin="round" stroke-miterlimit="10" d="
			M202.314,234.63c0,0,0-0.02,0.02-0.05v-0.01c0.22-0.65,2.26-6.08,9.12-5.39c7.65,0.77,8.21,4.79,8.25,5.38
			c0.01,0.04,0.01,0.07,0.01,0.07"/>
	</g>
</g>
</svg>
