<svg xmlns="http://www.w3.org/2000/svg" width="668.21" height="277.83" viewBox="0 0 668.21 277.83"><path d="M191.63,101.06c-10.51-4.3-19.06-8.61-28.16-15.81C152.41,76.5,136.59,63.78,121,67.07c-13.58,2.87-9,15.4-14.16,24.59-9.47,17-44.95,17-61.53,22.08-3,.94-11.47,3-12.35,7-.76,3.49,2.68,4.54,3.61,7.34,3.38,10.21-7.63,15.93-15,21.11-8.77,6.19-24.25,16-21.24,29.19,2,8.75,12,12.64,14.32,21.64,3.84,15.12,9.68,24.28,19.18,37,6.44,8.6,13.31,23.74,22.56,29.25,26.27,15.65,45.26-26.89,70.54-20.55,8,2,9.69,8.62,14.45,15.14,11.17,15.27,30.43,16.81,48.39,17,22.92.19,40.84-5.29,62.21-12.39,11.17-3.7,23.34-8.32,28-20.07,3.38-8.53,2.14-16.88-3.88-23.81-5.42-6.25-13.67-9.29-19.78-14.84-10.45-9.5-11.82-17.92-10.66-32,1.83-22.12,18.89-37.75,20.57-59C268.59,86.24,217.7,99.84,191.63,101.06Z" fill="#ededfa"/><rect x="566.9" y="94.96" width="95.94" height="67.15" transform="translate(204.41 604.05) rotate(-61.01)" stroke-width="1.45" stroke="#4a4ad0" stroke-linecap="round" stroke-linejoin="round" fill="#fff"/><rect x="574.95" y="100.29" width="80.52" height="56.88" transform="translate(204.42 604.45) rotate(-61.01)" stroke-width="1.45" stroke="#4a4ad0" stroke-linecap="round" stroke-linejoin="round" fill="#fac2ed"/><line x1="633.08" y1="87.87" x2="641.98" y2="92.61" fill="#fff" stroke="#4a4ad0" stroke-linecap="round" stroke-linejoin="round" stroke-width="1.45"/><path d="M649.63,108.94c-2.71,5.92-6.84,11.09-10.08,16.73s-6.47,12.69-9.59,18.4" fill="none" stroke="#fff" stroke-linecap="round" stroke-linejoin="round" stroke-width="1.45"/><path d="M634,124.61c-5.77,9.13-9.51,19.73-15.55,28.61" fill="none" stroke="#fff" stroke-linecap="round" stroke-linejoin="round" stroke-width="1.45"/><polygon points="130.67 228.06 128.78 236.49 184.64 231.24 182.66 193.72 130.67 228.06" fill="#fff" stroke="#4a4ad0" stroke-linecap="round" stroke-linejoin="round" stroke-width="1.45"/><polygon points="110.44 227.1 109.14 231.24 175.8 229.17 185.8 177.51 166.73 177.51 110.44 227.1" fill="#ededfa" stroke="#4a4ad0" stroke-linecap="round" stroke-linejoin="round" stroke-width="1.45"/><polygon points="107.12 223.21 105.64 227.57 171.25 225.39 174.88 208.77 181.39 176.07 157.89 178.47 107.12 223.21" fill="#d4d4f4" stroke="#4a4ad0" stroke-linecap="round" stroke-linejoin="round" stroke-width="1.45"/><polygon points="109.71 215.1 104.91 222.51 164.71 227.57 171.25 196.08 109.71 215.1" fill="#ededfa" stroke="#4a4ad0" stroke-linecap="round" stroke-linejoin="round" stroke-width="1.45"/><path d="M125.85,112.78l-5.66-.31a7.12,7.12,0,0,0-2.21.11,5.64,5.64,0,0,0-1.86,1,8.12,8.12,0,0,0-2.53,2.81,4.5,4.5,0,0,0-.22,3.69,4.59,4.59,0,0,0,4.48,2.49,9,9,0,0,0,4.93-2.15c1.43-1.14,2.67-2.49,4.07-3.64" fill="#c3e2c1" stroke="#4a4ad0" stroke-linecap="round" stroke-linejoin="round" stroke-width="1.45"/><path d="M138.6,123.79c-3.43-1.08-7.49-3.34-9.75-6.14-1.73-2.13-3.1-4.85-2.56-7.54a3.26,3.26,0,0,1,.89-1.76,4.28,4.28,0,0,1,1.15-.67,7.52,7.52,0,0,1,3.67-.82,6.68,6.68,0,0,1,3.76,2c1.75,1.65,3.11,2,3.94,4.27" fill="#90cb86" stroke="#4a4ad0" stroke-linecap="round" stroke-linejoin="round" stroke-width="1.45"/><path d="M123.76,143.61c-.51,11.84.53,26.46,19.23,26.47,19.15,0,20-14.22,19.21-25.64" fill="#fff" stroke="#4a4ad0" stroke-linecap="round" stroke-linejoin="round" stroke-width="1.45"/><ellipse cx="143" cy="143.61" rx="19.24" ry="5.41" fill="#ededfa" stroke="#4a4ad0" stroke-linecap="round" stroke-linejoin="round" stroke-width="1.45"/><path d="M140,143.54c-1.88-2-1.54-18.08-.59-27.33.62-6.08,1.86-12.52,5.21-16.36a6.12,6.12,0,0,1,4.13-2.4,4.25,4.25,0,0,1,3.91,2.72c.83,1.85.79,4.21.68,6.41a178,178,0,0,1-4,29.71,20.52,20.52,0,0,1-1.49,4.78c-1.74,3.42-5.33,4.54-7.9,2.47" fill="#90cb86" stroke="#4a4ad0" stroke-linecap="round" stroke-linejoin="round" stroke-width="1.45"/><path d="M148.83,119.7a11,11,0,0,1,3.29-4.41,6.18,6.18,0,0,1,3.26-1.46,5,5,0,0,1,4.63,2.68,6.46,6.46,0,0,1,.09,5.47,9.54,9.54,0,0,1-3.7,4.18c-1.57,1-3.67,1.61-5.24.61a4.53,4.53,0,0,1-1.42-1.65,8.17,8.17,0,0,1-.89-5.42" fill="#c3e2c1" stroke="#4a4ad0" stroke-linecap="round" stroke-linejoin="round" stroke-width="1.45"/><path d="M151.34,103.3c1-1.93,2.86-3.24,4.66-4.45a4.31,4.31,0,0,1,2.2-.91,3.65,3.65,0,0,1,2.53,1.41,3.76,3.76,0,0,1,.73,1,3.11,3.11,0,0,1-.91,3.33,9,9,0,0,1-3.21,1.74,27.19,27.19,0,0,1-4.13,1.32,1.68,1.68,0,0,1-.63,0,1.44,1.44,0,0,1-.9-.76,3.86,3.86,0,0,1,0-3.77" fill="#beda84" stroke="#4a4ad0" stroke-linecap="round" stroke-linejoin="round" stroke-width="1.45"/><path d="M130,106.76a3.65,3.65,0,0,1-1.1-4.37,6.48,6.48,0,0,1,2-3.06,6,6,0,0,1,3.23-1.39c6.59.83,1.91,9.47-4.17,8.82" fill="#beda84" stroke="#4a4ad0" stroke-linecap="round" stroke-linejoin="round" stroke-width="1.45"/><path d="M144.55,105.44a4,4,0,0,0-.15,1.09" fill="none" stroke="#fff" stroke-linecap="round" stroke-linejoin="round" stroke-width="1.45"/><path d="M142.71,109.43l-.38,1.25" fill="none" stroke="#fff" stroke-linecap="round" stroke-linejoin="round" stroke-width="1.45"/><path d="M146.75,103.65a2.76,2.76,0,0,1,.44-1.27" fill="none" stroke="#fff" stroke-linecap="round" stroke-linejoin="round" stroke-width="1.45"/><path d="M148.9,109.87a4.23,4.23,0,0,0,.46-1" fill="none" stroke="#fff" stroke-linecap="round" stroke-linejoin="round" stroke-width="1.45"/><path d="M144,115.65a2.05,2.05,0,0,1-.31-1.18" fill="none" stroke="#fff" stroke-linecap="round" stroke-linejoin="round" stroke-width="1.45"/><path d="M147.65,112.93a6.81,6.81,0,0,1-.45,1.54" fill="none" stroke="#fff" stroke-linecap="round" stroke-linejoin="round" stroke-width="1.45"/><path d="M145.21,122.31l-.16,1.71" fill="none" stroke="#fff" stroke-linecap="round" stroke-linejoin="round" stroke-width="1.45"/><path d="M152.37,118.86a1.86,1.86,0,0,1,1.22-1" fill="none" stroke="#fff" stroke-linecap="round" stroke-linejoin="round" stroke-width="1.45"/><path d="M155.05,102.13a12.27,12.27,0,0,1,1.43-1.18" fill="none" stroke="#fff" stroke-linecap="round" stroke-linejoin="round" stroke-width="1.45"/><path d="M135.29,113.74a3.84,3.84,0,0,0,.37,1.45" fill="none" stroke="#fff" stroke-linecap="round" stroke-linejoin="round" stroke-width="1.45"/><path d="M132.5,116.18a3.22,3.22,0,0,0,1.26.9" fill="none" stroke="#fff" stroke-linecap="round" stroke-linejoin="round" stroke-width="1.45"/><path d="M128.26,111.4a2.71,2.71,0,0,0,.72,1.44" fill="none" stroke="#fff" stroke-linecap="round" stroke-linejoin="round" stroke-width="1.45"/><path d="M130.87,110.14a2,2,0,0,0,.46.81" fill="none" stroke="#fff" stroke-linecap="round" stroke-linejoin="round" stroke-width="1.45"/><path d="M141,124a5.27,5.27,0,0,0,.38,1.8" fill="none" stroke="#fff" stroke-linecap="round" stroke-linejoin="round" stroke-width="1.45"/><path d="M143.41,129.34l1-1.19" fill="none" stroke="#fff" stroke-linecap="round" stroke-linejoin="round" stroke-width="1.45"/><path d="M148.28,127.63a6.89,6.89,0,0,1-.37,2.25" fill="none" stroke="#fff" stroke-linecap="round" stroke-linejoin="round" stroke-width="1.45"/><path d="M145.54,132.4l-.47,1.73" fill="none" stroke="#fff" stroke-linecap="round" stroke-linejoin="round" stroke-width="1.45"/><path d="M142.15,134v1.44" fill="none" stroke="#fff" stroke-linecap="round" stroke-linejoin="round" stroke-width="1.45"/><path d="M145,137.9a7.53,7.53,0,0,1,.75-1.25" fill="none" stroke="#fff" stroke-linecap="round" stroke-linejoin="round" stroke-width="1.45"/><path d="M133.72,102.46a4,4,0,0,1,.77-1" fill="none" stroke="#fff" stroke-linecap="round" stroke-linejoin="round" stroke-width="1.45"/><path d="M118.89,114.74a7.74,7.74,0,0,1,1.8.07" fill="none" stroke="#fff" stroke-linecap="round" stroke-linejoin="round" stroke-width="1.45"/><path d="M118.9,117.46l.89-.47" fill="none" stroke="#fff" stroke-linecap="round" stroke-linejoin="round" stroke-width="1.45"/><path d="M123,117a10.85,10.85,0,0,1,1.8-1.72" fill="none" stroke="#fff" stroke-linecap="round" stroke-linejoin="round" stroke-width="1.45"/><path d="M115.18,118.54a1.81,1.81,0,0,0,1.09.24" fill="none" stroke="#fff" stroke-linecap="round" stroke-linejoin="round" stroke-width="1.45"/><path d="M129,154.15l-.19-.67a6.36,6.36,0,0,0,2.55,4.69,8,8,0,0,1-1.77-3.74,8.64,8.64,0,0,0,2.56,5.41c-2.2-1.63-3.08-4.49-3.39-7.21-.18,2.72,1.21,5.28,2.69,7.56A3,3,0,0,0,133,161.6a17.25,17.25,0,0,1-3.29-6.09,16.67,16.67,0,0,0,3.69,5.7c-.65-1.59-1.42-3.12-2.19-4.64a16.22,16.22,0,0,1,1.67,3.13,8.75,8.75,0,0,0-.77-1.88l2.17,3.26a8.84,8.84,0,0,0-1.21-2.78,27.82,27.82,0,0,0,1.69,2.62,5.76,5.76,0,0,0-.49-2l1.54,2.68" fill="none" stroke="#ededfa" stroke-linecap="round" stroke-linejoin="round" stroke-width="1.45"/><path d="M413.47,176.07s-13.32,23-9.64,27.15c3.95,4.45,29.21,4.42,29.21,4.42s108.51.64,114.69.64l69.37.06.66,7.23-236.95.05V209.4l24.7-33.33Z" fill="#ebe8f3"/><path d="M406.23,175.16S381,207,380.54,208.28c-1.16,3,.27,7.34.27,7.34l237-.05s.47-5.73-.66-7.23-27-33.18-27-33.18" fill="none" stroke="#4a4ad0" stroke-linecap="round" stroke-linejoin="round" stroke-width="1.45"/><path d="M522.43,200.81a2,2,0,0,1-2.09,2H475.88a2,2,0,0,1-2.09-2l4.85-8.57a3.4,3.4,0,0,1,2.87-2H514.1c1.41,0,2.16.77,3,2Z" fill="#fff" stroke="#4a4ad0" stroke-linecap="round" stroke-linejoin="round" stroke-width="1.45"/><polygon points="132.72 177.53 107.12 215.03 163.06 212.48 177.36 174.67 132.72 177.53" fill="#fff" stroke="#4a4ad0" stroke-linecap="round" stroke-linejoin="round" stroke-width="1.45"/><polygon points="143.93 180.89 114.63 219.63 169.26 219.63 188.88 181.68 143.93 180.89" fill="#fff" stroke="#4a4ad0" stroke-linecap="round" stroke-linejoin="round" stroke-width="1.45"/><path d="M225,223.91a45.18,45.18,0,0,0-30.91-7.7l20.61-30.51a27,27,0,0,1,26.13,6.51Z" fill="#fff" stroke="#4a4ad0" stroke-linecap="round" stroke-linejoin="round" stroke-width="1.45"/><path d="M254.08,231.15c-3-2.05-10.71-5.6-17.26-7.29-6.94-1.79-8.13-.38-11.8,0,6.37-12.81,9.56-20.47,15.88-31.69A27,27,0,0,1,267,198.73,324.85,324.85,0,0,1,254.08,231.15Z" fill="#fff" stroke="#4a4ad0" stroke-linecap="round" stroke-linejoin="round" stroke-width="1.45"/><path d="M216.7,189.68a18.66,18.66,0,0,1,9.23.09,23.84,23.84,0,0,1,8.93,4.44" fill="#fff" stroke="#4a4ad0" stroke-linecap="round" stroke-linejoin="round" stroke-width="1.45"/><path d="M213.62,195.67a18.55,18.55,0,0,1,9.24.08,23.84,23.84,0,0,1,8.93,4.44" fill="#fff" stroke="#4a4ad0" stroke-linecap="round" stroke-linejoin="round" stroke-width="1.45"/><path d="M209.27,201.58a25.23,25.23,0,0,1,10.49.4,23.84,23.84,0,0,1,8.93,4.44" fill="#fff" stroke="#4a4ad0" stroke-linecap="round" stroke-linejoin="round" stroke-width="1.45"/><path d="M204.92,207.21a30.2,30.2,0,0,1,11.31.6,23.84,23.84,0,0,1,8.93,4.44" fill="#fff" stroke="#4a4ad0" stroke-linecap="round" stroke-linejoin="round" stroke-width="1.45"/><path d="M244.36,196.54c2-.5,4.23-.66,8.75.21a24,24,0,0,1,9.19,3.89" fill="#fff" stroke="#4a4ad0" stroke-linecap="round" stroke-linejoin="round" stroke-width="1.45"/><path d="M241.71,202.63c2-.5,4.18-.59,8.7.28a23.7,23.7,0,0,1,9.18,3.88" fill="#fff" stroke="#4a4ad0" stroke-linecap="round" stroke-linejoin="round" stroke-width="1.45"/><path d="M234.77,215.53a20.85,20.85,0,0,1,9.36,0A24.22,24.22,0,0,1,253.5,220" fill="#fff" stroke="#4a4ad0" stroke-linecap="round" stroke-linejoin="round" stroke-width="1.45"/><path d="M238.53,208.84c2-.5,4.64-.4,9.16.47a23.83,23.83,0,0,1,9.18,3.89" fill="#fff" stroke="#4a4ad0" stroke-linecap="round" stroke-linejoin="round" stroke-width="1.45"/><polyline points="242.88 115.29 247.39 160.08 239.22 160.08" fill="#fff" stroke="#4a4ad0" stroke-linecap="round" stroke-linejoin="round" stroke-width="1.45"/><polygon points="238 170.85 154.22 170.85 159.11 115.29 242.88 115.29 238 170.85" fill="#fff" stroke="#4a4ad0" stroke-linecap="round" stroke-linejoin="round" stroke-width="1.45"/><path d="M163.28,118.33a5,5,0,0,1-1.86-5.27,3.72,3.72,0,0,1,1.9-2.4,2.52,2.52,0,0,1,2.9.5c.77.88.68,2.2.55,3.37" fill="none" stroke="#4a4ad0" stroke-linecap="round" stroke-linejoin="round" stroke-width="1.45"/><path d="M170.25,118.64a5.48,5.48,0,0,1-.57-5.21,3.14,3.14,0,0,1,2.7-2.12c1.22,0,2.25,1.58,1.5,2.53" fill="none" stroke="#4a4ad0" stroke-linecap="round" stroke-linejoin="round" stroke-width="1.45"/><path d="M178.9,118.93a5.07,5.07,0,0,1-1.83-5.89,3.18,3.18,0,0,1,.79-1.19,2.27,2.27,0,0,1,3.77,1.94" fill="none" stroke="#4a4ad0" stroke-linecap="round" stroke-linejoin="round" stroke-width="1.45"/><path d="M185.56,118.83c-.47-2.29-.9-4.85.34-6.83a2,2,0,0,1,1.13-1,1.73,1.73,0,0,1,1.84,1.12,4.94,4.94,0,0,1,.21,2.3" fill="none" stroke="#4a4ad0" stroke-linecap="round" stroke-linejoin="round" stroke-width="1.45"/><path d="M194,118.62c-.52.42-1.19-.31-1.42-.94a12.57,12.57,0,0,1-.67-5.23,2.94,2.94,0,0,1,1-2.25,2.28,2.28,0,0,1,3,.88,6.61,6.61,0,0,1,.76,3.41" fill="none" stroke="#4a4ad0" stroke-linecap="round" stroke-linejoin="round" stroke-width="1.45"/><path d="M201.64,119.72c-1.37-1-1.68-3-1.72-4.67,0-1.31.28-2.94,1.54-3.29a2,2,0,0,1,2.06.82,4.26,4.26,0,0,1,.74,2.2" fill="none" stroke="#4a4ad0" stroke-linecap="round" stroke-linejoin="round" stroke-width="1.45"/><path d="M209,118.77a.74.74,0,0,1-1.08.17,1.84,1.84,0,0,1-.61-1,9.3,9.3,0,0,1,0-5.15,2.88,2.88,0,0,1,1.87-2.21,2.28,2.28,0,0,1,2.31,1.41,6.57,6.57,0,0,1,.4,2.86" fill="none" stroke="#4a4ad0" stroke-linecap="round" stroke-linejoin="round" stroke-width="1.45"/><path d="M216,119.59a22.22,22.22,0,0,1-1-4.56c-.16-1.43.07-3.26,1.44-3.7a2.23,2.23,0,0,1,2.36.91,4.89,4.89,0,0,1,.81,2.53" fill="none" stroke="#4a4ad0" stroke-linecap="round" stroke-linejoin="round" stroke-width="1.45"/><path d="M223.31,118.8a17.68,17.68,0,0,1-1.54-2.92,5.16,5.16,0,0,1-.48-3.12,2.19,2.19,0,0,1,2.32-1.75c1.41.27,1.8,2.08,1.88,3.52" fill="none" stroke="#4a4ad0" stroke-linecap="round" stroke-linejoin="round" stroke-width="1.45"/><path d="M230.34,118.85c-1.6-.66-2.05-2.7-2.1-4.43a5.33,5.33,0,0,1,.31-2.28,2.16,2.16,0,0,1,1.72-1.38,2.18,2.18,0,0,1,2,1.31,5.52,5.52,0,0,1,.39,2.46" fill="none" stroke="#4a4ad0" stroke-linecap="round" stroke-linejoin="round" stroke-width="1.45"/><path d="M237.34,119c-1.41-.48-2.13-2.07-2.29-3.56a4.42,4.42,0,0,1,.51-2.84,2.33,2.33,0,0,1,2.52-1.08,1.6,1.6,0,0,1,.86,2.35" fill="none" stroke="#4a4ad0" stroke-linecap="round" stroke-linejoin="round" stroke-width="1.45"/><polygon points="195.46 165.61 161.25 164.76 164.06 126.61 197.72 126.61 195.46 165.61" fill="#fff" stroke="#4a4ad0" stroke-linecap="round" stroke-linejoin="round" stroke-width="1.45"/><path d="M202.34,126.49c.51-.4,1.44-.7,1.65-.09a1,1,0,0,1-.15.76,18.31,18.31,0,0,1-1.7,2.73l1.87,0" fill="none" stroke="#4a4ad0" stroke-linecap="round" stroke-linejoin="round" stroke-width="1.45"/><path d="M202.36,133.89a.92.92,0,1,1,.41,1.66,1.16,1.16,0,1,1-.64,2.2" fill="none" stroke="#4a4ad0" stroke-linecap="round" stroke-linejoin="round" stroke-width="1.45"/><path d="M202.94,140.9c-.58.68-2.17,1.51-2.39,2.38h2.16" fill="none" stroke="#4a4ad0" stroke-linecap="round" stroke-linejoin="round" stroke-width="1.45"/><path d="M203.12,141.1l-.44,3.91" fill="none" stroke="#4a4ad0" stroke-linecap="round" stroke-linejoin="round" stroke-width="1.45"/><path d="M201.32,149.93l0,1.47a1.7,1.7,0,0,1,1.49,1.19c.12.67-.72,1.37-1.25.95" fill="none" stroke="#4a4ad0" stroke-linecap="round" stroke-linejoin="round" stroke-width="1.45"/><path d="M201.53,149.79l1.31-.11" fill="none" stroke="#4a4ad0" stroke-linecap="round" stroke-linejoin="round" stroke-width="1.45"/><path d="M201.94,159.72a5.14,5.14,0,0,0-1.18,1.37,1.68,1.68,0,0,0,0,1.72,1,1,0,0,0,1.57.12.82.82,0,1,0-1.34-1l-.18.46" fill="none" stroke="#4a4ad0" stroke-linecap="round" stroke-linejoin="round" stroke-width="1.45"/><line x1="206.94" y1="129.91" x2="235.4" y2="129.91" fill="none" stroke="#4a4ad0" stroke-linecap="round" stroke-linejoin="round" stroke-width="1.45"/><line x1="206.94" y1="137.85" x2="234.3" y2="137.85" fill="none" stroke="#4a4ad0" stroke-linecap="round" stroke-linejoin="round" stroke-width="1.45"/><line x1="205.82" y1="146.05" x2="233.56" y2="146.05" fill="none" stroke="#4a4ad0" stroke-linecap="round" stroke-linejoin="round" stroke-width="1.45"/><line x1="205.21" y1="154.71" x2="233.06" y2="154.71" fill="none" stroke="#4a4ad0" stroke-linecap="round" stroke-linejoin="round" stroke-width="1.45"/><line x1="205.21" y1="163.24" x2="233.3" y2="163.24" fill="none" stroke="#4a4ad0" stroke-linecap="round" stroke-linejoin="round" stroke-width="1.45"/><path d="M89.47,178.63l42.83,11.09-47.75,40a13.65,13.65,0,0,1-15.22,1.56L41.15,216.11Z" fill="#fff" stroke="#4a4ad0" stroke-linecap="round" stroke-linejoin="round" stroke-width="1.45"/><polyline points="69.6 202.98 83.68 195.11 98.21 187 88.67 212.49" fill="none" stroke="#4a4ad0" stroke-linecap="round" stroke-linejoin="round" stroke-width="1.45"/><line x1="92.92" y1="199.44" x2="84.59" y2="195.5" fill="none" stroke="#4a4ad0" stroke-linecap="round" stroke-linejoin="round" stroke-width="1.45"/><line x1="97.43" y1="201.14" x2="104.91" y2="203.88" fill="none" stroke="#4a4ad0" stroke-linecap="round" stroke-linejoin="round" stroke-width="1.45"/><line x1="104.11" y1="199.44" x2="98.21" y2="205.76" fill="none" stroke="#4a4ad0" stroke-linecap="round" stroke-linejoin="round" stroke-width="1.45"/><path d="M41.15,216.11s-9.67-4.87-1.06-13.26c2.24-2.18,8.11-4.07,10.84-3.19,31.35,16.66,34.07,19.23,33.62,20.2s-7.14-2.67-11.73.44c-2.93,2-7.45,8.53-.65,12.09Z" fill="#fff" stroke="#4a4ad0" stroke-linecap="round" stroke-linejoin="round" stroke-width="1.45"/><path d="M261.15,137.19l29.65-4.52c5.13-.65,11.86,3.85,13.17,14.19s-2.51,17.89-7.64,18.54l-29.28,8.95" fill="#f9ef2f" stroke="#4a4ad0" stroke-linecap="round" stroke-linejoin="round" stroke-width="1.45"/><ellipse cx="263.53" cy="155.92" rx="9.37" ry="18.88" transform="translate(-17.53 34.4) rotate(-7.23)" stroke-width="1.45" stroke="#4a4ad0" stroke-linecap="round" stroke-linejoin="round" fill="#fff"/><polygon points="273.06 157.43 234.3 170.74 229.73 175.23 235.91 176.07 272.9 163.24 273.06 157.43" fill="#f87b00" stroke="#4a4ad0" stroke-linecap="round" stroke-linejoin="round" stroke-width="1.45"/><path d="M272.63,153.48l-29,10.33s-1.71,2-1.05,2.94" fill="none" stroke="#4a4ad0" stroke-linecap="round" stroke-linejoin="round" stroke-width="1.45"/><polygon points="269.76 164.32 250.87 185.52 244.84 187.83 245.87 182.74 259.61 167.85 269.76 164.32" fill="#d7ebd9" stroke="#4a4ad0" stroke-linecap="round" stroke-linejoin="round" stroke-width="1.45"/><path d="M245.87,182.74s2-.57,2.87,0a5.07,5.07,0,0,1,2.13,2.78" fill="#d7ebd9" stroke="#4a4ad0" stroke-linecap="round" stroke-linejoin="round" stroke-width="1.45"/><line x1="276.67" y1="140.35" x2="293.73" y2="138.54" fill="none" stroke="#fff" stroke-linecap="round" stroke-linejoin="round" stroke-width="1.45"/><line x1="282.69" y1="145.27" x2="293.73" y2="143.61" fill="none" stroke="#fff" stroke-linecap="round" stroke-linejoin="round" stroke-width="1.45"/><path d="M28.24,160.9a3.79,3.79,0,0,0-2.91,3c-.46,2.57,2.33,6.11,2.33,6.11L58,189.94l59.83-36.42-4.47-2.08" fill="#fff" stroke="#4a4ad0" stroke-linecap="round" stroke-linejoin="round" stroke-width="1.45"/><path d="M115.72,148.16l-.21,3.41L58,186.41,27.39,167.5a8.57,8.57,0,0,1-1.08-2.2,3.23,3.23,0,0,1,.66-2.67c.66-1.11,2.87-1,2.87-1l85-13.49" fill="#fac2ed" stroke="#4a4ad0" stroke-miterlimit="10"/><polygon points="83 135.05 118.31 145.98 58.65 179.84 28.24 160.9 83 135.05" fill="#fff" stroke="#4a4ad0" stroke-linecap="round" stroke-linejoin="round" stroke-width="1.45"/><path d="M36.89,155.31a3.3,3.3,0,0,0-2.36,2.79c-.21,2.22,2.59,5,2.59,5L66,177.55l50.8-35.68-4.18-1.4" fill="#fff" stroke="#4a4ad0" stroke-linecap="round" stroke-linejoin="round" stroke-width="1.45"/><path d="M114.49,137.5l.08,2.91L65.73,174.56,36.67,161a7.29,7.29,0,0,1-1.15-1.78,2.63,2.63,0,0,1,.37-2.32c.51-1,2.5-1.1,2.5-1.1l75.3-18.24" fill="#ededfa" stroke="#4a4ad0" stroke-miterlimit="10"/><polygon points="84 129 116.64 135.44 65.77 168.93 36.89 155.31 84 129" fill="#fff" stroke="#4a4ad0" stroke-linecap="round" stroke-linejoin="round" stroke-width="1.45"/><rect x="405.41" y="46.78" width="186.5" height="128.45" rx="2.39" stroke-width="1.45" stroke="#4a4ad0" stroke-linecap="round" stroke-linejoin="round" fill="#fff"/><path d="M587.33,168.31a2.42,2.42,0,0,1-2.41,2.43H413.35a2.42,2.42,0,0,1-2.41-2.43V54.63a2.42,2.42,0,0,1,2.41-2.43H584.92a2.42,2.42,0,0,1,2.41,2.43Z" fill="#ededfa"/><polygon points="410.94 168.31 586.83 53.15 587.33 168.31 584.92 170.74 411.78 170.45 410.94 168.31" fill="#a6a6e8" opacity="0.28"/><rect x="410.54" y="52.2" width="175.95" height="118.53" rx="2.39" stroke-width="1.45" stroke="#4a4ad0" stroke-linecap="round" stroke-linejoin="round" fill="none"/><line x1="576.64" y1="68.4" x2="536.3" y2="93.99" fill="#fff" opacity="0.83" stroke-linecap="round" stroke-linejoin="round" stroke-width="1.45" stroke="#fff"/><line x1="576.64" y1="78.65" x2="564.06" y2="87.05" fill="#fff" opacity="0.83" stroke-linecap="round" stroke-linejoin="round" stroke-width="1.45" stroke="#fff"/><path d="M238.91,85.24c1.85-5.68,11.48-49.78,57.82-74.61,49.54-26.55,86.54,7.81,93.85,15.52" fill="none" stroke="#4a4ad0" stroke-linecap="round" stroke-linejoin="round" stroke-width="1.45" stroke-dasharray="2.89 5.79"/><path d="M396.81,193.82a.87.87,0,0,0,1.19.34l33.71-18.61a.87.87,0,0,0,.35-1.19L400.2,116.65a.88.88,0,0,0-1.19-.34L365.3,134.92a.87.87,0,0,0-.34,1.19Z" fill="#cbc0de" stroke="#cbc0de" stroke-linecap="round" stroke-linejoin="round" stroke-width="1.45" opacity="0.73"/><path d="M398.2,190.25a.87.87,0,0,0,1.19.34L433.1,172a.86.86,0,0,0,.35-1.18l-31.86-57.71a.87.87,0,0,0-1.19-.35l-33.71,18.61a.87.87,0,0,0-.34,1.19Z" fill="#fff" stroke="#4a4ad0" stroke-linecap="round" stroke-linejoin="round" stroke-width="1.45"/><line x1="387" y1="124.89" x2="383.28" y2="126.86" fill="none" stroke="#4a4ad0" stroke-linecap="round" stroke-linejoin="round" stroke-width="1.45"/><path d="M364.06,122.8c-6.91.55-11.44,10.89-6.6,16.19-.43,0-.72-.19-.85-.7" fill="none" stroke="#4a4ad0" stroke-linecap="round" stroke-linejoin="round" stroke-width="1.45"/><path d="M360.65,111.51c-6,1.65-9.83,6.22-12.22,11.73-1.61,3.72-3.34,14-2.39,14.28" fill="none" stroke="#4a4ad0" stroke-linecap="round" stroke-linejoin="round" stroke-width="1.45"/><path d="M349.9,104.68c-8.28,3.1-14.82,13.15-12.94,22.25" fill="none" stroke="#4a4ad0" stroke-linecap="round" stroke-linejoin="round" stroke-width="1.45"/><line x1="380.81" y1="137.69" x2="389.98" y2="153.96" fill="none" stroke="#fff" stroke-linecap="round" stroke-linejoin="round" stroke-width="1.45"/><path d="M621.34,52.29a60.15,60.15,0,0,0,15.91-2.06" fill="none" stroke="#d4d4f4" stroke-linecap="round" stroke-linejoin="round" stroke-width="1.45" stroke-dasharray="2.89 5.79"/><path d="M492,161.21q33.63-5.58,64.3,5.94l8.58-92.82c-20-8.31-41.8-8.83-64.3-6" fill="#fff" stroke="#4a4ad0" stroke-linecap="round" stroke-linejoin="round" stroke-width="1.45"/><path d="M491.58,161.17q-32-11.64-64.3-5.95l8.58-92.82c21.23-4.49,42.71-1,64.3,5.94Z" fill="#fff" stroke="#4a4ad0" stroke-linecap="round" stroke-linejoin="round" stroke-width="1.45"/><path d="M484.06,101.49a160.69,160.69,0,0,0-40.95-4l2.56-26.21c13.36-1.42,27,.12,40.95,4Z" fill="#ededfa" stroke="#4a4ad0" stroke-linecap="round" stroke-linejoin="round" stroke-width="1.45"/><polygon points="458.63 77.72 457.46 90.22 467.96 84.22 458.63 77.72" fill="#f87b00" stroke="#4a4ad0" stroke-linecap="round" stroke-linejoin="round" stroke-width="1.45"/><line x1="370.3" y1="137.72" x2="404.8" y2="119.56" fill="#fff" stroke="#4a4ad0" stroke-linecap="round" stroke-linejoin="round" stroke-width="1.45"/><line x1="395.63" y1="184.56" x2="430.13" y2="166.39" fill="#fff" stroke="#4a4ad0" stroke-linecap="round" stroke-linejoin="round" stroke-width="1.45"/><line x1="380.81" y1="209.4" x2="617.1" y2="209.4" fill="none" stroke="#4a4ad0" stroke-linecap="round" stroke-linejoin="round" stroke-width="1.45"/><circle cx="537.05" cy="138.89" r="13.75" fill="#2dab66" stroke="#4a4ad0" stroke-linecap="round" stroke-linejoin="round" stroke-width="1.45"/><polyline points="531.04 137.89 531.54 145.14 543.79 133.89" fill="#2dab66" stroke="#fff" stroke-linecap="round" stroke-linejoin="round" stroke-width="1.45"/></svg>