<svg xmlns="http://www.w3.org/2000/svg" width="256" height="256" viewBox="0 0 256 256"><g transform="translate(-463 -412)"><path d="M212,256H44A43.963,43.963,0,0,1,0,212V44A43.963,43.963,0,0,1,44,0H212a43.963,43.963,0,0,1,44,44V212a43.963,43.963,0,0,1-44,44ZM182.174,79.639a3.249,3.249,0,0,0-1.679.475l-39.932,24.148a3.273,3.273,0,0,0-1.57,2.785V210.7l4.868,2.829,39.932-22.758a3.263,3.263,0,0,0,1.644-2.829V82.9a3.214,3.214,0,0,0-.995-2.346A3.315,3.315,0,0,0,182.174,79.639ZM73.262,125.787a3.314,3.314,0,0,0-2.268.917A3.214,3.214,0,0,0,70,129.049v43.238a3.264,3.264,0,0,0,3.261,3.261h.005a3.2,3.2,0,0,0,1.6-.433l36.817-21.01a3.256,3.256,0,0,0,.069-5.615L74.938,126.261A3.246,3.246,0,0,0,73.262,125.787ZM113.189,42a3.246,3.246,0,0,0-1.666.468L71.583,66.382A3.271,3.271,0,0,0,70,69.175v28.77a3.258,3.258,0,0,0,1.68,2.85l39.938,22.074a3.213,3.213,0,0,0,1.566.41h.005a3.264,3.264,0,0,0,3.261-3.261V45.261a3.214,3.214,0,0,0-.994-2.345A3.314,3.314,0,0,0,113.189,42Z" transform="translate(463 412)" fill="#fff"/></g></svg>