<svg id="Layer_1" data-name="Layer 1" xmlns="http://www.w3.org/2000/svg" viewBox="0 0 800.91 800.91">
  <path fill="currentColor" d="M170.4 373.71V352l34.38-2.34c4.68-.33 5.34-1.67 5.34-6.68V160.7h-44.73c-3.68 0-4.68.34-5.34 3.68l-5.35 29h-28V132h206v61.43h-27.76l-5.34-29c-.67-3.34-1.67-3.68-5.34-3.68h-45.07V343c0 4.68.33 6 5.34 6.35l36.72 2.65v21.7z"/>
  <path fill="none" stroke="currentColor" strokeMiterLimit="10" strokeLinecap="round" strokeWidth="45" d="M400.59 155.21h286M400.59 235.21h286M400.59 330.21h286M131.59 425.21h555M131.59 535.21h555M131.59 645.21h555"/>
  <rect x="30.73" y="30.73" width="739.46" height="739.46" rx="167.45" stroke-width="65" fill="none" stroke="currentColor" stroke-miterlimit="10"/>
</svg>
