<svg xmlns="http://www.w3.org/2000/svg" width="1200" height="1200" viewBox="0 0 1200 1200"><path d="M352.35,458.57l-10.63-2.32-2.42-10.61a.82.82,0,0,0-.8-.64.84.84,0,0,0-.81.64l-2.42,10.66-10.63,2.52a.84.84,0,0,0-.64.82.81.81,0,0,0,.65.79l10.63,2.32,2.41,10.61a.84.84,0,0,0,.81.64.82.82,0,0,0,.8-.64l2.43-10.66,10.63-2.52a.82.82,0,0,0,0-1.61Z" fill="#4f3cc9"/><path d="M709.35,354.57l-10.63-2.32-2.42-10.61a.82.82,0,0,0-.8-.64.84.84,0,0,0-.81.64l-2.42,10.66-10.63,2.52a.84.84,0,0,0-.64.82.81.81,0,0,0,.65.79l10.63,2.32,2.41,10.61a.84.84,0,0,0,.81.64.82.82,0,0,0,.8-.64l2.43-10.66,10.63-2.52a.82.82,0,0,0,0-1.61Z" fill="#4f3cc9"/><path d="M371.66,413l-5.5-1.2-1.24-5.49a.43.43,0,0,0-.84,0l-1.25,5.52-5.5,1.3a.43.43,0,0,0-.33.42.42.42,0,0,0,.34.41l5.5,1.2,1.24,5.49a.43.43,0,0,0,.84,0l1.25-5.52,5.5-1.3a.44.44,0,0,0,.33-.42A.42.42,0,0,0,371.66,413Z" fill="#4f3cc9"/><path d="M822.65,881.57l10.63-2.32,2.41-10.61a.84.84,0,0,1,.81-.64.82.82,0,0,1,.8.64l2.43,10.66,10.63,2.52a.82.82,0,0,1,0,1.61l-10.63,2.32-2.42,10.61a.82.82,0,0,1-.8.64.84.84,0,0,1-.81-.64l-2.42-10.66-10.63-2.52a.84.84,0,0,1-.64-.82A.81.81,0,0,1,822.65,881.57Z" fill="#4f3cc9"/><path d="M803.34,836l5.5-1.2,1.24-5.49a.43.43,0,0,1,.84,0l1.25,5.52,5.5,1.3a.44.44,0,0,1,.33.42.42.42,0,0,1-.34.41l-5.5,1.2-1.24,5.49a.43.43,0,0,1-.84,0l-1.25-5.52-5.5-1.3a.43.43,0,0,1-.33-.42A.42.42,0,0,1,803.34,836Z" fill="#4f3cc9"/><path d="M779.66,501l-5.5-1.2-1.24-5.49a.43.43,0,0,0-.84,0l-1.25,5.52-5.5,1.3a.43.43,0,0,0-.33.42.42.42,0,0,0,.34.41l5.5,1.2,1.24,5.49a.43.43,0,0,0,.84,0l1.25-5.52,5.5-1.3a.44.44,0,0,0,.33-.42A.42.42,0,0,0,779.66,501Z" fill="#4f3cc9"/><path d="M443.35,876.57l-10.63-2.32-2.42-10.61a.82.82,0,0,0-.8-.64.84.84,0,0,0-.81.64l-2.42,10.66-10.63,2.52a.84.84,0,0,0-.64.82.81.81,0,0,0,.65.79l10.63,2.32,2.41,10.61a.84.84,0,0,0,.81.64.82.82,0,0,0,.8-.64l2.43-10.66,10.63-2.52a.82.82,0,0,0,0-1.61Z" fill="#4f3cc9"/><path d="M800.3,420.3S805.94,406,796,383.88a1.67,1.67,0,0,0-3.12.18c-1.6,5.05-4.43,13.37-6.68,16.7Z" fill="#f582ae"/><path d="M778.62,430.46S764,425.64,753.4,403.83a1.67,1.67,0,0,1,2.14-2.28c4.9,2,13.1,5.16,17.1,5.56Z" fill="#f582ae"/><path d="M791.66,403.92c-1.32-1.7-2.71-3.44-4.16-5.2l-17.24,8.08c.42,2.24.87,4.42,1.33,6.52,7.06,31.94,18.73,47.22,27.79,54.51l16.47-7.72C816,448.5,811.68,429.78,791.66,403.92Z" fill="#4f3cc9"/><circle cx="799.28" cy="446.22" r="7.58" fill="#fff"/><path d="M799.38,467.83l16.47-7.72c-.14,9.49-3.26,14.23-3.26,14.23l-.14.06S806.78,473.79,799.38,467.83Z" fill="#f582ae"/><path d="M789.63,424.71h0a2.05,2.05,0,0,1-2.64-.81l-6.27-10.69a41.45,41.45,0,0,1-3.24-6.91l-4.19-11.66a2,2,0,0,1,1.06-2.54h0a2,2,0,0,1,2.63.82l6.27,10.68a41,41,0,0,1,3.24,6.91l4.2,11.66A2,2,0,0,1,789.63,424.71Z" fill="#f582ae"/><path d="M776.73,387.28c-.13-.28-12.75-28.38-31.87-32.8l.91-3.9c21.07,4.88,34.07,33.85,34.62,35.08Z" fill="#4f3cc9"/><path d="M765.88,390c0-.1-4.57-10.16-14.15-15.1l1.83-3.55c10.87,5.61,15.78,16.58,16,17Z" fill="#4f3cc9"/><path d="M449.91,483.23l32.14,155.86,193-39.8L642.86,443.43a17.13,17.13,0,0,0-20.24-13.32L463.22,463A17.12,17.12,0,0,0,449.91,483.23Z" fill="#77e0b5"/><path d="M458.3,510.6l34.07,155.45,192.45-42.18L650.75,468.42a17.15,17.15,0,0,0-20.41-13.07l-159,34.85A17.12,17.12,0,0,0,458.3,510.6Z" fill="#4f3cc9"/><path d="M788.22,696c-8.72,104-100.12,181.27-204.13,172.54A188.93,188.93,0,0,1,411.55,664.45c8.72-104,100.12-181.27,204.13-172.54A188.77,188.77,0,0,1,788.22,696Z" fill="#f582ae"/><path d="M600.22,872.26q-8.16,0-16.38-.69A192.16,192.16,0,1,1,791.21,696.29h0a192,192,0,0,1-191,176Zm-.66-378a186,186,0,0,0-185,170.47c-5.49,65.42,23,127.54,76.17,166.16A186,186,0,0,0,785.23,695.79h0A185.75,185.75,0,0,0,615.43,494.9Q607.47,494.23,599.56,494.23Z" fill="#4f3cc9"/><path d="M519.78,490.49a84.67,84.67,0,0,0-19.17,17.13c-1.32,1.56-2.64,3.22-3.93,5h0l-.12.15A86,86,0,0,0,490,523.36c-.52,1-1,2-1.52,3-.9,1.9-1.75,3.87-2.53,5.92a79.34,79.34,0,0,0-4.45,17.33c-.31,2.11-.53,4.29-.66,6.52a93.61,93.61,0,0,0,2.47,27.1l-43,19.07a128.32,128.32,0,0,1-7.79-46.93c0-2.18.14-4.41.31-6.67a109.54,109.54,0,0,1,5.87-28.3h0c.77-2.16,1.61-4.33,2.56-6.5,1.3-3,2.78-6.05,4.45-9.06a105,105,0,0,1,9-13.55l.41-.51q2.24-2.85,4.77-5.65a130.46,130.46,0,0,1,28.53-23.42Z" fill="#fff"/><path d="M438.74,606.34l-1.17-2.84a130.19,130.19,0,0,1-8-48.14c0-2.29.15-4.59.32-6.84a112.87,112.87,0,0,1,5.86-28.58h0l.17-.5c.87-2.43,1.73-4.62,2.64-6.69,1.36-3.15,2.9-6.29,4.58-9.32a108.64,108.64,0,0,1,9.22-13.93l.45-.56c1.47-1.88,3.12-3.83,4.87-5.77a134,134,0,0,1,29.18-24l1.93-1.19,36,33-3.47,2.06a82.91,82.91,0,0,0-18.4,16.48c-1.17,1.39-2.24,2.72-3.23,4.05v.07l-.73.93a82.45,82.45,0,0,0-6.3,10.15c-.52,1-1,2-1.47,2.94-.9,1.91-1.72,3.83-2.44,5.71a76.83,76.83,0,0,0-4.28,16.68c-.3,2-.51,4.13-.63,6.27a90.92,90.92,0,0,0,2.39,26.25l.57,2.41Zm2.92-85.19-.1.3A107.12,107.12,0,0,0,435.85,549c-.16,2.13-.26,4.32-.3,6.5a129.52,129.52,0,0,0,6.51,42.83l37.78-16.78a96,96,0,0,1-2-25.53c.13-2.31.36-4.59.68-6.78a82.46,82.46,0,0,1,4.62-18c.77-2,1.65-4.08,2.62-6.13.49-1,1-2.12,1.57-3.17a89.46,89.46,0,0,1,6.8-10.94l.12-.16c1.25-1.72,2.58-3.42,4.07-5.18a93.54,93.54,0,0,1,16.62-15.55l-26.86-24.62a126.65,126.65,0,0,0-26,21.67c-1.66,1.84-3.22,3.68-4.64,5.49l-.39.48a103.06,103.06,0,0,0-8.73,13.19,95.31,95.31,0,0,0-4.31,8.79C443.22,517,442.45,519,441.66,521.15Z" fill="#4f3cc9"/><path d="M693.92,552.16l-46.84-3.93a93.1,93.1,0,0,0-6.7-26.72c-.82-2-1.72-3.9-2.66-5.73a79.7,79.7,0,0,0-9.17-14q-2-2.5-4.19-4.74a84.67,84.67,0,0,0-11.71-10.2c-1.79-1.29-3.56-2.47-5.31-3.56a86,86,0,0,0-25.16-10.74l20.2-37.44a130.18,130.18,0,0,1,36,13.53q3.48,2,6.68,4.12a102.55,102.55,0,0,1,19.63,16.93q2.38,2.65,4.52,5.39a110.22,110.22,0,0,1,14.63,25q1.3,3.11,2.4,6.15A128.38,128.38,0,0,1,693.92,552.16Z" fill="#fff"/><path d="M696.74,555.41,644.36,551l-.26-2.47a90.53,90.53,0,0,0-6.48-25.86c-.76-1.83-1.59-3.63-2.57-5.53a77.15,77.15,0,0,0-8.82-13.47c-1.28-1.59-2.63-3.11-4-4.56a81.78,81.78,0,0,0-11.31-9.85c-1.65-1.19-3.38-2.35-5.14-3.44a83.51,83.51,0,0,0-24.18-10.35l-3.94-.82,23.19-43,2.21.49A134,134,0,0,1,639.87,446c2.44,1.39,4.75,2.81,6.87,4.24a105.67,105.67,0,0,1,20.19,17.42c1.64,1.81,3.2,3.68,4.65,5.54a113.29,113.29,0,0,1,15,25.7c.89,2.12,1.72,4.24,2.46,6.31a130.23,130.23,0,0,1,7.85,47.1Zm-47-10L691,548.9a130.51,130.51,0,0,0-7.54-41.64c-.71-2-1.5-4-2.35-6a107.4,107.4,0,0,0-14.22-24.33c-1.37-1.76-2.85-3.52-4.39-5.23a99.86,99.86,0,0,0-19.06-16.44c-2-1.35-4.2-2.7-6.5-4a126.54,126.54,0,0,0-33-12.7l-17.3,32.07a94.81,94.81,0,0,1,22.29,10.12c1.88,1.17,3.72,2.4,5.48,3.68A88.09,88.09,0,0,1,626.53,495c1.5,1.55,3,3.22,4.35,4.92a83.48,83.48,0,0,1,9.51,14.52c1.05,2.05,2,4,2.76,6A95.33,95.33,0,0,1,649.78,545.45Z" fill="#4f3cc9"/><path d="M684,535.05c-10.2-3.44-25.34-6.13-38.88,1,0,0-25.47,22.45-25.76,32,0,0,1.36,13.66,19.59,5.65,0,0-9,41.9,25.31,45.28,0,0,25,4,31.28-27.93a15.36,15.36,0,0,0,.29-3.1l.08-36.18A17.52,17.52,0,0,0,684,535.05Z" fill="#fff"/><path d="M666.66,622a21.71,21.71,0,0,1-2.75-.15c-9.74-1-17.21-4.92-22.18-11.74-7.52-10.3-7.3-24.44-6.51-32-5.25,1.5-9.61,1.26-13-.72-5.2-3-5.84-8.94-5.87-9.19l0-.19v-.2c.32-10.28,22.36-30.22,26.77-34.11l.27-.24.32-.17c14.45-7.58,30.4-4.81,41.24-1.15h0a20.49,20.49,0,0,1,13.95,19.5l-.08,36.18a19.39,19.39,0,0,1-.34,3.67C693,619.28,674,622,666.66,622ZM643.1,568.53l-1.24,5.74c0,.19-4.17,20.18,4.73,32.36,3.93,5.38,10,8.51,17.94,9.29l.19,0c.89.13,22.19,3,27.86-25.55a12.42,12.42,0,0,0,.23-2.52l.08-36.18A14.49,14.49,0,0,0,683,537.9c-9.64-3.26-23.72-5.77-36.21.61-10,8.88-23.93,23.56-24.46,29.33a6.64,6.64,0,0,0,2.94,4.46c2.62,1.5,6.92,1,12.44-1.41Z" fill="#4f3cc9"/><path d="M686.25,506.24c-10.62-.46-30.85.87-45.87,15.27-.82-2-1.72-3.9-2.66-5.73,15.27-13.71,34.4-15.89,46.13-15.69Q685.16,503.2,686.25,506.24Z" fill="#f582ae"/><path d="M669.22,475.07c-9.38.75-28.49,5.05-40.67,26.71q-2-2.5-4.19-4.74a56.89,56.89,0,0,1,40.34-27.36Q667.08,472.34,669.22,475.07Z" fill="#f582ae"/><path d="M645.07,452.75c-8.42,2-27,9.29-32.42,34.09-1.79-1.29-3.56-2.47-5.31-3.56,5.63-21.64,20.73-30.82,31-34.65Q641.87,450.61,645.07,452.75Z" fill="#f582ae"/><path d="M481.49,549.66c-.31,2.11-.53,4.29-.66,6.52-19.78-11.89-40-4.72-48.28-.76,0-2.18.14-4.41.31-6.67C443.05,544.51,462.24,539.4,481.49,549.66Z" fill="#f582ae"/><path d="M488.47,526.41c-.9,1.9-1.75,3.87-2.53,5.92-15.55-16.08-38-13.71-47.21-11.89.77-2.16,1.61-4.33,2.56-6.5C452.62,512.3,473,512,488.47,526.41Z" fill="#f582ae"/><path d="M500.61,507.62c-1.32,1.56-2.64,3.22-3.93,5-11.51-19.08-32.19-21.67-41.56-21.8q2.24-2.85,4.77-5.65C471.2,486.23,489.31,490.7,500.61,507.62Z" fill="#f582ae"/><path d="M444.12,582.94c8.51-6.6,21.93-14.11,37.05-11.84,0,0,31.42,12.85,34.82,21.74,0,0,3.19,13.35-16.65,11.77,0,0,22.27,36.61-9.06,51.07,0,0-22.24,12-38.72-16.12a17.2,17.2,0,0,1-1.29-2.83l-11.94-34.15A17.53,17.53,0,0,1,444.12,582.94Z" fill="#fff"/><path d="M478.81,661.16c-8.7,0-20.29-3.78-29.84-20.09a19.11,19.11,0,0,1-1.53-3.35L435.5,603.57a20.51,20.51,0,0,1,6.78-23h0c9-7,23.21-14.86,39.34-12.44l.35,0,.34.14c5.45,2.23,32.81,13.83,36.48,23.45l.12.37c.06.24,1.38,6-2.53,10.6-2.56,3-6.6,4.64-12.05,5,3.22,6.85,8.06,20.13,4.34,32.33-2.46,8.08-8.22,14.26-17.1,18.37A30.45,30.45,0,0,1,478.81,661.16ZM446,585.31a14.52,14.52,0,0,0-4.8,16.28l11.95,34.15a13.61,13.61,0,0,0,1,2.3c14.74,25.16,33.91,15.42,34.72,15L489,653c7.29-3.36,12-8.3,13.91-14.68,4.42-14.47-6.05-31.93-6.16-32.1l-3-5,5.85.47c6,.48,10.23-.47,12.22-2.74a6.66,6.66,0,0,0,1.31-5.18c-2.41-5.29-20.35-14.59-32.72-19.69-13.9-1.94-26.37,5.06-34.42,11.3Z" fill="#4f3cc9"/><path d="M595.23,380.58l10.38-2a10.17,10.17,0,0,1,11.93,8.06l4.6,23.78a10.18,10.18,0,0,1-8.07,11.92l-10.38,2Z" fill="#4f3cc9"/><path d="M461.57,406.4l-10.38,2a10.18,10.18,0,0,0-8.06,11.93l4.59,23.77a10.19,10.19,0,0,0,11.93,8.07l10.38-2Z" fill="#4f3cc9"/><circle cx="532.93" cy="415.76" r="77.35" fill="#fff"/><path d="M532.76,496.14a80.5,80.5,0,1,1,15.41-1.49A81.34,81.34,0,0,1,532.76,496.14Zm.32-154.75a74.44,74.44,0,0,0-73.15,88.48,74.33,74.33,0,1,0,73.15-88.48Z" fill="#4f3cc9"/><rect x="475.31" y="370.38" width="115.59" height="90.24" rx="32.14" transform="translate(-69.15 108.7) rotate(-10.94)" fill="#4f3cc9"/><circle cx="571.83" cy="400.56" r="7.54" fill="#fff"/><circle cx="560.17" cy="387.46" r="4.92" fill="#fff"/><path d="M658.42,720.5c-16.55,1.42-31.17-8.35-34.6-22.36a26.57,26.57,0,0,1,2.1-18.29c4.77-9.57,15.05-16.67,27.48-17.74,11.74-1,22.51,3.62,29,11.39a28.18,28.18,0,0,1,3.29,4.9,26.32,26.32,0,0,1,3,10.09C690.05,704.61,676.5,718.94,658.42,720.5Z" fill="#fff"/><path d="M655.3,723.63c-16.37,0-30.83-10.21-34.39-24.78a29.36,29.36,0,0,1-.74-4.47,30,30,0,0,1,3.06-15.87c5.41-10.84,16.87-18.27,29.91-19.39,12.38-1.06,24.17,3.6,31.55,12.46a31,31,0,0,1,3.64,5.42,29.16,29.16,0,0,1,3.32,11.23c1.53,17.74-13.26,33.56-33,35.26h0C657.54,723.59,656.41,723.63,655.3,723.63ZM656.6,665c-1,0-2,0-3,.13-11,.94-20.57,7.11-25,16.09a23.66,23.66,0,0,0-1.87,16.23c3.12,12.73,16.63,21.36,31.43,20.09h0c16.42-1.42,28.76-14.32,27.51-28.76a23.43,23.43,0,0,0-2.64-9,25.22,25.22,0,0,0-2.94-4.38C674.54,668.77,665.91,665,656.6,665Z" fill="#4f3cc9"/><path d="M788.22,696c-8.72,104-100.12,181.27-204.13,172.54A188.1,188.1,0,0,1,489,833.29C571,859,759,844,786.62,650.79A189.16,189.16,0,0,1,788.22,696Z" fill="#4f3cc9"/><path d="M682.39,673.5c-30.34-1.77-48.65,12.55-58.57,24.64a26.57,26.57,0,0,1,2.1-18.29c4.77-9.57,15.05-16.67,27.48-17.74C665.14,661.11,675.91,665.73,682.39,673.5Z" fill="#4f3cc9"/><path d="M571.78,592.53c-12.54,1.08-23.61-6.32-26.21-16.93a20.15,20.15,0,0,1,1.59-13.86c3.62-7.24,11.4-12.62,20.82-13.43,8.89-.76,17,2.74,21.95,8.62a21.43,21.43,0,0,1,2.5,3.72,19.87,19.87,0,0,1,2.25,7.64C595.74,580.5,585.47,591.35,571.78,592.53Z" fill="#fff"/><path d="M569.42,595.63c-12.73,0-24-8-26.76-19.32a23,23,0,0,1,1.82-15.9c4.2-8.44,13.11-14.22,23.24-15.09,9.61-.82,18.77,2.8,24.52,9.69a24.44,24.44,0,0,1,2.84,4.23,22.78,22.78,0,0,1,2.59,8.79c1.2,13.84-10.3,26.17-25.63,27.49h0C571.16,595.6,570.28,595.63,569.42,595.63Zm1-44.43c-.72,0-1.44,0-2.17.1-8.06.69-15.1,5.21-18.38,11.78a17.36,17.36,0,0,0-1.79,9.22,16.74,16.74,0,0,0,.43,2.58c2.27,9.29,12.17,15.6,23,14.66h0c12-1,21.08-10.45,20.17-21a16.79,16.79,0,0,0-1.92-6.5,17.44,17.44,0,0,0-2.14-3.19A22.25,22.25,0,0,0,570.4,551.2Z" fill="#4f3cc9"/><path d="M589.93,556.93c-23-1.34-36.84,9.51-44.36,18.67a20.15,20.15,0,0,1,1.59-13.86c3.62-7.24,11.4-12.62,20.82-13.43C576.87,547.55,585,551.05,589.93,556.93Z" fill="#4f3cc9"/><path d="M635.38,801c-6.21.53-11.7-3.13-13-8.39a10.57,10.57,0,0,1-.25-1.51,10,10,0,0,1,1-5.35,13.11,13.11,0,0,1,21.18-2.38,10.27,10.27,0,0,1,2.35,5.62C647.24,795,642.16,800.36,635.38,801Z" fill="#fff"/><path d="M634.21,804c-7,0-13.18-4.42-14.73-10.73a13.36,13.36,0,0,1-.32-2,13.12,13.12,0,0,1,1.34-6.95,16.12,16.12,0,0,1,26.17-3,13.86,13.86,0,0,1,1.59,2.35,13.05,13.05,0,0,1,1.45,4.93c.66,7.69-5.65,14.53-14.07,15.26h0C635.16,804,634.68,804,634.21,804Zm.45-22c-.3,0-.61,0-.91,0a9.63,9.63,0,0,0-7.88,5,7,7,0,0,0-.73,3.76,6.84,6.84,0,0,0,.17,1c1,3.89,5.17,6.51,9.81,6.12,5.13-.44,9-4.37,8.61-8.76a6.88,6.88,0,0,0-.78-2.64,7.78,7.78,0,0,0-.88-1.32A9.7,9.7,0,0,0,634.66,782Z" fill="#4f3cc9"/><path d="M644.37,783.32c-11.38-.67-18.25,4.71-22,9.24a10.57,10.57,0,0,1-.25-1.51,10,10,0,0,1,1-5.35,13.11,13.11,0,0,1,21.18-2.38Z" fill="#4f3cc9"/><path d="M510.47,782.89c-12.7,1.09-23.92-6.4-26.55-17.16a19.6,19.6,0,0,1-.51-3.08,20.53,20.53,0,0,1,2.12-11c3.66-7.34,11.55-12.79,21.09-13.61,9-.77,17.28,2.78,22.25,8.74a21.91,21.91,0,0,1,2.53,3.76,20.31,20.31,0,0,1,2.28,7.75C534.75,770.7,524.35,781.7,510.47,782.89Z" fill="#fff"/><path d="M508.08,786c-12.88,0-24.26-8.06-27.08-19.55a24,24,0,0,1-.58-3.54,23.61,23.61,0,0,1,2.42-12.55c4.26-8.54,13.27-14.39,23.52-15.27,9.73-.84,19,2.84,24.81,9.81a24.67,24.67,0,0,1,2.88,4.28,23.24,23.24,0,0,1,2.62,8.89c1.21,14-10.43,26.48-25.94,27.81h0C509.84,786,509,786,508.08,786Zm1-45c-.72,0-1.46,0-2.2.1-8.18.7-15.33,5.29-18.66,12a17.66,17.66,0,0,0-1.81,9.36,17.18,17.18,0,0,0,.43,2.63c2.31,9.43,12.36,15.83,23.38,14.89h0c12.22-1.06,21.41-10.62,20.48-21.33a17.06,17.06,0,0,0-2-6.6,18.51,18.51,0,0,0-2.17-3.24A22.61,22.61,0,0,0,509.07,741Z" fill="#4f3cc9"/><path d="M528.87,746.82c-23.29-1.36-37.34,9.63-44.95,18.91a19.6,19.6,0,0,1-.51-3.08,20.53,20.53,0,0,1,2.12-11c3.66-7.34,11.55-12.79,21.09-13.61C515.63,737.31,523.9,740.86,528.87,746.82Z" fill="#4f3cc9"/><path d="M534.64,661.75c-7.29.63-13.73-3.67-15.24-9.85a11.27,11.27,0,0,1-.29-1.77,11.81,11.81,0,0,1,1.21-6.28,15.41,15.41,0,0,1,24.88-2.8,12.49,12.49,0,0,1,1.44,2.16,11.62,11.62,0,0,1,1.32,4.44C548.57,654.75,542.6,661.07,534.64,661.75Z" fill="#fff"/><path d="M533.26,664.81c-8,0-15-5-16.78-12.19a14.79,14.79,0,0,1,1.16-10.11,18.41,18.41,0,0,1,29.86-3.38,15.31,15.31,0,0,1,1.8,2.68A14.69,14.69,0,0,1,551,647.4c.75,8.73-6.45,16.51-16.06,17.34h0C534.35,664.79,533.8,664.81,533.26,664.81Zm.57-25.84c-.38,0-.76,0-1.15,0a11.82,11.82,0,0,0-9.67,6.17,8.64,8.64,0,0,0-.91,4.69,8,8,0,0,0,.21,1.31c1.18,4.81,6.37,8.06,12.07,7.57h0c6.31-.54,11.06-5.41,10.59-10.85a8.62,8.62,0,0,0-1-3.3,9.51,9.51,0,0,0-1.1-1.63A11.69,11.69,0,0,0,533.83,639Z" fill="#4f3cc9"/><path d="M545.2,641.05c-13.37-.78-21.43,5.53-25.8,10.85a11.27,11.27,0,0,1-.29-1.77,11.81,11.81,0,0,1,1.21-6.28,15.41,15.41,0,0,1,24.88-2.8Z" fill="#4f3cc9"/><path d="M713.61,640.77c-5.87.5-11.06-3-12.28-7.94a9.49,9.49,0,0,1,.75-6.49,12.41,12.41,0,0,1,20-2.25,10.19,10.19,0,0,1,1.17,1.74,9.3,9.3,0,0,1,1.06,3.58C724.83,635.13,720,640.21,713.61,640.77Z" fill="#fff"/><path d="M712.5,643.81c-6.68,0-12.6-4.23-14.08-10.27a12.38,12.38,0,0,1,1-8.53,15.41,15.41,0,0,1,25-2.84,12.64,12.64,0,0,1,1.51,2.25,12.43,12.43,0,0,1,1.4,4.73c.63,7.36-5.41,13.91-13.46,14.6h0C713.41,643.79,713,643.81,712.5,643.81Zm.43-20.81a8.06,8.06,0,0,0-.85,0,8.92,8.92,0,0,0-7.32,4.64,6.38,6.38,0,0,0-.67,3.47,7.13,7.13,0,0,0,.15,1c.89,3.6,4.8,6,9.11,5.67,4.76-.41,8.35-4,8-8.11a6.37,6.37,0,0,0-.72-2.44,7.66,7.66,0,0,0-.82-1.22A9,9,0,0,0,712.93,623Z" fill="#4f3cc9"/><path d="M722.11,624.09c-10.76-.63-17.26,4.45-20.78,8.74a9.49,9.49,0,0,1,.75-6.49,12.41,12.41,0,0,1,20-2.25Z" fill="#4f3cc9"/><path d="M854.4,561.47q2.58-4.51,8.87-6.29a62.42,62.42,0,0,1,16.45-1.77q10.15,0,16.28,2.09t8.71,6.78a24.14,24.14,0,0,1,3.06,8.54,96.23,96.23,0,0,1,.49,11.29V761.42q0,12.57-3.07,18.54a15.15,15.15,0,0,1-9.35,7.9,53.93,53.93,0,0,1-15.64,1.94q-9.36,0-14.83-1.62a25.31,25.31,0,0,1-8.39-3.87,12.56,12.56,0,0,1-4.19-6.45q-1.93-5.48-1.94-16.77V721.75H763.46q-22.58,0-26.77-12.25a47.9,47.9,0,0,1-1.61-13.87,62.94,62.94,0,0,1,1-12.9l26.77-108q1.94-7.41,3.39-11.29A18,18,0,0,1,772,556a17,17,0,0,1,11.13-3.55A55.12,55.12,0,0,1,798,554.7q22.57,6.12,22.58,20.64a55.09,55.09,0,0,1-2.26,13.54,2.41,2.41,0,0,0-.32,1l-19.67,78.69h52.56v-88a87.68,87.68,0,0,1,.49-11A23,23,0,0,1,854.4,561.47Z" fill="#77e0b5"/><path d="M880.2,792.8c-6.6,0-11.73-.57-15.68-1.74a28,28,0,0,1-9.38-4.38,15.47,15.47,0,0,1-5.2-7.88c-1.4-4-2.09-9.8-2.09-17.71V724.75H763.46c-16.41,0-26.37-4.81-29.61-14.29-1.2-3.82-1.77-8.65-1.77-14.83a64.88,64.88,0,0,1,1-13.58L759.9,574c1.34-5.14,2.48-8.92,3.49-11.62a21.05,21.05,0,0,1,6.72-8.69,20,20,0,0,1,13-4.22,58.77,58.77,0,0,1,15.64,2.37c16.43,4.46,24.77,12.38,24.77,23.53a57.22,57.22,0,0,1-2.36,14.32l-.08.29-.14.27v0l-.08.33-18.74,75h45.72v-85a91.9,91.9,0,0,1,.51-11.37A25.74,25.74,0,0,1,851.8,560c2.11-3.7,5.7-6.29,10.65-7.69a65.82,65.82,0,0,1,17.27-1.88c7.06,0,12.87.76,17.25,2.25,4.79,1.65,8.28,4.39,10.37,8.16a27.45,27.45,0,0,1,3.41,9.63,100,100,0,0,1,.51,11.66V761.42c0,9-1.11,15.46-3.4,19.91a18.12,18.12,0,0,1-11.14,9.4A57.1,57.1,0,0,1,880.2,792.8ZM783.13,555.44a14,14,0,0,0-9.23,2.87,15.29,15.29,0,0,0-4.89,6.15c-.93,2.46-2,6.16-3.3,11L739,683.45a60.45,60.45,0,0,0-.88,12.18,45.3,45.3,0,0,0,1.47,13c2.3,6.71,10.35,10.15,23.91,10.15h90.39v42.34c0,7.15.6,12.46,1.77,15.78l0,.12a9.44,9.44,0,0,0,3.16,5,22.46,22.46,0,0,0,7.39,3.37c3.35,1,8.06,1.49,14,1.49A51.12,51.12,0,0,0,895,785a12.18,12.18,0,0,0,7.57-6.4c1.81-3.53,2.73-9.31,2.73-17.17V582.11a97.4,97.4,0,0,0-.46-10.92,21.73,21.73,0,0,0-2.72-7.47c-1.36-2.46-3.67-4.22-7.05-5.38-3.76-1.28-8.91-1.93-15.31-1.93a60,60,0,0,0-15.64,1.66c-3.43,1-5.75,2.57-7.07,4.89h0a20.38,20.38,0,0,0-2.69,7,87.6,87.6,0,0,0-.46,10.56v91H794.44L815,589.34a5.79,5.79,0,0,1,.46-1.5,51.56,51.56,0,0,0,2.09-12.5c0-8.22-6.66-14-20.36-17.75A52.84,52.84,0,0,0,783.13,555.44Zm37.75,35Z" fill="#4f3cc9"/><path d="M371.4,561.47q2.58-4.51,8.87-6.29a62.42,62.42,0,0,1,16.45-1.77q10.15,0,16.28,2.09t8.71,6.78a24.14,24.14,0,0,1,3.06,8.54,96.23,96.23,0,0,1,.49,11.29V761.42q0,12.57-3.07,18.54a15.15,15.15,0,0,1-9.35,7.9,53.93,53.93,0,0,1-15.64,1.94q-9.36,0-14.83-1.62a25.31,25.31,0,0,1-8.39-3.87,12.56,12.56,0,0,1-4.19-6.45q-1.94-5.48-1.94-16.77V721.75H280.46q-22.57,0-26.77-12.25a47.9,47.9,0,0,1-1.61-13.87,62.94,62.94,0,0,1,1-12.9l26.77-108q1.94-7.41,3.39-11.29A18,18,0,0,1,289,556a17,17,0,0,1,11.13-3.55A55.12,55.12,0,0,1,315,554.7q22.57,6.12,22.58,20.64a55.09,55.09,0,0,1-2.26,13.54,2.41,2.41,0,0,0-.32,1l-19.67,78.69h52.56v-88a87.68,87.68,0,0,1,.49-11A23,23,0,0,1,371.4,561.47Z" fill="#77e0b5"/><path d="M397.2,792.8c-6.6,0-11.73-.57-15.68-1.74a28,28,0,0,1-9.38-4.38,15.47,15.47,0,0,1-5.2-7.88c-1.4-4-2.09-9.8-2.09-17.71V724.75H280.46c-16.41,0-26.37-4.81-29.61-14.29-1.2-3.82-1.77-8.65-1.77-14.83a64.88,64.88,0,0,1,1-13.58L276.9,574c1.34-5.14,2.48-8.92,3.49-11.62a21.05,21.05,0,0,1,6.72-8.69,20,20,0,0,1,13-4.22,58.77,58.77,0,0,1,15.64,2.37c16.43,4.46,24.77,12.38,24.77,23.53a57.22,57.22,0,0,1-2.36,14.32l-.08.29-.14.27v0l-.08.33-18.74,75h45.72v-85a91.9,91.9,0,0,1,.51-11.37A25.74,25.74,0,0,1,368.8,560c2.11-3.7,5.7-6.29,10.65-7.69a65.82,65.82,0,0,1,17.27-1.88c7.06,0,12.87.76,17.25,2.25,4.79,1.65,8.28,4.39,10.37,8.16a27.45,27.45,0,0,1,3.41,9.63,100,100,0,0,1,.51,11.66V761.42c0,9-1.11,15.46-3.4,19.91a18.12,18.12,0,0,1-11.14,9.4A57.1,57.1,0,0,1,397.2,792.8ZM300.13,555.44a14,14,0,0,0-9.23,2.87,15.29,15.29,0,0,0-4.89,6.15c-.93,2.46-2,6.16-3.3,11L256,683.45a60.45,60.45,0,0,0-.88,12.18,45.3,45.3,0,0,0,1.47,13c2.3,6.71,10.35,10.15,23.91,10.15h90.39v42.34c0,7.15.6,12.46,1.77,15.78l0,.12a9.44,9.44,0,0,0,3.16,5,22.46,22.46,0,0,0,7.39,3.37c3.35,1,8.06,1.49,14,1.49A51.12,51.12,0,0,0,412,785a12.18,12.18,0,0,0,7.57-6.4c1.81-3.53,2.73-9.31,2.73-17.17V582.11a97.4,97.4,0,0,0-.46-10.92,21.73,21.73,0,0,0-2.72-7.47c-1.36-2.46-3.67-4.22-7.05-5.38-3.76-1.28-8.91-1.93-15.31-1.93a60,60,0,0,0-15.64,1.66c-3.43,1-5.75,2.57-7.07,4.89h0a20.38,20.38,0,0,0-2.69,7,87.6,87.6,0,0,0-.46,10.56v91H311.44L332,589.34a5.79,5.79,0,0,1,.46-1.5,51.56,51.56,0,0,0,2.09-12.5c0-8.22-6.66-14-20.36-17.75A52.84,52.84,0,0,0,300.13,555.44Zm37.75,35Z" fill="#4f3cc9"/></svg>