<svg xmlns="http://www.w3.org/2000/svg" width="1200" height="1200" viewBox="0 0 1200 1200"><path d="M747.35,378.57l-10.63-2.32-2.42-10.61a.82.82,0,0,0-.8-.64.84.84,0,0,0-.81.64l-2.42,10.66-10.63,2.52a.84.84,0,0,0-.64.82.81.81,0,0,0,.65.79l10.63,2.32,2.41,10.61a.84.84,0,0,0,.81.64.82.82,0,0,0,.8-.64l2.43-10.66,10.63-2.52a.82.82,0,0,0,0-1.61Z" fill="#4f3cc9"/><path d="M348.35,323.57l-10.63-2.32-2.42-10.61a.82.82,0,0,0-.8-.64.84.84,0,0,0-.81.64l-2.42,10.66-10.63,2.52a.84.84,0,0,0-.64.82.81.81,0,0,0,.65.79l10.63,2.32,2.41,10.61a.84.84,0,0,0,.81.64.82.82,0,0,0,.8-.64l2.43-10.66,10.63-2.52a.82.82,0,0,0,0-1.61Z" fill="#4f3cc9"/><path d="M766.66,333l-5.5-1.2-1.24-5.49a.43.43,0,0,0-.84,0l-1.25,5.52-5.5,1.3a.43.43,0,0,0-.33.42.42.42,0,0,0,.34.41l5.5,1.2,1.24,5.49a.43.43,0,0,0,.84,0l1.25-5.52,5.5-1.3a.44.44,0,0,0,.33-.42A.42.42,0,0,0,766.66,333Z" fill="#4f3cc9"/><path d="M459.5,482.29l-8.06-1.75-1.83-8.05a.62.62,0,0,0-1.22,0l-1.84,8.08-8.07,1.92a.63.63,0,0,0-.48.61.62.62,0,0,0,.49.61l8.07,1.75,1.83,8.05a.62.62,0,0,0,1.22,0l1.84-8.08,8.07-1.92a.62.62,0,0,0,.48-.61A.63.63,0,0,0,459.5,482.29Z" fill="#4f3cc9"/><path d="M617,595.77c-57.75,0-110.78-1.66-156.12-3.9-142.49-7-241.79-21.26-242.78-21.4l.86-5.94c1,.14,100.06,14.32,242.29,21.35,131.23,6.49,327.06,8.06,514.82-21.34l.92,5.92C853.59,589.78,726.75,595.77,617,595.77Z" fill="#4f3cc9"/><circle cx="469.5" cy="358.5" r="46.5" fill="#f582ae"/><path d="M469.5,408A49.5,49.5,0,1,1,519,358.5,49.56,49.56,0,0,1,469.5,408Zm0-93A43.5,43.5,0,1,0,513,358.5,43.54,43.54,0,0,0,469.5,315Z" fill="#4f3cc9"/><path d="M655,413s-12-33-44-24c0,0-4-48-56-51s-68,38-68,38-44-24-74,13c0,0-34,0-41,24Z" fill="#fff"/><path d="M659.28,416H368l1.12-3.84c6.77-23.21,35.54-25.83,42.44-26.12,16.17-19.17,36-21.7,50-20.4a78.13,78.13,0,0,1,24,6.33,68.22,68.22,0,0,1,13.88-18.28c10-9.41,27.81-20.3,55.73-18.69,28.17,1.63,42.68,16.16,49.9,28.07a67.31,67.31,0,0,1,8.43,22.23c31.82-6.56,44.19,26.33,44.32,26.67Zm-282.92-6h274c-4.2-8-15.87-24.48-38.53-18.11l-3.5,1-.3-3.62c-.16-1.85-4.48-45.45-53.18-48.25-49.25-2.85-64.88,35.7-65,36.09l-1.23,3.18-3-1.64a71.29,71.29,0,0,0-24.79-7c-18.43-1.65-33.71,4.84-45.44,19.3l-.9,1.11H413C412.71,392,385,392.27,376.36,410Z" fill="#4f3cc9"/><path d="M830,475s-6.07-16.69-22.25-12.13c0,0-2-24.27-28.31-25.79s-34.38,19.21-34.38,19.21-22.25-12.13-37.42,6.58c0,0-17.19,0-20.73,12.13Z" fill="#fff"/><path d="M834.28,478H682.91l1.12-3.84c3.51-12,17.56-13.94,22.17-14.24,13.14-15,30.72-10.19,37.49-7.52,3.49-6,13.86-19.59,35.92-18.32,22.42,1.3,28.81,18,30.53,25.22,12.94-1.84,20.43,8.49,22.68,14.67Zm-142.44-6H825c-2.63-3.84-7.83-8.67-16.44-6.25l-3.5,1-.31-3.63c-.07-.87-2.2-21.69-25.49-23-23.84-1.38-31.34,17.13-31.42,17.31l-1.24,3.18-3-1.63c-.81-.44-20.27-10.67-33.65,5.82l-.9,1.12h-1.43C707.52,465.87,696.83,466,691.84,472Z" fill="#4f3cc9"/><rect x="402.97" y="584.2" width="38" height="11" transform="translate(-204.2 955.38) rotate(-84.7)" fill="#4f3cc9"/><rect x="314.97" y="575.2" width="38" height="11" transform="translate(-275.11 859.59) rotate(-84.7)" fill="#4f3cc9"/><path d="M394,603.19q3-4.23,9.44-5.39a62.68,62.68,0,0,1,16.54-.16q10.11,1,16,3.68t8,7.59a24.33,24.33,0,0,1,2.22,8.81,99,99,0,0,1-.63,11.28L428,807.45q-1.23,12.51-4.86,18.15a15.16,15.16,0,0,1-10.08,6.95,53.75,53.75,0,0,1-15.76.4c-6.21-.61-11.08-1.62-14.61-3.06a25.28,25.28,0,0,1-8-4.67,12.44,12.44,0,0,1-3.54-6.82q-1.4-5.65-.29-16.88l3.84-39.16-87-8.54q-22.47-2.21-25.44-14.81a47.72,47.72,0,0,1-.25-14,61.79,61.79,0,0,1,2.22-12.75l37.2-104.9q2.66-7.18,4.47-10.9a18.18,18.18,0,0,1,6.5-6.82,17.11,17.11,0,0,1,11.42-2.44,55.49,55.49,0,0,1,14.55,3.7q21.85,8.29,20.45,22.74a55.08,55.08,0,0,1-3.57,13.26,2.43,2.43,0,0,0-.42.94l-27.27,76.39L380,709.4l8.6-87.62a89.13,89.13,0,0,1,1.55-10.86A23.16,23.16,0,0,1,394,603.19Z" fill="#77e0b5"/><path d="M404.46,836.32c-2.32,0-4.81-.13-7.43-.38-6.57-.65-11.62-1.72-15.44-3.26a28,28,0,0,1-8.91-5.28,15.49,15.49,0,0,1-4.4-8.35c-1-4.13-1.12-10-.35-17.83l3.56-36.17-84-8.25c-16.33-1.6-25.77-7.36-28.06-17.11-.83-3.92-.92-8.78-.32-14.94a64.5,64.5,0,0,1,2.37-13.4l37.21-105c1.84-5,3.34-8.64,4.61-11.22a21,21,0,0,1,7.53-8,20.06,20.06,0,0,1,13.38-2.94,59,59,0,0,1,15.33,3.89c15.92,6.05,23.44,14.74,22.35,25.84a57,57,0,0,1-3.75,14l-.1.29-.17.25v0l-26.09,73.09,45.5,4.46,8.32-84.63a91,91,0,0,1,1.62-11.27,25.37,25.37,0,0,1,4.31-8.76c2.46-3.48,6.28-5.7,11.35-6.61a65.49,65.49,0,0,1,17.37-.19c7,.69,12.73,2,16.95,3.93,4.61,2.11,7.81,5.18,9.52,9.13a27.32,27.32,0,0,1,2.45,9.92,98,98,0,0,1-.63,11.65L431,807.74c-.87,8.91-2.61,15.28-5.32,19.49a18.12,18.12,0,0,1-12,8.26A45.85,45.85,0,0,1,404.46,836.32Zm-82.88-246.2a13.09,13.09,0,0,0-7.43,2.06,15.21,15.21,0,0,0-5.46,5.64c-1.17,2.37-2.63,5.94-4.36,10.62L267.15,713.31a59.56,59.56,0,0,0-2.07,12,45.47,45.47,0,0,0,.2,13c1.63,6.91,9.3,11.12,22.8,12.44l90,8.84-4.14,42.14c-.69,7.12-.62,12.45.22,15.87l0,.12a9.47,9.47,0,0,0,2.66,5.24,22.39,22.39,0,0,0,7,4.07c3.24,1.32,7.87,2.27,13.77,2.85a51.25,51.25,0,0,0,14.87-.35,12.15,12.15,0,0,0,8.15-5.63c2.15-3.34,3.63-9,4.4-16.82l17.53-178.45a97.08,97.08,0,0,0,.61-10.91,21.39,21.39,0,0,0-2-7.7c-1.11-2.58-3.23-4.56-6.49-6.05-3.61-1.64-8.67-2.79-15.05-3.42a59.61,59.61,0,0,0-15.72.13c-3.52.63-6,2-7.52,4.17h0a20.27,20.27,0,0,0-3.37,6.68,85.82,85.82,0,0,0-1.48,10.47l-8.9,90.6-59.13-5.8L352,627.08a5.73,5.73,0,0,1,.6-1.45,51.37,51.37,0,0,0,3.3-12.24c.8-8.18-5.26-14.61-18.53-19.65a52.83,52.83,0,0,0-13.77-3.51C322.92,590.16,322.24,590.12,321.58,590.12Zm36.2,38.59Z" fill="#4f3cc9"/><circle cx="311" cy="619" r="7" fill="#fff"/><circle cx="320" cy="596" r="7" fill="#fff"/><circle cx="299" cy="651" r="7" fill="#fff"/><circle cx="289" cy="682" r="7" fill="#fff"/><circle cx="279" cy="710" r="7" fill="#fff"/><circle cx="269" cy="733" r="7" fill="#fff"/><circle cx="338" cy="626" r="7" fill="#fff"/><circle cx="350" cy="605" r="7" fill="#fff"/><circle cx="327" cy="655" r="7" fill="#fff"/><circle cx="318" cy="684" r="7" fill="#fff"/><circle cx="309" cy="713" r="7" fill="#fff"/><circle cx="299" cy="740" r="7" fill="#fff"/><circle cx="343" cy="717" r="7" fill="#fff"/><circle cx="405" cy="616" r="7" fill="#fff"/><circle cx="431" cy="619" r="7" fill="#fff"/><circle cx="403" cy="642" r="7" fill="#fff"/><circle cx="429" cy="645" r="7" fill="#fff"/><circle cx="400" cy="670" r="7" fill="#fff"/><circle cx="426" cy="673" r="7" fill="#fff"/><circle cx="398" cy="700" r="7" fill="#fff"/><circle cx="424" cy="703" r="7" fill="#fff"/><circle cx="394" cy="736" r="7" fill="#fff"/><circle cx="420" cy="739" r="7" fill="#fff"/><circle cx="392" cy="770" r="7" fill="#fff"/><circle cx="418" cy="773" r="7" fill="#fff"/><circle cx="386" cy="807" r="7" fill="#fff"/><circle cx="412" cy="810" r="7" fill="#fff"/><circle cx="333" cy="744" r="7" fill="#fff"/><circle cx="377" cy="720" r="7" fill="#fff"/><circle cx="367" cy="747" r="7" fill="#fff"/><rect x="310.49" y="574.6" width="38" height="11" transform="translate(-313.06 759.59) rotate(-76.01)" fill="#f582ae"/><rect x="398.49" y="583.6" width="38" height="11" transform="translate(-255.06 851.81) rotate(-76.01)" fill="#f582ae"/><rect x="860.29" y="560.7" width="11" height="38" transform="translate(-49.87 82.49) rotate(-5.3)" fill="#4f3cc9"/><rect x="772.29" y="569.7" width="11" height="38" transform="translate(-51.08 74.4) rotate(-5.3)" fill="#4f3cc9"/><path d="M913.77,795.69l-1-13.84-.45-6-2.34-31.17-.44-6-1.8-23.94-.45-6-1.86-24.82-.45-6-1.61-21.47-.45-6-1.72-22.92-.45-6-.35-4.71A96.84,96.84,0,0,0,899,605.66a24.31,24.31,0,0,0-3.69-8.29q-2.93-4.47-9.19-6.1t-16.4-.88a62.6,62.6,0,0,0-16.27,3q-6.13,2.25-8.37,6.94a22.93,22.93,0,0,0-2.45,8.27,87.92,87.92,0,0,0,.33,11l.38,5,.45,6,1.73,23.08.45,6,1.72,22.85.45,6,1.41,18.84-52.42,3.93,3.57-20.79,1-6.08,4.1-23.83,1-6.07,4-23.17a2.68,2.68,0,0,1,.25-1c.06-.31.12-.62.17-.93q.6-3.3.88-6.07a37.85,37.85,0,0,0,.19-6.67q-1.1-14.48-24.06-18.89a55.62,55.62,0,0,0-15-1.15A17.1,17.1,0,0,0,762.53,601a18.05,18.05,0,0,0-5.23,7.83q-1.15,4-2.54,11.51l-1,6.21-1,6.07-4.23,24.91-1,6.07-4,23.88-1,6.07-4.86,28.67-1,6.1-.3,1.76a63.17,63.17,0,0,0,0,12.94,62,62,0,0,0,1.44,9.83,29.6,29.6,0,0,0,1.21,3.87,15.91,15.91,0,0,0,1,2q6,9.79,26.59,8.25l87.15-6.53,1.58,21.14.45,6,.91,12.1q.84,11.26,3.19,16.58a12.57,12.57,0,0,0,4.66,6.12,25.57,25.57,0,0,0,8.65,3.23q5.58,1.2,14.91.5a54.15,54.15,0,0,0,15.46-3.1,15.17,15.17,0,0,0,8.73-8.58Q914.71,808.23,913.77,795.69Z" fill="#f582ae"/><path d="M881.51,829.35a43.85,43.85,0,0,1-9.14-.83,28.15,28.15,0,0,1-9.68-3.66,15.51,15.51,0,0,1-5.77-7.47c-1.71-3.92-2.83-9.65-3.41-17.51l-2.72-36.23L766.63,770c-14.84,1.12-24.73-2.13-29.36-9.67a19.14,19.14,0,0,1-1.22-2.34l0-.1a32.27,32.27,0,0,1-1.34-4.26,81.91,81.91,0,0,1-1.49-23.93L751.8,619.86c.94-5.11,1.82-9.08,2.62-11.85a21.05,21.05,0,0,1,6.05-9.17,20,20,0,0,1,12.66-5.18,58.7,58.7,0,0,1,15.78,1.2c16.71,3.22,25.62,10.49,26.46,21.6a40,40,0,0,1-.2,7.21c-.2,2-.5,4.07-.91,6.3,0,.28-.11.62-.17,1l-.06.28-.1.26,0,.06h0L800.77,708l45.59-3.42L840,619.8a88.54,88.54,0,0,1-.33-11.39A25.4,25.4,0,0,1,842.4,599c1.83-3.84,5.21-6.69,10.05-8.47a65.67,65.67,0,0,1,17.07-3.17c7.17-.53,12.85-.21,17.39,1,4.9,1.28,8.58,3.75,10.94,7.36a26.82,26.82,0,0,1,4.12,9.34,96.49,96.49,0,0,1,1.38,11.59l13.41,178.8c.67,8.92,0,15.5-1.9,20.12a18.11,18.11,0,0,1-10.39,10.2,57.37,57.37,0,0,1-16.33,3.3C885.74,829.26,883.54,829.35,881.51,829.35Zm-25.18-72.14,3.16,42.23c.53,7.11,1.52,12.35,3,15.59l0,.12a9.51,9.51,0,0,0,3.52,4.71,23,23,0,0,0,7.62,2.8c3.4.73,8.13.88,14.06.44a51.77,51.77,0,0,0,14.59-2.9,12.22,12.22,0,0,0,7.06-7c1.54-3.66,2-9.49,1.44-17.32h0L897.37,617.1a94,94,0,0,0-1.28-10.84,21.65,21.65,0,0,0-3.26-7.25c-1.54-2.35-4-3.93-7.44-4.84-3.83-1-9-1.26-15.42-.79a60,60,0,0,0-15.46,2.83c-3.35,1.23-5.54,3-6.69,5.41a20.22,20.22,0,0,0-2.17,7.16,85.83,85.83,0,0,0,.33,10.57l6.82,90.78-59.25,4.44,14.35-83.52a5.4,5.4,0,0,1,.34-1.51c0-.2.08-.39.11-.59.39-2.13.67-4.1.86-5.9a34.68,34.68,0,0,0,.18-6.14c-.62-8.19-7.7-13.48-21.64-16.16a52.68,52.68,0,0,0-14.17-1.11,14.06,14.06,0,0,0-9,3.56,15.23,15.23,0,0,0-4.41,6.49c-.75,2.57-1.58,6.34-2.47,11.21l-18.6,109.7a76.26,76.26,0,0,0,1.39,21.56,27.76,27.76,0,0,0,1.07,3.43,12.54,12.54,0,0,0,.81,1.55c3.36,5.46,11.37,7.77,23.81,6.83ZM813.85,631.67Z" fill="#4f3cc9"/><polygon points="901.16 627.58 843.82 630.6 843.37 624.6 900.71 621.59 901.16 627.58" fill="#fff"/><polygon points="903.33 656.49 846 659.68 845.55 653.68 902.88 650.5 903.33 656.49" fill="#fff"/><polygon points="912.73 781.85 855.59 787.56 855.14 781.57 912.28 775.85 912.73 781.85" fill="#fff"/><polygon points="905.39 683.94 848.17 688.52 847.72 682.53 904.94 677.96 905.39 683.94" fill="#fff"/><polygon points="801.77 684.42 800.73 690.5 742.34 693.57 743.37 687.5 801.77 684.42" fill="#fff"/><polygon points="806.91 654.52 805.87 660.59 747.42 663.62 748.45 657.55 806.91 654.52" fill="#fff"/><path d="M812.19,623.36q-.29,2.77-.88,6.07l-58.63,3.21,1-6.07Z" fill="#fff"/><polygon points="907.7 714.75 736.45 728.34 737.48 722.24 907.25 708.76 907.7 714.75" fill="#fff"/><path d="M909.94,744.68l-170.12,14a15.91,15.91,0,0,1-1-2,29.6,29.6,0,0,1-1.21-3.87L909.5,738.69Z" fill="#fff"/><rect x="864.78" y="560.1" width="11" height="38" transform="translate(-114.18 227.54) rotate(-13.99)" fill="#77e0b5"/><rect x="776.78" y="569.1" width="11" height="38" transform="translate(-118.96 206.54) rotate(-13.99)" fill="#77e0b5"/><path d="M662,908.5h0a8.51,8.51,0,0,1-8.5-8.5V847.72A42.62,42.62,0,0,0,637,814c-1.46-1.11-2.41-1.69-2.42-1.7l8.78-14.56a45.43,45.43,0,0,1,4,2.76,59.71,59.71,0,0,1,23.17,47.25V900A8.51,8.51,0,0,1,662,908.5Z" fill="#fff"/><path d="M662,911.5A11.51,11.51,0,0,1,650.5,900V847.72a39.59,39.59,0,0,0-15.31-31.36,25.06,25.06,0,0,0-2.17-1.53l-2.52-1.56,11.85-19.67,2.56,1.54a48.27,48.27,0,0,1,4.24,2.94,62.74,62.74,0,0,1,24.35,49.64V900A11.51,11.51,0,0,1,662,911.5ZM638.61,811.42l.22.17a45.62,45.62,0,0,1,17.67,36.13V900a5.5,5.5,0,0,0,11,0V847.72a56.71,56.71,0,0,0-22-44.87l-1.19-.89Z" fill="#4f3cc9"/><path d="M540.5,824.5V880A15.5,15.5,0,0,0,556,895.5h0A15.5,15.5,0,0,0,571.5,880V824.5Z" fill="#fff"/><path d="M556,898.5A18.52,18.52,0,0,1,537.5,880V821.5h37V880A18.52,18.52,0,0,1,556,898.5Zm-12.5-71V880a12.5,12.5,0,0,0,25,0V827.5Z" fill="#4f3cc9"/><rect x="547.5" y="869.5" width="4" height="24.57" fill="#4f3cc9"/><rect x="556.5" y="871.5" width="4" height="24" fill="#4f3cc9"/><path d="M638.5,824.5V880A15.5,15.5,0,0,1,623,895.5h0A15.5,15.5,0,0,1,607.5,880V824.5Z" fill="#fff"/><path d="M623,898.5A18.52,18.52,0,0,1,604.5,880V821.5h37V880A18.52,18.52,0,0,1,623,898.5Zm-12.5-71V880a12.5,12.5,0,0,0,25,0V827.5Z" fill="#4f3cc9"/><rect x="627.5" y="869.5" width="4" height="24.57" fill="#4f3cc9"/><rect x="618.5" y="871.5" width="4" height="24" fill="#4f3cc9"/><path d="M542,597s19,13,24,25c0,0,24.5-6.5,46.5-.5,0,0,12-20,23-25,0,0,19,70,22,174,0,0,6.5,81.5-68,79,0,0-72.5,4.5-67-88C522.5,761.5,525.5,633.5,542,597Z" fill="#fff"/><path d="M592.82,852.56c-1.09,0-2.18,0-3.29-.06-2.49.13-29,1-49-19-15.87-15.82-23-40.1-21.06-72.17.14-6,3.26-129.1,19.77-165.62l1.47-3.26,3,2c.76.52,17.55,12.1,24,24,6.59-1.44,25.4-4.76,43.46-.48,3.39-5.28,13.4-19.85,23.14-24.28l3.21-1.46.93,3.4c.19.71,19.11,71.51,22.1,174.63.19,2.52,2.61,40.29-20,63.95C628.93,846.42,612.9,852.56,592.82,852.56Zm-3.36-6.06h.14c19.89.68,35.55-4.82,46.55-16.33,21-22,18.39-59.06,18.36-59.43v-.15c-2.56-89-17-153.56-20.93-169.5-9.13,6.47-18.39,21.78-18.5,21.95l-1.17,2-2.19-.6c-21-5.72-44.7.45-44.94.51l-2.53.67-1-2.42c-3.45-8.28-14.51-17.38-19.91-21.47-14.84,39.57-17.79,158.65-17.82,159.89v.11c-1.8,30.3,4.7,53.06,19.3,67.63,18.63,18.57,44.27,17.21,44.52,17.2Z" fill="#4f3cc9"/><path d="M558.43,653.75a21.69,21.69,0,0,1-8.08-1.48l2.29-5.54c.41.16,10.21,4,17.63-4.24l4.46,4A21.46,21.46,0,0,1,558.43,653.75Z" fill="#4f3cc9"/><circle cx="562" cy="662" r="4.5" fill="#4f3cc9"/><path d="M620.57,653.75a21.46,21.46,0,0,1-16.3-7.24l4.46-4c7.49,8.33,17.52,4.28,17.62,4.24l2.3,5.54A21.69,21.69,0,0,1,620.57,653.75Z" fill="#4f3cc9"/><circle cx="617" cy="662" r="4.5" fill="#4f3cc9"/><ellipse cx="589" cy="677.5" rx="8.5" ry="6" fill="#4f3cc9"/><path d="M567.74,704.54c-.88,0-1.43,0-1.52,0l.55-6c.08,0,7.68.62,13.07-4.11,3.48-3.06,5.39-7.78,5.66-14l6,.26c-.35,8-3,14.15-7.76,18.33C578,704,570.84,704.54,567.74,704.54Z" fill="#4f3cc9"/><path d="M610.26,704.54c-3.1,0-10.27-.59-16-5.58-4.8-4.18-7.41-10.35-7.76-18.33l6-.26c.27,6.28,2.19,11,5.7,14.07,5.45,4.73,12.94,4.08,13,4.07l.56,6C611.69,704.5,611.14,704.54,610.26,704.54Z" fill="#4f3cc9"/><path d="M495.78,697.41l-3.56-4.82c23.61-17.45,54.66-15.67,56-15.58l-.38,6C547.51,683,517.59,681.29,495.78,697.41Z" fill="#4f3cc9"/><path d="M510.48,707.76l-4-4.52c16.66-14.57,38.08-14.74,39-14.74v6C545.3,694.5,525.39,694.7,510.48,707.76Z" fill="#4f3cc9"/><path d="M683.22,697.41c-21.87-16.16-51.73-14.44-52-14.42l-.38-6c1.31-.09,32.36-1.87,56,15.58Z" fill="#4f3cc9"/><path d="M668.52,707.76c-15-13.11-34.82-13.26-35-13.26v-6c.9,0,22.32.17,39,14.74Z" fill="#4f3cc9"/><path d="M557.5,823A14.51,14.51,0,0,1,543,808.5V747h6v61.5a8.5,8.5,0,0,0,17,0V755h6v53.5A14.51,14.51,0,0,1,557.5,823Z" fill="#4f3cc9"/><rect x="551.5" y="799.5" width="4" height="19.77" fill="#4f3cc9"/><rect x="558.5" y="800.5" width="4" height="19.09" fill="#4f3cc9"/><path d="M619.5,823A14.51,14.51,0,0,1,605,808.5V755h6v53.5a8.5,8.5,0,0,0,17,0V747h6v61.5A14.51,14.51,0,0,1,619.5,823Z" fill="#4f3cc9"/><rect x="621.5" y="799.5" width="4" height="19.77" fill="#4f3cc9"/><rect x="614.5" y="800.5" width="4" height="19.09" fill="#4f3cc9"/><rect x="540.5" y="567.5" width="11" height="38" transform="translate(-82.31 89.18) rotate(-8.69)" fill="#4f3cc9"/><rect x="630.5" y="568.5" width="11" height="38" fill="#4f3cc9"/><rect x="612.5" y="581.5" width="38" height="11" transform="translate(-44.14 1122.61) rotate(-81.31)" fill="#f582ae"/><rect x="536" y="568" width="11" height="38" fill="#f582ae"/><path d="M592.08,731.86a187.15,187.15,0,0,1-27.19-2c-24.75-3.64-41.39-10.79-42.09-11.09l2.39-5.5c.66.28,66.31,28.11,127.94,0l2.48,5.46C633.62,728.75,611.3,731.86,592.08,731.86Z" fill="#4f3cc9"/><circle cx="589.5" cy="737.5" r="9" fill="#f582ae"/><path d="M589.5,749.5a12,12,0,1,1,12-12A12,12,0,0,1,589.5,749.5Zm0-18a6,6,0,1,0,6,6A6,6,0,0,0,589.5,731.5Z" fill="#4f3cc9"/></svg>