<svg xmlns="http://www.w3.org/2000/svg" width="1200" height="1200" viewBox="0 0 1200 1200"><path d="M363.4,512.47q2.58-4.52,8.87-6.29a62.42,62.42,0,0,1,16.45-1.77q10.15,0,16.28,2.09t8.71,6.78a24.14,24.14,0,0,1,3.06,8.54,96.23,96.23,0,0,1,.49,11.29V712.42q0,12.57-3.07,18.54a15.15,15.15,0,0,1-9.35,7.9,53.93,53.93,0,0,1-15.64,1.94q-9.36,0-14.83-1.62a25.31,25.31,0,0,1-8.39-3.87,12.56,12.56,0,0,1-4.19-6.45q-1.94-5.48-1.94-16.77V672.75H272.46q-22.57,0-26.77-12.25a47.9,47.9,0,0,1-1.61-13.87,62.94,62.94,0,0,1,1-12.9l26.77-108q1.94-7.41,3.39-11.29A18,18,0,0,1,281,507a17,17,0,0,1,11.13-3.55A55.12,55.12,0,0,1,307,505.7q22.57,6.12,22.58,20.64a55.09,55.09,0,0,1-2.26,13.54,2.41,2.41,0,0,0-.32,1l-19.67,78.69h52.56v-88a87.68,87.68,0,0,1,.49-11A23,23,0,0,1,363.4,512.47Z" fill="#77e0b5"/><path d="M389.2,743.8c-6.6,0-11.73-.57-15.68-1.74a28,28,0,0,1-9.38-4.38,15.47,15.47,0,0,1-5.2-7.88c-1.4-4-2.09-9.8-2.09-17.71V675.75H272.46c-16.41,0-26.37-4.81-29.61-14.29-1.2-3.82-1.77-8.65-1.77-14.83a64.88,64.88,0,0,1,1-13.58L268.9,525c1.34-5.14,2.48-8.92,3.49-11.62a21.05,21.05,0,0,1,6.72-8.69,20,20,0,0,1,13-4.22,58.77,58.77,0,0,1,15.64,2.37c16.43,4.46,24.77,12.38,24.77,23.53a57.22,57.22,0,0,1-2.36,14.32l-.08.29-.14.27v0l-.08.33-18.74,75h45.72v-85a91.9,91.9,0,0,1,.51-11.37A25.74,25.74,0,0,1,360.8,511c2.11-3.7,5.7-6.29,10.65-7.69a65.82,65.82,0,0,1,17.27-1.88c7.06,0,12.87.76,17.25,2.25,4.79,1.65,8.28,4.39,10.37,8.16a27.45,27.45,0,0,1,3.41,9.63,100,100,0,0,1,.51,11.66V712.42c0,9-1.11,15.46-3.4,19.91a18.12,18.12,0,0,1-11.14,9.4A57.1,57.1,0,0,1,389.2,743.8ZM292.13,506.44a14,14,0,0,0-9.23,2.87,15.29,15.29,0,0,0-4.89,6.15c-.93,2.46-2,6.16-3.3,11L248,634.45a60.45,60.45,0,0,0-.88,12.18,45.3,45.3,0,0,0,1.47,13c2.3,6.71,10.35,10.15,23.91,10.15h90.39v42.34c0,7.15.6,12.46,1.77,15.78l0,.12a9.44,9.44,0,0,0,3.16,5,22.46,22.46,0,0,0,7.39,3.37c3.35,1,8.06,1.49,14,1.49A51.12,51.12,0,0,0,404,736a12.18,12.18,0,0,0,7.57-6.4c1.81-3.53,2.73-9.31,2.73-17.17V533.11a97.4,97.4,0,0,0-.46-10.92,21.73,21.73,0,0,0-2.72-7.47c-1.36-2.46-3.67-4.22-7.05-5.38-3.76-1.28-8.91-1.93-15.31-1.93a60,60,0,0,0-15.64,1.66c-3.43,1-5.75,2.57-7.07,4.89h0a20.38,20.38,0,0,0-2.69,7,87.6,87.6,0,0,0-.46,10.56v91H303.44L324,540.34a5.79,5.79,0,0,1,.46-1.5,51.56,51.56,0,0,0,2.09-12.5c0-8.22-6.66-14-20.36-17.75A52.84,52.84,0,0,0,292.13,506.44Zm37.75,35Z" fill="#4f3cc9"/><path d="M842.4,512.47q2.58-4.52,8.87-6.29a62.42,62.42,0,0,1,16.45-1.77q10.15,0,16.28,2.09t8.71,6.78a24.14,24.14,0,0,1,3.06,8.54,96.23,96.23,0,0,1,.49,11.29V712.42q0,12.57-3.07,18.54a15.15,15.15,0,0,1-9.35,7.9,53.93,53.93,0,0,1-15.64,1.94q-9.36,0-14.83-1.62a25.31,25.31,0,0,1-8.39-3.87,12.56,12.56,0,0,1-4.19-6.45q-1.93-5.48-1.94-16.77V672.75H751.46q-22.58,0-26.77-12.25a47.9,47.9,0,0,1-1.61-13.87,62.94,62.94,0,0,1,1-12.9l26.77-108q1.94-7.41,3.39-11.29A18,18,0,0,1,760,507a17,17,0,0,1,11.13-3.55A55.12,55.12,0,0,1,786,505.7q22.57,6.12,22.58,20.64a55.09,55.09,0,0,1-2.26,13.54,2.41,2.41,0,0,0-.32,1l-19.67,78.69h52.56v-88a87.68,87.68,0,0,1,.49-11A23,23,0,0,1,842.4,512.47Z" fill="#77e0b5"/><path d="M868.2,743.8c-6.6,0-11.73-.57-15.68-1.74a28,28,0,0,1-9.38-4.38,15.47,15.47,0,0,1-5.2-7.88c-1.4-4-2.09-9.8-2.09-17.71V675.75H751.46c-16.41,0-26.37-4.81-29.61-14.29-1.2-3.82-1.77-8.65-1.77-14.83a64.88,64.88,0,0,1,1-13.58L747.9,525c1.34-5.13,2.48-8.92,3.49-11.62a21.05,21.05,0,0,1,6.72-8.69,20,20,0,0,1,13-4.22,58.77,58.77,0,0,1,15.64,2.37c16.43,4.46,24.77,12.38,24.77,23.53a57.22,57.22,0,0,1-2.36,14.32l-.08.29-.14.27v0l-.08.33-18.74,75h45.72v-85a89.51,89.51,0,0,1,.52-11.37A25.51,25.51,0,0,1,839.8,511h0c2.11-3.7,5.7-6.29,10.65-7.69a65.82,65.82,0,0,1,17.27-1.88c7.06,0,12.87.76,17.25,2.25,4.79,1.65,8.28,4.39,10.36,8.16a27.28,27.28,0,0,1,3.42,9.63,99.83,99.83,0,0,1,.51,11.66V712.42c0,9-1.11,15.46-3.4,19.91a18.12,18.12,0,0,1-11.14,9.4A57.1,57.1,0,0,1,868.2,743.8ZM771.13,506.44a14,14,0,0,0-9.23,2.87,15.29,15.29,0,0,0-4.89,6.15c-.93,2.47-2,6.16-3.29,11L727,634.45a60.45,60.45,0,0,0-.88,12.18,45.3,45.3,0,0,0,1.47,13c2.3,6.71,10.35,10.15,23.91,10.15h90.39v42.34c0,7.16.6,12.46,1.77,15.77l0,.13a9.44,9.44,0,0,0,3.16,5,22.46,22.46,0,0,0,7.39,3.37c3.35,1,8.06,1.49,14,1.49A51.12,51.12,0,0,0,883,736a12.18,12.18,0,0,0,7.57-6.4c1.81-3.53,2.73-9.31,2.73-17.17V533.11a97.4,97.4,0,0,0-.46-10.92,21.73,21.73,0,0,0-2.72-7.47c-1.36-2.46-3.67-4.22-7.05-5.38-3.76-1.28-8.91-1.93-15.31-1.93a60,60,0,0,0-15.64,1.66c-3.43,1-5.75,2.57-7.08,4.89h0a20.3,20.3,0,0,0-2.69,7,87.6,87.6,0,0,0-.46,10.56v91H782.44L803,540.34a5.79,5.79,0,0,1,.46-1.5,51.48,51.48,0,0,0,2.09-12.5c0-8.22-6.66-14-20.36-17.75A52.84,52.84,0,0,0,771.13,506.44Zm37.75,35Z" fill="#4f3cc9"/><path d="M416.42,831.16l-9.54-2.07-2.16-9.51A.75.75,0,0,0,404,819a.73.73,0,0,0-.72.58l-2.17,9.55-9.54,2.26a.74.74,0,0,0,0,1.45l9.54,2.07,2.16,9.51a.73.73,0,0,0,.72.58.75.75,0,0,0,.72-.58l2.17-9.55,9.54-2.26a.75.75,0,0,0,.57-.73A.76.76,0,0,0,416.42,831.16Z" fill="#4f3cc9"/><path d="M492.57,424.89l-7-1.52L484,416.42a.54.54,0,0,0-1.06,0l-1.59,7-7,1.65a.54.54,0,0,0-.42.53.53.53,0,0,0,.43.52l7,1.52,1.58,6.95a.54.54,0,0,0,1.06,0l1.58-7,7-1.66a.54.54,0,0,0,0-1.05Z" fill="#4f3cc9"/><path d="M758.65,853.57l10.63-2.32,2.41-10.61a.84.84,0,0,1,.81-.64.82.82,0,0,1,.8.64l2.43,10.66,10.63,2.52a.82.82,0,0,1,0,1.61l-10.63,2.32-2.42,10.61a.82.82,0,0,1-.8.64.84.84,0,0,1-.81-.64l-2.42-10.66-10.63-2.52a.84.84,0,0,1-.64-.82A.81.81,0,0,1,758.65,853.57Z" fill="#4f3cc9"/><path d="M739.34,808l5.5-1.2,1.24-5.49a.43.43,0,0,1,.84,0l1.25,5.52,5.5,1.3a.44.44,0,0,1,.33.42.42.42,0,0,1-.34.41l-5.5,1.2-1.24,5.49a.43.43,0,0,1-.84,0l-1.25-5.52-5.5-1.3a.43.43,0,0,1-.33-.42A.42.42,0,0,1,739.34,808Z" fill="#4f3cc9"/><path d="M701.82,397s-26.28-9.39-65.87,10a3,3,0,0,0,.52,5.66c9.25,2.61,24.53,7.25,30.71,11.14Z" fill="#f582ae"/><path d="M721.53,435.77s-7.9,26.77-46.86,47.35a3,3,0,0,1-4.27-3.75c3.34-9,8.59-24.09,9.09-31.37Z" fill="#f582ae"/><path d="M672.58,413.66q-4.51,3.73-9.19,7.86l15.67,30.82q6.09-1.35,11.76-2.8c57.56-14.69,84.63-36.75,97.33-53.63l-15-29.44C752.09,366.86,718.36,375.8,672.58,413.66Z" fill="#4f3cc9"/><circle cx="748.92" cy="397.34" r="13.76" fill="#fff"/><path d="M788.15,395.91l-15-29.44c17.23-.32,26,5.08,26,5.08l.13.25S798.53,382.12,788.15,395.91Z" fill="#f582ae"/><path d="M710.45,416.13h0a3.71,3.71,0,0,1-1.33,4.83l-19,12a75.61,75.61,0,0,1-12.36,6.29l-20.92,8.29a3.71,3.71,0,0,1-4.68-1.77h0a3.71,3.71,0,0,1,1.33-4.83l19-12a74.78,74.78,0,0,1,12.36-6.28l20.92-8.3A3.71,3.71,0,0,1,710.45,416.13Z" fill="#f582ae"/><path d="M430,413s-6.07-16.69-22.25-12.13c0,0-2-24.27-28.31-25.79s-34.38,19.21-34.38,19.21-22.25-12.13-37.42,6.58c0,0-17.19,0-20.73,12.13Z" fill="#fff"/><path d="M432.86,415H284.25l.74-2.56c3.45-11.81,17.78-13.35,21.69-13.55,13.34-15.62,31.58-9.72,37.44-7.23,2.89-5.33,12.88-19.89,35.43-18.58,22.8,1.32,28.51,19,29.83,25.36,12.87-2.36,20.3,7.83,22.5,13.88Zm-142.94-4H426.83c-2.35-4.11-8.06-11.16-18.54-8.21l-2.33.66-.2-2.42c-.08-.92-2.25-22.56-26.44-23.95-24.44-1.41-32.09,17.15-32.4,17.94l-.83,2.11-2-1.08c-.85-.46-21-11.09-34.9,6.07l-.6.75h-1C307.5,402.87,294.54,403,289.92,411Z" fill="#4f3cc9"/><path d="M947.88,453.49s-4.36-12-16-8.72c0,0-1.45-17.45-20.35-18.54S886.81,440,886.81,440s-16-8.72-26.91,4.73c0,0-12.36,0-14.9,8.72Z" fill="#fff"/><path d="M950.73,455.49H842.33l.75-2.56c2.51-8.6,12.65-9.92,15.86-10.12,9.48-10.9,22.21-7.27,26.95-5.37,2.42-4.24,9.83-14.13,25.75-13.21,16.17.93,20.66,13.06,21.84,18.15,9.3-1.4,14.67,6,16.28,10.43Zm-102.52-4h96.38c-1.87-2.82-5.69-6.62-12.17-4.8l-2.33.66-.2-2.41c-.06-.64-1.6-15.74-18.48-16.71-17.27-1-22.69,12.4-22.74,12.54l-.83,2.12-2-1.09c-.59-.32-14.69-7.74-24.39,4.23l-.6.74h-1C859.81,446.77,851.76,446.86,848.21,451.49Z" fill="#4f3cc9"/><path d="M643.19,457c.39,2.9.5,7.66-8.9,9.22,0,0-4.47,10.39-16,5.77,0,0,0,13.86-16.17,9.24,0,0-2.3,30-30,20.78,0,0-11.55,11.55-23.09,6.93,0,0,2.31,18.47-16.16,18.47,0,0-4.62,11.54-16.17,6.93,0,0,2.31,13.85-11.54,16.16,0,0,2.31,16.16-11.55,18.47,0,0,0,18.47-11.54,25.4,0,0,32.32,18.47,13.85,48.49,0,0,20.78,6.92,4.62,30,0,0,20.78,4.62,9.24,25.4,0,0,25.4,4.62,11.54,30,0,0,30-6.93,36.94,23.09,0,0,11.55-2.31,18.48,4.62,0,0,4.61-11.55,16.16-9.24,0,0,0-25.4,23.09-25.4,0,0,0-18.47,18.47-25.4,0,0-4.62-18.47,4.62-23.09,0,0-18.47-32.32,13.85-41.56,0,0-9.23-11.54,0-25.4,0,0-11.54-6.92-9.23-18.47,0,0-20.78-6.92-13.86-27.7,0,0-9.23-4.62-6.92-18.48,0,0-11.55-16.16,4.61-23.09,0,0,11.55-2.31,13.86,11.55,0,0,30-9.24,30,23.09,0,0,20.78,2.31,13.86,25.4,0,0,30,16.16-2.31,48.48,0,0,6.93,9.24,0,20.79,0,0,13.85,11.54-2.31,27.7,0,0,9.24,23.09-16.16,41.56,0,0,13.85,34.64-25.4,39.26,0,0-2.31,16.16-18.47,16.16,0,0-4.62,11.54-13.86,9.23,0,0-9.23,16.17-25.4,4.62,0,0-16.16,13.86-32.32-4.62,0,0-18.47,27.71-46.18,6.93,0,0-9.24-6.93-9.24-25.4,0,0-13.85-11.54-9.23-25.4,0,0-30-6.92-25.4-41.56,0,0-30-20.78-4.62-53.1,0,0-13.85-13.86,4.62-39.25,0,0-27.71-27.71,6.93-50.8,0,0,0-20.78,20.78-25.4,0,0,2.31-13.85,16.16-9.24,0,0,0-11.54,11.54-9.23,0,0,2.31-11.55,18.48-9.24,0,0,0-39.25,39.25-25.4,0,0,2.9-14.25,20.78-6.92,0,0,4.62-16.17,20.78-6.93,0,0,8.34-8.4,16.16-3.31,0,0,2.18-7.09,11-4.31C642.37,453.28,643,455.31,643.19,457Z" fill="#fff"/><path d="M523.22,799c-7.36,0-14.8-2.79-22.19-8.33-.42-.31-10-7.7-10.42-26.45-3.17-3-12.08-12.75-9.86-24.76-7.75-2.91-28-13.32-25-42.21-3.55-2.9-12.35-11.26-14.27-24-1.5-10,1.54-20.18,9-30.42-3.37-4.94-9.47-18.41,4.59-39.06-3.45-4.13-10.77-14.51-9.54-27,1-9.68,6.81-18.32,17.4-25.71.52-5.23,3.56-21.31,21.21-26.22.78-2.43,2.6-6.51,6.54-8.88a13.71,13.71,0,0,1,9.61-1.58,12.22,12.22,0,0,1,3.92-6.43,11.3,11.3,0,0,1,8.14-2.38c1.78-3.67,6.42-9.74,17.63-9.23.6-5.67,2.93-17.26,12-23.69,7.08-5,16.57-5.74,28.23-2.19a14.48,14.48,0,0,1,6.15-6.56c4-2.14,9-2.27,14.76-.41a16.48,16.48,0,0,1,8.12-8c4.1-1.66,8.77-1.25,13.9,1.24,3.55-2.79,9.49-5.65,15.37-3.61a10.26,10.26,0,0,1,3.35-2.85c2.75-1.44,6-1.57,9.75-.4,1.69.54,3.84,2.12,4.46,6.63h0c.89,6.51-2.43,10.64-9.87,12.29a14.33,14.33,0,0,1-15.62,7,12.88,12.88,0,0,1-4.48,6.85c-3,2.23-6.85,3-11.59,2.17-1,4.85-3.69,13.67-11,18.54-5.56,3.69-12.53,4.35-20.74,2-3.2,2.73-11.54,8.82-20.82,7.45a20.09,20.09,0,0,1-4.56,11.81c-3,3.43-7.3,5.34-12.71,5.7-2.32,4.14-7.35,9.06-15,7.93a19,19,0,0,1-.79,4.15,15.1,15.1,0,0,1-10.65,10.41c.11,6.44-2.27,15.69-11.84,18.54-.38,4.88-2,16-9.3,22.83,5,3.7,13.58,11.49,16.46,22.78,2,8,.85,16.24-3.53,24.55a18.75,18.75,0,0,1,8.72,10.15c1.89,5.72.63,12.3-3.72,19.62,3.22,1.44,7.59,4.2,9.79,9.09,2.06,4.59,1.77,10-.86,16,3.89,1.41,9.8,4.45,12.7,10.53,2.4,5,2.26,11-.41,17.74a41,41,0,0,1,11.55,1c8,1.93,18.21,7.42,22.61,22.43,3.59-.26,9.94-.09,15.31,3.35,2.64-3.88,7.41-8.09,14.26-8,1.05-9.65,6.78-23.59,23.18-25,.82-5.63,4.16-18.06,17.75-24.33-.94-5.24-2.11-16.67,4.21-22.26-2.39-5.14-7-17.31-2.57-28.06,2.62-6.42,7.9-11.18,15.75-14.17a24.84,24.84,0,0,1,.55-22.93c-3.41-2.79-9.09-8.77-8.53-17.36-7.82-3.53-18.15-12.73-14.07-28.4-3-2.45-8-8.21-6.57-19-1.59-2.61-5.21-9.57-3.32-16.32,1.26-4.5,4.58-7.93,9.89-10.2l.29-.13.31-.06a15.21,15.21,0,0,1,10.77,2.3,15.44,15.44,0,0,1,5.91,8.59c4.82-.88,14.24-1.64,21.51,3.73,5.67,4.18,8.76,11.07,9.21,20.5,3.25.87,8.78,3,12.26,8.3,3.18,4.8,3.89,10.92,2.12,18.21,3.54,2.48,10.52,8.52,11.95,18.29,1.46,10-3.24,20.71-14,32a21.8,21.8,0,0,1-.06,19.82,19.74,19.74,0,0,1,4.82,11.76c.26,5.82-2.24,11.62-7.44,17.26,1.63,6.11,4.7,25.62-16,41.84,1.47,4.86,4.07,16.76-1.9,26.79-4.49,7.55-12.74,12.28-24.53,14.07-1.69,6.37-7.14,15.5-19,16.4-2.33,4.42-7.3,10.15-14.4,9.57-1.86,2.48-5.88,6.8-11.9,8.12-4.81,1-9.79,0-14.85-3.13-4.88,3.12-18.42,9.57-32.15-3.68-3.47,4-10.76,10.9-21.07,12.66A29.33,29.33,0,0,1,523.22,799ZM497.59,520.18a7.08,7.08,0,0,0-3.75,1c-3.35,2-4.21,6.66-4.21,6.7l-.34,2-2,.44c-18.22,4.05-18.43,21.72-18.43,22.47v1.6l-1.34.89c-9.78,6.52-15.15,14-16,22.11-1.31,13,9.4,24,9.5,24.08l1.8,1.81-1.49,2.07c-16.6,22.82-5.39,34.88-4.91,35.38l1.82,1.89-1.6,2.07c-7.48,9.52-10.6,18.84-9.26,27.71,2,13.16,13.12,21,13.23,21.08l1.51,1-.25,1.82c-4.21,31.57,22,38,23.1,38.24l3.22.74-1.05,3.13c-3.9,11.71,8.2,22.05,8.32,22.15l1.07.9v1.4c0,16.54,7.73,22.76,8.06,23,7.65,5.74,15.23,8,22.5,6.78,12-2,19.29-12.88,19.36-13l2.18-3.26,2.58,3c13.94,15.94,27.55,4.79,28.12,4.31l1.78-1.5,1.91,1.34c4.21,3,8.19,4.14,11.83,3.36,5.8-1.25,9.19-7,9.22-7l1.14-2,2.19.53c6.61,1.66,10.31-7.34,10.34-7.44l.76-1.88h2c13.3,0,15.42-13,15.5-13.6l.34-2.26,2.28-.28c11-1.3,18.47-5.15,22.22-11.47,6-10.15.8-23.56.74-23.69l-.87-2.17,1.89-1.37c23.1-16.8,15.48-37.17,15.14-38l-.71-1.83,1.38-1.4c4.81-4.81,7.15-9.54,6.94-14.06a14.07,14.07,0,0,0-4.43-9.22l-2-1.65,1.33-2.2c5.75-9.58.39-17.13.16-17.45L679,626.35l1.81-1.83c10.45-10.45,15.14-20,13.92-28.5-1.42-9.93-10.83-15.17-10.92-15.23l-2.14-1.16.69-2.34c1.95-6.48,1.69-11.66-.77-15.37-3.47-5.26-10.47-6.17-10.54-6.18l-2.67-.3v-2.68c0-8.69-2.29-14.79-6.82-18.14-7.59-5.6-19.19-2.12-19.31-2.08l-3.28,1-.56-3.38c-.61-3.65-2-6.24-4.07-7.71a9.1,9.1,0,0,0-6-1.42c-3.39,1.53-5.39,3.54-6.13,6.13-1.57,5.58,3.07,12.25,3.12,12.32l.71,1-.2,1.23c-1.89,11.34,5,15.15,5.34,15.31l2.25,1.19-.77,2.42c-5.88,17.63,11.23,23.67,12,23.92l2.49.85-.5,2.58c-1.87,9.36,7.74,15.25,7.84,15.31l2.69,1.62-1.74,2.62c-7.93,11.89-.23,21.76-.16,21.86l2.82,3.52-4.33,1.24c-8,2.29-13.27,6.3-15.55,11.9-4.52,11.08,3.39,25.14,3.47,25.29l1.58,2.75-2.84,1.42c-5.78,2.89-4.1,15.49-3,19.68l.65,2.59-2.51.94c-16.22,6.09-16.52,21.93-16.52,22.6l0,3h-3c-19.86,0-20.09,21.49-20.09,22.4v3.66l-3.59-.72c-9-1.8-12.64,7-12.79,7.41l-1.69,4.22-3.21-3.21c-5.73-5.73-15.67-3.82-15.77-3.8l-2.85.57-.66-2.84c-2.59-11.25-8.94-18.16-18.85-20.56a35.44,35.44,0,0,0-14.49-.28l-6.51,1.5,3.2-5.86c3.87-7.1,4.76-12.93,2.66-17.34-3.1-6.48-12-8.27-12.11-8.29l-4.12-.74,2-3.66c3.14-5.66,3.91-10.35,2.29-14-2.39-5.33-9.48-7-9.55-7.06l-4.38-1,2.57-3.68c4.89-7,6.6-12.88,5.09-17.53-1.85-5.68-8.15-7.9-8.21-7.92l-3.54-1.22,2-3.19c4.83-7.86,6.34-15.53,4.48-22.82C494.39,605,480.7,597,480.56,596.92l-4.45-2.54,4.4-2.63c10-6,10.08-22.66,10.08-22.83v-2.54l2.51-.42c10.84-1.8,9.15-14.54,9.07-15.09l-.42-2.9,2.9-.48c4.59-.77,7.4-3,8.59-6.87a14.39,14.39,0,0,0,.48-5.84l-.87-5.26,4.95,2c8.25,3.3,11.66-3.81,12.27-5.27l.76-1.85,2,0c4.51,0,7.9-1.25,10.09-3.71,3.87-4.35,3.1-11.33,3.09-11.4l-.59-5,4.68,1.86c9.6,3.84,19.76-6.16,19.86-6.26l1.31-1.31,1.76.59c7.1,2.36,12.9,2.11,17.22-.76,7.83-5.2,8.84-17.29,8.85-17.41l.29-3.66,3.53,1c3,.85,7.06,1.47,9.6-.42s2.74-5.92,2.74-5.95l.06-4.37,4,1.6c8.29,3.32,11.57-2.91,12.15-4.19l.66-1.47,1.59-.29c7.06-1.17,6.71-3.77,6.42-5.85a4.71,4.71,0,0,0-.5-1.77,6.55,6.55,0,0,0-5,.05,4.6,4.6,0,0,0-2,2.33l-1.17,3.81-3.33-2.17c-5.66-3.69-12.13,2.64-12.41,2.91l-1.62,1.61-2-1.13c-4.21-2.4-7.77-3-10.57-1.9-4.21,1.71-5.82,7-5.84,7l-.92,3.22-3.1-1.27c-5.29-2.17-9.49-2.46-12.47-.87a9.21,9.21,0,0,0-4.23,5.62l-.69,3.38-3.25-1.15c-11-3.88-19.6-3.71-25.57.51-9.57,6.77-9.68,21.91-9.68,22.06v3.46l-3.43-.49c-12.77-1.82-14.91,6-15.11,6.89l-.64,2.86-2.88-.54c-2.51-.5-4.42-.24-5.68.78-1.83,1.49-2.27,4.5-2.28,5.53l-.05,4.11-3.9-1.28A13.8,13.8,0,0,0,497.59,520.18Z" fill="#4f3cc9"/></svg>