<svg xmlns="http://www.w3.org/2000/svg" width="1200" height="1200" viewBox="0 0 1200 1200"><path d="M346.4,577.47q2.58-4.51,8.87-6.29a62.42,62.42,0,0,1,16.45-1.77q10.15,0,16.28,2.09t8.71,6.78a24.14,24.14,0,0,1,3.06,8.54,96.23,96.23,0,0,1,.49,11.29V777.42q0,12.57-3.07,18.54a15.15,15.15,0,0,1-9.35,7.9,53.93,53.93,0,0,1-15.64,1.94q-9.36,0-14.83-1.62a25.31,25.31,0,0,1-8.39-3.87,12.56,12.56,0,0,1-4.19-6.45q-1.94-5.48-1.94-16.77V737.75H255.46q-22.58,0-26.77-12.25a47.9,47.9,0,0,1-1.61-13.87,62.94,62.94,0,0,1,1-12.9l26.77-108q1.94-7.41,3.39-11.29A18,18,0,0,1,264,572a17,17,0,0,1,11.13-3.55A55.12,55.12,0,0,1,290,570.7q22.57,6.12,22.58,20.64a55.09,55.09,0,0,1-2.26,13.54,2.41,2.41,0,0,0-.32,1l-19.67,78.69h52.56v-88a87.68,87.68,0,0,1,.49-11A23,23,0,0,1,346.4,577.47Z" fill="#4f3cc9"/><path d="M335.4,577.47q2.58-4.51,8.87-6.29a62.42,62.42,0,0,1,16.45-1.77q10.15,0,16.28,2.09t8.71,6.78a24.14,24.14,0,0,1,3.06,8.54,96.23,96.23,0,0,1,.49,11.29V777.42q0,12.57-3.07,18.54a15.15,15.15,0,0,1-9.35,7.9,53.93,53.93,0,0,1-15.64,1.94q-9.36,0-14.83-1.62a25.31,25.31,0,0,1-8.39-3.87,12.56,12.56,0,0,1-4.19-6.45q-1.94-5.48-1.94-16.77V737.75H244.46q-22.58,0-26.77-12.25a47.9,47.9,0,0,1-1.61-13.87,62.94,62.94,0,0,1,1-12.9l26.77-108q1.94-7.41,3.39-11.29A18,18,0,0,1,253,572a17,17,0,0,1,11.13-3.55A55.12,55.12,0,0,1,279,570.7q22.57,6.12,22.58,20.64a55.09,55.09,0,0,1-2.26,13.54,2.41,2.41,0,0,0-.32,1l-19.67,78.69h52.56v-88a87.68,87.68,0,0,1,.49-11A23,23,0,0,1,335.4,577.47Z" fill="#77e0b5"/><path d="M361.2,808.8c-6.6,0-11.73-.57-15.68-1.74a28,28,0,0,1-9.38-4.38,15.47,15.47,0,0,1-5.2-7.88c-1.4-4-2.09-9.8-2.09-17.71V740.75H244.46c-16.41,0-26.37-4.81-29.61-14.29-1.2-3.82-1.77-8.65-1.77-14.83a64.88,64.88,0,0,1,1-13.58L240.9,590c1.34-5.14,2.48-8.92,3.49-11.62a21.05,21.05,0,0,1,6.72-8.69,20,20,0,0,1,13-4.22,58.77,58.77,0,0,1,15.64,2.37c16.43,4.46,24.77,12.38,24.77,23.53a57.22,57.22,0,0,1-2.36,14.32l-.08.29-.14.27v0l-.08.33-18.74,75h45.72v-85a91.9,91.9,0,0,1,.51-11.37A25.74,25.74,0,0,1,332.8,576c2.11-3.7,5.7-6.29,10.65-7.69a65.82,65.82,0,0,1,17.27-1.88c7.06,0,12.87.76,17.25,2.25,4.79,1.65,8.28,4.39,10.37,8.16a27.45,27.45,0,0,1,3.41,9.63,100,100,0,0,1,.51,11.66V777.42c0,9-1.11,15.46-3.4,19.91a18.12,18.12,0,0,1-11.14,9.4A57.1,57.1,0,0,1,361.2,808.8ZM264.13,571.44a14,14,0,0,0-9.23,2.87,15.29,15.29,0,0,0-4.89,6.15c-.93,2.46-2,6.16-3.3,11L220,699.45a60.45,60.45,0,0,0-.88,12.18,45.3,45.3,0,0,0,1.47,13c2.3,6.71,10.35,10.15,23.91,10.15h90.39v42.34c0,7.15.6,12.46,1.77,15.78l0,.12a9.44,9.44,0,0,0,3.16,5,22.46,22.46,0,0,0,7.39,3.37c3.35,1,8.06,1.49,14,1.49A51.12,51.12,0,0,0,376,801a12.18,12.18,0,0,0,7.57-6.4c1.81-3.53,2.73-9.31,2.73-17.17V598.11a97.4,97.4,0,0,0-.46-10.92,21.73,21.73,0,0,0-2.72-7.47c-1.36-2.46-3.67-4.22-7.05-5.38-3.76-1.28-8.91-1.93-15.31-1.93a60,60,0,0,0-15.64,1.66c-3.43,1-5.75,2.57-7.07,4.89h0a20.38,20.38,0,0,0-2.69,7,87.6,87.6,0,0,0-.46,10.56v91H275.44L296,605.34a5.79,5.79,0,0,1,.46-1.5,51.56,51.56,0,0,0,2.09-12.5c0-8.22-6.66-14-20.36-17.75A52.84,52.84,0,0,0,264.13,571.44Zm37.75,35Z" fill="#4f3cc9"/><path d="M899.4,577.47q2.58-4.51,8.87-6.29a62.42,62.42,0,0,1,16.45-1.77q10.15,0,16.28,2.09t8.71,6.78a24.14,24.14,0,0,1,3.06,8.54,96.23,96.23,0,0,1,.49,11.29V777.42q0,12.57-3.07,18.54a15.15,15.15,0,0,1-9.35,7.9,53.93,53.93,0,0,1-15.64,1.94q-9.36,0-14.83-1.62a25.31,25.31,0,0,1-8.39-3.87,12.56,12.56,0,0,1-4.19-6.45q-1.93-5.48-1.94-16.77V737.75H808.46q-22.58,0-26.77-12.25a47.9,47.9,0,0,1-1.61-13.87,62.94,62.94,0,0,1,1-12.9l26.77-108q1.94-7.41,3.39-11.29A18,18,0,0,1,817,572a17,17,0,0,1,11.13-3.55A55.12,55.12,0,0,1,843,570.7q22.57,6.12,22.58,20.64a55.09,55.09,0,0,1-2.26,13.54,2.41,2.41,0,0,0-.32,1l-19.67,78.69h52.56v-88a87.68,87.68,0,0,1,.49-11A23,23,0,0,1,899.4,577.47Z" fill="#4f3cc9"/><path d="M888.4,577.47q2.58-4.51,8.87-6.29a62.42,62.42,0,0,1,16.45-1.77q10.15,0,16.28,2.09t8.71,6.78a24.14,24.14,0,0,1,3.06,8.54,96.23,96.23,0,0,1,.49,11.29V777.42q0,12.57-3.07,18.54a15.15,15.15,0,0,1-9.35,7.9,53.93,53.93,0,0,1-15.64,1.94q-9.36,0-14.83-1.62a25.31,25.31,0,0,1-8.39-3.87,12.56,12.56,0,0,1-4.19-6.45q-1.93-5.48-1.94-16.77V737.75H797.46q-22.58,0-26.77-12.25a47.9,47.9,0,0,1-1.61-13.87,62.94,62.94,0,0,1,1-12.9l26.77-108q1.94-7.41,3.39-11.29A18,18,0,0,1,806,572a17,17,0,0,1,11.13-3.55A55.12,55.12,0,0,1,832,570.7q22.57,6.12,22.58,20.64a55.09,55.09,0,0,1-2.26,13.54,2.41,2.41,0,0,0-.32,1l-19.67,78.69h52.56v-88a87.68,87.68,0,0,1,.49-11A23,23,0,0,1,888.4,577.47Z" fill="#77e0b5"/><path d="M914.2,808.8c-6.6,0-11.73-.57-15.68-1.74a28,28,0,0,1-9.38-4.38,15.47,15.47,0,0,1-5.2-7.88c-1.4-4-2.09-9.8-2.09-17.71V740.75H797.46c-16.41,0-26.37-4.81-29.61-14.29-1.2-3.82-1.77-8.65-1.77-14.83a64.88,64.88,0,0,1,1-13.58L793.9,590c1.34-5.14,2.48-8.92,3.49-11.62a21.05,21.05,0,0,1,6.72-8.69,20,20,0,0,1,13-4.22,58.77,58.77,0,0,1,15.64,2.37c16.43,4.46,24.77,12.38,24.77,23.53a57.22,57.22,0,0,1-2.36,14.32l-.08.29-.14.27v0l-.08.33-18.74,75h45.72v-85a91.9,91.9,0,0,1,.51-11.37A25.74,25.74,0,0,1,885.8,576c2.11-3.7,5.7-6.29,10.65-7.69a65.82,65.82,0,0,1,17.27-1.88c7.06,0,12.87.76,17.25,2.25,4.79,1.65,8.28,4.39,10.37,8.16a27.45,27.45,0,0,1,3.41,9.63,100,100,0,0,1,.51,11.66V777.42c0,9-1.11,15.46-3.4,19.91a18.12,18.12,0,0,1-11.14,9.4A57.1,57.1,0,0,1,914.2,808.8ZM817.13,571.44a14,14,0,0,0-9.23,2.87,15.29,15.29,0,0,0-4.89,6.15c-.93,2.46-2,6.16-3.3,11L773,699.45a60.45,60.45,0,0,0-.88,12.18,45.3,45.3,0,0,0,1.47,13c2.3,6.71,10.35,10.15,23.91,10.15h90.39v42.34c0,7.15.6,12.46,1.77,15.78l0,.12a9.44,9.44,0,0,0,3.16,5,22.46,22.46,0,0,0,7.39,3.37c3.35,1,8.06,1.49,14,1.49A51.12,51.12,0,0,0,929,801a12.18,12.18,0,0,0,7.57-6.4c1.81-3.53,2.73-9.31,2.73-17.17V598.11a97.4,97.4,0,0,0-.46-10.92,21.73,21.73,0,0,0-2.72-7.47c-1.36-2.46-3.67-4.22-7.05-5.38-3.76-1.28-8.91-1.93-15.31-1.93a60,60,0,0,0-15.64,1.66c-3.43,1-5.75,2.57-7.07,4.89h0a20.38,20.38,0,0,0-2.69,7,87.6,87.6,0,0,0-.46,10.56v91H828.44L849,605.34a5.79,5.79,0,0,1,.46-1.5,51.56,51.56,0,0,0,2.09-12.5c0-8.22-6.66-14-20.36-17.75A52.84,52.84,0,0,0,817.13,571.44Zm37.75,35Z" fill="#4f3cc9"/><path d="M773.35,482.57l-10.63-2.32-2.42-10.61a.82.82,0,0,0-.8-.64.84.84,0,0,0-.81.64l-2.42,10.66-10.63,2.52a.84.84,0,0,0-.64.82.81.81,0,0,0,.65.79l10.63,2.32,2.41,10.61a.84.84,0,0,0,.81.64.82.82,0,0,0,.8-.64l2.43-10.66,10.63-2.52a.82.82,0,0,0,0-1.61Z" fill="#4f3cc9"/><path d="M331.35,492.57l-10.63-2.32-2.42-10.61a.82.82,0,0,0-.8-.64.84.84,0,0,0-.81.64l-2.42,10.66-10.63,2.52a.84.84,0,0,0-.64.82.81.81,0,0,0,.65.79l10.63,2.32,2.41,10.61a.84.84,0,0,0,.81.64.82.82,0,0,0,.8-.64l2.43-10.66,10.63-2.52a.82.82,0,0,0,0-1.61Z" fill="#4f3cc9"/><path d="M792.66,437l-5.5-1.2-1.24-5.49a.43.43,0,0,0-.84,0l-1.25,5.52-5.5,1.3a.43.43,0,0,0-.33.42.42.42,0,0,0,.34.41l5.5,1.2,1.24,5.49a.43.43,0,0,0,.84,0l1.25-5.52,5.5-1.3a.44.44,0,0,0,.33-.42A.42.42,0,0,0,792.66,437Z" fill="#4f3cc9"/><path d="M423.37,905.1l-10.26-2.23-2.33-10.25a.8.8,0,0,0-1.56,0l-2.34,10.29-10.27,2.44a.79.79,0,0,0,0,1.55l10.26,2.24,2.33,10.24a.8.8,0,0,0,1.56,0l2.34-10.29,10.27-2.44a.79.79,0,0,0,0-1.55Z" fill="#4f3cc9"/><path d="M447,861.66l-6.7-1.46-1.52-6.68a.52.52,0,0,0-1,0l-1.53,6.71-6.7,1.59a.53.53,0,0,0-.4.52.51.51,0,0,0,.41.5l6.7,1.46,1.52,6.69a.53.53,0,0,0,1,0l1.52-6.72,6.71-1.59a.52.52,0,0,0,.4-.51A.52.52,0,0,0,447,861.66Z" fill="#4f3cc9"/><rect x="564.45" y="641.83" width="201.46" height="90.66" rx="45.33" fill="#fff"/><path d="M720.59,735.49H609.78a48.33,48.33,0,0,1,0-96.66H720.59a48.33,48.33,0,0,1,0,96.66ZM609.78,644.83a42.33,42.33,0,0,0,0,84.66H720.59a42.33,42.33,0,0,0,0-84.66Z" fill="#4f3cc9"/><path d="M722,677l57.63,202a20.07,20.07,0,0,1-19.31,25.56H564.45a51.26,51.26,0,0,1,28.62-22,24.92,24.92,0,0,1,4.27-.89l40.27-4.78a38.34,38.34,0,0,0,33.45-43.41L653,705.21Z" fill="#fff"/><path d="M760.32,907.57H559.07L561.9,903a54.23,54.23,0,0,1,30.3-23.32,27.69,27.69,0,0,1,4.79-1l40.27-4.78a35.33,35.33,0,0,0,30.83-40L649.72,703.32,724,673l58.54,205.22a23.08,23.08,0,0,1-22.19,29.39Zm-190.1-6h190.1a17.06,17.06,0,0,0,16.42-21.74L720,681,656.31,707.1,674,833A41.34,41.34,0,0,1,638,879.85l-40.28,4.78a21.57,21.57,0,0,0-3.74.78A48.19,48.19,0,0,0,570.22,901.57Z" fill="#4f3cc9"/><circle cx="574.53" cy="686.32" r="154.45" fill="#fff"/><path d="M574.53,843.78c-86.82,0-157.46-70.64-157.46-157.46s70.64-157.45,157.46-157.45S732,599.5,732,686.32,661.35,843.78,574.53,843.78Zm0-308.91c-83.51,0-151.46,67.94-151.46,151.45S491,837.78,574.53,837.78,726,769.84,726,686.32,658,534.87,574.53,534.87Z" fill="#4f3cc9"/><path d="M542.9,939H656.69V902.05h-97a16.79,16.79,0,0,0-16.78,16.79Z" fill="#fff"/><path d="M659.69,942H539.9V918.84a19.81,19.81,0,0,1,19.78-19.79h100ZM545.9,936H653.69V905.05h-94a13.8,13.8,0,0,0-13.78,13.79Z" fill="#4f3cc9"/><path d="M625.38,939H791V918.84a16.79,16.79,0,0,0-16.79-16.79h-132a16.79,16.79,0,0,0-16.79,16.79Z" fill="#fff"/><path d="M794,942H622.38V918.84a19.82,19.82,0,0,1,19.79-19.79h132A19.82,19.82,0,0,1,794,918.84Zm-165.62-6H788V918.84a13.81,13.81,0,0,0-13.79-13.79h-132a13.81,13.81,0,0,0-13.79,13.79Z" fill="#4f3cc9"/><path d="M552.58,681.25s-63.8-28.54-70.51-79.74c0,0-7.14-40.72,70.09-54.15,0,0,51.63-7,68,26,3.8,7.68,3.36,20.15-10.07,32.74-11.88,11.14-34.42,39.46-24.34,60.44Z" fill="#4f3cc9"/><path d="M558.58,676.25s-63.8-28.54-70.51-79.74c0,0-7.14-40.72,70.09-54.15,0,0,51.63-7,68,26,3.8,7.68,3.36,20.15-10.07,32.74-11.88,11.14-34.42,39.46-24.34,60.44Z" fill="#f582ae"/><path d="M558.57,679.53l-1.22-.54c-2.66-1.19-65.36-29.81-72.25-82-.18-1.15-1.68-12.44,7.25-25.14,11.17-15.9,33.14-26.8,65.3-32.39l.11,0c2.19-.3,54-6.9,71.08,27.66,4.29,8.66,3.73,22.73-10.71,36.26-12.17,11.41-32.79,38-23.69,57l1.34,2.79Zm0-134.2c-38.43,6.7-54.76,20.23-61.69,30.41-7.34,10.77-6,19.88-5.89,20.26v.12C497,641.25,550,668.75,558.62,673l29.23-13c-7.59-21.59,12.52-48.27,26.18-61.07,15.15-14.2,11.05-25.95,9.43-29.21C608.47,539.45,560.4,545.1,558.61,545.33Z" fill="#4f3cc9"/><path d="M592.16,669.82S655,639.22,698.57,667c0,0,35.79,20.66-3.48,88.5,0,0-27.77,44.08-63.6,35.43-8.33-2-17.6-10.36-18.64-28.74-.91-16.27-8.16-51.72-30.71-57.47Z" fill="#4f3cc9"/><path d="M592.14,677.63S655,647,698.55,674.76c0,0,35.8,20.66-3.48,88.5,0,0-27.77,44.08-63.6,35.43-8.32-2-17.6-10.36-18.64-28.74-.91-16.27-8.15-51.72-30.71-57.47Z" fill="#f582ae"/><path d="M641,802.83a43.1,43.1,0,0,1-10.23-1.23c-9.39-2.27-19.82-11.73-20.93-31.48-.94-16.66-8.09-49.54-28.46-54.73l-3-.76,11.25-39.11,1.2-.59c2.62-1.28,64.82-31,109.29-2.73,1,.6,10.62,6.7,14.63,21.7,5,18.77-.73,42.61-17.08,70.86l-.06.09C696.54,766.55,673.28,802.83,641,802.83ZM585.81,710.5c21.43,8,29,40.59,30,59.28,1.17,20.73,12.81,25.13,16.34,26,32.84,7.93,59.36-32.55,60.34-34.07,19.53-33.77,19.64-55,16.28-66.83-3.55-12.54-11.42-17.33-11.75-17.52l-.1-.06c-38.45-24.47-93.53-1.45-102.29,2.49Z" fill="#4f3cc9"/><path d="M583,709.32s4.33,69.75-37.91,99.46c0,0-32.75,25.22-80.49-36.95,0,0-30.16-42.49-8.51-72.31,5-6.93,16.29-12.32,33.68-6.27,15.38,5.36,50.92,12.18,64.83-6.49Z" fill="#4f3cc9"/><path d="M575.78,706.32s4.32,69.76-37.91,99.47c0,0-32.75,25.21-80.49-37,0,0-30.17-42.48-8.51-72.3,5-6.93,16.29-12.33,33.67-6.27,15.39,5.35,50.92,12.17,64.84-6.49Z" fill="#f582ae"/><path d="M519.76,813.85a45.62,45.62,0,0,1-5.77-.38c-19.27-2.52-39.12-16.92-59-42.81l-.07-.09c-1.28-1.81-31.15-44.6-8.49-75.81,5.68-7.81,18.4-13.85,37.09-7.34,15.76,5.49,48.88,11.41,61.44-5.44l1.85-2.48,31.87,25.3.08,1.34c.18,2.91,3.94,71.73-39.14,102.08C538.82,808.82,531.7,813.85,519.76,813.85Zm-60-46.8c18.59,24.21,37.6,38.2,55,40.47,13.47,1.76,21.19-4,21.27-4.11l.1-.07c37.24-26.2,37-85.92,36.7-95.52l-25-19.88c-15.6,16.74-48.57,11.3-66.24,5.15-19.61-6.83-28.12,2.25-30.26,5.2C431.42,725.67,458.76,765.57,459.8,767.05Z" fill="#4f3cc9"/><circle cx="574.95" cy="685.06" r="36.1" fill="#4f3cc9"/><path d="M555.85,771.59a86.74,86.74,0,1,1,86.73-86.74A86.83,86.83,0,0,1,555.85,771.59Zm0-167.47a80.74,80.74,0,1,0,80.73,80.73A80.82,80.82,0,0,0,555.85,604.12Z" fill="#4f3cc9"/><path d="M601.44,692l-6-.52c.72-8.42-1-15-5.09-19.69-6-6.83-15.43-7.27-15.53-7.27l.2-6c.49,0,12,.49,19.77,9.24C600.08,673.73,602.31,681.88,601.44,692Z" fill="#fff"/><path d="M462.29,537.16c-17.88-14.11-15-37.89-13.71-48,1.46-11.92-3.2-19.59-13.84-22.78-15.36-4.61-24.78-12.07-28.81-22.81-7.93-21.14,7.29-35.55,16.39-44.16,1-.95,1.94-1.84,2.78-2.67,30.56-30.29,17.31-53.17,17.17-53.4l5.14-3.1c.66,1.09,15.8,27.18-18.09,60.76-.87.87-1.84,1.79-2.88,2.77-9,8.56-21.42,20.28-14.89,37.7,3.32,8.86,11.47,15.13,24.92,19.16,7.8,2.34,20.51,9.26,18.06,29.26-1.85,15.13-1.94,32,11.47,42.61Z" fill="#4f3cc9"/><path d="M578.84,514c-8.65-24.2.43-52,.82-53.16,13.24-42.22-1-54.05-16.7-60.05-26.55-10.15-38.42-21.46-39.69-37.82-2.25-29,16.79-41.31,28.17-48.64l1.73-1.11c18.78-12.24,18-26.87,18-27.48l6-.48c.06.76,1.28,18.7-20.66,33l-1.75,1.13c-11.57,7.46-27.41,17.66-25.44,43.13.75,9.68,5.6,21.12,35.86,32.69,25.58,9.78,31.83,30.6,20.25,67.5-.1.31-8.81,27.07-.87,49.29Z" fill="#4f3cc9"/><path d="M628.88,514.23l-5.45-2.5c26.32-57.43,20.29-83.47,2-106.87-19.47-24.94-2.69-57.28-2-58.65l5.3,2.81c-.15.3-15.65,30.31,1.4,52.15C649.29,425.64,656.38,454.23,628.88,514.23Z" fill="#4f3cc9"/></svg>