<svg xmlns="http://www.w3.org/2000/svg" width="1200" height="1200" viewBox="0 0 1200 1200"><path d="M928.4,533.47q2.58-4.51,8.87-6.29a62.42,62.42,0,0,1,16.45-1.77q10.15,0,16.28,2.09t8.71,6.78a24.14,24.14,0,0,1,3.06,8.54,96.23,96.23,0,0,1,.49,11.29V733.42q0,12.57-3.07,18.54a15.15,15.15,0,0,1-9.35,7.9,53.93,53.93,0,0,1-15.64,1.94q-9.36,0-14.83-1.62a25.31,25.31,0,0,1-8.39-3.87,12.56,12.56,0,0,1-4.19-6.45q-1.93-5.48-1.94-16.77V693.75H837.46q-22.58,0-26.77-12.25a47.9,47.9,0,0,1-1.61-13.87,62.94,62.94,0,0,1,1-12.9l26.77-108q1.94-7.41,3.39-11.29A18,18,0,0,1,846,528a17,17,0,0,1,11.13-3.55A55.12,55.12,0,0,1,872,526.7q22.57,6.12,22.58,20.64a55.09,55.09,0,0,1-2.26,13.54,2.41,2.41,0,0,0-.32,1l-19.67,78.69h52.56v-88a87.68,87.68,0,0,1,.49-11A23,23,0,0,1,928.4,533.47Z" fill="#77e0b5"/><path d="M954.2,764.8c-6.6,0-11.73-.57-15.68-1.74a28,28,0,0,1-9.38-4.38,15.47,15.47,0,0,1-5.2-7.88c-1.4-4-2.09-9.8-2.09-17.71V696.75H837.46c-16.41,0-26.37-4.81-29.61-14.29-1.2-3.82-1.77-8.65-1.77-14.83a64.88,64.88,0,0,1,1-13.58L833.9,546c1.34-5.14,2.48-8.92,3.49-11.62a21.05,21.05,0,0,1,6.72-8.69,20,20,0,0,1,13-4.22,58.77,58.77,0,0,1,15.64,2.37c16.43,4.46,24.77,12.38,24.77,23.53a57.22,57.22,0,0,1-2.36,14.32l-.08.29-.14.27v0l-.08.33-18.74,75h45.72v-85a91.9,91.9,0,0,1,.51-11.37A25.74,25.74,0,0,1,925.8,532c2.11-3.7,5.7-6.29,10.65-7.69a65.82,65.82,0,0,1,17.27-1.88c7.06,0,12.87.76,17.25,2.25,4.79,1.65,8.28,4.39,10.37,8.16a27.45,27.45,0,0,1,3.41,9.63,100,100,0,0,1,.51,11.66V733.42c0,9-1.11,15.46-3.4,19.91a18.12,18.12,0,0,1-11.14,9.4A57.1,57.1,0,0,1,954.2,764.8ZM857.13,527.44a14,14,0,0,0-9.23,2.87,15.29,15.29,0,0,0-4.89,6.15c-.93,2.46-2,6.16-3.3,11L813,655.45a60.45,60.45,0,0,0-.88,12.18,45.3,45.3,0,0,0,1.47,13c2.3,6.71,10.35,10.15,23.91,10.15h90.39v42.34c0,7.15.6,12.46,1.77,15.78l0,.12a9.44,9.44,0,0,0,3.16,5,22.46,22.46,0,0,0,7.39,3.37c3.35,1,8.06,1.49,14,1.49A51.12,51.12,0,0,0,969,757a12.18,12.18,0,0,0,7.57-6.4c1.81-3.53,2.73-9.31,2.73-17.17V554.11a97.4,97.4,0,0,0-.46-10.92,21.73,21.73,0,0,0-2.72-7.47c-1.36-2.46-3.67-4.22-7.05-5.38-3.76-1.28-8.91-1.93-15.31-1.93a60,60,0,0,0-15.64,1.66c-3.43,1-5.75,2.57-7.07,4.89h0a20.38,20.38,0,0,0-2.69,7,87.6,87.6,0,0,0-.46,10.56v91H868.44L889,561.34a5.79,5.79,0,0,1,.46-1.5,51.56,51.56,0,0,0,2.09-12.5c0-8.22-6.66-14-20.36-17.75A52.84,52.84,0,0,0,857.13,527.44Zm37.75,35Z" fill="#4f3cc9"/><path d="M314.4,533.47q2.58-4.51,8.87-6.29a62.42,62.42,0,0,1,16.45-1.77q10.15,0,16.28,2.09t8.71,6.78a24.14,24.14,0,0,1,3.06,8.54,96.23,96.23,0,0,1,.49,11.29V733.42q0,12.57-3.07,18.54a15.15,15.15,0,0,1-9.35,7.9,53.93,53.93,0,0,1-15.64,1.94q-9.36,0-14.83-1.62a25.31,25.31,0,0,1-8.39-3.87,12.56,12.56,0,0,1-4.19-6.45q-1.94-5.48-1.94-16.77V693.75H223.46q-22.58,0-26.77-12.25a47.9,47.9,0,0,1-1.61-13.87,62.94,62.94,0,0,1,1-12.9l26.77-108q1.94-7.41,3.39-11.29A18,18,0,0,1,232,528a17,17,0,0,1,11.13-3.55A55.12,55.12,0,0,1,258,526.7q22.57,6.12,22.58,20.64a55.09,55.09,0,0,1-2.26,13.54,2.41,2.41,0,0,0-.32,1l-19.67,78.69h52.56v-88a87.68,87.68,0,0,1,.49-11A23,23,0,0,1,314.4,533.47Z" fill="#77e0b5"/><path d="M340.2,764.8c-6.6,0-11.73-.57-15.68-1.74a28,28,0,0,1-9.38-4.38,15.47,15.47,0,0,1-5.2-7.88c-1.4-4-2.09-9.8-2.09-17.71V696.75H223.46c-16.41,0-26.37-4.81-29.61-14.29-1.2-3.82-1.77-8.65-1.77-14.83a64.88,64.88,0,0,1,1-13.58L219.9,546c1.34-5.14,2.48-8.92,3.49-11.62a21.05,21.05,0,0,1,6.72-8.69,20,20,0,0,1,13-4.22,58.77,58.77,0,0,1,15.64,2.37c16.43,4.46,24.77,12.38,24.77,23.53a57.22,57.22,0,0,1-2.36,14.32l-.08.29-.14.27v0l-.08.33-18.74,75h45.72v-85a91.9,91.9,0,0,1,.51-11.37A25.74,25.74,0,0,1,311.8,532c2.11-3.7,5.7-6.29,10.65-7.69a65.82,65.82,0,0,1,17.27-1.88c7.06,0,12.87.76,17.25,2.25,4.79,1.65,8.28,4.39,10.37,8.16a27.45,27.45,0,0,1,3.41,9.63,100,100,0,0,1,.51,11.66V733.42c0,9-1.11,15.46-3.4,19.91a18.12,18.12,0,0,1-11.14,9.4A57.1,57.1,0,0,1,340.2,764.8ZM243.13,527.44a14,14,0,0,0-9.23,2.87,15.29,15.29,0,0,0-4.89,6.15c-.93,2.46-2,6.16-3.3,11L199,655.45a60.45,60.45,0,0,0-.88,12.18,45.3,45.3,0,0,0,1.47,13c2.3,6.71,10.35,10.15,23.91,10.15h90.39v42.34c0,7.15.6,12.46,1.77,15.78l0,.12a9.44,9.44,0,0,0,3.16,5,22.46,22.46,0,0,0,7.39,3.37c3.35,1,8.06,1.49,14,1.49A51.12,51.12,0,0,0,355,757a12.18,12.18,0,0,0,7.57-6.4c1.81-3.53,2.73-9.31,2.73-17.17V554.11a97.4,97.4,0,0,0-.46-10.92,21.73,21.73,0,0,0-2.72-7.47c-1.36-2.46-3.67-4.22-7.05-5.38-3.76-1.28-8.91-1.93-15.31-1.93a60,60,0,0,0-15.64,1.66c-3.43,1-5.75,2.57-7.07,4.89h0a20.38,20.38,0,0,0-2.69,7,87.6,87.6,0,0,0-.46,10.56v91H254.44L275,561.34a5.79,5.79,0,0,1,.46-1.5,51.56,51.56,0,0,0,2.09-12.5c0-8.22-6.66-14-20.36-17.75A52.84,52.84,0,0,0,243.13,527.44Zm37.75,35Z" fill="#4f3cc9"/><path d="M372.35,413.57l-10.63-2.32-2.42-10.61a.82.82,0,0,0-.8-.64.84.84,0,0,0-.81.64l-2.42,10.66-10.63,2.52a.84.84,0,0,0-.64.82.81.81,0,0,0,.65.79l10.63,2.32,2.41,10.61a.84.84,0,0,0,.81.64.82.82,0,0,0,.8-.64l2.43-10.66,10.63-2.52a.82.82,0,0,0,0-1.61Z" fill="#4f3cc9"/><path d="M391.66,368l-5.5-1.2-1.24-5.49a.43.43,0,0,0-.84,0l-1.25,5.52-5.5,1.3a.43.43,0,0,0-.33.42.42.42,0,0,0,.34.41l5.5,1.2,1.24,5.49a.43.43,0,0,0,.84,0l1.25-5.52,5.5-1.3a.44.44,0,0,0,.33-.42A.42.42,0,0,0,391.66,368Z" fill="#4f3cc9"/><path d="M791.37,865.1l-10.26-2.23-2.33-10.25a.8.8,0,0,0-1.56,0l-2.34,10.29-10.27,2.44a.79.79,0,0,0,0,1.55l10.26,2.24,2.33,10.24a.8.8,0,0,0,1.56,0l2.34-10.29,10.27-2.44a.79.79,0,0,0,0-1.55Z" fill="#4f3cc9"/><path d="M815,821.66l-6.7-1.46-1.52-6.68a.52.52,0,0,0-1,0l-1.53,6.71-6.7,1.59a.53.53,0,0,0-.4.52.51.51,0,0,0,.41.5l6.7,1.46,1.52,6.69a.53.53,0,0,0,1,0l1.52-6.72,6.71-1.59a.52.52,0,0,0,.4-.51A.52.52,0,0,0,815,821.66Z" fill="#4f3cc9"/><path d="M443,812.66l-6.7-1.46-1.52-6.68a.52.52,0,0,0-1,0l-1.53,6.71-6.7,1.59a.53.53,0,0,0-.4.52.51.51,0,0,0,.41.5l6.7,1.46,1.52,6.69a.53.53,0,0,0,1,0l1.52-6.72,6.71-1.59a.52.52,0,0,0,.4-.51A.52.52,0,0,0,443,812.66Z" fill="#4f3cc9"/><path d="M683.34,434,696,444.57s4,56.43,51.57,47.74l7.95,14.12S739,549,774.88,555l4,19.62S756.7,592.68,774,618l-29.62,13.72L662,453Z" fill="#4f3cc9"/><path d="M758.15,588A37.12,37.12,0,0,1,772,559c0-.17-.07-.33-.11-.49a37.21,37.21,0,0,1-24.84-60.6l-.64-1a49.12,49.12,0,0,1-65.87-61A182.48,182.48,0,0,0,411,596.29C411,697,492.67,778.72,593.42,778.72c93.14,0,170-69.8,181.05-159.94A37.18,37.18,0,0,1,758.15,588ZM592,645.42a47.69,47.69,0,1,1,47.68-47.68A47.68,47.68,0,0,1,592,645.42Z" fill="#fff"/><path d="M593.42,781.72C491.18,781.72,408,698.54,408,596.29s83.18-185.42,185.42-185.42A185.55,185.55,0,0,1,682,433.36l2.22,1.2-.81,2.4a46.13,46.13,0,0,0,61.85,57.24l2.32-1,1.65,2.53.37.57,1.19,1.84-1.39,1.69a34.2,34.2,0,0,0,22.84,55.7l2.17.23.93,4.43-1.43,1.15a34.21,34.21,0,0,0,2.25,55l1.51,1-.22,1.81C766.05,711.83,686.94,781.72,593.42,781.72Zm0-364.85C494.49,416.87,414,497.36,414,596.29s80.49,179.43,179.42,179.43c89.9,0,166-66.75,177.85-155.54A40.21,40.21,0,0,1,766,560.51a40.2,40.2,0,0,1-25.38-58.36A52.14,52.14,0,0,1,677,437.46,179.72,179.72,0,0,0,593.42,416.87ZM592,648.42a50.69,50.69,0,1,1,50.68-50.68A50.74,50.74,0,0,1,592,648.42Zm0-95.37a44.69,44.69,0,1,0,44.68,44.69A44.73,44.73,0,0,0,592,553.05Z" fill="#4f3cc9"/><path d="M727.8,572.45c-14.44-13.73-9.39-35.4-9.39-35.4,3.62-41.9-29.62-39-29.62-39-18.06,0-25.8-10.9-29.62-18.79-17.43-36-37.79-22.9-49.13-16.62-16.95,9.4-33.23,0-33.23,0-20.23-8.66-30.35-4.33-30.35-4.33-13,2.17-19.14,19.67-23.84,27.45-7.7,12.75-25.27,14.34-34.68,15.9-30.61,5.05-23,24.24-19.5,33.23,9.1,23.68-7.3,36.59-15.9,44.8-22.93,21.87,2.89,40.45,2.89,40.45,18.79,15.18,13,41.19,13,41.19-5.06,33.95,14.41,35.14,25.28,35.4,23.12.55,32.39,16.86,36.85,27.45,7.71,18.32,23.54,15.25,32.51,15.17,29.84-.25,36.12,30.35,36.12,30.35,10.12,28.9,8.11,53.73,5.78,71.52-2.37,18.14,6.51,31.79,15.9,31.79,23.83,0,16.66-26.37,13.73-35.4-5-15.21-5.63-28.61-5.78-38.29-.4-25.29,6.53-34.42,15.89-34,13.31.66,11.33,25.91,9.39,34.68-4.93,22.31,4.34,23.84,4.34,23.84,7.22,2.17,11.68-3,13-5.78,11.7-24.59-.94-50-2.89-66.47-3.72-31.57,18.94-31,29.62-35.4C726.8,704.51,717,655.54,717,655.54a41.22,41.22,0,0,1,13.72-35.41C753.81,594.13,727.8,572.45,727.8,572.45ZM592,636a39,39,0,1,1,39-39A39,39,0,0,1,592,636Z" fill="#f582ae"/><path d="M620.88,876c-4.2,0-8.37-2.11-11.73-5.94-6-6.81-8.64-17.74-7.14-29.24,2.54-19.45,3.86-43-5.64-70.14l-.1-.39c-.24-1.14-6.16-27.95-32.83-27.95h-.33c-1,0-2.07.06-3.21.11-9.15.38-24.45,1-32.1-17.12-4.52-10.75-13-25.11-34.15-25.61-5.73-.14-16.4-.39-23.12-8.38-5.49-6.52-7.14-16.49-5.06-30.47l0-.21c.05-.23,5.1-24.35-11.91-38.15-1.15-.85-12.6-9.59-13.49-22.46-.55-7.88,2.94-15.46,10.36-22.54.6-.58,1.25-1.18,1.91-1.8,8.87-8.27,21-19.6,13.26-39.75l-.09-.23c-2.29-5.94-6.11-15.88-1.15-24.55,3.65-6.36,11.4-10.57,23.05-12.49l2.68-.42c9.41-1.45,23.62-3.64,29.92-14.07.87-1.43,1.83-3.3,2.86-5.29,4.65-9,11-21.37,22.77-23.52,2.19-.76,13.09-3.75,32.31,4.49l.32.16c.6.34,15.08,8.4,30.28,0l1.24-.69c6.9-3.87,17.33-9.71,28.63-6.16,9.06,2.85,16.71,11,23.41,24.78,5.55,11.47,14.32,17.06,26.81,17.1,1.6-.12,14.29-.66,23.57,8.61,7.36,7.36,10.44,18.69,9.15,33.66l-.07.42c0,.2-4.44,20.14,8.48,32.49,1.18,1,12.29,10.86,13.38,25.38.68,9.18-2.77,18.1-10.25,26.53l-.19.21-.22.17c-.59.46-14.49,11.6-12.59,32.6.73,3.73,9.38,51.61-20.62,63.89a61.26,61.26,0,0,1-6.75,2.13c-11.16,3.08-23.81,6.58-21,30.14a118.48,118.48,0,0,0,3,14.11c3.89,15.51,8.74,34.82-.38,54-1.77,3.72-7.47,10-16.45,7.4a9,9,0,0,1-5.25-3.93c-3.23-4.78-3.66-12.67-1.28-23.47,1.79-8.09,2.36-22.77-2.08-28.59a5.72,5.72,0,0,0-4.53-2.44,8,8,0,0,0-6.33,2.32c-3.08,3-6.7,10.36-6.41,28.59.16,10.44,1,23,5.63,37.41,3.28,10.08,5.9,23.86-.22,32.29C633.84,873.63,628.34,876,620.88,876ZM602.09,768.85c9.86,28.26,8.5,52.63,5.87,72.75-1.51,11.56,1.95,20.23,5.69,24.5,2.21,2.51,4.78,3.9,7.23,3.9,5.51,0,9.27-1.49,11.5-4.57,3.62-5,3.4-14.53-.63-26.9-4.92-15.13-5.75-28.29-5.92-39.18-.26-16.36,2.51-27.46,8.24-33a14.07,14.07,0,0,1,10.8-4,11.77,11.77,0,0,1,9,4.79c6.73,8.82,4.57,27.19,3.17,33.53-3.3,15,.22,19.63,2,20.24h.29l0,.07c6.44,1.93,9.31-3.94,9.43-4.2,8.2-17.23,3.64-35.38,0-50A125.31,125.31,0,0,1,665.58,752c-3.38-28.68,13.94-33.47,25.39-36.63a61.07,61.07,0,0,0,6.08-1.9c26-10.64,17.07-56.86,17-57.33l0-.3c-2.17-23.18,12.47-36.09,14.64-37.87,6.24-7.09,9.13-14.44,8.59-21.85-.91-12.46-11.23-21.26-11.33-21.35l-.14-.12c-14.88-14.13-10.85-35.45-10.3-38,1.09-13-1.4-22.63-7.39-28.66-7.69-7.73-18.89-6.92-19-6.91h-.25c-14.87,0-25.74-6.89-32.32-20.48-5.85-12.09-12.52-19.38-19.81-21.67-8.83-2.78-17.54,2.1-23.9,5.66l-1.26.71c-17.48,9.69-34,1.16-36,.07-18.42-7.86-27.78-4.3-27.87-4.26l-.3.12-.35.07c-9,1.5-14.61,12.42-18.72,20.4-1.07,2.08-2.08,4-3,5.65-7.76,12.83-24.28,15.37-34.15,16.89-.92.14-1.79.27-2.61.41-9.78,1.61-16.12,4.83-18.82,9.55-3.55,6.19-.49,14.15,1.54,19.42l.09.23c9.19,23.92-5.8,37.92-14.76,46.28l-1.87,1.76c-6.06,5.78-8.92,11.75-8.52,17.75.7,10.44,11,18,11.1,18.1l.13.1c19.55,15.8,14.54,41.84,14.07,44.05-1.77,12-.51,20.58,3.73,25.63,4.6,5.45,12.05,6.08,18.67,6.24,18.5.44,31.43,10,39.54,29.29,6,14.31,17.27,13.83,26.31,13.44,1.22-.05,2.36-.1,3.42-.11h.38C593.64,736.34,601.4,765.92,602.09,768.85ZM592,639a42,42,0,1,1,42-42A42.06,42.06,0,0,1,592,639Zm0-78a36,36,0,1,0,36,36A36.05,36.05,0,0,0,592,561Z" fill="#4f3cc9"/><rect x="630.99" y="529.82" width="9.39" height="28.18" rx="4.7" fill="#fff"/><path d="M635.69,560a6.7,6.7,0,0,1-6.7-6.69V534.52a6.7,6.7,0,1,1,13.4,0v18.79A6.7,6.7,0,0,1,635.69,560Zm0-28.18a2.7,2.7,0,0,0-2.7,2.7v18.79a2.7,2.7,0,0,0,5.4,0V534.52A2.7,2.7,0,0,0,635.69,531.82Z" fill="#4f3cc9"/><rect x="570.31" y="512.49" width="9.39" height="28.18" rx="4.7" transform="translate(-204.32 550.42) rotate(-44.24)" fill="#fff"/><path d="M581.56,540h-.1a6.63,6.63,0,0,1-4.7-2l-13.11-13.45a6.7,6.7,0,0,1,9.6-9.35l13.1,13.46A6.7,6.7,0,0,1,581.56,540Zm-13.11-22.85a2.69,2.69,0,0,0-1.88.76h0a2.69,2.69,0,0,0-.05,3.82l13.1,13.45a2.7,2.7,0,0,0,3.87-3.76L570.38,518a2.68,2.68,0,0,0-1.89-.81Z" fill="#4f3cc9"/><rect x="507.45" y="536.33" width="28.18" height="9.39" rx="4.7" transform="translate(-215.24 688.91) rotate(-57.4)" fill="#77e0b5"/><path d="M516.47,555.63a6.68,6.68,0,0,1-6.53-5.26,6.59,6.59,0,0,1,.9-5L521,529.5a6.7,6.7,0,0,1,9.25-2h0a6.7,6.7,0,0,1,2,9.25l-10.12,15.82A6.69,6.69,0,0,1,516.47,555.63Zm10.13-25.21a2.66,2.66,0,0,0-2.27,1.24l-10.12,15.82a2.71,2.71,0,0,0,.82,3.73,2.7,2.7,0,0,0,3.72-.82l10.12-15.83a2.7,2.7,0,0,0-.82-3.72h0A2.65,2.65,0,0,0,526.6,530.42Z" fill="#4f3cc9"/><rect x="511.79" y="609.3" width="28.18" height="9.39" rx="4.7" transform="translate(-191.78 241.83) rotate(-22.01)" fill="#fff"/><path d="M517.17,624.21a6.81,6.81,0,0,1-2.62-.53,6.7,6.7,0,0,1,.11-12.37l17.41-7a6.7,6.7,0,0,1,8.72,3.69h0a6.71,6.71,0,0,1-3.7,8.72l-17.41,7A6.71,6.71,0,0,1,517.17,624.21Zm17.41-16.43a2.74,2.74,0,0,0-1,.19l-17.41,7a2.7,2.7,0,0,0-1.49,3.51,2.69,2.69,0,0,0,3.51,1.49l17.41-7a2.69,2.69,0,0,0,1.49-3.51h0A2.69,2.69,0,0,0,534.58,607.78Z" fill="#4f3cc9"/><rect x="499.5" y="664.21" width="28.18" height="9.39" rx="4.7" transform="translate(-298.29 440.76) rotate(-36.79)" fill="#77e0b5"/><path d="M506.08,681.22a6.42,6.42,0,0,1-1-.07,6.62,6.62,0,0,1-4.4-2.61,6.7,6.7,0,0,1,1.35-9.38l15-11.25a6.71,6.71,0,0,1,9.38,1.36,6.7,6.7,0,0,1-1.36,9.37l-15,11.25A6.67,6.67,0,0,1,506.08,681.22Zm15-20.64a2.69,2.69,0,0,0-1.61.54l-15,11.25a2.66,2.66,0,0,0-1.06,1.77,2.7,2.7,0,0,0,.51,2,2.71,2.71,0,0,0,3.77.55l15.05-11.25a2.71,2.71,0,0,0,.54-3.78,2.68,2.68,0,0,0-1.77-1Z" fill="#4f3cc9"/><rect x="574.64" y="653.37" width="9.39" height="28.18" rx="4.7" transform="translate(-41.3 38.22) rotate(-3.65)" fill="#77e0b5"/><path d="M579.92,683.53a6.7,6.7,0,0,1-6.67-6.27l-1.19-18.75a6.69,6.69,0,0,1,13.36-.85l1.2,18.74a6.67,6.67,0,0,1-1.66,4.85,6.6,6.6,0,0,1-4.6,2.26Zm-1.18-28.14h-.17a2.72,2.72,0,0,0-1.86.91,2.68,2.68,0,0,0-.66,2L577.24,677a2.7,2.7,0,0,0,2.87,2.52,2.72,2.72,0,0,0,1.85-.91,2.67,2.67,0,0,0,.66-2l-1.19-18.75a2.69,2.69,0,0,0-2.69-2.52Z" fill="#4f3cc9"/><rect x="554.41" y="690.94" width="9.39" height="28.18" rx="4.7" transform="translate(-340.7 707.04) rotate(-51.71)" fill="#fff"/><path d="M566.47,717.54a6.66,6.66,0,0,1-4.14-1.44l-14.74-11.64a6.67,6.67,0,0,1-1.11-9.4h0a6.7,6.7,0,0,1,9.4-1.11l14.75,11.64a6.7,6.7,0,0,1-4.16,11.95Zm-14.73-21-.32,0a2.69,2.69,0,0,0-1.8,1h0a2.71,2.71,0,0,0,.44,3.79L564.81,713a2.69,2.69,0,1,0,3.34-4.23l-14.74-11.64A2.69,2.69,0,0,0,551.74,696.51Z" fill="#4f3cc9"/><rect x="649.78" y="662.76" width="28.18" height="9.39" rx="4.7" transform="translate(-268.69 796.14) rotate(-53.01)" fill="#fff"/><path d="M658.2,681.66a6.69,6.69,0,0,1-5.33-10.73l11.3-15a6.7,6.7,0,0,1,10.7,8.05l-11.31,15a6.62,6.62,0,0,1-4.41,2.6A7.59,7.59,0,0,1,658.2,681.66Zm11.32-24.4-.38,0a2.73,2.73,0,0,0-1.78,1.05l-11.3,15a2.68,2.68,0,0,0-.52,2,2.71,2.71,0,0,0,3.05,2.3,2.67,2.67,0,0,0,1.78-1l11.3-15a2.7,2.7,0,0,0-.53-3.78A2.65,2.65,0,0,0,669.52,657.26Z" fill="#4f3cc9"/><rect x="633.88" y="621.58" width="28.18" height="9.39" rx="4.7" transform="translate(-163.61 1017.96) rotate(-69.79)" fill="#77e0b5"/><path d="M644.73,641.79a6.7,6.7,0,0,1-6.29-9l6.49-17.63a6.7,6.7,0,1,1,12.57,4.62L651,637.4a6.71,6.71,0,0,1-6.28,4.39Zm6.48-27a2.76,2.76,0,0,0-1.12.25,2.68,2.68,0,0,0-1.4,1.52l-6.49,17.63a2.7,2.7,0,1,0,5.06,1.86l6.49-17.63a2.71,2.71,0,0,0-1.6-3.46h0A2.79,2.79,0,0,0,651.21,614.76Z" fill="#4f3cc9"/><rect x="688.79" y="589.07" width="9.39" height="28.18" rx="4.7" transform="translate(-172.95 909.75) rotate(-60.5)" fill="#fff"/><path d="M701.65,614.48a6.64,6.64,0,0,1-3.29-.87L682,604.36a6.71,6.71,0,0,1-2.54-9.13h0a6.71,6.71,0,0,1,9.13-2.53L705,602a6.71,6.71,0,0,1,2.53,9.13A6.71,6.71,0,0,1,701.65,614.48ZM683,597.2a2.69,2.69,0,0,0,1,3.68l16.34,9.25a2.7,2.7,0,0,0,2.66-4.7l-16.35-9.25a2.69,2.69,0,0,0-3.67,1Z" fill="#4f3cc9"/><rect x="635.33" y="697.44" width="9.39" height="28.18" rx="4.7" transform="translate(-297.89 521.21) rotate(-36.56)" fill="#77e0b5"/><path d="M645.63,725.77a6.82,6.82,0,0,1-5.39-2.71L629.05,708a6.71,6.71,0,0,1,1.39-9.37h0a6.72,6.72,0,0,1,9.37,1.39L651,715.08a6.7,6.7,0,0,1-5.37,10.69Zm-12.81-23.95a2.7,2.7,0,0,0-.56,3.77l11.19,15.09a2.7,2.7,0,1,0,4.33-3.21L636.6,702.38a2.7,2.7,0,0,0-3.78-.56Z" fill="#4f3cc9"/><rect x="480" y="581.84" width="9.39" height="28.18" rx="4.7" transform="translate(-13.92 11.59) rotate(-1.35)" fill="#fff"/><path d="M484.91,612a6.69,6.69,0,0,1-6.69-6.54l-.44-18.78a6.69,6.69,0,0,1,6.53-6.85h0a6.71,6.71,0,0,1,6.86,6.53l.44,18.78a6.71,6.71,0,0,1-6.54,6.86Zm-.5-28.17a2.69,2.69,0,0,0-2.63,2.76l.44,18.77a2.7,2.7,0,0,0,.83,1.89,2.7,2.7,0,0,0,4.56-2l-.44-18.78a2.71,2.71,0,0,0-.84-1.89,2.61,2.61,0,0,0-1.92-.74Z" fill="#4f3cc9"/><rect x="604.98" y="483.59" width="9.39" height="28.18" rx="4.7" transform="translate(-142.27 729.97) rotate(-56.39)" fill="#77e0b5"/><path d="M617.49,509.57a6.61,6.61,0,0,1-3.69-1.12l-15.65-10.4a6.69,6.69,0,0,1-1.87-9.28h0a6.69,6.69,0,0,1,9.28-1.87l15.65,10.4a6.7,6.7,0,0,1-2.38,12.14A6.83,6.83,0,0,1,617.49,509.57Zm-15.63-19.79a2.7,2.7,0,0,0-2.25,1.2h0a2.64,2.64,0,0,0-.39,2,2.68,2.68,0,0,0,1.15,1.71L616,505.12a2.68,2.68,0,0,0,2,.4,2.7,2.7,0,0,0,1-4.89l-15.65-10.4A2.71,2.71,0,0,0,601.86,489.78Z" fill="#4f3cc9"/><rect x="667.12" y="533.44" width="28.18" height="9.39" rx="4.7" transform="translate(-115.76 882.34) rotate(-61.67)" fill="#77e0b5"/><path d="M676.74,553.1a6.59,6.59,0,0,1-3.17-.81,6.7,6.7,0,0,1-2.72-9.07l8.92-16.53a6.7,6.7,0,0,1,9.07-2.72h0a6.71,6.71,0,0,1,2.72,9.07l-8.92,16.54a6.65,6.65,0,0,1-4,3.23A6.46,6.46,0,0,1,676.74,553.1Zm8.93-25.93a3,3,0,0,0-.78.11,2.67,2.67,0,0,0-1.6,1.31l-8.92,16.53a2.7,2.7,0,0,0,1.1,3.65,2.7,2.7,0,0,0,3.65-1.09L688,531.15a2.71,2.71,0,0,0-1.1-3.66h0A2.72,2.72,0,0,0,685.67,527.17Z" fill="#4f3cc9"/><polygon points="733.59 438.07 750.92 446.74 745.87 459.75 730.7 444.57 733.59 438.07" fill="#4f3cc9"/><polygon points="789.83 477.36 797.05 482.42 793.44 488.92 782.6 485.31 789.83 477.36" fill="#4f3cc9"/><polygon points="800.05 552.22 800.05 563.78 811.61 558 800.05 552.22" fill="#4f3cc9"/><path d="M818.11,502.37s14.89,3.63,11.56,6.5C820.39,516.89,815.22,513.21,818.11,502.37Z" fill="#4f3cc9"/></svg>