<svg xmlns="http://www.w3.org/2000/svg" width="1200" height="1200" viewBox="0 0 1200 1200"><ellipse cx="868.02" cy="941.46" rx="75.98" ry="17.37" fill="#4f3cc9"/><ellipse cx="526.67" cy="932.24" rx="257.78" ry="28.76" fill="#4f3cc9"/><path d="M880.35,535.57l-10.63-2.32-2.42-10.61a.82.82,0,0,0-.8-.64.84.84,0,0,0-.81.64l-2.42,10.66-10.63,2.52a.84.84,0,0,0-.64.82.81.81,0,0,0,.65.79l10.63,2.32,2.41,10.61a.84.84,0,0,0,.81.64.82.82,0,0,0,.8-.64l2.43-10.66,10.63-2.52a.82.82,0,0,0,0-1.61Z" fill="#4f3cc9"/><path d="M369.35,512.57l-10.63-2.32-2.42-10.61a.82.82,0,0,0-.8-.64.84.84,0,0,0-.81.64l-2.42,10.66-10.63,2.52a.84.84,0,0,0-.64.82.81.81,0,0,0,.65.79l10.63,2.32,2.41,10.61a.84.84,0,0,0,.81.64.82.82,0,0,0,.8-.64l2.43-10.66,10.63-2.52a.82.82,0,0,0,0-1.61Z" fill="#4f3cc9"/><path d="M826.66,493l-5.5-1.2-1.24-5.49a.43.43,0,0,0-.84,0l-1.25,5.52-5.5,1.3a.43.43,0,0,0-.33.42.42.42,0,0,0,.34.41l5.5,1.2,1.24,5.49a.43.43,0,0,0,.84,0l1.25-5.52,5.5-1.3a.44.44,0,0,0,.33-.42A.42.42,0,0,0,826.66,493Z" fill="#4f3cc9"/><polygon points="475.66 715.16 484.34 682.6 586.37 710.82 614.59 766.17 724.21 783.54 739.4 877.97 475.66 715.16" fill="#4f3cc9"/><path d="M739.41,878c-38,52.1-72.73,81.4-140,81.4A160.63,160.63,0,0,1,484.33,686.65l39.08,47L616.76,751,645,807.42l49.92-8.68Z" fill="#77e0b5"/><path d="M599.39,962.37c-90.23,0-163.64-73.41-163.64-163.63a162.76,162.76,0,0,1,46.43-114.19l2.32-2.38L525,730.86l93.74,17.44,27.89,55.78,49.82-8.66L743,878.18l-1.13,1.56C703.67,932.07,668.13,962.37,599.39,962.37ZM484.18,691.15a156.7,156.7,0,0,0-42.43,107.59c0,86.92,70.72,157.63,157.64,157.63,65.51,0,99.86-28.8,136.45-78.62l-42.51-75.7-50,8.71-28.55-57.1-92.94-17.3Z" fill="#4f3cc9"/><polygon points="504.96 528.48 442.01 622.9 502.79 630.5 575.51 584.91 592.88 602.28 647.15 588.17 719.87 626.16 762.2 622.9 689.48 526.3 504.96 528.48" fill="#4f3cc9"/><path d="M690.56,461.72c-17.42-32.37-23.36-68.54-26.34-88.07a17.72,17.72,0,0,0-17.53-15H558.07a17.73,17.73,0,0,0-17.54,15c-3,19.53-8.92,55.7-26.34,88.07-19.78,36.75-62.41,105.83-67.84,152.5l69.47-70.55,60.78,47.76,14.11-8.69,52.1,31.48,46.67-68.38,68.92,68.38C753,567.55,710.34,498.47,690.56,461.72Z" fill="#77e0b5"/><path d="M442.36,622.55l1-8.68c4.62-39.7,34.92-93.88,57-133.44,4.09-7.3,7.94-14.2,11.14-20.13,17.76-33,23.54-70.92,26-87.1a20.62,20.62,0,0,1,20.51-17.59h88.62a20.61,20.61,0,0,1,20.5,17.59c2.47,16.18,8.25,54.09,26,87.1h0c3.2,5.93,7,12.83,11.14,20.13,22.12,39.56,52.42,93.74,57,133.44l1,8.51-72.45-71.87-46.24,67.74-53-32-14.33,8.82-60.32-47.39Zm148.33-43.32,51.24,30.95,47.1-69,65,64.45c-7.52-37.56-34.66-86.09-54.89-122.26-4.1-7.32-8-14.24-11.18-20.21h0c-18.26-33.93-24.15-72.55-26.66-89a14.64,14.64,0,0,0-14.57-12.49H558.07a14.65,14.65,0,0,0-14.58,12.49c-2.51,16.5-8.4,55.12-26.66,89-3.22,6-7.08,12.89-11.18,20.21-20.19,36.11-47.28,84.53-54.85,122.06l64.76-65.77,61.25,48.13Z" fill="#4f3cc9"/><path d="M598.71,685.57l-.81-5.94a48.28,48.28,0,0,0,27.62-13.2q-2.19-.73-4.47-1.68c-5.54-2.27-16.26-9-17.21-18.16-.61-5.92,2.81-11.44,10.15-16.4,5.25-3.55,15.17-3.7,21,1.76,4.73,4.42,8.14,13.28-.37,30.75C646,665,654,662.63,659,659.8c8.41-4.66,12.43-12.29,13.38-17.87.13-.78.26-1.55.36-2.31l-.9.27c-5.73,1.68-22,1.35-27.48-6.93-3.59-5.42-2-12.36,4.78-20.64,3.77-4.61,12-7.41,19.27-4.11,4.37,2,10.7,7.36,11,21.82a24.25,24.25,0,0,0,9.43-11c7.87-18.47-5.73-45.53-6.35-46.75-1.84-3.24-35.82-63.23-45.68-84.84-14.05-30.78-20.61-137.63-20.89-142.17l6-.35c.07,1.09,6.77,110.26,20.36,140,9.81,21.5,45.11,83.8,45.47,84.43l0,.09c.64,1.23,15.68,30.52,6.58,51.91a30.76,30.76,0,0,1-15.26,15.76c-.18,1.84-.44,3.79-.8,5.85-1.18,7-6.11,16.41-16.38,22.11-6.29,3.49-16.26,6.42-30.24,3.15l-.41.71-.28.4C630.56,669.86,619.71,682.73,598.71,685.57Zm24.57-51.9a11.15,11.15,0,0,0-5.93,1.49c-5.37,3.62-7.9,7.26-7.54,10.82.57,5.53,8.25,11.06,13.51,13.22q2.77,1.14,5.36,1.95c5.89-11.69,6.73-20.6,2.21-24.82A11.13,11.13,0,0,0,623.28,633.67Zm38.44-20.89a10.53,10.53,0,0,0-7.91,3.34c-3.37,4.13-6.88,9.82-4.42,13.53,3.34,5,15.82,5.94,20.79,4.48,1.11-.32,2.17-.68,3.2-1.07.38-10.11-2.19-17-7.42-19.39A10.35,10.35,0,0,0,661.72,612.78Z" fill="#f582ae"/><path d="M525.1,679.16c-9.75,0-16.37-3-19.67-9-5.2-9.39.17-22.44,3.59-27.29a44.86,44.86,0,0,1,10.41-10.83c-.49-.57-1-1.14-1.52-1.73l-.1-.13c-.81-1-19.54-25.12-7.94-48.77,5.82-11.88,16.25-28.32,26.33-44.21,13.31-21,27.06-42.66,28.77-51.63,6.52-34.34,16.14-139.75,16.24-140.81l6,.55c-.09,1.06-9.74,106.76-16.32,141.38-1.92,10.1-15.36,31.29-29.59,53.72-10,15.76-20.33,32.05-26,43.64-9.7,19.8,6.27,41.12,7.22,42.35q1.15,1.3,2.25,2.58a27.5,27.5,0,0,1,10.12-2.42c18.91-.86,34.7,17.49,35.36,18.27l-4.57,3.89c-.14-.17-14.59-16.91-30.54-16.17a21.22,21.22,0,0,0-6.34,1.28c13.09,16.3,17.8,28.27,14.38,36.46-2.2,5.25-7.6,8.37-15.21,8.78C527,679.13,526,679.16,525.1,679.16Zm-1.78-42.49a38.26,38.26,0,0,0-9.39,9.67c-2.81,4-6.79,14.55-3.26,20.92,2.41,4.35,8.1,6.31,16.92,5.83,3-.16,8.31-1,10-5.1C539.07,664.44,538.9,655.82,523.32,636.67Z" fill="#f582ae"/><path d="M633,285v-1.1A31.92,31.92,0,0,0,601.1,252h0a31.93,31.93,0,0,0-31.93,31.93V285Z" fill="#4f3cc9"/><rect x="537.71" y="276.66" width="126.77" height="77.73" fill="#4f3cc9"/><rect x="529.38" y="336.81" width="144.36" height="25.06" rx="12.53" fill="#fff"/><path d="M661.21,364.87H541.91a15.53,15.53,0,1,1,0-31.06h119.3a15.53,15.53,0,0,1,0,31.06Zm-119.3-25.06a9.53,9.53,0,1,0,0,19.06h119.3a9.55,9.55,0,0,0,9.53-9.53h0a9.54,9.54,0,0,0-9.53-9.53Z" fill="#4f3cc9"/><rect x="529.38" y="304.42" width="144.36" height="25.06" rx="12.53" fill="#fff"/><path d="M661.21,332.48H541.91a15.53,15.53,0,1,1,0-31.06h119.3a15.53,15.53,0,0,1,0,31.06Zm-119.3-25.06a9.53,9.53,0,1,0,0,19.06h119.3a9.53,9.53,0,0,0,0-19.06Z" fill="#4f3cc9"/><rect x="529.38" y="272.03" width="144.36" height="25.06" rx="12.53" fill="#fff"/><path d="M661.21,300.09H541.91a15.53,15.53,0,1,1,0-31.06h119.3a15.53,15.53,0,0,1,0,31.06ZM541.91,275a9.53,9.53,0,1,0,0,19.06h119.3a9.53,9.53,0,0,0,0-19.06Z" fill="#4f3cc9"/><path d="M406.75,676.5q4.23-3.74,11.31-3.35t17.52,3.93q10.44,3.55,16,7.85t6.57,10a26.3,26.3,0,0,1,.16,9.85,105.69,105.69,0,0,1-3.45,11.77L392.09,900.78q-4.39,12.91-9.63,18a16.46,16.46,0,0,1-12.38,4.84,58.44,58.44,0,0,1-16.74-3.48q-9.61-3.29-14.68-6.85a27.77,27.77,0,0,1-7.26-6.91,13.61,13.61,0,0,1-2-8.1q-.08-6.3,3.88-17.9L347,839.93l-89.79-30.59q-23.19-7.9-23.21-22,.15-5.86,3.2-14.81t5.51-12.91L308,658q4.59-6.94,7.43-10.41A19.68,19.68,0,0,1,324,642q5.72-2.12,12.68.25a60.56,60.56,0,0,1,14.45,7.51q21,14.21,16,29.11A59.42,59.42,0,0,1,360,692a3,3,0,0,0-.67.88l-47.75,74,54,18.4,30.81-90.45a96.9,96.9,0,0,1,4.34-11.1A25.06,25.06,0,0,1,406.75,676.5Z" fill="#fff"/><path d="M370.66,926.61H370A62,62,0,0,1,352.37,923c-6.76-2.31-11.81-4.67-15.44-7.24a30.18,30.18,0,0,1-8-7.72,16.54,16.54,0,0,1-2.54-9.77c0-4.58,1.28-10.75,4-18.84l12.8-37.58-86.95-29.63c-16.74-5.7-25.23-14-25.24-24.79.1-4.32,1.2-9.46,3.36-15.79s4-10.66,5.8-13.52L305.5,656.41c3.17-4.8,5.66-8.29,7.63-10.7a22.69,22.69,0,0,1,9.84-6.49c4.46-1.66,9.4-1.58,14.68.22a63.5,63.5,0,0,1,15.18,7.88c15.21,10.26,21,21.21,17.11,32.55-1.29,3.8-3.72,8.33-7.4,13.82l-.17.26-.22.21,0,.05h0l-45.87,71,47.53,16.2,29.84-87.62a98.82,98.82,0,0,1,4.5-11.47,27.59,27.59,0,0,1,6.66-8.12c3.42-3,7.95-4.39,13.46-4.1,5,.27,11.16,1.65,18.33,4.09s12.9,5.26,16.86,8.32c4.3,3.33,6.88,7.31,7.7,11.85a29.57,29.57,0,0,1,.14,11,109.52,109.52,0,0,1-3.55,12.13L394.93,901.75c-3.12,9.15-6.51,15.42-10.39,19.17A19.41,19.41,0,0,1,370.66,926.61ZM329.7,644a13.43,13.43,0,0,0-4.65.82,16.91,16.91,0,0,0-7.28,4.68c-1.82,2.22-4.25,5.63-7.24,10.16l-65.3,101.6A65.78,65.78,0,0,0,240,773.54c-1.93,5.66-2.95,10.34-3,13.92,0,7.82,7.13,14.26,21.18,19l92.63,31.56-14.74,43.26c-2.51,7.38-3.76,13.06-3.72,16.91v.13a10.65,10.65,0,0,0,1.55,6.35,24.82,24.82,0,0,0,6.49,6.1c3.11,2.21,7.8,4.38,13.91,6.47a56.08,56.08,0,0,0,15.87,3.32,13.5,13.5,0,0,0,10.2-4c3.13-3,6.12-8.67,8.88-16.79L452,715.59a103.72,103.72,0,0,0,3.35-11.4,23.77,23.77,0,0,0-.17-8.73c-.55-3.06-2.33-5.73-5.46-8.15-3.43-2.65-8.52-5.14-15.13-7.39s-12.27-3.54-16.71-3.78c-3.94-.22-6.94.65-9.17,2.61h0a22.16,22.16,0,0,0-5.27,6.31,95.08,95.08,0,0,0-4.18,10.72L367.5,789.07,307,768.46l49.71-77a5.77,5.77,0,0,1,1-1.34,57.06,57.06,0,0,0,6.57-12.2c2.91-8.57-1.93-17-14.81-25.65a57.51,57.51,0,0,0-13.74-7.16A18.73,18.73,0,0,0,329.7,644Z" fill="#4f3cc9"/><path d="M838.5,696.49q2.18-5.21,8.72-8t17.48-4.08q10.95-1.35,17.83.1t10.27,6.14a26.37,26.37,0,0,1,4.43,8.81,107.15,107.15,0,0,1,2,12.09L923,904.77q1.66,13.54-.85,20.38a16.41,16.41,0,0,1-9,9.75,58.52,58.52,0,0,1-16.59,4.15q-10.08,1.25-16.2.23a27.39,27.39,0,0,1-9.54-3.06,13.61,13.61,0,0,1-5.37-6.4q-2.8-5.64-4.3-17.81l-5.21-42.38-94.15,11.56q-24.32,3-30.46-9.66-2.41-5.34-3.57-14.73c-.76-6.25-1-10.93-.66-14l14.55-119.92q1.09-8.25,2.15-12.61a19.64,19.64,0,0,1,5.27-8.76q4.23-4.4,11.52-5.29a60,60,0,0,1,16.28.47q25.13,3.62,27.05,19.25a59.4,59.4,0,0,1-.64,14.89,2.56,2.56,0,0,0-.22,1.08l-10.78,87.38,56.63-7-11.65-94.84a99,99,0,0,1-.93-11.88A25,25,0,0,1,838.5,696.49Z" fill="#fff"/><path d="M886.6,942.74a42.05,42.05,0,0,1-6.8-.5,30,30,0,0,1-10.59-3.45,16.5,16.5,0,0,1-6.54-7.69c-2-4.1-3.53-10.23-4.57-18.72L853.26,873l-91.17,11.2c-17.56,2.15-28.84-1.66-33.53-11.34-1.78-3.93-3-9-3.84-15.67s-1-11.34-.67-14.7l14.55-120a130.45,130.45,0,0,1,2.22-13,22.56,22.56,0,0,1,6-10.14c3.3-3.43,7.78-5.51,13.32-6.19a63.51,63.51,0,0,1,17.09.48c18.16,2.62,28.12,10,29.58,21.85.49,4,.28,9.12-.65,15.68l0,.3-.1.28,0,.07h0l-10.36,83.93,49.84-6.12-11.28-91.87a101.31,101.31,0,0,1-1-12.28,27.59,27.59,0,0,1,2.47-10.21h0c1.76-4.2,5.24-7.42,10.33-9.55,4.61-1.93,10.75-3.38,18.28-4.3s13.91-.88,18.8.14c5.32,1.13,9.38,3.59,12.09,7.32a29.69,29.69,0,0,1,4.91,9.83,106.23,106.23,0,0,1,2.08,12.47L925.94,904.4c1.18,9.6.85,16.73-1,21.79a19.45,19.45,0,0,1-10.62,11.45A61.75,61.75,0,0,1,896.85,942,85.25,85.25,0,0,1,886.6,942.74Zm-28.11-76.45,5.56,45.36c1,7.73,2.3,13.4,4,16.84l.06.11a10.62,10.62,0,0,0,4.16,5,25,25,0,0,0,8.5,2.68c3.77.63,8.93.54,15.34-.24a56.29,56.29,0,0,0,15.74-3.92,13.45,13.45,0,0,0,7.44-8c1.5-4.09,1.73-10.47.68-19L896.27,712a103.79,103.79,0,0,0-1.95-11.73,23.6,23.6,0,0,0-4-7.78c-1.83-2.52-4.6-4.15-8.47-5-4.24-.88-9.91-.91-16.83-.06s-12.59,2.16-16.69,3.88c-3.64,1.53-6,3.6-7.12,6.34h0a22.11,22.11,0,0,0-2,8,94.39,94.39,0,0,0,.91,11.47l12,97.83-63.42,7.78,11.23-91a5.45,5.45,0,0,1,.29-1.63,56.06,56.06,0,0,0,.59-13.84c-1.1-9-9.11-14.43-24.5-16.64a57,57,0,0,0-15.48-.46c-4.2.51-7.38,2-9.72,4.39a16.8,16.8,0,0,0-4.52,7.38c-.67,2.79-1.38,6.93-2.1,12.31L730,843.14a65,65,0,0,0,.66,13.29c.73,5.94,1.85,10.6,3.33,13.86,3.41,7,12.63,9.73,27.36,7.92ZM806,732Z" fill="#4f3cc9"/></svg>