<svg xmlns="http://www.w3.org/2000/svg" width="1200" height="1200" viewBox="0 0 1200 1200"><circle cx="461.48" cy="490.5" r="104" fill="#fff"/><path d="M461.48,597.5a107,107,0,1,1,107-107A107.12,107.12,0,0,1,461.48,597.5Zm0-208a101,101,0,1,0,101,101A101.11,101.11,0,0,0,461.48,389.5Z" fill="#4f3cc9"/><path d="M605.83,609.06l15-17.6L614,585.62l-15,17.53L468.53,489.51a5,5,0,0,0-6.57,7.54l92.87,80.87L383.71,641.06a3.72,3.72,0,0,0-2,1.71l-.09,0-.15.54a4,4,0,0,0-.16.59L345.76,770.25a5.35,5.35,0,0,0,6,6.61l159.85-25.51,36.71,29.55,6.27-7.8-35.49-28.56,61.26-144.38,21,18.33A5,5,0,1,0,608,611ZM365.27,764.58a5.34,5.34,0,0,1-6-6.61l29.91-105.18,112,90.11ZM511,738,402.66,650.81a3.78,3.78,0,0,1,1.06-6.48L563.43,585.4l9,7.85Z" fill="#4f3cc9"/><path d="M348.48,879.5a107,107,0,1,1,107-107A107.12,107.12,0,0,1,348.48,879.5Zm0-208a101,101,0,1,0,101,101A101.11,101.11,0,0,0,348.48,671.5Z" fill="#4f3cc9"/><path d="M391.48,674a31,31,0,1,1,31-31A31,31,0,0,1,391.48,674Zm0-56a25,25,0,1,0,25,25A25,25,0,0,0,391.48,618Z" fill="#4f3cc9"/><rect x="327.48" y="636" width="36" height="6" fill="#4f3cc9"/><rect x="322.48" y="622" width="7.52" height="34" fill="#4f3cc9"/><path d="M381.45,495.41l-5.95-.82c5.86-42,29.67-63.62,48.62-74.33A106.86,106.86,0,0,1,464.24,407l.48,6-.24-3,.24,3a102.65,102.65,0,0,0-37.85,12.61C401.15,440.23,385.86,463.71,381.45,495.41Z" fill="#4f3cc9"/><path d="M419.41,486.64l-5.86-1.28c7.31-33.45,37-41,38.22-41.28l1.41,5.84-.7-2.92.71,2.92A48.39,48.39,0,0,0,419.41,486.64Z" fill="#4f3cc9"/><path d="M460.48,508.5a18,18,0,1,1,18-18A18,18,0,0,1,460.48,508.5Zm0-30a12,12,0,1,0,12,12A12,12,0,0,0,460.48,478.5Z" fill="#4f3cc9"/><path d="M348.48,790.5a18,18,0,1,1,18-18A18,18,0,0,1,348.48,790.5Zm0-30a12,12,0,1,0,12,12A12,12,0,0,0,348.48,760.5Z" fill="#4f3cc9"/><path d="M615.75,594.34,612,591c11.5-13.1,16.25-24.48,14.13-33.81-2.26-10-11.87-14.2-12-14.24l2-4.6c.49.21,12,5.28,14.88,17.73C633.5,567.11,628.37,580,615.75,594.34Z" fill="#4f3cc9"/><path d="M581.49,556.65,572,551.06c.33-.57,8.36-14,23.09-17.61,9-2.21,18.28-.38,27.67,5.44l-5.8,9.35c-6.75-4.19-13.19-5.57-19.15-4.13C587.62,546.59,581.55,556.55,581.49,556.65Z" fill="#f582ae"/><path d="M582.51,560.73l-14.6-8.61,1.52-2.58c.36-.62,9-15.06,25-19,9.78-2.42,19.86-.46,30,5.8l2.55,1.58-9,14.45-2.55-1.58c-6-3.75-11.72-5-16.87-3.76-8.88,2.15-14.42,11.09-14.48,11.18Zm-6.22-10.63,4.34,2.56c2.66-3.44,8.34-9.49,16.49-11.46,6-1.45,12.3-.44,18.84,3l2.64-4.26c-7.79-4.18-15.43-5.38-22.77-3.57C585.85,538.83,579.21,546.19,576.29,550.1Z" fill="#4f3cc9"/><path d="M278.4,363.47q2.58-4.52,8.87-6.29a62.42,62.42,0,0,1,16.45-1.77q10.15,0,16.28,2.09t8.71,6.78a24.14,24.14,0,0,1,3.06,8.54,96.23,96.23,0,0,1,.49,11.29V563.42q0,12.57-3.07,18.54a15.15,15.15,0,0,1-9.35,7.9,53.93,53.93,0,0,1-15.64,1.94q-9.36,0-14.83-1.62a25.31,25.31,0,0,1-8.39-3.87,12.56,12.56,0,0,1-4.19-6.45q-1.94-5.48-1.94-16.77V523.75H187.46q-22.58,0-26.77-12.25a47.9,47.9,0,0,1-1.61-13.87,62.94,62.94,0,0,1,1-12.9l26.77-108q1.94-7.41,3.39-11.29A18,18,0,0,1,196,358a17,17,0,0,1,11.13-3.55A55.12,55.12,0,0,1,222,356.7q22.57,6.12,22.58,20.64a55.09,55.09,0,0,1-2.26,13.54,2.41,2.41,0,0,0-.32,1l-19.67,78.69h52.56v-88a87.68,87.68,0,0,1,.49-11A23,23,0,0,1,278.4,363.47Z" fill="#77e0b5"/><path d="M304.2,594.8c-6.6,0-11.73-.57-15.68-1.74a28,28,0,0,1-9.38-4.38,15.47,15.47,0,0,1-5.2-7.88c-1.4-4-2.09-9.8-2.09-17.71V526.75H187.46c-16.41,0-26.37-4.81-29.61-14.29-1.2-3.82-1.77-8.65-1.77-14.83a64.88,64.88,0,0,1,1-13.58L183.9,376c1.34-5.13,2.48-8.92,3.49-11.62a21.11,21.11,0,0,1,6.72-8.69,20,20,0,0,1,13-4.22,58.77,58.77,0,0,1,15.64,2.37c16.43,4.46,24.77,12.38,24.77,23.53a57.22,57.22,0,0,1-2.36,14.32l-.08.29-.14.27v0l-.08.33-18.74,75h45.72v-85a91.9,91.9,0,0,1,.51-11.37A25.74,25.74,0,0,1,275.8,362h0c2.11-3.7,5.7-6.29,10.65-7.69a65.87,65.87,0,0,1,17.27-1.88c7.06,0,12.87.76,17.25,2.25,4.79,1.65,8.28,4.39,10.37,8.16a27.45,27.45,0,0,1,3.41,9.63,100,100,0,0,1,.51,11.66V563.42c0,9-1.11,15.46-3.4,19.91a18.12,18.12,0,0,1-11.14,9.4A57.1,57.1,0,0,1,304.2,594.8ZM207.13,357.44a14,14,0,0,0-9.23,2.87,15.29,15.29,0,0,0-4.89,6.15c-.93,2.46-2,6.16-3.3,11L163,485.45a60.45,60.45,0,0,0-.88,12.18,45.3,45.3,0,0,0,1.47,13c2.3,6.71,10.35,10.15,23.91,10.15h90.39v42.34c0,7.15.6,12.46,1.77,15.78l0,.12a9.44,9.44,0,0,0,3.16,5,22.37,22.37,0,0,0,7.39,3.36c3.35,1,8.06,1.5,14,1.5A51.12,51.12,0,0,0,319,587a12.18,12.18,0,0,0,7.57-6.4c1.81-3.53,2.73-9.31,2.73-17.17V384.11a97.4,97.4,0,0,0-.46-10.92,21.73,21.73,0,0,0-2.72-7.47c-1.36-2.46-3.67-4.22-7.05-5.38-3.76-1.28-8.91-1.93-15.31-1.93a60.06,60.06,0,0,0-15.64,1.66c-3.43,1-5.75,2.57-7.07,4.89h0a20.22,20.22,0,0,0-2.7,7,87.6,87.6,0,0,0-.46,10.56v91H218.44L239,391.34a5.79,5.79,0,0,1,.46-1.5,51.56,51.56,0,0,0,2.09-12.5c0-8.22-6.66-14-20.36-17.75A52.84,52.84,0,0,0,207.13,357.44Zm37.75,35Z" fill="#4f3cc9"/><path d="M703.4,363.47q2.58-4.52,8.87-6.29a62.42,62.42,0,0,1,16.45-1.77q10.15,0,16.28,2.09t8.71,6.78a24.14,24.14,0,0,1,3.06,8.54,96.23,96.23,0,0,1,.49,11.29V563.42q0,12.57-3.07,18.54a15.15,15.15,0,0,1-9.35,7.9,53.93,53.93,0,0,1-15.64,1.94q-9.36,0-14.83-1.62a25.31,25.31,0,0,1-8.39-3.87,12.56,12.56,0,0,1-4.19-6.45q-1.93-5.48-1.94-16.77V523.75H612.46q-22.58,0-26.77-12.25a47.9,47.9,0,0,1-1.61-13.87,62.94,62.94,0,0,1,1-12.9l26.77-108q1.94-7.41,3.39-11.29A18,18,0,0,1,621,358a17,17,0,0,1,11.13-3.55A55.12,55.12,0,0,1,647,356.7q22.57,6.12,22.58,20.64a55.09,55.09,0,0,1-2.26,13.54,2.41,2.41,0,0,0-.32,1l-19.67,78.69h52.56v-88a87.68,87.68,0,0,1,.49-11A23,23,0,0,1,703.4,363.47Z" fill="#77e0b5"/><path d="M729.2,594.8c-6.6,0-11.73-.57-15.68-1.74a27.81,27.81,0,0,1-9.38-4.38,15.47,15.47,0,0,1-5.2-7.88c-1.4-4-2.09-9.8-2.09-17.71V526.75H612.46c-16.41,0-26.37-4.81-29.61-14.29-1.2-3.82-1.77-8.65-1.77-14.83a64.88,64.88,0,0,1,1-13.58L608.9,376c1.32-5.06,2.49-9,3.49-11.62a21.11,21.11,0,0,1,6.72-8.69,20,20,0,0,1,13-4.22,58.77,58.77,0,0,1,15.64,2.37c16.43,4.46,24.77,12.38,24.77,23.53a57.22,57.22,0,0,1-2.36,14.32l-.08.29-.14.27v0l-.08.33-18.74,75h45.72v-85a89.51,89.51,0,0,1,.52-11.37A25.51,25.51,0,0,1,700.8,362c2.11-3.7,5.7-6.29,10.65-7.69a65.87,65.87,0,0,1,17.27-1.88c7.06,0,12.86.76,17.25,2.25,4.79,1.65,8.28,4.39,10.36,8.16a27.28,27.28,0,0,1,3.42,9.63,99.83,99.83,0,0,1,.51,11.66V563.42c0,8.94-1.11,15.46-3.4,19.91a18.12,18.12,0,0,1-11.14,9.4A57.1,57.1,0,0,1,729.2,594.8ZM632.13,357.44a14,14,0,0,0-9.23,2.87,15.29,15.29,0,0,0-4.89,6.15c-.93,2.47-2,6.17-3.29,11L588,485.45a60.45,60.45,0,0,0-.88,12.18,45.3,45.3,0,0,0,1.47,13c2.3,6.71,10.35,10.15,23.91,10.15h90.39v42.34c0,7.16.6,12.46,1.77,15.77l0,.13a9.44,9.44,0,0,0,3.16,5,22.37,22.37,0,0,0,7.39,3.36,51.74,51.74,0,0,0,14,1.5A51.12,51.12,0,0,0,744,587a12.18,12.18,0,0,0,7.57-6.4c1.81-3.53,2.73-9.31,2.73-17.17V384.11a97.4,97.4,0,0,0-.46-10.92,21.73,21.73,0,0,0-2.72-7.47c-1.36-2.45-3.67-4.22-7.05-5.38-3.76-1.28-8.91-1.93-15.31-1.93a60.06,60.06,0,0,0-15.64,1.66c-3.43,1-5.75,2.57-7.08,4.89h0a20.3,20.3,0,0,0-2.69,7,87.6,87.6,0,0,0-.46,10.56v91H643.44L664,391.34a5.79,5.79,0,0,1,.46-1.5,51.48,51.48,0,0,0,2.09-12.5c0-8.22-6.66-14-20.36-17.75A52.84,52.84,0,0,0,632.13,357.44Z" fill="#4f3cc9"/><path d="M931.37,608.1l-10.26-2.23-2.33-10.25a.8.8,0,0,0-1.56,0l-2.34,10.29-10.27,2.44a.79.79,0,0,0,0,1.55l10.26,2.24,2.33,10.24a.8.8,0,0,0,1.56,0l2.34-10.29,10.27-2.44a.79.79,0,0,0,0-1.55Z" fill="#4f3cc9"/><path d="M955,564.66l-6.7-1.46-1.52-6.68a.52.52,0,0,0-1,0l-1.53,6.71-6.7,1.59a.53.53,0,0,0-.4.52.51.51,0,0,0,.41.5l6.7,1.46,1.52,6.69a.53.53,0,0,0,1,0l1.52-6.72,6.71-1.59a.52.52,0,0,0,.4-.51A.52.52,0,0,0,955,564.66Z" fill="#4f3cc9"/><path d="M209,642.66l-6.7-1.46-1.52-6.68a.52.52,0,0,0-1,0l-1.53,6.71-6.7,1.59a.53.53,0,0,0-.4.52.51.51,0,0,0,.41.5l6.7,1.46,1.52,6.69a.53.53,0,0,0,1,0l1.52-6.72,6.71-1.59a.52.52,0,0,0,.4-.51A.52.52,0,0,0,209,642.66Z" fill="#4f3cc9"/><path d="M776.48,623l14-23s13-3,20-13c0,0,9.65-4,14.53-12.79a1.63,1.63,0,0,0-1.86-2.34L807.48,576l6-11s14.76-10.33,20.18-19a1.52,1.52,0,0,0-2-2.16L799.48,560l-37.93,48.11Z" fill="#fff"/><path d="M777.06,627.82l-19.52-19.47,40-50.73,32.81-16.41a4.52,4.52,0,0,1,5.85,6.44c-5.12,8.13-17.54,17.32-20.42,19.39l-2.34,4.29,8.95-2.36a4.64,4.64,0,0,1,4.84,1.65,4.58,4.58,0,0,1,.4,5c-4.52,8.13-12.59,12.49-15.19,13.73-6.36,8.55-16.47,12.14-20,13.18Zm-11.5-19.94,10.34,10.3,12.67-20.82,1.23-.28c.12,0,12-2.9,18.22-11.8l.5-.71.8-.34a31.74,31.74,0,0,0,11.09-8.53l-18.9,5L811.18,563l.58-.41A117.31,117.31,0,0,0,827,549.59l-25.59,12.79Z" fill="#4f3cc9"/><path d="M929.48,849h49l27.79-6.23c2.11-.31,20.31,8.81,33.23,15.46a2.76,2.76,0,0,1-1.6,5.19c-10.28-1.27-23.28-3.19-29.42-5.42l-14,3,5,4s15,0,18.91,4c1.45,1.48,1.77,3.44-.29,3.64L983.48,876l-16-4-35-1Z" fill="#fff"/><path d="M983.25,879l-16.18-4-37.22-1.06L926,846h52.1l27.69-6.2c1.46-.22,3.45-.51,35,15.77a5.75,5.75,0,0,1-3.33,10.82c-14-1.72-23.85-3.49-29.25-5.28l-4.74,1c5.25.31,13.62,1.34,17,4.75,1.77,1.8,2.45,4.06,1.78,5.91a4.46,4.46,0,0,1-3.92,2.83Zm-48.14-11,32.78.94,15.81,4,30.59-3c-3.33-1.25-9.6-2-14.81-2h-1.06l-10.76-8.61,21-4.5.81.29c4.54,1.65,14,3.41,27.4,5.09-23.72-12.19-29.24-14.16-30.45-14.47L978.81,852h-45.9Zm71.1-22.32Z" fill="#4f3cc9"/><polygon points="550.31 735.26 537.15 699.53 507.15 710.02 522.33 754.58 550.31 735.26" fill="#fff"/><path d="M520.77,759.3l-17.42-51.13,35.59-12.45,15,40.69ZM511,711.87l12.94,38,22.8-15.74-11.34-30.78Z" fill="#4f3cc9"/><path d="M540,689l2.19,19s-28.62-3.77-33.86,11.93l-42.1-20a3.06,3.06,0,0,1,.86-5.78l66.48-10.08A5.63,5.63,0,0,1,540,689Z" fill="#f582ae"/><path d="M510.06,724.12l-45.16-21.5a6.06,6.06,0,0,1,1.7-11.46l66.48-10.07a8.63,8.63,0,0,1,9.86,7.55l2.63,22.85-3.81-.5c-.26,0-26.23-3.25-30.62,9.91ZM534.38,687a2.6,2.6,0,0,0-.4,0L467.5,697.09a.1.1,0,0,0-.05.11l39.36,18.73c6.44-11.26,24.1-11.64,31.94-11.21L537,689.32a2.6,2.6,0,0,0-1-1.79A2.65,2.65,0,0,0,534.38,687Z" fill="#4f3cc9"/><polygon points="440.6 725.38 406.04 709.38 392.21 737.99 434.43 758.82 440.6 725.38" fill="#fff"/><path d="M436.66,763.26l-48.44-23.89,16.41-34L444,723.64Zm-40.45-26.64,36,17.75,5-27.24-29.76-13.79Z" fill="#4f3cc9"/><path d="M400.59,699.92l15,11.94S392.66,729.4,400,744.22l-44,15.54a3.06,3.06,0,0,1-3.48-4.7L392.55,701A5.64,5.64,0,0,1,400.59,699.92Z" fill="#f582ae"/><path d="M355,762.94a6.06,6.06,0,0,1-4.85-9.66l39.95-54.08a8.61,8.61,0,0,1,12.31-1.62l18,14.32-3.05,2.34c-.21.16-20.86,16.22-14.68,28.64l1.51,3-47.15,16.67A6,6,0,0,1,355,762.94Zm42-61.24a2.17,2.17,0,0,0-.36,0,2.6,2.6,0,0,0-1.77,1L355,756.85s0,.09,0,.11l41.1-14.54c-3.4-12.52,8.84-25.27,14.69-30.5l-12.12-9.65A2.57,2.57,0,0,0,397.09,701.7Z" fill="#4f3cc9"/><polygon points="666.48 801 527.48 767 439.48 722 425.48 766 510.48 818 584.48 843 672.48 862 666.48 801" fill="#77e0b5"/><path d="M675.87,865.8l-92.35-20L509.2,820.73l-.29-.17-87-53.23,15.79-49.61,90.84,46.45,140.72,34.42Zm-90.59-25.7,83.81,18.1-5.39-54.79L526.42,769.83l-.31-.16-84.85-43.39-12.21,38.39,82.7,50.6Z" fill="#4f3cc9"/><path d="M682.48,807h-92l-41-85-36,27L548.3,853.46A26.45,26.45,0,0,0,574,871.54L682.48,869Z" fill="#77e0b5"/><path d="M573.38,874.55a29.31,29.31,0,0,1-27.93-20.14L510,747.9l40.64-30.49L592.36,804h93.12v67.93l-111.39,2.61ZM517,750.1l34.13,102.41a23.34,23.34,0,0,0,22.24,16H574l105.53-2.47V810H588.59l-40.23-83.41Z" fill="#4f3cc9"/><path d="M796.48,780l16-24s-6-23,1-29,42-4,42-4,5,58-23,52l-24,48Z" fill="#fff"/><path d="M807.68,831.3l-14.46-51.82,16-24c-1.47-6.13-5.09-24.4,2.28-30.72,7.54-6.46,38.08-5.06,44.13-4.72l2.59.15.23,2.59c.13,1.59,3.18,39-11,51.52a16.49,16.49,0,0,1-13.31,4Zm-7.94-50.78,9.53,34.18,21.56-43.12,2.28.49c4.21.9,7.61.15,10.4-2.31,9.12-8,9.78-32.35,9.16-43.9-14-.6-33.3,0-37.24,3.42s-2.35,17.17,0,26l.34,1.3Z" fill="#4f3cc9"/><path d="M752.48,689l52.07,77.84L812.48,797l11.2-4.4,25.8,31.4,105,19v30l-96-5-72-29s-66,31-126,32l-10-76s48-2,88-38l-28.83-62.47a27.06,27.06,0,0,1,3.78-28.67L772.48,595l23,28Z" fill="#f582ae"/><path d="M957.48,876.16,857.82,871l-.46-.19-70.81-28.52c-9.28,4.19-70.51,30.81-126,31.74l-2.68,0-10.78-81.9,3.28-.14c.46,0,46.12-2.36,84.47-35.77l-27.9-60.44a30.2,30.2,0,0,1,4.2-31.85l61.37-73.65,26.7,32.5L756.07,689l51.25,76.61,7.2,27.38,10.09-4,26.48,32.23,106.39,19.25ZM859.13,865l92.35,4.81V845.51L847.86,826.76l-25.12-30.57L810.43,801l-8.66-32.94L748.88,689l42.88-65.81-19.3-23.5-56.73,68.07a24.2,24.2,0,0,0-3.36,25.5l29.76,64.47-1.65,1.48c-34.8,31.32-75,37.39-86.62,38.52l9.24,70.19c58-1.83,121.46-31.35,122.1-31.66l1.18-.55Z" fill="#4f3cc9"/><path d="M865.48,737s-20,9-39-2c0,0-11.48-4-8,18l-6,8s-14-13-13-27c0,0-26.29-6.81-8.48-27,15-17,23.48,2,23.48,2S860.48,687,865.48,737Z" fill="#4f3cc9"/><path d="M774.17,847.53,772,841.92c20.58-7.87,40.86-34.46,41.06-34.73l4.79,3.62C817,812,796.34,839,774.17,847.53Z" fill="#4f3cc9"/><rect x="738.94" y="738.86" width="6" height="41.97" transform="translate(-281.13 474.96) rotate(-30.12)" fill="#4f3cc9"/></svg>