<svg xmlns="http://www.w3.org/2000/svg" width="1200" height="1200" viewBox="0 0 1200 1200"><path d="M356.64,762.38V502.65H300.46L114,768.08v40.71H304.53V917.9h52.11V808.79H399V762.38Zm-52.11,3.26H165.3L304.53,562.09Z" fill="#f582ae"/><path d="M359.64,920.9H301.53V811.79H111V767.14l.54-.78L298.9,499.65h60.74V759.38H402v52.41H359.64Zm-52.11-6h46.11V805.79H396V765.38H353.64V505.65H302L117,769v36.76H307.53Zm0-146.26H159.61L307.53,552.39Zm-136.55-6H301.53V571.79Z" fill="#4f3cc9"/><path d="M1035.89,762.38V502.65H979.71L793.25,768.08v40.71H983.78V917.9h52.11V808.79h42.34V762.38Zm-52.11,3.26H844.55L983.78,562.09Z" fill="#f582ae"/><path d="M1038.89,920.9H980.78V811.79H790.25V767.14l.55-.78L978.15,499.65h60.74V759.38h42.34v52.41h-42.34Zm-52.11-6h46.11V805.79h42.34V765.38h-42.34V505.65H981.27L796.25,769v36.76H986.78Zm0-146.26H838.86L986.78,552.39Zm-136.55-6H980.78V571.79Z" fill="#4f3cc9"/><path d="M1003.52,363.17l-8.5-1.85-1.93-8.48a.65.65,0,0,0-.64-.52.64.64,0,0,0-.64.52l-1.94,8.52-8.51,2a.66.66,0,0,0,0,1.28l8.51,1.85,1.93,8.49a.64.64,0,0,0,.64.51.65.65,0,0,0,.64-.51l1.94-8.53,8.51-2a.66.66,0,0,0,0-1.29Z" fill="#4f3cc9"/><path d="M289.46,364.44,281,362.59,279,354.11a.65.65,0,0,0-1.28,0l-1.94,8.52-8.51,2a.66.66,0,0,0-.51.65.68.68,0,0,0,.52.64l8.51,1.85,1.93,8.48a.66.66,0,0,0,1.28,0l1.94-8.52,8.51-2a.66.66,0,0,0,.51-.65A.67.67,0,0,0,289.46,364.44Z" fill="#4f3cc9"/><path d="M949.68,313.19l-5.56-1.2-1.25-5.54a.44.44,0,0,0-.42-.34.42.42,0,0,0-.42.34L940.76,312l-5.55,1.32a.41.41,0,0,0-.33.42.43.43,0,0,0,.33.42l5.56,1.21,1.26,5.54a.42.42,0,0,0,.42.33.44.44,0,0,0,.42-.33l1.26-5.57,5.55-1.32a.43.43,0,0,0,.34-.42A.46.46,0,0,0,949.68,313.19Z" fill="#4f3cc9"/><polygon points="913.34 917.9 345 917.9 499 502.65 760.25 502.65 913.34 917.9" fill="#fff"/><path d="M917.64,920.9H340.69L496.91,499.65H762.34l.73,2Zm-568.33-6H909L758.16,505.65H501.09Z" fill="#4f3cc9"/><path d="M766.72,391.27H494.16c14.77-54.15,70.18-94.41,136.28-94.41S752,337.12,766.72,391.27Z" fill="#fff"/><path d="M770.65,394.27H490.23l1-3.79c7.39-27.13,25.17-51.7,50.06-69.18,25.55-17.95,56.37-27.44,89.11-27.44s63.56,9.49,89.12,27.44c24.88,17.48,42.66,42.05,50.06,69.18Zm-272.49-6H762.72c-16.27-52.25-70-88.41-132.28-88.41S514.43,336,498.16,388.27Z" fill="#4f3cc9"/><ellipse cx="629.63" cy="439.86" rx="306.17" ry="76.08" fill="#77e0b5"/><path d="M629.63,518.94c-82,0-159.16-7.94-217.22-22.37-28.4-7.06-50.74-15.31-66.41-24.51-16.95-10-25.54-20.79-25.54-32.2s8.59-22.25,25.54-32.2c15.67-9.21,38-17.46,66.41-24.51,58.06-14.43,135.2-22.38,217.22-22.38s159.16,8,217.21,22.38c28.4,7.05,50.74,15.3,66.41,24.51,17,9.95,25.54,20.79,25.54,32.2s-8.59,22.24-25.54,32.2c-15.67,9.2-38,17.45-66.41,24.51C788.79,511,711.64,518.94,629.63,518.94Zm0-152.17c-81.55,0-158.18,7.89-215.77,22.2-55.55,13.8-87.4,32.35-87.4,50.89s31.85,37.08,87.4,50.89c57.59,14.31,134.22,22.19,215.77,22.19s158.17-7.88,215.77-22.19c55.54-13.81,87.39-32.36,87.39-50.89S900.94,402.77,845.4,389C787.8,374.66,711.17,366.77,629.63,366.77Z" fill="#4f3cc9"/><path d="M477.49,464.76c13.57-10.79,53.81-32.92,156.26-33.61,0,0,117.61,5.6,144.29,33.24a9.41,9.41,0,0,1,1.52,11.07l-17.48,31.77-267.92.88L475.33,476.9A9.34,9.34,0,0,1,477.49,464.76Z" fill="#fff"/><path d="M492.47,511.11l-19.71-32.66a12.37,12.37,0,0,1,2.86-16c15.72-12.5,57.15-33.58,158.11-34.26h.16c4.85.23,119.12,6,146.31,34.16a12.37,12.37,0,0,1,2,14.6l-18.33,33.32Zm-15-46.35,1.87,2.35a6.35,6.35,0,0,0-1.46,8.24l18,29.75,264.46-.86L776.93,474a6.39,6.39,0,0,0-1-7.54c-25.27-26.2-138.59-32.15-142.19-32.33-102.8.7-142.17,23.28-154.33,33Z" fill="#4f3cc9"/><ellipse cx="627.56" cy="505.17" rx="134.06" ry="30.48" fill="#f582ae"/><path d="M627.56,538.65c-66.44,0-137.06-11.73-137.06-33.48s70.62-33.48,137.06-33.48,137.07,11.73,137.07,33.48S694,538.65,627.56,538.65Zm0-61c-35.59,0-69,3.14-94.13,8.85-27.23,6.19-36.93,13.68-36.93,18.63s9.7,12.44,36.93,18.63c25.11,5.71,58.54,8.85,94.13,8.85s69-3.14,94.14-8.85c27.22-6.19,36.93-13.68,36.93-18.63s-9.71-12.44-36.93-18.63C696.59,480.83,663.16,477.69,627.56,477.69Z" fill="#4f3cc9"/><ellipse cx="438.04" cy="431.73" rx="12.84" ry="16.04" transform="translate(-154.86 595.22) rotate(-60)" fill="#fff"/><path d="M440.94,448.44a21.71,21.71,0,0,1-10.81-3A21.17,21.17,0,0,1,420.89,435a14.1,14.1,0,0,1,11.42-19.78,22,22,0,0,1,22.89,13.22,14.1,14.1,0,0,1-11.42,19.77A17.84,17.84,0,0,1,440.94,448.44ZM435.16,421a12.61,12.61,0,0,0-2,.15,8.14,8.14,0,0,0-6.73,11.67,16,16,0,0,0,16.4,9.46,8.7,8.7,0,0,0,6.46-4h0a8.67,8.67,0,0,0,.27-7.62,15.09,15.09,0,0,0-6.65-7.42A15.72,15.72,0,0,0,435.16,421Z" fill="#4f3cc9"/><ellipse cx="527.88" cy="405.14" rx="12.84" ry="16.04" transform="translate(-135.7 355.6) rotate(-33.24)" fill="#fff"/><path d="M530.71,423.3a16.7,16.7,0,0,1-5.14-.84,21.16,21.16,0,0,1-10.94-8.64c-5.75-8.78-4.49-19.82,2.81-24.6a14.53,14.53,0,0,1,12.74-1.39,22,22,0,0,1,14.49,22.11,14.53,14.53,0,0,1-6.36,11.13h0A13.74,13.74,0,0,1,530.71,423.3ZM525.07,393a7.89,7.89,0,0,0-4.34,1.24c-4.54,3-5,10.29-1.08,16.31a15.15,15.15,0,0,0,7.78,6.21,8.7,8.7,0,0,0,7.6-.7h0a8.69,8.69,0,0,0,3.67-6.68,16,16,0,0,0-10.38-15.84A10.54,10.54,0,0,0,525.07,393Z" fill="#4f3cc9"/><ellipse cx="818.87" cy="431.73" rx="16.04" ry="12.84" transform="translate(-106.16 467.27) rotate(-30)" fill="#fff"/><path d="M816,448.44a17.84,17.84,0,0,1-2.84-.22,14.52,14.52,0,0,1-10.75-7h0a14.56,14.56,0,0,1-.67-12.8,22,22,0,0,1,22.89-13.22A14.1,14.1,0,0,1,836,435a21.17,21.17,0,0,1-9.24,10.43A21.71,21.71,0,0,1,816,448.44ZM821.75,421a15.72,15.72,0,0,0-7.8,2.2,15.09,15.09,0,0,0-6.65,7.42,8.67,8.67,0,0,0,.27,7.62h0a8.7,8.7,0,0,0,6.46,4,16,16,0,0,0,16.4-9.46,8.14,8.14,0,0,0-6.73-11.67A12.61,12.61,0,0,0,821.75,421Z" fill="#4f3cc9"/><ellipse cx="729.03" cy="405.14" rx="16.04" ry="12.84" transform="translate(-9.41 792.86) rotate(-56.76)" fill="#fff"/><path d="M726.18,423.28a13.66,13.66,0,0,1-7.58-2.21c-7.31-4.79-8.57-15.82-2.81-24.61s16.38-12,23.68-7.24,8.56,15.82,2.81,24.6C738.33,419.86,732.07,423.28,726.18,423.28Zm5.63-30.3c-3.89,0-8.2,2.48-11,6.77-3.94,6-3.45,13.33,1.08,16.3h0c4.54,3,11.44.5,15.38-5.51s3.46-13.33-1.08-16.3A7.82,7.82,0,0,0,731.81,393Z" fill="#4f3cc9"/><circle cx="629.17" cy="395.4" r="15.13" fill="#fff"/><path d="M629.17,413.52a18.13,18.13,0,1,1,18.12-18.12A18.14,18.14,0,0,1,629.17,413.52Zm0-30.25a12.13,12.13,0,1,0,12.12,12.13A12.14,12.14,0,0,0,629.17,383.27Z" fill="#4f3cc9"/><rect x="472.37" y="361.53" width="6" height="104.16" transform="translate(-144.19 528.46) rotate(-51.53)" fill="#4f3cc9"/><rect x="395.49" y="378.55" width="6" height="154.5" transform="translate(-131.51 748.45) rotate(-77.74)" fill="#4f3cc9"/><rect x="570.27" y="363.57" width="6" height="71.85" transform="translate(-101.27 217.18) rotate(-19.75)" fill="#4f3cc9"/><rect x="645.69" y="396.79" width="73.24" height="6" transform="translate(67.45 897.11) rotate(-69.33)" fill="#4f3cc9"/><rect x="727.22" y="410.28" width="106.06" height="6" transform="translate(-89.2 567.08) rotate(-37.94)" fill="#4f3cc9"/><rect x="779.25" y="451.51" width="157.55" height="6" transform="translate(-71.27 173.09) rotate(-11.06)" fill="#4f3cc9"/><path d="M480.92,485.42l-3.75-4.69c1.56-1.25,39.49-30.58,152.89-31.5l.05,6C519.19,456.13,481.29,485.12,480.92,485.42Z" fill="#4f3cc9"/><path d="M773.3,485.24c-.22-.21-23.06-21.08-98.58-28.19l.56-6c78.07,7.35,101.23,28.92,102.18,29.83l-4.17,4.32,2.08-2.16Z" fill="#4f3cc9"/><rect x="499.34" y="479.77" width="6" height="13.57" transform="translate(-174.43 310.29) rotate(-29.49)" fill="#4f3cc9"/><rect x="526.81" y="471.31" width="6" height="12.82" transform="translate(-95.59 134.52) rotate(-13.28)" fill="#4f3cc9"/><rect x="564.63" y="465.02" width="6" height="12.84" transform="translate(-54.36 74.47) rotate(-7.16)" fill="#4f3cc9"/><rect x="694.18" y="470.12" width="12.98" height="6" transform="translate(49.22 1012.01) rotate(-73.63)" fill="#4f3cc9"/><rect x="717.71" y="474.5" width="12.82" height="6" transform="translate(26.1 992.4) rotate(-69.82)" fill="#4f3cc9"/><rect x="745.67" y="483.84" width="12.14" height="6" transform="translate(-43.89 898.05) rotate(-60.26)" fill="#4f3cc9"/><rect x="555.67" y="479.16" width="4" height="77.58" fill="#4f3cc9"/><rect x="600.58" y="512.73" width="4" height="35.75" fill="#4f3cc9"/><rect x="514.42" y="772.15" width="4" height="35.75" fill="#4f3cc9"/><rect x="667.5" y="502.65" width="4" height="108.17" fill="#4f3cc9"/><rect x="704.17" y="480.65" width="4" height="82.5" fill="#4f3cc9"/><rect x="736.25" y="548.48" width="4" height="65.08" fill="#4f3cc9"/><rect x="680.33" y="809.73" width="4" height="65.08" fill="#4f3cc9"/><path d="M597.81,314.75l-1.07-5.9a129.92,129.92,0,0,1,12.94-1.69l.48,6A121.46,121.46,0,0,0,597.81,314.75Z" fill="#4f3cc9"/><path d="M516.37,373.79l-5.4-2.61c.92-1.92,23.34-47.1,78.18-60.71l1.45,5.83C538.57,329.2,516.58,373.35,516.37,373.79Z" fill="#4f3cc9"/><path d="M612.54,780.42a53.23,53.23,0,0,1,1.83,23.89c-1.83,12.14-9,29-32.55,40.54l-.9.44c-11.41,5.51-17.22,10.66-13.13,20.64a15.72,15.72,0,0,0,11.52,9.24,19.09,19.09,0,0,0,9.19-.29,4.1,4.1,0,0,1,4.78,2.14h0a4.09,4.09,0,0,1-2.51,5.75,27.47,27.47,0,0,1-13.11.45A23.92,23.92,0,0,1,560.19,869c-3.34-8.15-2.24-15.67,3.2-21.74,4.21-4.7,10.08-7.54,14-9.41l.87-.42c16.36-8,25.79-19.56,28-34.39a45,45,0,0,0-1.43-19.87Z" fill="#fff"/><path d="M583.38,885.81a30.42,30.42,0,0,1-6.12-.63,25.92,25.92,0,0,1-18.92-15.38c-3.66-8.91-2.42-17.16,3.56-23.84,4.47-5,10.55-7.93,14.57-9.87l.88-.42c15.72-7.68,24.78-18.75,26.91-32.88a43.44,43.44,0,0,0-1.33-18.91l-.67-1.88,11.48-4.14.68,1.89a55.11,55.11,0,0,1,1.92,24.86c-1.9,12.61-9.28,30.14-33.64,42l-.91.44c-12.36,6-15.31,10.36-12.15,18.08a13.76,13.76,0,0,0,10.07,8,17.14,17.14,0,0,0,8.23-.25,6.1,6.1,0,0,1,3.38,11.73A28.47,28.47,0,0,1,583.38,885.81Zm23.88-101.36a48.84,48.84,0,0,1,1,18.93c-2.34,15.52-12.14,27.59-29.12,35.88l-.88.43c-3.74,1.81-9.39,4.54-13.34,8.94C560,854.09,559,860.89,562,868.29a21.91,21.91,0,0,0,16,13,25.33,25.33,0,0,0,12.16-.41,2,2,0,0,0,1.3-1.14,2.12,2.12,0,0,0,0-1.81,2.09,2.09,0,0,0-2.43-1.1,21,21,0,0,1-10.15.33,17.78,17.78,0,0,1-13-10.44c-5.17-12.62,4.57-18.6,14.11-23.2l.9-.44c22.8-11.13,29.68-27.37,31.44-39a52.62,52.62,0,0,0-1.15-21Z" fill="#4f3cc9"/><path d="M626,808l-4.52,26.16a8,8,0,0,0,15.69,2.7l4.54-26.3L658,759.25s-19.93-13.48-31.63-4.5C616,762.67,612.77,792,626,808Z" fill="#fff"/><path d="M629.34,845.46a10.08,10.08,0,0,1-1.72-.15,10,10,0,0,1-8.12-11.5l4.36-25.27c-6.62-8.51-9.68-21.16-8.22-34.07,1.1-9.62,4.65-17.59,9.51-21.31,12.69-9.74,33.1,3.85,34,4.43l1.24.84L643.65,811l-4.52,26.16a9.95,9.95,0,0,1-9.79,8.27Zm6.9-91.8a13.88,13.88,0,0,0-8.66,2.67c-4,3-7,10.16-8,18.59-1.39,12.23,1.57,24.11,7.91,31.8l.58.71-4.67,27.06a6,6,0,0,0,11.75,2L639.8,810l15.81-49.83C652.48,758.24,644,753.66,636.24,753.66Z" fill="#4f3cc9"/><path d="M567.65,758.3l-4.85,28.08a8,8,0,0,0,6.49,9.2h0a8,8,0,0,0,9.2-6.49L583.34,761Z" fill="#fff"/><path d="M570.67,797.7a10.08,10.08,0,0,1-1.72-.15A10,10,0,0,1,560.83,786L566,756l19.63,3.39-5.19,30.06a10,10,0,0,1-9.79,8.27Zm-1.39-37.09-4.51,26.11a6,6,0,1,0,11.75,2L581,762.63Z" fill="#4f3cc9"/><line x1="568.28" y1="781.85" x2="566.13" y2="794.29" fill="#f582ae"/><rect x="560.89" y="786.57" width="12.62" height="3" transform="translate(-305.8 1213.1) rotate(-80.22)" fill="#4f3cc9"/><line x1="572.66" y1="783.65" x2="570.56" y2="795.8" fill="#f582ae"/><rect x="565.44" y="788.23" width="12.33" height="3" transform="translate(-303.77 1218.81) rotate(-80.22)" fill="#4f3cc9"/><line x1="633.52" y1="830.75" x2="631.38" y2="843.19" fill="#f582ae"/><rect x="626.14" y="835.47" width="12.62" height="3" transform="translate(-299.82 1317.99) rotate(-80.22)" fill="#4f3cc9"/><line x1="628.8" y1="830.98" x2="626.7" y2="843.13" fill="#f582ae"/><rect x="621.59" y="835.55" width="12.32" height="3" transform="translate(-303.81 1313.42) rotate(-80.22)" fill="#4f3cc9"/><path d="M672.18,702.17c.1,1.09.2,2.17.29,3.24a147.5,147.5,0,0,1-.45,30c-5.59,44.43-33,53-33,53-53,13.31-73.16-28.09-73.16-28.09a60.13,60.13,0,0,1-3-22.47,113.54,113.54,0,0,1,5.85-29.9,163.47,163.47,0,0,1,12.07-28c1.45-18.1,13.68-44.3,13.68-44.3.89-15.59,3.42-24.49,3.42-24.49,9,2,20.08,11.36,20.08,11.36,17.27-1.89,37.07,8.37,37.07,8.37,8.93-6.93,29.15-5.53,29.15-5.53,0,11.58-8,26.1-8,26.1C679.8,670.73,672.18,702.17,672.18,702.17Z" fill="#fff"/><path d="M619,793c-17.15,0-29.54-6-37.6-12.06a60.05,60.05,0,0,1-17.3-19.76L564,761a62,62,0,0,1-3.07-23.23,114.36,114.36,0,0,1,5.94-30.43,165.82,165.82,0,0,1,12-27.94c1.53-17.28,12.15-40.89,13.66-44.18.91-15.4,3.36-24.18,3.47-24.55l.51-1.82,1.85.42c8.2,1.84,17.68,9.16,20.26,11.24,15.28-1.33,31.84,6,36.26,8.11,9.8-6.48,28.65-5.26,29.47-5.2l1.86.13v1.86c0,10.71-6.33,23.44-7.91,26.44,3.15,18.61-3.29,46.93-4.13,50.48.09,1,.18,2,.26,3A149.65,149.65,0,0,1,674,735.7c-5.68,45.18-33.19,54.25-34.36,54.61l-.11,0A84.16,84.16,0,0,1,619,793Zm-51.26-33.48a57.55,57.55,0,0,0,16.19,18.32c14.93,11,33.29,13.95,54.57,8.63,1.14-.4,26.3-9.56,31.54-51.29a145.23,145.23,0,0,0,.44-29.62c-.07-1-.17-2-.26-3l-.05-.57.08-.32c.07-.31,7.47-31.26,4-49.84l-.12-.7.34-.63c.07-.13,6.9-12.63,7.68-23.22-5.14-.13-19.18,0-25.86,5.19l-1,.79-1.13-.59c-.2-.1-19.48-10-35.94-8.15l-.85.1-.66-.56c-.09-.08-9.28-7.78-17.33-10.41a139,139,0,0,0-2.87,22.13l0,.38-.17.35c-.12.26-12.09,26.08-13.49,43.6l0,.45-.22.39a163.79,163.79,0,0,0-11.91,27.58,110.85,110.85,0,0,0-5.75,29.36A58.3,58.3,0,0,0,567.73,759.53Z" fill="#4f3cc9"/><path d="M665.49,679.34s1.67-35.42-9.06-41.53c0,0-11.3-3.6-9.34,11.06,0,0,.91,12.31-1.58,23.33" fill="#fff"/><path d="M667.48,679.43l-4-.18c.44-9.44-.12-34.76-7.85-39.58-.72-.18-3.39-.72-5.06.7s-2.05,4.14-1.51,8.23v.12c0,.52.9,12.74-1.62,23.92l-3.9-.88c2.31-10.24,1.6-21.8,1.54-22.69-.73-5.58.25-9.54,2.92-11.78,3.64-3,8.8-1.45,9-1.38l.38.16C668.88,642.6,667.66,675.68,667.48,679.43Z" fill="#4f3cc9"/><path d="M605.74,663a99.64,99.64,0,0,1,5.2-23.05s4-8.56-3.14-11.76c0,0-12.27-4.9-20,24.16" fill="#fff"/><path d="M607.74,663.11l-4-.29a100.81,100.81,0,0,1,5.3-23.56l.08-.19s1.64-3.6.6-6.38a4.76,4.76,0,0,0-2.67-2.67,6.48,6.48,0,0,0-4.86.77c-3.51,1.84-8.52,7.16-12.5,22l-3.86-1c3.53-13.24,8.49-21.54,14.73-24.67a10.08,10.08,0,0,1,8-.83,8.74,8.74,0,0,1,4.94,5c1.51,4.07-.34,8.58-.68,9.36A97.67,97.67,0,0,0,607.74,663.11Z" fill="#4f3cc9"/><ellipse cx="625.81" cy="654.4" rx="3.08" ry="4.37" transform="matrix(0.17, -0.99, 0.99, 0.17, -125.49, 1159.79)" fill="#4f3cc9"/><path d="M612.33,664.58s10.45,2.84,13-8.71" fill="#fff"/><path d="M615.08,666.88a13.73,13.73,0,0,1-3.28-.37l1-3.87a9.48,9.48,0,0,0,6.62-.89c1.92-1.17,3.22-3.29,3.88-6.3l3.91.85c-.9,4.14-2.83,7.13-5.74,8.89A12.34,12.34,0,0,1,615.08,666.88Z" fill="#4f3cc9"/><path d="M635.1,668.51s-10.8-.82-9.3-12.55" fill="#fff"/><path d="M635,670.5a13.43,13.43,0,0,1-8.71-4.49c-2.15-2.64-3-6.1-2.42-10.3l4,.5c-.39,3.07.13,5.52,1.56,7.27a9.47,9.47,0,0,0,5.91,3Z" fill="#4f3cc9"/><circle cx="641.08" cy="647.78" r="3.85" fill="#4f3cc9"/><circle cx="615.72" cy="642.05" r="3.85" fill="#4f3cc9"/><circle cx="620.07" cy="712.95" r="8.25" fill="#f582ae"/><path d="M620.07,723.2A10.25,10.25,0,1,1,630.32,713,10.26,10.26,0,0,1,620.07,723.2Zm0-16.5a6.25,6.25,0,1,0,6.25,6.25A6.25,6.25,0,0,0,620.07,706.7Z" fill="#4f3cc9"/><path d="M639.77,710.5a87,87,0,0,1-39.09-8.81,75.09,75.09,0,0,1-22.17-16.51,3,3,0,0,1,.46-4.43h0a3,3,0,0,1,4,.42,69.57,69.57,0,0,0,20.66,15.3c19,9.38,42.1,10.56,66.84,3.45a3,3,0,0,1,3.66,2h0a3,3,0,0,1-2,3.79A116.9,116.9,0,0,1,639.77,710.5Z" fill="#4f3cc9"/></svg>